<?xml version="1.0" standalone="no"?>
<!DOCTYPE svg PUBLIC "-//W3C//DTD SVG 1.1//EN" "http://www.w3.org/Graphics/SVG/1.1/DTD/svg11.dtd" >
<svg xmlns="http://www.w3.org/2000/svg" xmlns:xlink="http://www.w3.org/1999/xlink" version="1.1">
<metadata></metadata>
<defs>
<font id="latohairline" horiz-adv-x="668" >
<font-face units-per-em="2000" ascent="1610" descent="-390" />
<missing-glyph horiz-adv-x="570" />
<glyph unicode="&#xfb00;" horiz-adv-x="1254" d="M237 0v918l-164 4q-12 0 -12 8v8h176v140q0 84 20 145.5t55 101.5t84 59.5t108 19.5q29 0 60 -5.5t52 -16.5l-2 -8q-2 -7 -8 -6t-18.5 4.5t-33 7.5t-50.5 4q-52 0 -96.5 -16.5t-77 -53t-51 -95t-18.5 -141.5v-140h566v150q0 84 20 145.5t55 101.5t84 59.5t108 19.5 q29 0 60 -5.5t52 -16.5l-2 -8q-2 -7 -8 -6t-18.5 4.5t-33 7.5t-50.5 4q-52 0 -96.5 -16.5t-77 -53t-51 -95t-18.5 -141.5v-150h349v-20h-349v-918h-24v918h-566v-918h-24z" />
<glyph unicode="&#xfb01;" horiz-adv-x="1018" d="M240 0v918l-164 4q-12 0 -12 8v8h176v110q0 91 25.5 161.5t71.5 118t110 72t141 24.5q29 0 60 -5.5t52 -16.5l-2 -8q-2 -6 -7.5 -5t-18 4t-33 7t-51.5 4q-71 0 -130 -21.5t-102.5 -65.5t-67.5 -111t-24 -158v-110h558v-938h-24v918h-534v-918h-24z" />
<glyph unicode="&#xfb02;" horiz-adv-x="1078" d="M240 0v918l-164 4q-12 0 -12 8v8h176v76q0 91 26 166.5t75 129t120 83t161 29.5q66 0 130.5 -7t117.5 -7h12v-1408h-24v1392q-51 1 -114.5 5.5t-121.5 4.5q-85 0 -151.5 -27.5t-112.5 -78t-70 -122.5t-24 -160v-76h310v-20h-310v-918h-24z" />
<glyph unicode="&#xfb03;" horiz-adv-x="1608" d="M240 0v918l-164 4q-12 0 -12 8v8h176v140q0 84 20 145.5t55 101.5t84 59.5t108 19.5q29 0 60 -5.5t52 -16.5l-2 -8q-2 -7 -8 -6t-18.5 4.5t-33 7.5t-50.5 4q-52 0 -96.5 -16.5t-77 -53t-51 -95t-18.5 -141.5v-140h566v110q0 91 25.5 161.5t71.5 118t110 72t141 24.5 q29 0 60 -5.5t52 -16.5l-2 -8q-2 -6 -7.5 -5t-18 4t-33 7t-51.5 4q-71 0 -130 -21.5t-102.5 -65.5t-67.5 -111t-24 -158v-110h558v-938h-24v918h-534v-918h-24v918h-566v-918h-24z" />
<glyph unicode="&#xfb04;" horiz-adv-x="1665" d="M237 0v918l-164 4q-12 0 -12 8v8h176v140q0 84 20 145.5t55 101.5t84 59.5t108 19.5q29 0 60 -5.5t52 -16.5l-2 -8q-2 -7 -8 -6t-18.5 4.5t-33 7.5t-50.5 4q-52 0 -96.5 -16.5t-77 -53t-51 -95t-18.5 -141.5v-140h566v76q0 91 26 166.5t75 129t120 83t161 29.5 q66 0 130.5 -7t117.5 -7h12v-1408h-24v1392q-51 1 -114.5 5.5t-121.5 4.5q-85 0 -151.5 -27.5t-112.5 -78t-70 -122.5t-24 -160v-76h349v-20h-349v-918h-24v918h-566v-918h-24z" />
<glyph unicode="fb" horiz-adv-x="1739" d="M860 779q65 100 157.5 158.5t218.5 58.5q90 0 161 -31.5t119.5 -92.5t74 -150t25.5 -204q0 -119 -28 -217t-82 -167.5t-134 -107.5t-185 -38q-109 0 -190 43t-137 133l-4 -150q0 -5 -2 -9.5t-10 -4.5h-8v1418q-51 7 -107 12t-101 5q-103 0 -173 -28.5t-113 -79 t-62 -120.5t-19 -153v-116h349v-20h-349v-918h-24v918l-164 4q-12 0 -12 8v8h176v116q0 87 21 161t67.5 127t120.5 83t180 30q57 0 111.5 -6.5t105.5 -8.5h17v-661zM860 195q64 -103 144 -145t182 -42q104 0 180.5 37.5t126.5 105t74.5 160.5t24.5 205q0 225 -93.5 342.5 t-262.5 117.5q-62 0 -116 -16t-100.5 -45.5t-86.5 -72t-73 -95.5v-552z" />
<glyph unicode="ffb" horiz-adv-x="2329" d="M237 0v918l-164 4q-12 0 -12 8v8h176v140q0 84 20 145.5t55 101.5t84 59.5t108 19.5q29 0 60 -5.5t52 -16.5l-2 -8q-2 -7 -8 -6t-18.5 4.5t-33 7.5t-50.5 4q-52 0 -96.5 -16.5t-77 -53t-51 -95t-18.5 -141.5v-140h566v116q0 87 21 161t67.5 127t120.5 83t180 30 q61 0 120 -7.5t114 -7.5v-661q65 100 157.5 158.5t218.5 58.5q90 0 161 -31.5t119.5 -92.5t74 -150t25.5 -204q0 -119 -28 -217t-82 -167.5t-134 -107.5t-185 -38q-109 0 -190 43t-137 133l-4 -150q0 -5 -2 -9.5t-10 -4.5h-8v1418q-51 7 -107 12t-101 5q-103 0 -173 -28.5 t-113 -79t-62 -120.5t-19 -153v-116h349v-20h-349v-918h-24v918h-566v-918h-24zM1450 195q64 -103 144 -145t182 -42q104 0 180.5 37.5t126.5 105t74.5 160.5t24.5 205q0 225 -93.5 342.5t-262.5 117.5q-62 0 -116 -16t-100.5 -45.5t-86.5 -72t-73 -95.5v-552z" />
<glyph unicode="fh" horiz-adv-x="1739" d="M237 0v918l-164 4q-12 0 -12 8v8h176v116q0 87 21 161t67.5 127t120.5 83t180 30q61 0 120 -7.5t114 -7.5v-664q34 50 76.5 91t91.5 69.5t103 44t111 15.5q163 0 243.5 -97t80.5 -271v-628h-24v628q0 82 -18 146.5t-55.5 109.5t-94 68.5t-132.5 23.5q-115 0 -212 -61 t-170 -169v-746h-24v1418q-51 7 -107 12t-101 5q-103 0 -173 -28.5t-113 -79t-62 -120.5t-19 -153v-116h349v-20h-349v-918h-24z" />
<glyph unicode="ffh" horiz-adv-x="2329" d="M237 0v918l-164 4q-12 0 -12 8v8h176v140q0 84 20 145.5t55 101.5t84 59.5t108 19.5q29 0 60 -5.5t52 -16.5l-2 -8q-2 -7 -8 -6t-18.5 4.5t-33 7.5t-50.5 4q-52 0 -96.5 -16.5t-77 -53t-51 -95t-18.5 -141.5v-140h566v116q0 87 21 161t67.5 127t120.5 83t180 30 q57 0 111.5 -6.5t105.5 -8.5h17v-664q34 50 76.5 91t91.5 69.5t103 44t111 15.5q163 0 243.5 -97t80.5 -271v-628h-24v628q0 82 -18 146.5t-55.5 109.5t-94 68.5t-132.5 23.5q-115 0 -212 -61t-170 -169v-746h-24v1418q-51 7 -107 12t-101 5q-103 0 -173 -28.5t-113 -79 t-62 -120.5t-19 -153v-116h349v-20h-349v-918h-24v918h-566v-918h-24z" />
<glyph unicode="f&#xec;" horiz-adv-x="1018" d="M588 1424q25 0 41 -8t25 -22l164 -236h-14q-11 0 -16 8l-192 238h-9q-70 0 -129.5 -21.5t-102.5 -65.5t-67 -111t-24 -158v-110h558v-938h-24v918h-534v-918h-24v918l-164 4q-12 0 -12 8v8h176v110q0 91 25.5 161.5t71.5 118t110 72t141 24.5z" />
<glyph unicode="f&#xee;" horiz-adv-x="1018" d="M240 0v918l-164 4q-12 0 -12 8v8h176v170q0 84 17 144t47.5 98t73.5 56t96 18q17 0 29.5 -1.5t22.5 -3.5v-11q0 -8 -11.5 -6t-43.5 2q-98 0 -152.5 -71t-54.5 -225v-170h558v-938h-24v918h-534v-918h-24zM1030 1170h-18q-8 0 -16 8l-180 196l-6 7l-6 -7l-180 -196 q-3 -3 -7 -5.5t-9 -2.5h-18l212 230h16z" />
<glyph unicode="f&#x129;" horiz-adv-x="1019" d="M923 1242q50 0 74 33t26 81h16q0 -27 -7 -51.5t-21 -42.5t-36 -29t-52 -11q-32 0 -60 18t-55 40t-53.5 40t-55.5 18q-24 0 -42.5 -9t-31 -24.5t-19 -36.5t-7.5 -44h-18q0 27 7.5 51.5t22.5 42.5t37 29t51 11q33 0 61 -18t54.5 -40t53 -40t55.5 -18zM240 0v918l-164 4 q-12 0 -12 8v8h176v170q0 84 17 144t47.5 98t73.5 56t96 18q17 0 29.5 -1.5t22.5 -3.5v-11q0 -8 -11.5 -6t-43.5 2q-98 0 -152.5 -71t-54.5 -225v-170h558v-938h-24v918h-534v-918h-24z" />
<glyph unicode="f&#xef;" horiz-adv-x="1018" d="M717 1280q0 -21 -17.5 -37.5t-38.5 -16.5q-23 0 -39.5 16.5t-16.5 37.5q0 23 16.5 39.5t39.5 16.5q21 0 38.5 -16.5t17.5 -39.5zM1005 1280q0 -21 -17.5 -37.5t-38.5 -16.5q-23 0 -39.5 16.5t-16.5 37.5q0 23 16.5 39.5t39.5 16.5q21 0 38.5 -16.5t17.5 -39.5zM240 0v918 l-164 4q-12 0 -12 8v8h176v170q0 84 17 144t47.5 98t73.5 56t96 18q17 0 29.5 -1.5t22.5 -3.5v-11q0 -8 -11.5 -6t-43.5 2q-98 0 -152.5 -71t-54.5 -225v-170h558v-938h-24v918h-534v-918h-24z" />
<glyph unicode="f&#x12b;" horiz-adv-x="1019" d="M545 1290h520v-20h-520v20zM240 0v918l-164 4q-12 0 -12 8v8h176v170q0 84 17 144t47.5 98t73.5 56t96 18q17 0 29.5 -1.5t22.5 -3.5v-11q0 -8 -11.5 -6t-43.5 2q-98 0 -152.5 -71t-54.5 -225v-170h558v-938h-24v918h-534v-918h-24z" />
<glyph unicode="f&#x12d;" horiz-adv-x="1018" d="M805 1172q-56 0 -96 18t-65.5 49.5t-37 72.5t-11.5 88h20q0 -41 10 -78.5t32.5 -66t58.5 -46t89 -17.5q52 0 88.5 17.5t59 46t32.5 66t10 78.5h20q0 -47 -11.5 -88t-37 -72.5t-65.5 -49.5t-96 -18zM240 0v918l-164 4q-12 0 -12 8v8h176v170q0 84 17 144t47.5 98t73.5 56 t96 18q17 0 29.5 -1.5t22.5 -3.5v-11q0 -8 -11.5 -6t-43.5 2q-98 0 -152.5 -71t-54.5 -225v-170h558v-938h-24v918h-534v-918h-24z" />
<glyph unicode="f&#x12f;" horiz-adv-x="1018" d="M240 0v918l-164 4q-12 0 -12 8v8h176v110q0 91 25.5 161.5t71.5 118t110 72t141 24.5q29 0 60 -5.5t52 -16.5l-2 -8q-2 -6 -7.5 -5t-18 4t-33 7t-51.5 4q-71 0 -130 -21.5t-102.5 -65.5t-67.5 -111t-24 -158v-110h558v-938q-20 -11 -45.5 -29.5t-48 -43.5t-37.5 -56 t-15 -67q0 -56 38.5 -87t95.5 -31q32 0 54.5 7t37.5 15t24 15t14 7q4 0 8 -4l6 -6q-26 -26 -65 -40t-81 -14q-66 0 -110 35t-44 103q0 34 13.5 64.5t34.5 56t46.5 46.5t49.5 36v911h-534v-918h-24z" />
<glyph unicode="f&#x131;" horiz-adv-x="1018" d="M240 0v918l-164 4q-12 0 -12 8v8h176v170q0 84 17 144t47.5 98t73.5 56t96 18q17 0 29.5 -1.5t22.5 -3.5v-11q0 -8 -11.5 -6t-43.5 2q-98 0 -152.5 -71t-54.5 -225v-170h558v-938h-24v918h-534v-918h-24z" />
<glyph unicode="ff&#xec;" horiz-adv-x="1605" d="M1384 0v918h-533v-918h-24v918h-563v-918h-24v918l-168 4q-12 0 -12 8v8h180v140q0 84 20 145.5t55 101.5t84 59.5t108 19.5q29 0 60 -5.5t52 -16.5l-2 -8q-2 -7 -8 -6t-18.5 4.5t-33 7.5t-50.5 4q-52 0 -96.5 -16.5t-77 -53t-51 -95t-18.5 -141.5v-140h563v150 q0 168 76.5 247t242.5 79q14 0 31 -1t33 -4t29 -8.5t19 -14.5l159 -228h-14q-11 0 -16 8l-178 220q-14 4 -31.5 6t-43.5 2q-60 0 -111.5 -13.5t-89.5 -48t-60 -93.5t-22 -151v-150h557v-938h-24z" />
<glyph unicode="ff&#xee;" horiz-adv-x="1608" d="M1388 0v918h-534v-918h-24v918h-566v-918h-24v918l-164 4q-12 0 -12 8v8h176v140q0 84 20 145.5t55 101.5t84 59.5t108 19.5q29 0 60 -5.5t52 -16.5l-2 -8q-2 -7 -8 -6t-18.5 4.5t-33 7.5t-50.5 4q-52 0 -96.5 -16.5t-77 -53t-51 -95t-18.5 -141.5v-140h566v170 q0 84 17 144t47.5 98t73.5 56t96 18q17 0 29.5 -1.5t22.5 -3.5v-11q0 -8 -11.5 -6t-43.5 2q-98 0 -152.5 -71t-54.5 -225v-170h558v-938h-24zM1620 1170h-18q-8 0 -16 8l-180 196l-6 7l-6 -7l-180 -196q-3 -3 -7 -5.5t-9 -2.5h-18l212 230h16z" />
<glyph unicode="ff&#x129;" horiz-adv-x="1609" d="M1388 0v918h-534v-918h-24v918h-566v-918h-24v918l-164 4q-12 0 -12 8v8h176v140q0 84 20 145.5t55 101.5t84 59.5t108 19.5q29 0 60 -5.5t52 -16.5l-2 -8q-2 -7 -8 -6t-18.5 4.5t-33 7.5t-50.5 4q-52 0 -96.5 -16.5t-77 -53t-51 -95t-18.5 -141.5v-140h566v170 q0 84 17 144t47.5 98t73.5 56t96 18q17 0 29.5 -1.5t22.5 -3.5v-11q0 -8 -11.5 -6t-43.5 2q-98 0 -152.5 -71t-54.5 -225v-170h558v-938h-24zM1513 1242q50 0 74 33t26 81h16q0 -27 -7 -51.5t-21 -42.5t-36 -29t-52 -11q-32 0 -60 18t-55 40t-53.5 40t-55.5 18 q-24 0 -42.5 -9t-31 -24.5t-19 -36.5t-7.5 -44h-18q0 27 7.5 51.5t22.5 42.5t37 29t51 11q33 0 61 -18t54.5 -40t53 -40t55.5 -18z" />
<glyph unicode="ff&#xef;" horiz-adv-x="1608" d="M1296 1280q0 -21 -17.5 -37.5t-38.5 -16.5q-23 0 -39.5 16.5t-16.5 37.5q0 23 16.5 39.5t39.5 16.5q21 0 38.5 -16.5t17.5 -39.5zM1584 1280q0 -21 -17.5 -37.5t-38.5 -16.5q-23 0 -39.5 16.5t-16.5 37.5q0 23 16.5 39.5t39.5 16.5q21 0 38.5 -16.5t17.5 -39.5zM1388 0 v918h-534v-918h-24v918h-566v-918h-24v918l-164 4q-12 0 -12 8v8h176v140q0 84 20 145.5t55 101.5t84 59.5t108 19.5q29 0 60 -5.5t52 -16.5l-2 -8q-2 -7 -8 -6t-18.5 4.5t-33 7.5t-50.5 4q-52 0 -96.5 -16.5t-77 -53t-51 -95t-18.5 -141.5v-140h566v170q0 84 17 144 t47.5 98t73.5 56t96 18q17 0 29.5 -1.5t22.5 -3.5v-11q0 -8 -11.5 -6t-43.5 2q-98 0 -152.5 -71t-54.5 -225v-170h558v-938h-24z" />
<glyph unicode="ff&#x12b;" horiz-adv-x="1609" d="M1388 0v918h-534v-918h-24v918h-566v-918h-24v918l-164 4q-12 0 -12 8v8h176v140q0 84 20 145.5t55 101.5t84 59.5t108 19.5q29 0 60 -5.5t52 -16.5l-2 -8q-2 -7 -8 -6t-18.5 4.5t-33 7.5t-50.5 4q-52 0 -96.5 -16.5t-77 -53t-51 -95t-18.5 -141.5v-140h566v170 q0 84 17 144t47.5 98t73.5 56t96 18q17 0 29.5 -1.5t22.5 -3.5v-11q0 -8 -11.5 -6t-43.5 2q-98 0 -152.5 -71t-54.5 -225v-170h558v-938h-24zM1141 1290h520v-20h-520v20z" />
<glyph unicode="ff&#x12d;" horiz-adv-x="1608" d="M1388 0v918h-534v-918h-24v918h-566v-918h-24v918l-164 4q-12 0 -12 8v8h176v140q0 84 20 145.5t55 101.5t84 59.5t108 19.5q29 0 60 -5.5t52 -16.5l-2 -8q-2 -7 -8 -6t-18.5 4.5t-33 7.5t-50.5 4q-52 0 -96.5 -16.5t-77 -53t-51 -95t-18.5 -141.5v-140h566v170 q0 84 17 144t47.5 98t73.5 56t96 18q17 0 29.5 -1.5t22.5 -3.5v-11q0 -8 -11.5 -6t-43.5 2q-98 0 -152.5 -71t-54.5 -225v-170h558v-938h-24zM1401 1172q-56 0 -96 18t-65.5 49.5t-37 72.5t-11.5 88h20q0 -41 10 -78.5t32.5 -66t58.5 -46t89 -17.5q52 0 88.5 17.5t59 46 t32.5 66t10 78.5h20q0 -47 -11.5 -88t-37 -72.5t-65.5 -49.5t-96 -18z" />
<glyph unicode="ff&#x12f;" horiz-adv-x="1608" d="M240 0v918l-164 4q-12 0 -12 8v8h176v140q0 84 20 145.5t55 101.5t84 59.5t108 19.5q29 0 60 -5.5t52 -16.5l-2 -8q-2 -7 -8 -6t-18.5 4.5t-33 7.5t-50.5 4q-52 0 -96.5 -16.5t-77 -53t-51 -95t-18.5 -141.5v-140h566v110q0 91 25.5 161.5t71.5 118t110 72t141 24.5 q29 0 60 -5.5t52 -16.5l-2 -8q-2 -6 -7.5 -5t-18 4t-33 7t-51.5 4q-71 0 -130 -21.5t-102.5 -65.5t-67.5 -111t-24 -158v-110h558v-938q-20 -11 -45.5 -29.5t-48 -43.5t-37.5 -56t-15 -67q0 -56 38.5 -87t95.5 -31q32 0 54.5 7t37.5 15t24 15t14 7q4 0 8 -4l6 -6 q-26 -26 -65 -40t-81 -14q-66 0 -110 35t-44 103q0 34 13.5 64.5t34.5 56t46.5 46.5t49.5 36v911h-534v-918h-24v918h-566v-918h-24z" />
<glyph unicode="ff&#x131;" horiz-adv-x="1608" d="M1388 0v918h-534v-918h-24v918h-566v-918h-24v918l-164 4q-12 0 -12 8v8h176v140q0 84 20 145.5t55 101.5t84 59.5t108 19.5q29 0 60 -5.5t52 -16.5l-2 -8q-2 -7 -8 -6t-18.5 4.5t-33 7.5t-50.5 4q-52 0 -96.5 -16.5t-77 -53t-51 -95t-18.5 -141.5v-140h566v170 q0 84 17 144t47.5 98t73.5 56t96 18q17 0 29.5 -1.5t22.5 -3.5v-11q0 -8 -11.5 -6t-43.5 2q-98 0 -152.5 -71t-54.5 -225v-170h558v-938h-24z" />
<glyph unicode="fj" horiz-adv-x="1018" d="M240 0v918l-164 4q-12 0 -12 8v8h176v110q0 91 25.5 161.5t71.5 118t110 72t141 24.5q29 0 60 -5.5t52 -16.5l-2 -8q-2 -6 -7.5 -5t-18 4t-33 7t-51.5 4q-71 0 -130 -21.5t-102.5 -65.5t-67.5 -111t-24 -158v-110h558v-1110q0 -44 -14 -81t-39.5 -64t-61.5 -42t-81 -15 q-27 0 -46.5 5.5t-37.5 16.5l4 8q4 8 9 7.5t14 -4.5t23 -8.5t34 -4.5q85 0 128.5 50.5t43.5 131.5v1090h-534v-918h-24z" />
<glyph unicode="ffj" horiz-adv-x="1608" d="M240 0v918l-164 4q-12 0 -12 8v8h176v140q0 84 20 145.5t55 101.5t84 59.5t108 19.5q29 0 60 -5.5t52 -16.5l-2 -8q-2 -7 -8 -6t-18.5 4.5t-33 7.5t-50.5 4q-52 0 -96.5 -16.5t-77 -53t-51 -95t-18.5 -141.5v-140h566v110q0 91 25.5 161.5t71.5 118t110 72t141 24.5 q29 0 60 -5.5t52 -16.5l-2 -8q-2 -6 -7.5 -5t-18 4t-33 7t-51.5 4q-71 0 -130 -21.5t-102.5 -65.5t-67.5 -111t-24 -158v-110h558v-1110q0 -44 -14 -81t-39.5 -64t-61.5 -42t-81 -15q-27 0 -46.5 5.5t-37.5 16.5l4 8q4 8 9 7.5t14 -4.5t23 -8.5t34 -4.5q85 0 128.5 50.5 t43.5 131.5v1090h-534v-918h-24v918h-566v-918h-24z" />
<glyph unicode="fk" horiz-adv-x="1549" d="M237 0v918l-164 4q-12 0 -12 8v8h176v116q0 87 21 161t67.5 127t120.5 83t180 30q61 0 120 -7.5t114 -7.5v-904h46q9 0 21 2t27 16l466 410q8 8 16 12t20 4h18l-496 -434q-13 -12 -25 -17q14 -4 24 -10.5t19 -14.5l518 -504h-18q-8 0 -14 2t-14 10l-492 478 q-18 16 -32 22t-44 6h-40v-518h-24v1418q-51 7 -107 12t-101 5q-103 0 -173 -28.5t-113 -79t-62 -120.5t-19 -153v-116h349v-20h-349v-918h-24z" />
<glyph unicode="ffk" horiz-adv-x="2142" d="M240 0v918l-164 4q-12 0 -12 8v8h176v140q0 84 20 145.5t55 101.5t84 59.5t108 19.5q29 0 60 -5.5t52 -16.5l-2 -8q-2 -7 -8 -6t-18.5 4.5t-33 7.5t-50.5 4q-52 0 -96.5 -16.5t-77 -53t-51 -95t-18.5 -141.5v-140h566v116q0 87 21 161t67.5 127t120.5 83t180 30 q61 0 120 -7.5t114 -7.5v-904h46q9 0 21 2t27 16l466 410q8 8 16 12t20 4h18l-496 -434q-13 -12 -25 -17q14 -4 24 -10.5t19 -14.5l518 -504h-18q-8 0 -14 2t-14 10l-492 478q-18 16 -32 22t-44 6h-40v-518h-24v1418q-51 7 -107 12t-101 5q-103 0 -173 -28.5t-113 -79 t-62 -120.5t-19 -153v-116h350v-20h-350v-918h-24v918h-566v-918h-24z" />
<glyph unicode="ft" horiz-adv-x="1265" d="M871 918v-732q0 -50 12.5 -84.5t34.5 -56t51 -31.5t62 -10q42 0 73.5 13t53.5 28t35.5 28t19.5 13q4 0 8 -4l4 -4q-15 -20 -36.5 -37.5t-47 -30t-54 -19.5t-56.5 -7q-86 0 -135 47t-49 155v732h-586v-918h-24v918l-164 4q-12 0 -12 8v8h176v150q0 84 20 145.5t55 101.5 t84 59.5t108 19.5q29 0 60 -5.5t52 -16.5l-2 -8q-2 -7 -8 -6t-18.5 4.5t-33 7.5t-50.5 4q-52 0 -96.5 -16.5t-77 -53t-51 -95t-18.5 -141.5v-150h586l8 394q0 5 2.5 9.5t7.5 4.5h6v-408h334v-20h-334z" />
<glyph unicode="fft" horiz-adv-x="1858" d="M240 0v918l-164 4q-12 0 -12 8v8h176v140q0 84 20 145.5t55 101.5t84 59.5t108 19.5q29 0 60 -5.5t52 -16.5l-2 -8q-2 -7 -8 -6t-18.5 4.5t-33 7.5t-50.5 4q-52 0 -96.5 -16.5t-77 -53t-51 -95t-18.5 -141.5v-140h566v150q0 84 20 145.5t55 101.5t84 59.5t108 19.5 q29 0 60 -5.5t52 -16.5l-2 -8q-2 -7 -8 -6t-18.5 4.5t-33 7.5t-50.5 4q-52 0 -96.5 -16.5t-77 -53t-51 -95t-18.5 -141.5v-150h586l8 394q0 5 2.5 9.5t7.5 4.5h6v-408h334v-20h-334v-732q0 -50 12.5 -84.5t34.5 -56t51 -31.5t62 -10q42 0 73.5 13t53.5 28t35.5 28t19.5 13 q4 0 8 -4l4 -4q-15 -20 -36.5 -37.5t-47 -30t-54 -19.5t-56.5 -7q-86 0 -135 47t-49 155v732h-586v-918h-24v918h-566v-918h-24z" />
<glyph unicode="tf" horiz-adv-x="1305" d="M878 0v918h-615v-732q0 -50 12.5 -84.5t34.5 -56t51 -31.5t62 -10q42 0 73.5 13t53.5 28t35.5 28t19.5 13q4 0 8 -4l4 -4q-15 -20 -36.5 -37.5t-47 -30t-54 -19.5t-56.5 -7q-86 0 -135 47t-49 155v732h-162q-14 0 -14 10v6l176 4l8 394q0 5 2.5 9.5t7.5 4.5h6v-408h615 v150q0 84 20 145.5t55 101.5t84 59.5t108 19.5q29 0 60 -5.5t52 -16.5l-2 -8q-2 -7 -8 -6t-18.5 4.5t-33 7.5t-50.5 4q-52 0 -96.5 -16.5t-77 -53t-51 -95t-18.5 -141.5v-150h349v-20h-349v-918h-24z" />
<glyph unicode="t&#x12f;" horiz-adv-x="1103" d="M895 1290q-23 0 -39.5 16.5t-16.5 37.5q0 23 16.5 39.5t39.5 16.5q21 0 38.5 -16.5t17.5 -39.5q0 -21 -17.5 -37.5t-38.5 -16.5zM1039 -280q-26 -26 -65 -40t-81 -14q-66 0 -110 35t-44 103q0 34 13.5 64t34.5 56t46.5 47t49.5 36v911h-624v-732q0 -50 12.5 -84.5 t34.5 -56t51 -31.5t62 -10q42 0 73.5 13t53.5 28t35.5 28t19.5 13q4 0 8 -4l4 -4q-15 -20 -36.5 -37.5t-47 -30t-54 -19.5t-56.5 -7q-86 0 -135 47t-49 155v732h-162q-14 0 -14 10v6l176 4l8 394q0 5 2.5 9.5t7.5 4.5h6v-408h648v-938q-20 -11 -45.5 -29.5t-48 -43.5 t-37.5 -56t-15 -67q0 -56 38.5 -87t95.5 -31q32 0 54.5 7t37.5 15t24 15t14 7q4 0 8 -4z" />
<glyph unicode="t&#x131;" horiz-adv-x="1107" d="M911 0h-24v918h-624v-732q0 -50 12.5 -84.5t34.5 -56t51 -31.5t62 -10q42 0 73.5 13t53.5 28t35.5 28t19.5 13q4 0 8 -4l4 -4q-15 -20 -36.5 -37.5t-47 -30t-54 -19.5t-56.5 -7q-86 0 -135 47t-49 155v732h-162q-14 0 -14 10v6l176 4l8 394q0 5 2.5 9.5t7.5 4.5h6v-408 h648v-938z" />
<glyph unicode="tt" horiz-adv-x="1276" d="M423 -16q-86 0 -135 47t-49 155v732h-162q-14 0 -14 10v6l176 4l8 394q0 5 2.5 9.5t7.5 4.5h6v-408h595l8 394q0 5 2.5 9.5t7.5 4.5h6v-408h334v-20h-334v-732q0 -50 12.5 -84.5t34.5 -56t51 -31.5t62 -10q42 0 73.5 13t53.5 28t35.5 28t19.5 13q4 0 8 -4l4 -4 q-15 -20 -36.5 -37.5t-47 -30t-54 -19.5t-56.5 -7q-86 0 -135 47t-49 155v732h-595v-732q0 -50 12.5 -84.5t34.5 -56t51 -31.5t62 -10q42 0 73.5 13t53.5 28t35.5 28t19.5 13q4 0 8 -4l4 -4q-15 -20 -36.5 -37.5t-47 -30t-54 -19.5t-56.5 -7z" />
<glyph unicode="ttf" horiz-adv-x="1924" d="M1497 1088q0 84 20 145.5t55 101.5t84 59.5t108 19.5q29 0 60 -5.5t52 -16.5l-2 -8q-2 -7 -8 -6t-18.5 4.5t-33 7.5t-50.5 4q-52 0 -96.5 -16.5t-77 -53t-51 -95t-18.5 -141.5v-150h349v-20h-349v-918h-24v918h-615v-732q0 -50 12.5 -84.5t34.5 -56t51 -31.5t62 -10 q42 0 73.5 13t53.5 28t35.5 28t19.5 13q4 0 8 -4l4 -4q-15 -20 -36.5 -37.5t-47 -30t-54 -19.5t-56.5 -7q-86 0 -135 47t-49 155v732h-595v-732q0 -50 12.5 -84.5t34.5 -56t51 -31.5t62 -10q42 0 73.5 13t53.5 28t35.5 28t19.5 13q4 0 8 -4l4 -4q-15 -20 -36.5 -37.5 t-47 -30t-54 -19.5t-56.5 -7q-86 0 -135 47t-49 155v732h-162q-14 0 -14 10v6l176 4l8 394q0 5 2.5 9.5t7.5 4.5h6v-408h595l8 394q0 5 2.5 9.5t7.5 4.5h6v-408h615v150z" />
<glyph unicode="tt&#x12f;" horiz-adv-x="1702" d="M1494 1290q-23 0 -39.5 16.5t-16.5 37.5q0 23 16.5 39.5t39.5 16.5q21 0 38.5 -16.5t17.5 -39.5q0 -21 -17.5 -37.5t-38.5 -16.5zM1638 -280q-26 -26 -65 -40t-81 -14q-66 0 -110 35t-44 103q0 34 13.5 64t34.5 56t46.5 47t49.5 36v911h-604v-732q0 -50 12.5 -84.5 t34.5 -56t51 -31.5t62 -10q42 0 73.5 13t53.5 28t35.5 28t19.5 13q4 0 8 -4l4 -4q-15 -20 -36.5 -37.5t-47 -30t-54 -19.5t-56.5 -7q-86 0 -135 47t-49 155v732h-595v-732q0 -50 12.5 -84.5t34.5 -56t51 -31.5t62 -10q42 0 73.5 13t53.5 28t35.5 28t19.5 13q4 0 8 -4l4 -4 q-15 -20 -36.5 -37.5t-47 -30t-54 -19.5t-56.5 -7q-86 0 -135 47t-49 155v732h-162q-14 0 -14 10v6l176 4l8 394q0 5 2.5 9.5t7.5 4.5h6v-408h595l8 394q0 5 2.5 9.5t7.5 4.5h6v-408h628v-938q-20 -11 -45.5 -29.5t-48 -43.5t-37.5 -56t-15 -67q0 -56 38.5 -87t95.5 -31 q32 0 54.5 7t37.5 15t24 15t14 7q4 0 8 -4z" />
<glyph unicode="tt&#x131;" horiz-adv-x="1706" d="M1510 0h-24v918h-604v-732q0 -50 12.5 -84.5t34.5 -56t51 -31.5t62 -10q42 0 73.5 13t53.5 28t35.5 28t19.5 13q4 0 8 -4l4 -4q-15 -20 -36.5 -37.5t-47 -30t-54 -19.5t-56.5 -7q-86 0 -135 47t-49 155v732h-595v-732q0 -50 12.5 -84.5t34.5 -56t51 -31.5t62 -10 q42 0 73.5 13t53.5 28t35.5 28t19.5 13q4 0 8 -4l4 -4q-15 -20 -36.5 -37.5t-47 -30t-54 -19.5t-56.5 -7q-86 0 -135 47t-49 155v732h-162q-14 0 -14 10v6l176 4l8 394q0 5 2.5 9.5t7.5 4.5h6v-408h595l8 394q0 5 2.5 9.5t7.5 4.5h6v-408h628v-938z" />
<glyph unicode="f&#x1d0;" horiz-adv-x="1018" d="M240 0v918l-164 4q-12 0 -12 8v8h176v170q0 84 17 144t47.5 98t73.5 56t96 18q17 0 29.5 -1.5t22.5 -3.5v-11q0 -8 -11.5 -6t-43.5 2q-98 0 -152.5 -71t-54.5 -225v-170h558v-938h-24v918h-534v-918h-24zM819 1170h-16l-212 230h18q8 0 16 -8l180 -196l6 -7l6 7l180 196 q8 8 16 8h18z" />
<glyph unicode="f&#x209;" horiz-adv-x="1018" d="M503 1424q11 0 26 -6t29 -24l184 -236h-14q-11 0 -16 8l-211 238q-115 -2 -176 -73t-61 -223v-170h558v-938h-24v918h-534v-918h-24v918l-164 4q-12 0 -12 8v8h176v170q0 84 18.5 144t53 98t83 56t108.5 18zM748 1416q17 0 25 -4t17 -18l164 -236h-14q-11 0 -16 8 l-198 250h22z" />
<glyph unicode="f&#x20b;" horiz-adv-x="1018" d="M240 0v918l-164 4q-12 0 -12 8v8h176v170q0 84 17 144t47.5 98t73.5 56t96 18q17 0 29.5 -1.5t22.5 -3.5v-11q0 -8 -11.5 -6t-43.5 2q-98 0 -152.5 -71t-54.5 -225v-170h558v-938h-24v918h-534v-918h-24zM810 1410q56 0 96 -18t65.5 -49.5t37 -73t11.5 -87.5h-20 q0 40 -10 78t-32.5 66.5t-59 46t-88.5 17.5q-53 0 -89 -17.5t-58.5 -46t-32.5 -66.5t-10 -78h-20q0 46 11.5 87.5t37 73t65.5 49.5t96 18z" />
<glyph unicode="f&#x1e2f;" horiz-adv-x="1018" d="M717 1198q0 -21 -17.5 -37.5t-38.5 -16.5q-23 0 -39.5 16.5t-16.5 37.5q0 23 16.5 39.5t39.5 16.5q21 0 38.5 -16.5t17.5 -39.5zM1005 1198q0 -21 -17.5 -37.5t-38.5 -16.5q-23 0 -39.5 16.5t-16.5 37.5q0 23 16.5 39.5t39.5 16.5q21 0 38.5 -16.5t17.5 -39.5zM1009 1567 l-202 -250q-7 -8 -16 -8h-14l164 236q9 14 17 18t25 4h26zM240 0v918l-164 4q-12 0 -12 8v8h176v170q0 84 17 144t47.5 98t73.5 56t96 18q17 0 29.5 -1.5t22.5 -3.5v-11q0 -8 -11.5 -6t-43.5 2q-98 0 -152.5 -71t-54.5 -225v-170h558v-938h-24v918h-534v-918h-24z" />
<glyph unicode="ff&#x1d0;" horiz-adv-x="1608" d="M240 0v918l-164 4q-12 0 -12 8v8h176v140q0 84 20 145.5t55 101.5t84 59.5t108 19.5q29 0 60 -5.5t52 -16.5l-2 -8q-2 -7 -8 -6t-18.5 4.5t-33 7.5t-50.5 4q-52 0 -96.5 -16.5t-77 -53t-51 -95t-18.5 -141.5v-140h566v170q0 84 17 144t47.5 98t73.5 56t96 18 q17 0 29.5 -1.5t22.5 -3.5v-11q0 -8 -11.5 -6t-43.5 2q-98 0 -152.5 -71t-54.5 -225v-170h558v-938h-24v918h-534v-918h-24v918h-566v-918h-24zM1408 1170h-16l-212 230h18q5 0 9 -2.5t7 -5.5l180 -196l6 -7l6 7l180 196q8 8 16 8h18z" />
<glyph unicode="ff&#x209;" horiz-adv-x="1608" d="M1388 0v918h-534v-918h-24v918h-566v-918h-24v918l-164 4q-12 0 -12 8v8h176v140q0 84 20 145.5t55 101.5t84 59.5t108 19.5q29 0 60 -5.5t52 -16.5l-2 -8q-2 -7 -8 -6t-18.5 4.5t-33 7.5t-50.5 4q-52 0 -96.5 -16.5t-77 -53t-51 -95t-18.5 -141.5v-140h566v170 q0 84 18.5 144t53 98t84.5 56t113 18q11 0 26 -6t29 -24l184 -236h-14q-8 0 -16 8l-211 238q-116 -2 -179.5 -73t-63.5 -223v-170h558v-938h-24zM1344 1416q17 0 25 -4t17 -18l164 -236h-14q-11 0 -16 8l-198 250h22z" />
<glyph unicode="ff&#x20b;" horiz-adv-x="1608" d="M240 0v918l-164 4q-12 0 -12 8v8h176v140q0 84 20 145.5t55 101.5t84 59.5t108 19.5q29 0 60 -5.5t52 -16.5l-2 -8q-2 -7 -8 -6t-18.5 4.5t-33 7.5t-50.5 4q-52 0 -96.5 -16.5t-77 -53t-51 -95t-18.5 -141.5v-140h566v170q0 84 17 144t47.5 98t73.5 56t96 18 q17 0 29.5 -1.5t22.5 -3.5v-11q0 -8 -11.5 -6t-43.5 2q-98 0 -152.5 -71t-54.5 -225v-170h558v-938h-24v918h-534v-918h-24v918h-566v-918h-24zM1402 1410q56 0 96 -18t65.5 -49.5t37 -73t11.5 -87.5h-20q0 40 -10 78t-32.5 66.5t-59 46t-88.5 17.5q-53 0 -89 -17.5 t-58.5 -46t-32.5 -66.5t-10 -78h-20q0 46 11.5 87.5t37 73t65.5 49.5t96 18z" />
<glyph unicode="ff&#x1e2f;" horiz-adv-x="1608" d="M1388 0v918h-534v-918h-24v918h-566v-918h-24v918l-164 4q-12 0 -12 8v8h176v140q0 84 20 145.5t55 101.5t84 59.5t108 19.5q29 0 60 -5.5t52 -16.5l-2 -8q-2 -7 -8 -6t-18.5 4.5t-33 7.5t-50.5 4q-52 0 -96.5 -16.5t-77 -53t-51 -95t-18.5 -141.5v-140h566v170 q0 84 17 144t47.5 98t73.5 56t96 18q17 0 29.5 -1.5t22.5 -3.5v-11q0 -8 -11.5 -6t-43.5 2q-98 0 -152.5 -71t-54.5 -225v-170h558v-938h-24zM1604 1567l-202 -250q-7 -8 -16 -8h-14l164 236q9 14 17 18t25 4h26zM1312 1198q0 -21 -17.5 -37.5t-38.5 -16.5q-23 0 -39.5 16.5 t-16.5 37.5q0 23 16.5 39.5t39.5 16.5q21 0 38.5 -16.5t17.5 -39.5zM1600 1198q0 -21 -17.5 -37.5t-38.5 -16.5q-23 0 -39.5 16.5t-16.5 37.5q0 23 16.5 39.5t39.5 16.5q21 0 38.5 -16.5t17.5 -39.5z" />
<glyph unicode="f&#x237;" horiz-adv-x="1018" d="M240 0v918l-164 4q-12 0 -12 8v8h176v170q0 84 17 144t47.5 98t73.5 56t96 18q17 0 29.5 -1.5t22.5 -3.5v-11q0 -8 -11.5 -6t-43.5 2q-98 0 -152.5 -71t-54.5 -225v-170h558v-1110q0 -44 -14 -81t-39.5 -64t-61.5 -42t-81 -15q-27 0 -46.5 5.5t-37.5 16.5l4 8q4 8 9 7.5 t14 -4.5t23 -8.5t34 -4.5q85 0 128.5 50.5t43.5 131.5v1090h-534v-918h-24z" />
<glyph unicode="ff&#x237;" horiz-adv-x="1608" d="M1412 -172q0 -44 -14 -81t-39.5 -64t-61.5 -42t-81 -15q-27 0 -46.5 5.5t-37.5 16.5l4 8q4 8 9 7.5t14 -4.5t23 -8.5t34 -4.5q85 0 128.5 50.5t43.5 131.5v1090h-534v-918h-24v918h-566v-918h-24v918l-164 4q-12 0 -12 8v8h176v140q0 84 20 145.5t55 101.5t84 59.5 t108 19.5q29 0 60 -5.5t52 -16.5l-2 -8q-2 -7 -8 -6t-18.5 4.5t-33 7.5t-50.5 4q-52 0 -96.5 -16.5t-77 -53t-51 -95t-18.5 -141.5v-140h566v170q0 84 17 144t47.5 98t73.5 56t96 18q17 0 29.5 -1.5t22.5 -3.5v-11q0 -8 -11.5 -6t-43.5 2q-98 0 -152.5 -71t-54.5 -225v-170 h558v-1110v0z" />
<glyph unicode="f&#x135;" horiz-adv-x="1019" d="M240 0v918l-164 4q-12 0 -12 8v8h176v170q0 84 17 144t47.5 98t73.5 56t96 18q17 0 29.5 -1.5t22.5 -3.5v-11q0 -8 -11.5 -6t-43.5 2q-98 0 -152.5 -71t-54.5 -225v-170h558v-1110q0 -44 -14 -81t-39.5 -64t-61.5 -42t-81 -15q-27 0 -46.5 5.5t-37.5 16.5l4 8q4 8 9 7.5 t14 -4.5t23 -8.5t34 -4.5q85 0 128.5 50.5t43.5 131.5v1090h-534v-918h-24zM1033 1170h-18q-8 0 -16 8l-180 196l-6 7l-6 -7l-180 -196q-3 -3 -7 -5.5t-9 -2.5h-18l212 230h16z" />
<glyph unicode="f&#x13e;" horiz-adv-x="1078" d="M240 0v918l-164 4q-12 0 -12 8v8h176v76q0 91 26 166.5t75 129t120 83t161 29.5q66 0 130.5 -7t117.5 -7h12v-1408h-24v1392q-51 1 -114.5 5.5t-121.5 4.5q-85 0 -151.5 -27.5t-112.5 -78t-70 -122.5t-24 -160v-76h310v-20h-310v-918h-24zM1098 1442q16 0 16 -22 q0 -11 -3.5 -30t-10 -48.5t-16 -70t-22.5 -95.5q-2 -6 -4 -10t-10 -4h-6l46 280h10z" />
<glyph unicode="f&#x13c;" horiz-adv-x="1078" d="M240 0v918l-164 4q-12 0 -12 8v8h176v76q0 91 26 166.5t75 129t120 83t161 29.5q66 0 130.5 -7t117.5 -7h12v-1408h-24v1392q-51 1 -114.5 5.5t-121.5 4.5q-85 0 -151.5 -27.5t-112.5 -78t-70 -122.5t-24 -160v-76h310v-20h-310v-918h-24zM869 -110q16 0 16 -22 q0 -11 -3.5 -30t-10 -48.5t-16 -70t-22.5 -95.5q-2 -6 -4 -10t-10 -4h-6l46 280h10z" />
<glyph unicode="f&#x21b;" horiz-adv-x="1265" d="M871 918v-732q0 -50 12.5 -84.5t34.5 -56t51 -31.5t62 -10q42 0 73.5 13t53.5 28t35.5 28t19.5 13q4 0 8 -4l4 -4q-15 -20 -36.5 -37.5t-47 -30t-54 -19.5t-56.5 -7q-86 0 -135 47t-49 155v732h-586v-918h-24v918l-164 4q-12 0 -12 8v8h176v150q0 84 20 145.5t55 101.5 t84 59.5t108 19.5q29 0 60 -5.5t52 -16.5l-2 -8q-2 -7 -8 -6t-18.5 4.5t-33 7.5t-50.5 4q-52 0 -96.5 -16.5t-77 -53t-51 -95t-18.5 -141.5v-150h586l8 394q0 5 2.5 9.5t7.5 4.5h6v-408h334v-20h-334zM1023 -110q16 0 16 -22q0 -11 -3.5 -30t-10 -48.5t-16 -70t-22.5 -95.5 q-2 -6 -4 -10t-10 -4h-6l46 280h10z" />
<glyph unicode="f&#x165;" horiz-adv-x="1265" d="M871 918v-732q0 -50 12.5 -84.5t34.5 -56t51 -31.5t62 -10q42 0 73.5 13t53.5 28t35.5 28t19.5 13q4 0 8 -4l4 -4q-15 -20 -36.5 -37.5t-47 -30t-54 -19.5t-56.5 -7q-86 0 -135 47t-49 155v732h-586v-918h-24v918l-164 4q-12 0 -12 8v8h176v150q0 84 20 145.5t55 101.5 t84 59.5t108 19.5q29 0 60 -5.5t52 -16.5l-2 -8q-2 -7 -8 -6t-18.5 4.5t-33 7.5t-50.5 4q-52 0 -96.5 -16.5t-77 -53t-51 -95t-18.5 -141.5v-150h586l8 394q0 5 2.5 9.5t7.5 4.5h6v-408h334v-20h-334zM1257 1442q16 0 16 -22q0 -11 -3.5 -30t-10 -48.5t-16 -70t-22.5 -95.5 q-2 -6 -4 -10t-10 -4h-6l46 280h10z" />
<glyph unicode="f&#x1ecb;" horiz-adv-x="1018" d="M240 0v918l-164 4q-12 0 -12 8v8h176v110q0 91 25.5 161.5t71.5 118t110 72t141 24.5q29 0 60 -5.5t52 -16.5l-2 -8q-2 -6 -7.5 -5t-18 4t-33 7t-51.5 4q-71 0 -130 -21.5t-102.5 -65.5t-67.5 -111t-24 -158v-110h558v-938h-24v918h-534v-918h-24zM866 -273 q0 -21 -17.5 -37.5t-38.5 -16.5q-23 0 -39.5 16.5t-16.5 37.5q0 23 16.5 39.5t39.5 16.5q21 0 38.5 -16.5t17.5 -39.5z" />
<glyph unicode="f&#x1e2d;" horiz-adv-x="1018" d="M240 0v918l-164 4q-12 0 -12 8v8h176v110q0 91 25.5 161.5t71.5 118t110 72t141 24.5q29 0 60 -5.5t52 -16.5l-2 -8q-2 -6 -7.5 -5t-18 4t-33 7t-51.5 4q-71 0 -130 -21.5t-102.5 -65.5t-67.5 -111t-24 -158v-110h558v-938h-24v918h-534v-918h-24zM918 -240q50 0 74 33 t26 81h16q0 -27 -7 -51.5t-21 -42.5t-36 -29t-52 -11q-32 0 -60 18t-55 40t-53.5 40t-55.5 18q-24 0 -42.5 -9t-31 -24.5t-19 -36.5t-7.5 -44h-18q0 27 7.5 51.5t22.5 42.5t37 29t51 11q33 0 61 -18t54.5 -40t53 -40t55.5 -18z" />
<glyph unicode="f&#xed;" horiz-adv-x="1018" d="M240 0v918l-164 4q-12 0 -12 8v8h176v170q0 84 17 144t47.5 98t73.5 56t96 18q17 0 29.5 -1.5t22.5 -3.5v-11q0 -8 -11.5 -6t-43.5 2q-98 0 -152.5 -71t-54.5 -225v-170h558v-938h-24v918h-534v-918h-24zM977 1416l-202 -250q-5 -8 -16 -8h-14l164 236q9 14 17 18t25 4 h26z" />
<glyph unicode="f&#x1ec9;" horiz-adv-x="1019" d="M240 0v918l-164 4q-12 0 -12 8v8h176v170q0 84 17 144t47.5 98t73.5 56t96 18q17 0 29.5 -1.5t22.5 -3.5v-11q0 -8 -11.5 -6t-43.5 2q-98 0 -152.5 -71t-54.5 -225v-170h558v-938h-24v918h-534v-918h-24zM694 1355q24 20 50 29t56 9q62 0 90.5 -29t28.5 -69 q0 -33 -23.5 -58.5t-83.5 -39.5l-4 -77h-16v90q56 8 81.5 30.5t25.5 54.5q0 14 -5 28t-17 25.5t-31 19t-47 7.5q-23 0 -39 -5t-26.5 -10.5t-16.5 -10.5t-10 -5q-3 0 -6 3z" />
<glyph unicode="ff&#x1ecb;" horiz-adv-x="1608" d="M240 0v918l-164 4q-12 0 -12 8v8h176v140q0 84 20 145.5t55 101.5t84 59.5t108 19.5q29 0 60 -5.5t52 -16.5l-2 -8q-2 -7 -8 -6t-18.5 4.5t-33 7.5t-50.5 4q-52 0 -96.5 -16.5t-77 -53t-51 -95t-18.5 -141.5v-140h566v110q0 91 25.5 161.5t71.5 118t110 72t141 24.5 q29 0 60 -5.5t52 -16.5l-2 -8q-2 -6 -7.5 -5t-18 4t-33 7t-51.5 4q-71 0 -130 -21.5t-102.5 -65.5t-67.5 -111t-24 -158v-110h558v-938h-24v918h-534v-918h-24v918h-566v-918h-24zM1456 -273q0 -21 -17.5 -37.5t-38.5 -16.5q-23 0 -39.5 16.5t-16.5 37.5q0 23 16.5 39.5 t39.5 16.5q21 0 38.5 -16.5t17.5 -39.5z" />
<glyph unicode="ff&#x1e2d;" horiz-adv-x="1608" d="M240 0v918l-164 4q-12 0 -12 8v8h176v140q0 84 20 145.5t55 101.5t84 59.5t108 19.5q29 0 60 -5.5t52 -16.5l-2 -8q-2 -7 -8 -6t-18.5 4.5t-33 7.5t-50.5 4q-52 0 -96.5 -16.5t-77 -53t-51 -95t-18.5 -141.5v-140h566v110q0 91 25.5 161.5t71.5 118t110 72t141 24.5 q29 0 60 -5.5t52 -16.5l-2 -8q-2 -6 -7.5 -5t-18 4t-33 7t-51.5 4q-71 0 -130 -21.5t-102.5 -65.5t-67.5 -111t-24 -158v-110h558v-938h-24v918h-534v-918h-24v918h-566v-918h-24zM1508 -240q50 0 74 33t26 81h16q0 -27 -7 -51.5t-21 -42.5t-36 -29t-52 -11q-32 0 -60 18 t-55 40t-53.5 40t-55.5 18q-24 0 -42.5 -9t-31 -24.5t-19 -36.5t-7.5 -44h-18q0 27 7.5 51.5t22.5 42.5t37 29t51 11q33 0 61 -18t54.5 -40t53 -40t55.5 -18z" />
<glyph unicode="ff&#xed;" horiz-adv-x="1608" d="M1388 0v918h-534v-918h-24v918h-566v-918h-24v918l-164 4q-12 0 -12 8v8h176v140q0 84 20 145.5t55 101.5t84 59.5t108 19.5q29 0 60 -5.5t52 -16.5l-2 -8q-2 -7 -8 -6t-18.5 4.5t-33 7.5t-50.5 4q-52 0 -96.5 -16.5t-77 -53t-51 -95t-18.5 -141.5v-140h566v170 q0 84 17 144t47.5 98t73.5 56t96 18q17 0 29.5 -1.5t22.5 -3.5v-11q0 -8 -11.5 -6t-43.5 2q-98 0 -152.5 -71t-54.5 -225v-170h558v-938h-24zM1568 1416l-202 -250q-5 -8 -16 -8h-14l164 236q9 14 17 18t25 4h26z" />
<glyph unicode="ff&#x1ec9;" horiz-adv-x="1596" d="M1388 0v918h-534v-918h-24v918h-566v-918h-24v918l-164 4q-12 0 -12 8v8h176v140q0 84 20 145.5t55 101.5t84 59.5t108 19.5q29 0 60 -5.5t52 -16.5l-2 -8q-2 -7 -8 -6t-18.5 4.5t-33 7.5t-50.5 4q-52 0 -96.5 -16.5t-77 -53t-51 -95t-18.5 -141.5v-140h566v170 q0 84 17 144t47.5 98t73.5 56t96 18q17 0 29.5 -1.5t22.5 -3.5v-11q0 -8 -11.5 -6t-43.5 2q-98 0 -152.5 -71t-54.5 -225v-170h558v-938h-24zM1285 1355q24 20 50 29t56 9q62 0 90.5 -29t28.5 -69q0 -33 -23.5 -58.5t-83.5 -39.5l-4 -77h-16v90q56 8 81.5 30.5t25.5 54.5 q0 14 -5 28t-17 25.5t-31 19t-47 7.5q-23 0 -39 -5t-26.5 -10.5t-16.5 -10.5t-10 -5q-3 0 -6 3z" />
<glyph unicode="f&#x13a;" horiz-adv-x="1078" d="M240 0v918l-164 4q-12 0 -12 8v8h176v76q0 91 26 166.5t75 129t120 83t161 29.5q66 0 130.5 -7t117.5 -7h12v-1408h-24v1392q-51 1 -114.5 5.5t-121.5 4.5q-85 0 -151.5 -27.5t-112.5 -78t-70 -122.5t-24 -160v-76h310v-20h-310v-918h-24zM1157 1832l-329 -288 q-4 -4 -8.5 -5t-9.5 -1h-12l281 280q8 8 16.5 11t25.5 3h36z" />
<glyph unicode="ti" horiz-adv-x="1108" d="M956 1360q0 -21 -17.5 -37.5t-38.5 -16.5q-23 0 -39.5 16.5t-16.5 37.5q0 23 16.5 39.5t39.5 16.5q21 0 38.5 -16.5t17.5 -39.5zM911 0h-24v918h-624v-732q0 -50 12.5 -84.5t34.5 -56t51 -31.5t62 -10q42 0 73.5 13t53.5 28t35.5 28t19.5 13q4 0 8 -4l4 -4 q-15 -20 -36.5 -37.5t-47 -30t-54 -19.5t-56.5 -7q-86 0 -135 47t-49 155v732h-162q-14 0 -14 10v6l176 4l8 394q0 5 2.5 9.5t7.5 4.5h6v-408h648v-938z" />
<glyph unicode="t&#xec;" horiz-adv-x="1108" d="M911 0h-24v918h-624v-732q0 -50 12.5 -84.5t34.5 -56t51 -31.5t62 -10q42 0 73.5 13t53.5 28t35.5 28t19.5 13q4 0 8 -4l4 -4q-15 -20 -36.5 -37.5t-47 -30t-54 -19.5t-56.5 -7q-86 0 -135 47t-49 155v732h-162q-14 0 -14 10v6l176 4l8 394q0 5 2.5 9.5t7.5 4.5h6v-408 h648v-938zM774 1416q17 0 25 -4t17 -18l164 -236h-14q-11 0 -16 8l-202 250h26z" />
<glyph unicode="t&#xed;" horiz-adv-x="1103" d="M907 0h-24v918h-624v-732q0 -50 12.5 -84.5t34.5 -56t51 -31.5t62 -10q42 0 73.5 13t53.5 28t35.5 28t19.5 13q4 0 8 -4l4 -4q-15 -20 -36.5 -37.5t-47 -30t-54 -19.5t-56.5 -7q-86 0 -135 47t-49 155v732h-162q-14 0 -14 10v6l176 4l8 394q0 5 2.5 9.5t7.5 4.5h6v-408 h648v-938zM1064 1416l-202 -250q-5 -8 -16 -8h-14l164 236q9 14 17 18t25 4h26z" />
<glyph unicode="t&#xee;" horiz-adv-x="1107" d="M911 0h-24v918h-624v-732q0 -50 12.5 -84.5t34.5 -56t51 -31.5t62 -10q42 0 73.5 13t53.5 28t35.5 28t19.5 13q4 0 8 -4l4 -4q-15 -20 -36.5 -37.5t-47 -30t-54 -19.5t-56.5 -7q-86 0 -135 47t-49 155v732h-162q-14 0 -14 10v6l176 4l8 394q0 5 2.5 9.5t7.5 4.5h6v-408 h648v-938zM1120 1170h-18q-8 0 -16 8l-180 196q-4 4 -6 7q-2 -3 -6 -7l-180 -196q-3 -3 -7 -5.5t-9 -2.5h-18l212 230h16z" />
<glyph unicode="t&#xef;" horiz-adv-x="1107" d="M911 0h-24v918h-624v-732q0 -50 12.5 -84.5t34.5 -56t51 -31.5t62 -10q42 0 73.5 13t53.5 28t35.5 28t19.5 13q4 0 8 -4l4 -4q-15 -20 -36.5 -37.5t-47 -30t-54 -19.5t-56.5 -7q-86 0 -135 47t-49 155v732h-162q-14 0 -14 10v6l176 4l8 394q0 5 2.5 9.5t7.5 4.5h6v-408 h648v-938zM832 1280q0 -21 -17.5 -37.5t-38.5 -16.5q-23 0 -39.5 16.5t-16.5 37.5q0 23 16.5 39.5t39.5 16.5q21 0 38.5 -16.5t17.5 -39.5zM1080 1280q0 -21 -17.5 -37.5t-38.5 -16.5q-23 0 -39.5 16.5t-16.5 37.5q0 23 16.5 39.5t39.5 16.5q21 0 38.5 -16.5t17.5 -39.5z " />
<glyph unicode="t&#x12b;" horiz-adv-x="1108" d="M911 0h-24v918h-624v-732q0 -50 12.5 -84.5t34.5 -56t51 -31.5t62 -10q42 0 73.5 13t53.5 28t35.5 28t19.5 13q4 0 8 -4l4 -4q-15 -20 -36.5 -37.5t-47 -30t-54 -19.5t-56.5 -7q-86 0 -135 47t-49 155v732h-162q-14 0 -14 10v6l176 4l8 394q0 5 2.5 9.5t7.5 4.5h6v-408 h648v-938zM640 1290h520v-20h-520v20z" />
<glyph unicode="t&#x129;" horiz-adv-x="1104" d="M907 0h-24v918h-624v-732q0 -50 12.5 -84.5t34.5 -56t51 -31.5t62 -10q42 0 73.5 13t53.5 28t35.5 28t19.5 13q4 0 8 -4l4 -4q-15 -20 -36.5 -37.5t-47 -30t-54 -19.5t-56.5 -7q-86 0 -135 47t-49 155v732h-162q-14 0 -14 10v6l176 4l8 394q0 5 2.5 9.5t7.5 4.5h6v-408 h648v-938zM1014 1242q50 0 74 33t26 81h16q0 -27 -7 -51.5t-21 -42.5t-36 -29t-52 -11q-32 0 -60 18t-55 40t-53.5 40t-55.5 18q-24 0 -42.5 -9t-31 -24.5t-19 -36.5t-7.5 -44h-18q0 27 7.5 51.5t22.5 42.5t37 29t51 11q33 0 61 -18t54.5 -40t53 -40t55.5 -18z" />
<glyph unicode="t&#x12d;" horiz-adv-x="1107" d="M911 0h-24v918h-624v-732q0 -50 12.5 -84.5t34.5 -56t51 -31.5t62 -10q42 0 73.5 13t53.5 28t35.5 28t19.5 13q4 0 8 -4l4 -4q-15 -20 -36.5 -37.5t-47 -30t-54 -19.5t-56.5 -7q-86 0 -135 47t-49 155v732h-162q-14 0 -14 10v6l176 4l8 394q0 5 2.5 9.5t7.5 4.5h6v-408 h648v-938zM900 1172q-56 0 -96 18t-65.5 49.5t-37 72.5t-11.5 88h20q0 -41 10 -78.5t32.5 -66t58.5 -46t89 -17.5q52 0 88.5 17.5t59 46t32.5 66t10 78.5h20q0 -47 -11.5 -88t-37 -72.5t-65.5 -49.5t-96 -18z" />
<glyph unicode="t&#x1d0;" horiz-adv-x="1107" d="M911 0h-24v918h-624v-732q0 -50 12.5 -84.5t34.5 -56t51 -31.5t62 -10q42 0 73.5 13t53.5 28t35.5 28t19.5 13q4 0 8 -4l4 -4q-15 -20 -36.5 -37.5t-47 -30t-54 -19.5t-56.5 -7q-86 0 -135 47t-49 155v732h-162q-14 0 -14 10v6l176 4l8 394q0 5 2.5 9.5t7.5 4.5h6v-408 h648v-938zM1120 1400l-212 -230h-16l-212 230h18q8 0 16 -8l180 -196q4 -4 6 -7q2 3 6 7l180 196q8 8 16 8h18z" />
<glyph unicode="t&#x1e2d;" horiz-adv-x="1104" d="M952 1360q0 -21 -17.5 -37.5t-38.5 -16.5q-23 0 -39.5 16.5t-16.5 37.5q0 23 16.5 39.5t39.5 16.5q21 0 38.5 -16.5t17.5 -39.5zM907 0h-24v918h-624v-732q0 -50 12.5 -84.5t34.5 -56t51 -31.5t62 -10q42 0 73.5 13t53.5 28t35.5 28t19.5 13q4 0 8 -4l4 -4 q-15 -20 -36.5 -37.5t-47 -30t-54 -19.5t-56.5 -7q-86 0 -135 47t-49 155v732h-162q-14 0 -14 10v6l176 4l8 394q0 5 2.5 9.5t7.5 4.5h6v-408h648v-938zM1003 -240q50 0 74 33t26 81h16q0 -27 -7 -51.5t-21 -42.5t-36 -29t-52 -11q-32 0 -60 18t-55 40t-53.5 40t-55.5 18 q-24 0 -42.5 -9t-31 -24.5t-19 -36.5t-7.5 -44h-18q0 27 7.5 51.5t22.5 42.5t37 29t51 11q33 0 61 -18t54.5 -40t53 -40t55.5 -18z" />
<glyph unicode="t&#x1e2f;" horiz-adv-x="1103" d="M907 0h-24v918h-624v-732q0 -50 12.5 -84.5t34.5 -56t51 -31.5t62 -10q42 0 73.5 13t53.5 28t35.5 28t19.5 13q4 0 8 -4l4 -4q-15 -20 -36.5 -37.5t-47 -30t-54 -19.5t-56.5 -7q-86 0 -135 47t-49 155v732h-162q-14 0 -14 10v6l176 4l8 394q0 5 2.5 9.5t7.5 4.5h6v-408 h648v-938zM1114 1711l-202 -250q-5 -8 -16 -8h-14l164 236q9 14 17 18t25 4h26zM788 1280q0 -21 -17.5 -37.5t-38.5 -16.5q-23 0 -39.5 16.5t-16.5 37.5q0 23 16.5 39.5t39.5 16.5q21 0 38.5 -16.5t17.5 -39.5zM1116 1280q0 -21 -17.5 -37.5t-38.5 -16.5q-23 0 -39.5 16.5 t-16.5 37.5q0 23 16.5 39.5t39.5 16.5q21 0 38.5 -16.5t17.5 -39.5z" />
<glyph unicode="t&#x20b;" horiz-adv-x="1107" d="M911 0h-24v918h-624v-732q0 -50 12.5 -84.5t34.5 -56t51 -31.5t62 -10q42 0 73.5 13t53.5 28t35.5 28t19.5 13q4 0 8 -4l4 -4q-15 -20 -36.5 -37.5t-47 -30t-54 -19.5t-56.5 -7q-86 0 -135 47t-49 155v732h-162q-14 0 -14 10v6l176 4l8 394q0 5 2.5 9.5t7.5 4.5h6v-408 h648v-938zM900 1415q56 0 96 -18t65.5 -49.5t37 -73t11.5 -87.5h-20q0 40 -10 78t-32.5 66.5t-59 46t-88.5 17.5q-53 0 -89 -17.5t-58.5 -46t-32.5 -66.5t-10 -78h-20q0 46 11.5 87.5t37 73t65.5 49.5t96 18z" />
<glyph unicode="t&#x209;" horiz-adv-x="1107" d="M911 0h-24v918h-624v-732q0 -50 12.5 -84.5t34.5 -56t51 -31.5t62 -10q42 0 73.5 13t53.5 28t35.5 28t19.5 13q4 0 8 -4l4 -4q-15 -20 -36.5 -37.5t-47 -30t-54 -19.5t-56.5 -7q-86 0 -135 47t-49 155v732h-162q-14 0 -14 10v6l176 4l8 394q0 5 2.5 9.5t7.5 4.5h6v-408 h648v-938zM842 1416q17 0 25 -4t17 -18l164 -236h-14q-11 0 -16 8l-198 250h22zM610 1416q17 0 24 -4t18 -18l184 -236h-14q-11 0 -16 8l-222 250h26z" />
<glyph unicode="tti" horiz-adv-x="1706" d="M1556 1360q0 -21 -17.5 -37.5t-38.5 -16.5q-23 0 -39.5 16.5t-16.5 37.5q0 23 16.5 39.5t39.5 16.5q21 0 38.5 -16.5t17.5 -39.5zM1510 0h-24v918h-604v-732q0 -50 12.5 -84.5t34.5 -56t51 -31.5t62 -10q42 0 73.5 13t53.5 28t35.5 28t19.5 13q4 0 8 -4l4 -4 q-15 -20 -36.5 -37.5t-47 -30t-54 -19.5t-56.5 -7q-86 0 -135 47t-49 155v732h-595v-732q0 -50 12.5 -84.5t34.5 -56t51 -31.5t62 -10q42 0 73.5 13t53.5 28t35.5 28t19.5 13q4 0 8 -4l4 -4q-15 -20 -36.5 -37.5t-47 -30t-54 -19.5t-56.5 -7q-86 0 -135 47t-49 155v732h-162 q-14 0 -14 10v6l176 4l8 394q0 5 2.5 9.5t7.5 4.5h6v-408h595l8 394q0 5 2.5 9.5t7.5 4.5h6v-408h628v-938z" />
<glyph unicode="tt&#xec;" horiz-adv-x="1706" d="M1510 0h-24v918h-604v-732q0 -50 12.5 -84.5t34.5 -56t51 -31.5t62 -10q42 0 73.5 13t53.5 28t35.5 28t19.5 13q4 0 8 -4l4 -4q-15 -20 -36.5 -37.5t-47 -30t-54 -19.5t-56.5 -7q-86 0 -135 47t-49 155v732h-595v-732q0 -50 12.5 -84.5t34.5 -56t51 -31.5t62 -10 q42 0 73.5 13t53.5 28t35.5 28t19.5 13q4 0 8 -4l4 -4q-15 -20 -36.5 -37.5t-47 -30t-54 -19.5t-56.5 -7q-86 0 -135 47t-49 155v732h-162q-14 0 -14 10v6l176 4l8 394q0 5 2.5 9.5t7.5 4.5h6v-408h595l8 394q0 5 2.5 9.5t7.5 4.5h6v-408h628v-938zM1374 1416q17 0 25 -4 t17 -18l164 -236h-14q-11 0 -16 8l-202 250h26z" />
<glyph unicode="tt&#xed;" horiz-adv-x="1702" d="M1506 0h-24v918h-604v-732q0 -50 12.5 -84.5t34.5 -56t51 -31.5t62 -10q42 0 73.5 13t53.5 28t35.5 28t19.5 13q4 0 8 -4l4 -4q-15 -20 -36.5 -37.5t-47 -30t-54 -19.5t-56.5 -7q-86 0 -135 47t-49 155v732h-595v-732q0 -50 12.5 -84.5t34.5 -56t51 -31.5t62 -10 q42 0 73.5 13t53.5 28t35.5 28t19.5 13q4 0 8 -4l4 -4q-15 -20 -36.5 -37.5t-47 -30t-54 -19.5t-56.5 -7q-86 0 -135 47t-49 155v732h-162q-14 0 -14 10v6l176 4l8 394q0 5 2.5 9.5t7.5 4.5h6v-408h595l8 394q0 5 2.5 9.5t7.5 4.5h6v-408h628v-938zM1664 1416l-202 -250 q-5 -8 -16 -8h-14l164 236q9 14 17 18t25 4h26z" />
<glyph unicode="tt&#xee;" horiz-adv-x="1706" d="M1510 0h-24v918h-604v-732q0 -50 12.5 -84.5t34.5 -56t51 -31.5t62 -10q42 0 73.5 13t53.5 28t35.5 28t19.5 13q4 0 8 -4l4 -4q-15 -20 -36.5 -37.5t-47 -30t-54 -19.5t-56.5 -7q-86 0 -135 47t-49 155v732h-595v-732q0 -50 12.5 -84.5t34.5 -56t51 -31.5t62 -10 q42 0 73.5 13t53.5 28t35.5 28t19.5 13q4 0 8 -4l4 -4q-15 -20 -36.5 -37.5t-47 -30t-54 -19.5t-56.5 -7q-86 0 -135 47t-49 155v732h-162q-14 0 -14 10v6l176 4l8 394q0 5 2.5 9.5t7.5 4.5h6v-408h595l8 394q0 5 2.5 9.5t7.5 4.5h6v-408h628v-938zM1720 1170h-18 q-8 0 -16 8l-180 196q-4 4 -6 7q-2 -3 -6 -7l-180 -196q-3 -3 -7 -5.5t-9 -2.5h-18l212 230h16z" />
<glyph unicode="tt&#xef;" horiz-adv-x="1706" d="M1510 0h-24v918h-604v-732q0 -50 12.5 -84.5t34.5 -56t51 -31.5t62 -10q42 0 73.5 13t53.5 28t35.5 28t19.5 13q4 0 8 -4l4 -4q-15 -20 -36.5 -37.5t-47 -30t-54 -19.5t-56.5 -7q-86 0 -135 47t-49 155v732h-595v-732q0 -50 12.5 -84.5t34.5 -56t51 -31.5t62 -10 q42 0 73.5 13t53.5 28t35.5 28t19.5 13q4 0 8 -4l4 -4q-15 -20 -36.5 -37.5t-47 -30t-54 -19.5t-56.5 -7q-86 0 -135 47t-49 155v732h-162q-14 0 -14 10v6l176 4l8 394q0 5 2.5 9.5t7.5 4.5h6v-408h595l8 394q0 5 2.5 9.5t7.5 4.5h6v-408h628v-938zM1432 1280 q0 -21 -17.5 -37.5t-38.5 -16.5q-23 0 -39.5 16.5t-16.5 37.5q0 23 16.5 39.5t39.5 16.5q21 0 38.5 -16.5t17.5 -39.5zM1680 1280q0 -21 -17.5 -37.5t-38.5 -16.5q-23 0 -39.5 16.5t-16.5 37.5q0 23 16.5 39.5t39.5 16.5q21 0 38.5 -16.5t17.5 -39.5z" />
<glyph unicode="tt&#x12b;" horiz-adv-x="1706" d="M1510 0h-24v918h-604v-732q0 -50 12.5 -84.5t34.5 -56t51 -31.5t62 -10q42 0 73.5 13t53.5 28t35.5 28t19.5 13q4 0 8 -4l4 -4q-15 -20 -36.5 -37.5t-47 -30t-54 -19.5t-56.5 -7q-86 0 -135 47t-49 155v732h-595v-732q0 -50 12.5 -84.5t34.5 -56t51 -31.5t62 -10 q42 0 73.5 13t53.5 28t35.5 28t19.5 13q4 0 8 -4l4 -4q-15 -20 -36.5 -37.5t-47 -30t-54 -19.5t-56.5 -7q-86 0 -135 47t-49 155v732h-162q-14 0 -14 10v6l176 4l8 394q0 5 2.5 9.5t7.5 4.5h6v-408h595l8 394q0 5 2.5 9.5t7.5 4.5h6v-408h628v-938zM1240 1290h520v-20h-520 v20z" />
<glyph unicode="tt&#x129;" horiz-adv-x="1702" d="M1506 0h-24v918h-604v-732q0 -50 12.5 -84.5t34.5 -56t51 -31.5t62 -10q42 0 73.5 13t53.5 28t35.5 28t19.5 13q4 0 8 -4l4 -4q-15 -20 -36.5 -37.5t-47 -30t-54 -19.5t-56.5 -7q-86 0 -135 47t-49 155v732h-595v-732q0 -50 12.5 -84.5t34.5 -56t51 -31.5t62 -10 q42 0 73.5 13t53.5 28t35.5 28t19.5 13q4 0 8 -4l4 -4q-15 -20 -36.5 -37.5t-47 -30t-54 -19.5t-56.5 -7q-86 0 -135 47t-49 155v732h-162q-14 0 -14 10v6l176 4l8 394q0 5 2.5 9.5t7.5 4.5h6v-408h595l8 394q0 5 2.5 9.5t7.5 4.5h6v-408h628v-938zM1614 1242q50 0 74 33 t26 81h16q0 -27 -7 -51.5t-21 -42.5t-36 -29t-52 -11q-32 0 -60 18t-55 40t-53.5 40t-55.5 18q-24 0 -42.5 -9t-31 -24.5t-19 -36.5t-7.5 -44h-18q0 27 7.5 51.5t22.5 42.5t37 29t51 11q33 0 61 -18t54.5 -40t53 -40t55.5 -18z" />
<glyph unicode="tt&#x12d;" horiz-adv-x="1706" d="M1510 0h-24v918h-604v-732q0 -50 12.5 -84.5t34.5 -56t51 -31.5t62 -10q42 0 73.5 13t53.5 28t35.5 28t19.5 13q4 0 8 -4l4 -4q-15 -20 -36.5 -37.5t-47 -30t-54 -19.5t-56.5 -7q-86 0 -135 47t-49 155v732h-595v-732q0 -50 12.5 -84.5t34.5 -56t51 -31.5t62 -10 q42 0 73.5 13t53.5 28t35.5 28t19.5 13q4 0 8 -4l4 -4q-15 -20 -36.5 -37.5t-47 -30t-54 -19.5t-56.5 -7q-86 0 -135 47t-49 155v732h-162q-14 0 -14 10v6l176 4l8 394q0 5 2.5 9.5t7.5 4.5h6v-408h595l8 394q0 5 2.5 9.5t7.5 4.5h6v-408h628v-938zM1500 1172q-56 0 -96 18 t-65.5 49.5t-37 72.5t-11.5 88h20q0 -41 10 -78.5t32.5 -66t58.5 -46t89 -17.5q52 0 88.5 17.5t59 46t32.5 66t10 78.5h20q0 -47 -11.5 -88t-37 -72.5t-65.5 -49.5t-96 -18z" />
<glyph unicode="tt&#x1d0;" horiz-adv-x="1706" d="M1510 0h-24v918h-604v-732q0 -50 12.5 -84.5t34.5 -56t51 -31.5t62 -10q42 0 73.5 13t53.5 28t35.5 28t19.5 13q4 0 8 -4l4 -4q-15 -20 -36.5 -37.5t-47 -30t-54 -19.5t-56.5 -7q-86 0 -135 47t-49 155v732h-595v-732q0 -50 12.5 -84.5t34.5 -56t51 -31.5t62 -10 q42 0 73.5 13t53.5 28t35.5 28t19.5 13q4 0 8 -4l4 -4q-15 -20 -36.5 -37.5t-47 -30t-54 -19.5t-56.5 -7q-86 0 -135 47t-49 155v732h-162q-14 0 -14 10v6l176 4l8 394q0 5 2.5 9.5t7.5 4.5h6v-408h595l8 394q0 5 2.5 9.5t7.5 4.5h6v-408h628v-938zM1720 1400l-212 -230h-16 l-212 230h18q5 0 9 -2.5t7 -5.5l180 -196q4 -4 6 -7q2 3 6 7l180 196q8 8 16 8h18z" />
<glyph unicode="tt&#x1e2d;" horiz-adv-x="1702" d="M1552 1360q0 -21 -17.5 -37.5t-38.5 -16.5q-23 0 -39.5 16.5t-16.5 37.5q0 23 16.5 39.5t39.5 16.5q21 0 38.5 -16.5t17.5 -39.5zM1506 0h-24v918h-604v-732q0 -50 12.5 -84.5t34.5 -56t51 -31.5t62 -10q42 0 73.5 13t53.5 28t35.5 28t19.5 13q4 0 8 -4l4 -4 q-15 -20 -36.5 -37.5t-47 -30t-54 -19.5t-56.5 -7q-86 0 -135 47t-49 155v732h-595v-732q0 -50 12.5 -84.5t34.5 -56t51 -31.5t62 -10q42 0 73.5 13t53.5 28t35.5 28t19.5 13q4 0 8 -4l4 -4q-15 -20 -36.5 -37.5t-47 -30t-54 -19.5t-56.5 -7q-86 0 -135 47t-49 155v732h-162 q-14 0 -14 10v6l176 4l8 394q0 5 2.5 9.5t7.5 4.5h6v-408h595l8 394q0 5 2.5 9.5t7.5 4.5h6v-408h628v-938zM1603 -240q50 0 74 33t26 81h16q0 -27 -7 -51.5t-21 -42.5t-36 -29t-52 -11q-32 0 -60 18t-55 40t-53.5 40t-55.5 18q-24 0 -42.5 -9t-31 -24.5t-19 -36.5t-7.5 -44 h-18q0 27 7.5 51.5t22.5 42.5t37 29t51 11q33 0 61 -18t54.5 -40t53 -40t55.5 -18z" />
<glyph unicode="tt&#x1e2f;" horiz-adv-x="1702" d="M1506 0h-24v918h-604v-732q0 -50 12.5 -84.5t34.5 -56t51 -31.5t62 -10q42 0 73.5 13t53.5 28t35.5 28t19.5 13q4 0 8 -4l4 -4q-15 -20 -36.5 -37.5t-47 -30t-54 -19.5t-56.5 -7q-86 0 -135 47t-49 155v732h-595v-732q0 -50 12.5 -84.5t34.5 -56t51 -31.5t62 -10 q42 0 73.5 13t53.5 28t35.5 28t19.5 13q4 0 8 -4l4 -4q-15 -20 -36.5 -37.5t-47 -30t-54 -19.5t-56.5 -7q-86 0 -135 47t-49 155v732h-162q-14 0 -14 10v6l176 4l8 394q0 5 2.5 9.5t7.5 4.5h6v-408h595l8 394q0 5 2.5 9.5t7.5 4.5h6v-408h628v-938zM1714 1711l-202 -250 q-5 -8 -16 -8h-14l164 236q9 14 17 18t25 4h26zM1388 1280q0 -21 -17.5 -37.5t-38.5 -16.5q-23 0 -39.5 16.5t-16.5 37.5q0 23 16.5 39.5t39.5 16.5q21 0 38.5 -16.5t17.5 -39.5zM1716 1280q0 -21 -17.5 -37.5t-38.5 -16.5q-23 0 -39.5 16.5t-16.5 37.5q0 23 16.5 39.5 t39.5 16.5q21 0 38.5 -16.5t17.5 -39.5z" />
<glyph unicode="tt&#x20b;" horiz-adv-x="1706" d="M1510 0h-24v918h-604v-732q0 -50 12.5 -84.5t34.5 -56t51 -31.5t62 -10q42 0 73.5 13t53.5 28t35.5 28t19.5 13q4 0 8 -4l4 -4q-15 -20 -36.5 -37.5t-47 -30t-54 -19.5t-56.5 -7q-86 0 -135 47t-49 155v732h-595v-732q0 -50 12.5 -84.5t34.5 -56t51 -31.5t62 -10 q42 0 73.5 13t53.5 28t35.5 28t19.5 13q4 0 8 -4l4 -4q-15 -20 -36.5 -37.5t-47 -30t-54 -19.5t-56.5 -7q-86 0 -135 47t-49 155v732h-162q-14 0 -14 10v6l176 4l8 394q0 5 2.5 9.5t7.5 4.5h6v-408h595l8 394q0 5 2.5 9.5t7.5 4.5h6v-408h628v-938zM1500 1415q56 0 96 -18 t65.5 -49.5t37 -73t11.5 -87.5h-20q0 40 -10 78t-32.5 66.5t-59 46t-88.5 17.5q-53 0 -89 -17.5t-58.5 -46t-32.5 -66.5t-10 -78h-20q0 46 11.5 87.5t37 73t65.5 49.5t96 18z" />
<glyph unicode="tt&#x209;" horiz-adv-x="1706" d="M1510 0h-24v918h-604v-732q0 -50 12.5 -84.5t34.5 -56t51 -31.5t62 -10q42 0 73.5 13t53.5 28t35.5 28t19.5 13q4 0 8 -4l4 -4q-15 -20 -36.5 -37.5t-47 -30t-54 -19.5t-56.5 -7q-86 0 -135 47t-49 155v732h-595v-732q0 -50 12.5 -84.5t34.5 -56t51 -31.5t62 -10 q42 0 73.5 13t53.5 28t35.5 28t19.5 13q4 0 8 -4l4 -4q-15 -20 -36.5 -37.5t-47 -30t-54 -19.5t-56.5 -7q-86 0 -135 47t-49 155v732h-162q-14 0 -14 10v6l176 4l8 394q0 5 2.5 9.5t7.5 4.5h6v-408h595l8 394q0 5 2.5 9.5t7.5 4.5h6v-408h628v-938zM1442 1416q17 0 25 -4 t17 -18l164 -236h-14q-11 0 -16 8l-198 250h22zM1210 1416q17 0 24 -4t18 -18l184 -236h-14q-11 0 -16 8l-222 250h26z" />
<glyph horiz-adv-x="0" />
<glyph horiz-adv-x="0" />
<glyph horiz-adv-x="666" />
<glyph unicode=" "  horiz-adv-x="570" />
<glyph unicode="&#x09;" horiz-adv-x="570" />
<glyph unicode="&#xa0;" horiz-adv-x="570" />
<glyph unicode="!" horiz-adv-x="484" d="M257 1400v-572q0 -44 -0.5 -82.5t-1 -78.5t-2 -86t-2.5 -105h-16q-2 59 -3 105t-1.5 86t-1 78.5t-0.5 82.5v572h28zM175 48q0 27 18.5 46.5t45.5 19.5t46.5 -19.5t19.5 -46.5t-19.5 -45.5t-46.5 -18.5t-45.5 18.5t-18.5 45.5z" />
<glyph unicode="&#x22;" horiz-adv-x="630" d="M198 1400v-294l-2 -152q0 -8 -8 -8t-8 8l-2 152v294h20zM452 1400v-294l-2 -152q0 -8 -8 -8t-8 8l-2 152v294h20z" />
<glyph unicode="#" horiz-adv-x="1160" d="M796 922h-342l-98 -444h342zM1055 940v-6q0 -12 -14 -12h-223l-98 -444h265q14 0 14 -12v-6h-281l-103 -460h-6q-8 0 -11.5 2.5t-0.5 13.5l99 444h-342l-99 -444q-3 -16 -16 -16h-10l103 460h-215q-14 0 -14 12v6h231l98 444h-273v6q0 12 14 12h261l99 444q3 16 18 16h8 l-103 -460h342l103 460h10q14 0 8 -20l-99 -440h235z" />
<glyph unicode="$" horiz-adv-x="1160" d="M576 4q92 3 164.5 35t122.5 84.5t76 121t26 145.5q0 82 -31 136.5t-82 91t-116.5 60.5t-133.5 46zM604 1394q-84 -2 -148.5 -28.5t-109 -70.5t-67 -101.5t-22.5 -119.5q0 -75 27 -127t72 -88t103.5 -60t121.5 -45zM602 747q71 -23 140 -48t123.5 -63.5t88 -96 t33.5 -145.5q0 -84 -27.5 -157t-80.5 -128.5t-129.5 -88.5t-173.5 -36l-9 -242q0 -16 -12 -16h-10l9 258q-70 0 -125.5 13t-101.5 36t-85 57t-75 76l4 4q3 3 5 4.5t7 1.5q6 0 17.5 -12.5t31 -31.5t48 -41.5t68 -41.5t90.5 -32t117 -13l25 727q-66 21 -128 46t-110 63 t-77.5 94t-29.5 140q0 66 24.5 127t71.5 107.5t115.5 75t157.5 30.5l7 188q0 16 12 16h10l-7 -204q97 -2 172.5 -35t142.5 -103l-4 -6q-3 -6 -10 -6q-10 0 -28 19.5t-52.5 43.5t-88 44.5t-133.5 22.5z" />
<glyph unicode="%" horiz-adv-x="1522" d="M671 1064q0 -90 -22.5 -156t-60.5 -109t-89 -64t-108 -21q-58 0 -109 21t-89 64t-60 109t-22 156q0 91 22 157t60 109.5t89 64.5t109 21q57 0 108 -21t89 -64.5t60.5 -109.5t22.5 -157zM649 1064q0 87 -20.5 150t-56 104t-82.5 60.5t-99 19.5q-53 0 -99.5 -19.5 t-82 -60.5t-56 -104t-20.5 -150t20.5 -150t56 -103.5t82 -59.5t99.5 -19q52 0 99 19t82.5 59.5t56 103.5t20.5 150zM1235 1392q5 8 16 8h14l-988 -1392q-5 -8 -16 -8h-14zM1411 334q0 -90 -22.5 -156t-60.5 -109t-89 -64t-108 -21q-58 0 -109 21t-89 64t-60 109t-22 156 q0 91 22 157t60 109.5t89 64.5t109 21q57 0 108 -21t89 -64.5t60.5 -109.5t22.5 -157zM1389 334q0 87 -20.5 150t-56 104t-82.5 60.5t-99 19.5q-53 0 -99.5 -19.5t-82 -60.5t-56 -104t-20.5 -150t20.5 -150t56 -103.5t82 -59.5t99.5 -19q52 0 99 19t82.5 59.5t56 103.5 t20.5 150z" />
<glyph unicode="&#x26;" horiz-adv-x="1374" d="M502 762q-76 -24 -141 -66t-112.5 -96.5t-74.5 -119.5t-27 -136q0 -87 34.5 -151t88 -106t118 -62.5t123.5 -20.5q84 0 157.5 21.5t135.5 58.5t112.5 86.5t89.5 105.5l-477 460zM1329 0h-16q-9 0 -15 1t-15 9l-262 252q-41 -57 -94 -107.5t-117 -88.5t-139 -60t-160 -22 q-71 0 -140.5 23.5t-124.5 69t-89 112.5t-34 155q0 75 28 143t77.5 124.5t116 99t143.5 66.5q-42 43 -73 82.5t-52 79t-31.5 81.5t-10.5 90q0 67 24.5 123t69 96.5t105.5 63.5t135 23q58 0 112.5 -21.5t97 -57.5t68.5 -84t26 -101h-6q-5 0 -9.5 3.5t-6.5 12.5q-2 27 -20 66 t-52.5 75t-87 61.5t-122.5 25.5q-68 0 -125 -21t-98 -58.5t-64 -90t-23 -116.5q0 -93 49.5 -178.5t148.5 -179.5l477 -456q50 77 79 157.5t38 152.5q2 8 4 12t10 4h8q-2 -74 -33.5 -164t-90.5 -177z" />
<glyph unicode="'" horiz-adv-x="376" d="M198 1400v-294l-2 -152q0 -8 -8 -8t-8 8l-2 152v294h20z" />
<glyph unicode="(" horiz-adv-x="501" d="M150 632q0 -233 66 -442.5t198 -407.5q5 -6 4 -10t-4 -6l-10 -6q-78 119 -131 228t-85 214.5t-46 211t-14 218.5q0 112 14 218t46 211.5t85 214.5t131 228l10 -6q3 -2 4 -6t-4 -10q-132 -198 -198 -408t-66 -442z" />
<glyph unicode=")" horiz-adv-x="501" d="M351 632q0 232 -66 442t-198 408q-5 6 -4 10t4 6l10 6q78 -119 131 -228t85 -214.5t46 -211.5t14 -218q0 -113 -14 -218.5t-46 -211t-85 -214.5t-131 -228l-10 6q-3 2 -4 6t4 10q132 198 198 407.5t66 442.5z" />
<glyph unicode="*" horiz-adv-x="850" d="M678 1070l-10 -18l-204 118q-5 3 -8.5 5t-7 4.5t-8.5 6.5t-12 12q3 -18 4.5 -25t1.5 -19v-228h-20v228q0 11 1.5 19t5.5 24q-13 -13 -18.5 -17t-16.5 -10l-202 -118l-10 18l202 118q10 6 17 8t24 7q-17 7 -24 9t-17 8l-204 118l10 18l204 -118q5 -3 8.5 -5.5t6.5 -5.5 l7.5 -7.5t12.5 -11.5q-4 18 -5.5 26.5t-1.5 19.5v228h20v-228q0 -11 -0.5 -19.5t-4.5 -25.5q13 13 18.5 18t16.5 11l202 118l10 -18l-202 -118q-10 -6 -17 -9.5t-23 -7.5q17 -5 23.5 -7t16.5 -8z" />
<glyph unicode="+" horiz-adv-x="1160" d="M1042 660h-452v-472h-20v472h-450v20h450v470h20v-470h452v-20z" />
<glyph unicode="," horiz-adv-x="424" d="M156 -235q-3 3 -3 7q0 2 3 7q8 9 24.5 30.5t33 52t29.5 68.5t14 81q-16 -19 -46 -19q-24 0 -40 16.5t-16 43.5q0 24 16.5 43t43.5 19t44.5 -20t17.5 -58q0 -77 -33.5 -148.5t-84.5 -125.5z" />
<glyph unicode="." horiz-adv-x="464" d="M167 48q0 27 18.5 46.5t45.5 19.5t46.5 -19.5t19.5 -46.5t-19.5 -45.5t-46.5 -18.5t-45.5 18.5t-18.5 45.5z" />
<glyph unicode="/" horiz-adv-x="840" d="M115 -66q-3 -8 -9.5 -10t-12.5 -2h-8l640 1506q6 12 20 12h10z" />
<glyph unicode="0" horiz-adv-x="1160" d="M1076 700q0 -184 -39.5 -318.5t-107 -222.5t-158 -130.5t-191.5 -42.5t-191.5 42.5t-158 130.5t-107 222.5t-39.5 318.5t39.5 318.5t107 223t158 131.5t191.5 43t191.5 -43t158 -131.5t107 -223t39.5 -318.5zM1050 700q0 180 -37.5 311t-101.5 216.5t-149.5 127 t-181.5 41.5t-182 -41.5t-150.5 -127t-102 -216.5t-37.5 -311t37.5 -311t102 -216t150.5 -126t182 -41t181.5 41t149.5 126t101.5 216t37.5 311z" />
<glyph unicode="1" horiz-adv-x="1160" d="M979 20v-20h-696v20h340v1296q0 14 1 28.5t3 28.5l-362 -327q-10 -10 -20 0l-6 8l394 354h14v-1388h332z" />
<glyph unicode="2" horiz-adv-x="1160" d="M1000 22q10 0 10 -10v-12h-876v10q0 5 3 8.5t5 5.5l504 512q61 63 116 123t96.5 122t65.5 128t24 141q0 91 -31 156.5t-82 107.5t-116 62t-133 20q-78 0 -143.5 -24t-115.5 -67.5t-82.5 -103.5t-44.5 -133q-3 -16 -16 -16h-10q11 84 45.5 151.5t88.5 114.5t124.5 72.5 t153.5 25.5q72 0 141.5 -21t123.5 -65.5t87.5 -113.5t33.5 -166q0 -80 -25.5 -149t-68.5 -132t-99.5 -123.5t-118.5 -123.5l-494 -504q21 2 48.5 3t61.5 1h724z" />
<glyph unicode="3" horiz-adv-x="1160" d="M179 1052q11 84 45.5 151.5t88.5 114.5t124.5 72.5t153.5 25.5q72 0 140 -20t121 -62t85 -108.5t32 -159.5q0 -71 -27 -130t-71 -103t-101.5 -72.5t-118.5 -38.5q87 -7 154 -36t112 -75t68.5 -107.5t23.5 -133.5q0 -77 -32.5 -147t-90.5 -123t-138 -84.5t-175 -31.5 q-84 0 -147.5 17t-110 44.5t-78 64t-52.5 75.5t-33.5 78t-20.5 73l4 2q3 2 11 1.5t13 -15.5q2 -7 8.5 -33t22 -61.5t43.5 -75t73.5 -73t110.5 -55.5t156 -22q103 0 180 34.5t128.5 88t77.5 118t26 125.5q0 72 -25 134t-79 108t-138 72.5t-202 27.5v16q92 3 167 28.5 t127.5 70t81 105t28.5 134.5q0 87 -29.5 149.5t-79 102.5t-113.5 59t-132 19q-78 0 -144 -24t-116 -67.5t-83 -103.5t-45 -133q-3 -16 -14 -16h-10z" />
<glyph unicode="4" horiz-adv-x="1160" d="M772 452v870q0 10 0.5 19t1.5 19l-689 -908h687zM1090 452v-8q0 -12 -16 -12h-280v-432h-22v432h-696q-11 0 -13.5 2.5t-4.5 7.5l-2 8l724 952h14v-950h296z" />
<glyph unicode="5" horiz-adv-x="1160" d="M263 823q77 20 144.5 29t127.5 9q109 0 191.5 -30.5t138 -85t83.5 -131t28 -168.5q0 -110 -38 -196t-102 -145t-148.5 -90t-177.5 -31q-54 0 -104 9t-93.5 23.5t-79.5 33t-63 38.5l6 8q3 6 12 6q7 0 31 -14.5t64.5 -32.5t97 -32.5t129.5 -14.5q89 0 169 28.5t140 84 t95.5 138t35.5 189.5q0 85 -24.5 157t-75.5 124.5t-129.5 82t-185.5 29.5q-60 0 -129.5 -9.5t-149.5 -29.5l-18 8l106 590h600v-10q0 -5 -4 -8.5t-10 -3.5h-565z" />
<glyph unicode="6" horiz-adv-x="1160" d="M579 4q99 0 177.5 30t132.5 83.5t83 127t29 159.5q0 91 -28.5 164t-80 124t-123.5 78.5t-158 27.5q-102 0 -181.5 -35.5t-133.5 -91t-82.5 -123.5t-28.5 -134q0 -89 28 -164t79.5 -129.5t124.5 -85.5t162 -31zM365 836q-54 -75 -91 -134.5t-59 -114.5q26 54 67 96.5 t93 72.5t111.5 46t122.5 16q95 0 172 -31t131 -86t83.5 -131t29.5 -166q0 -94 -33 -171t-92.5 -132.5t-141.5 -86t-179 -30.5q-92 0 -168.5 29.5t-132 86.5t-86.5 140t-31 190q0 73 42.5 177t141.5 239l406 548q3 5 6 5.5t6 0.5h20z" />
<glyph unicode="7" horiz-adv-x="1160" d="M1055 1400v-12q0 -6 -4 -14l-696 -1362q-6 -12 -22 -12h-12l698 1364q2 4 4 7.5t5 6.5h-875q-12 0 -12 12v10h914z" />
<glyph unicode="8" horiz-adv-x="1160" d="M580 4q91 0 167 25t131.5 71t86.5 111.5t31 146.5q0 73 -19.5 128t-52.5 95.5t-75.5 67t-88.5 42.5t-93 22.5t-87 6.5q-41 0 -87.5 -6.5t-92.5 -22.5t-88.5 -42.5t-75.5 -67t-52.5 -95.5t-19.5 -128q0 -81 31 -146.5t86.5 -111.5t131.5 -71t167 -25zM216 1068 q0 -64 22.5 -123t68 -104.5t113.5 -73t160 -27.5q91 0 159.5 27.5t114 73t68 104.5t22.5 123q0 70 -25 130.5t-72 104t-114.5 68.5t-152.5 25t-152.5 -25t-114.5 -68.5t-72 -104t-25 -130.5zM675 731q68 -11 130.5 -37t110 -71.5t76 -111t28.5 -153.5q0 -87 -32.5 -156.5 t-91 -117.5t-139 -74t-177.5 -26t-177.5 26t-139 74t-91 117.5t-32.5 156.5q0 88 28.5 153.5t76 111t110 71.5t130.5 37q-70 13 -124.5 44t-92 75t-57 99.5t-19.5 118.5q0 72 26.5 135.5t76 110.5t121.5 74.5t164 27.5q91 0 163.5 -27.5t122 -74.5t76 -110.5t26.5 -135.5 q0 -63 -19.5 -118.5t-57 -99.5t-92 -75t-124.5 -44z" />
<glyph unicode="9" horiz-adv-x="1160" d="M554 634q97 0 173 34t128.5 87t79.5 118.5t27 128.5q0 85 -28.5 157.5t-79 125t-119.5 82t-151 29.5q-89 0 -163.5 -28t-128.5 -78.5t-84 -121.5t-30 -156q0 -87 27.5 -157t77 -119t119 -75.5t152.5 -26.5zM790 596q50 74 87.5 131t61.5 116q-25 -53 -65.5 -95t-90.5 -72 t-108 -46t-119 -16q-92 0 -166.5 30t-127 83t-80.5 126t-28 159q0 88 33 162t90.5 128t136 84t170.5 30q86 0 159.5 -30.5t127.5 -86.5t84.5 -135t30.5 -176q0 -49 -12 -94t-34.5 -92.5t-55.5 -100t-76 -115.5l-390 -580q-3 -5 -6 -5.5t-6 -0.5h-20z" />
<glyph unicode=":" horiz-adv-x="464" d="M167 48q0 27 18.5 46.5t45.5 19.5t46.5 -19.5t19.5 -46.5t-19.5 -45.5t-46.5 -18.5t-45.5 18.5t-18.5 45.5zM167 886q0 27 18.5 46.5t45.5 19.5t46.5 -19.5t19.5 -46.5t-19.5 -45.5t-46.5 -18.5t-45.5 18.5t-18.5 45.5z" />
<glyph unicode=";" horiz-adv-x="483" d="M182 -235q-3 3 -3 7q0 2 3 7q8 9 24.5 30.5t33 52t29.5 68.5t14 81q-16 -19 -46 -19q-24 0 -40 16.5t-16 43.5q0 24 16.5 43t43.5 19t44.5 -20t17.5 -58q0 -77 -33.5 -148.5t-84.5 -125.5zM177 886q0 27 18.5 46.5t45.5 19.5t46.5 -19.5t19.5 -46.5t-19.5 -45.5 t-46.5 -18.5t-45.5 18.5t-18.5 45.5z" />
<glyph unicode="&#x3c;" horiz-adv-x="1160" d="M253 690q-24 -13 -47 -20q12 -3 24 -8.5t23 -11.5l643 -326q19 -10 19 -21v-11l-730 372v12l730 372v-11q0 -12 -19 -21z" />
<glyph unicode="=" horiz-adv-x="1160" d="M180 540h800v-20h-800v20zM180 834h800v-20h-800v20z" />
<glyph unicode="&#x3e;" horiz-adv-x="1160" d="M975 676v-12l-730 -372v11q0 11 19 21l643 326q24 13 47 20q-12 3 -24 8.5t-23 11.5l-643 326q-19 9 -19 21v11z" />
<glyph unicode="?" horiz-adv-x="838" d="M105 1280q24 25 54.5 49.5t68 44t82 31t97.5 11.5q61 0 119 -19.5t102.5 -56t71.5 -89t27 -119.5q0 -75 -24.5 -130.5t-61.5 -97t-80.5 -73.5t-80.5 -60.5t-62.5 -57.5t-26.5 -65l-6 -172h-16v174q0 39 24.5 69.5t62 59.5t80.5 60t80.5 72t62 94t24.5 127q0 62 -25 111 t-66 83t-94.5 52t-110.5 18q-71 0 -123 -20t-87.5 -44t-54.5 -44t-23 -20t-8 4zM313 48q0 27 18.5 46.5t45.5 19.5t46.5 -19.5t19.5 -46.5t-19.5 -45.5t-46.5 -18.5t-45.5 18.5t-18.5 45.5z" />
<glyph unicode="@" horiz-adv-x="1643" d="M1114 866q-15 4 -29.5 7.5t-29.5 6t-32 3.5t-39 1q-69 0 -129 -19t-109.5 -51.5t-88 -77t-65 -95t-40.5 -104.5t-14 -107q0 -44 11.5 -83t34 -68t57 -46t81.5 -17q41 0 85 14t85 50.5t76.5 100t61.5 161.5zM1052 538q-28 -106 -26 -170.5t23 -99.5t55 -46.5t72 -11.5 q64 0 123 31.5t104 91t72 145t27 192.5q0 157 -52.5 273t-141 192.5t-204 113.5t-242.5 37q-93 0 -181.5 -24.5t-167 -71t-144 -113.5t-113 -150.5t-74 -183t-26.5 -211.5q0 -182 59 -321.5t159.5 -234t234.5 -142.5t283 -48q145 0 272.5 35.5t240.5 110.5q6 5 11.5 3.5 t7.5 -6.5l6 -11q-115 -77 -248 -115.5t-290 -38.5t-295 50t-241 147.5t-162.5 240.5t-59.5 330q0 170 58 312.5t157.5 245t231.5 159.5t281 57q87 0 169.5 -17.5t156 -52t135.5 -87t106.5 -123.5t69.5 -160t25 -196q0 -110 -28 -198.5t-76 -151t-111.5 -96.5t-134.5 -34 q-52 0 -87 16.5t-54.5 46.5t-24.5 72t2 93q-51 -115 -126.5 -168.5t-165.5 -53.5q-53 0 -91 18.5t-63.5 50t-37.5 74t-12 91.5q0 56 14.5 113.5t42.5 110t69 98.5t93 79.5t115 53t136 19.5q41 0 83.5 -7.5t72.5 -22.5z" />
<glyph unicode="A" horiz-adv-x="1274" d="M998 498l-345 828q-5 11 -8.5 21t-7.5 21q-4 -11 -7.5 -21t-8.5 -21l-345 -828h722zM1231 0h-18q-9 0 -12 10l-195 468h-738l-195 -468q-3 -10 -14 -10h-16l584 1400h20z" />
<glyph unicode="B" horiz-adv-x="1239" d="M650 20q101 0 181 22t135.5 65.5t84.5 109t29 151.5q0 76 -30.5 137.5t-86 105t-135 66.5t-176.5 23h-396v-680h394zM256 1380v-660h350q112 0 190 31t127 79.5t71 107t22 114.5q0 156 -103.5 242t-316.5 86h-340zM596 1400q223 0 332.5 -89.5t109.5 -258.5 q0 -62 -24.5 -120t-67.5 -104t-102 -76.5t-128 -37.5q90 -6 161.5 -32.5t122 -71t77.5 -105.5t27 -137q0 -89 -30.5 -158t-89 -115.5t-143 -70.5t-191.5 -24h-418v1400h364z" />
<glyph unicode="C" horiz-adv-x="1366" d="M1266 189q4 0 7 -3l9 -8q-44 -43 -94.5 -78.5t-110.5 -61t-132 -40t-159 -14.5q-141 0 -260 49.5t-206 142.5t-135.5 225.5t-48.5 298.5q0 160 48.5 292t137 226.5t212 146t272.5 51.5q69 0 130 -10.5t115.5 -31.5t104.5 -51.5t98 -70.5l-4 -6q-2 -4 -10 -4 q-7 0 -35.5 24t-81.5 53t-131.5 53t-185.5 24q-142 0 -260.5 -48.5t-204 -139t-133.5 -219.5t-48 -289q0 -163 47.5 -292t131.5 -219t198.5 -137.5t248.5 -47.5q85 0 152 12t122.5 35t103 56.5t94.5 76.5q5 5 8 5z" />
<glyph unicode="D" horiz-adv-x="1519" d="M1380 700q0 -166 -47.5 -296t-133 -220t-204.5 -137t-263 -47h-500v1400h500q144 0 263 -47t204.5 -137t133 -220t47.5 -296zM1354 700q0 163 -45.5 289.5t-127.5 213.5t-196.5 132t-252.5 45h-476v-1360h476q138 0 252.5 45t196.5 132t127.5 213.5t45.5 289.5z" />
<glyph unicode="E" horiz-adv-x="1165" d="M1052 22l-2 -22h-818v1400h818v-22h-794v-656h674v-22h-674v-678h796z" />
<glyph unicode="F" horiz-adv-x="1128" d="M256 1378v-676h694v-22h-694v-680h-24v1400h818v-22h-794z" />
<glyph unicode="G" horiz-adv-x="1479" d="M1333 602v-464q-52 -35 -107 -63.5t-115.5 -48.5t-128 -31t-143.5 -11q-164 0 -294 49.5t-220.5 142.5t-139 225.5t-48.5 298.5q0 165 48 297.5t138 225.5t217.5 143t286.5 50q78 0 143 -9.5t121 -29t105.5 -50t96.5 -71.5l-4 -6q-3 -6 -10 -6q-5 0 -17.5 11.5t-35.5 28 t-58 36.5t-84 36.5t-112.5 28t-144.5 11.5q-152 0 -275 -47.5t-210 -137.5t-134 -219t-47 -292q0 -161 46 -290t133.5 -219t213.5 -138.5t285 -48.5q74 0 136.5 9.5t119 28t109.5 45t107 60.5v435h-314q-5 0 -8.5 3.5t-3.5 6.5v10h348z" />
<glyph unicode="H" horiz-adv-x="1496" d="M1264 1400v-1400h-24v700h-984v-700h-24v1400h24v-678h984v678h24z" />
<glyph unicode="I" horiz-adv-x="488" d="M256 0h-24v1400h24v-1400z" />
<glyph unicode="J" horiz-adv-x="815" d="M598 452q0 -118 -29 -205.5t-81.5 -146t-126 -87.5t-161.5 -29q-82 0 -172 30q0 2 1 3t1 3q2 3 3 6.5t9 3.5q10 0 23 -4t31.5 -9t43.5 -9t60 -4q85 0 154.5 28t118 84t75 140t26.5 196v948h24v-948z" />
<glyph unicode="K" horiz-adv-x="1222" d="M256 724h94q19 0 32.5 1t24 4.5t20.5 10.5t21 18l652 626q11 9 18 12.5t18 3.5h12l-680 -652q-18 -16 -29.5 -23t-30.5 -11q18 -3 31 -10.5t27 -21.5l722 -682h-10q-15 0 -21.5 3t-14.5 11l-688 650q-11 10 -20 18t-19.5 12.5t-25.5 7t-39 2.5h-94v-704h-24v1400h24v-676 z" />
<glyph unicode="L" horiz-adv-x="1000" d="M970 22v-22h-738v1400h24v-1378h714z" />
<glyph unicode="M" horiz-adv-x="1782" d="M1550 1400v-1400h-20v1338v9.5t1 9.5l-613 -1067q-7 -10 -14 -10h-6q-7 0 -14 10l-633 1068q1 -5 1 -10v-10v-1338h-20v1400h8q9 0 14 -8l636 -1071q4 -6 6.5 -11t4.5 -10q2 5 4.5 10t6.5 11l616 1071q5 8 14 8h8z" />
<glyph unicode="N" horiz-adv-x="1496" d="M1264 1400v-1400h-6q-6 0 -11 7l-996 1356q1 -7 1 -13v-12v-1338h-20v1400h8q9 0 14 -8l991 -1349q-1 5 -1 10.5v10.5v1336h20z" />
<glyph unicode="O" horiz-adv-x="1568" d="M1431 700q0 -166 -47.5 -298t-133 -224.5t-204.5 -142t-263 -49.5q-143 0 -261.5 49.5t-204 142t-133 224.5t-47.5 298q0 165 47.5 297.5t133 225.5t204 143t261.5 50q144 0 263 -49.5t204.5 -142.5t133 -225.5t47.5 -298.5zM1405 700q0 163 -45.5 292t-127.5 219 t-196.5 137.5t-252.5 47.5q-136 0 -250 -47.5t-196.5 -137.5t-129 -219t-46.5 -292t46.5 -291.5t129 -218t196.5 -137t250 -47.5q138 0 252.5 47.5t196.5 137t127.5 218t45.5 291.5z" />
<glyph unicode="P" horiz-adv-x="1118" d="M548 620q103 0 186 29.5t141.5 81t90.5 120.5t32 149q0 187 -112.5 283.5t-337.5 96.5h-292v-760h292zM548 1400q229 0 351.5 -99t122.5 -301q0 -87 -34.5 -160.5t-97.5 -126.5t-150 -83t-192 -30h-292v-600h-24v1400h316z" />
<glyph unicode="Q" horiz-adv-x="1568" d="M161 700q0 -163 46.5 -291.5t129 -218t196.5 -137t250 -47.5q138 0 252.5 47.5t196.5 137t127.5 218t45.5 291.5t-45.5 292t-127.5 219t-196.5 137.5t-252.5 47.5q-136 0 -250 -47.5t-196.5 -137.5t-129 -219t-46.5 -292zM1481 -326h-22q-8 0 -12.5 2.5t-7.5 5.5 l-350 373q-67 -34 -143.5 -51.5t-162.5 -17.5q-143 0 -261.5 49.5t-204 142t-133 224.5t-47.5 298q0 165 47.5 297.5t133 225.5t204 143t261.5 50q144 0 263 -49.5t204.5 -142.5t133 -225.5t47.5 -298.5q0 -113 -22 -210t-63.5 -177.5t-101 -142.5t-134.5 -104z" />
<glyph unicode="R" horiz-adv-x="1181" d="M256 696h282q103 0 185.5 24.5t141 70t90 111t31.5 148.5q0 171 -111 250.5t-319 79.5h-300v-684zM1136 0h-16q-8 0 -13 1.5t-13 10.5l-524 628q-8 10 -16.5 17t-19 11.5t-25 6t-35.5 1.5h-218v-676h-24v1400h324q219 0 336.5 -85t117.5 -265q0 -85 -33 -153.5 t-93 -116.5t-143.5 -75t-184.5 -29q10 -4 18 -10.5t16 -15.5z" />
<glyph unicode="S" horiz-adv-x="1058" d="M880 1272q-3 -6 -10 -6t-17 9.5t-26 24t-39.5 31.5t-56.5 31.5t-76 24t-99 9.5q-86 0 -152.5 -26.5t-111.5 -70.5t-68.5 -102t-23.5 -121q0 -81 31.5 -135t82.5 -91t117 -61.5t134 -47t134 -47.5t117 -63.5t82.5 -95t31.5 -141.5q0 -86 -29 -160.5t-84 -130t-135 -87.5 t-182 -32q-71 0 -127 12.5t-102.5 36t-85.5 57t-75 76.5l4 4q3 3 5 4.5t7 1.5q6 0 17.5 -12.5t31.5 -32t48 -41.5t68 -41.5t91.5 -32t117.5 -12.5q97 0 172.5 31t128 83.5t80 122.5t27.5 149q0 66 -20.5 114t-55.5 82.5t-81.5 59t-99.5 44t-108 36t-108 36.5t-99.5 45.5 t-81.5 62t-55.5 87t-20.5 119.5q0 67 25 128.5t73 108.5t118.5 75t161.5 28q102 0 180.5 -33t147.5 -105z" />
<glyph unicode="T" horiz-adv-x="1138" d="M1109 1378h-526v-1378h-24v1378h-530v22h1080v-22z" />
<glyph unicode="U" horiz-adv-x="1440" d="M720 4q113 0 202.5 40.5t151.5 110.5t95 164t33 201v880h24v-880q0 -111 -35 -209t-101 -171t-159.5 -115.5t-210.5 -42.5t-210.5 42.5t-159.5 115.5t-101 171t-35 209v880h24v-878q0 -107 33 -201.5t95 -165t151.5 -111t202.5 -40.5z" />
<glyph unicode="V" horiz-adv-x="1274" d="M1231 1400l-584 -1400h-20l-584 1400h18q9 0 12 -10l548 -1316q5 -11 8.5 -21t7.5 -21q4 11 7.5 21t8.5 21l548 1316q3 10 14 10h16z" />
<glyph unicode="W" horiz-adv-x="2002" d="M1940 1400l-444 -1400h-20l-466 1344q-3 10 -5 17.5t-4 14.5q-3 -13 -9 -32l-466 -1344h-20l-444 1400h18q9 0 12 -10l409 -1307q7 -24 15 -54q7 30 15 54l455 1307q3 10 14 10h4q9 0 12 -10l455 -1307q7 -24 15 -54q7 30 15 54l409 1307q3 10 14 10h16z" />
<glyph unicode="X" horiz-adv-x="1201" d="M1142 0h-22q-8 0 -11.5 5.5t-6.5 8.5l-501 692q-2 -3 -3.5 -6t-5.5 -8l-494 -678q-5 -5 -8.5 -9.5t-9.5 -4.5h-22l527 717l-503 683h22q8 0 11.5 -5.5t6.5 -8.5l479 -657q2 4 4 7t5 8l468 642q3 5 7.5 9.5t10.5 4.5h22l-501 -681z" />
<glyph unicode="Y" horiz-adv-x="1140" d="M582 595v-595h-24v595l-522 805h20q9 0 14 -8l471 -730q8 -13 16 -24.5t13 -23.5q6 12 13.5 23.5t15.5 24.5l471 730q5 8 14 8h20z" />
<glyph unicode="Z" horiz-adv-x="1188" d="M1099 1396q0 -9 -8 -20l-974 -1354h980v-22h-1014v4q0 6 1.5 9.5t4.5 8.5l976 1356h-966v22h1000v-4z" />
<glyph unicode="[" horiz-adv-x="578" d="M242 1484v-1708h238q14 0 14 -12v-6h-274v1744h274v-6q0 -12 -14 -12h-238z" />
<glyph unicode="\" horiz-adv-x="840" d="M85 1440h10q14 0 20 -12l640 -1506h-8q-6 0 -12.5 2t-9.5 10z" />
<glyph unicode="]" horiz-adv-x="578" d="M358 -242h-274v6q0 12 14 12h238v1708h-238q-14 0 -14 12v6h274v-1744z" />
<glyph unicode="^" horiz-adv-x="1160" d="M952 732h-14q-13 0 -20 14l-320 586q-5 10 -10 19.5t-8 20.5q-3 -11 -8 -20.5t-10 -19.5l-320 -586q-2 -5 -7 -9.5t-13 -4.5h-14l366 668h12z" />
<glyph unicode="_" horiz-adv-x="886" d="M837 -240v-22h-788v22h788z" />
<glyph unicode="`" horiz-adv-x="800" d="M274 1416q17 0 25 -4t17 -18l164 -236h-14q-11 0 -16 8l-202 250h26z" />
<glyph unicode="a" horiz-adv-x="946" d="M748 502q-315 -10 -468.5 -78.5t-153.5 -193.5q0 -59 19.5 -101.5t51.5 -70t73 -41t84 -13.5q69 0 125 16t103.5 43t88 62.5t77.5 74.5v302zM154 840q72 76 149 116t179 40q75 0 129.5 -24t90.5 -69t53 -109.5t17 -145.5v-648h-4q-14 0 -14 16l-6 160q-42 -44 -84 -79.5 t-89 -60.5t-101 -38.5t-120 -13.5q-44 0 -89 13.5t-81 43t-59 76t-23 113.5q0 66 39 118.5t118.5 89.5t201 58.5t287.5 25.5v126q0 77 -17 138t-50 103t-83 64.5t-116 22.5q-52 0 -94 -11t-75 -27t-57.5 -35t-42.5 -35t-29 -27t-16 -11q-4 0 -10 6z" />
<glyph unicode="b" horiz-adv-x="1087" d="M208 195q64 -103 144 -145t182 -42q104 0 180.5 37.5t126.5 105t74.5 160.5t24.5 205q0 225 -93.5 342.5t-262.5 117.5q-62 0 -116 -16t-100.5 -45.5t-86.5 -72t-73 -95.5v-552zM208 779q65 100 157.5 158.5t218.5 58.5q90 0 161 -31.5t119.5 -92.5t74 -150t25.5 -204 q0 -119 -28 -217t-82 -167.5t-134 -107.5t-185 -38q-109 0 -190 43t-137 133l-4 -150q0 -5 -2 -9.5t-10 -4.5h-8v1440h24v-661z" />
<glyph unicode="c" horiz-adv-x="933" d="M822 888q-4 -4 -8 -4q-6 0 -22.5 14.5t-48 31.5t-79 31.5t-114.5 14.5q-95 0 -170 -34t-127 -97t-79.5 -153t-27.5 -202q0 -116 27.5 -205.5t78.5 -151t122.5 -93.5t159.5 -32q78 0 132 18t89 40t53 40t24 18q4 0 8 -4l4 -4q-15 -22 -44 -44.5t-69 -41t-90 -30.5 t-107 -12q-95 0 -171 34t-129.5 98.5t-82.5 157.5t-29 212q0 114 29 207.5t84 159.5t134.5 102.5t180.5 36.5q89 0 158.5 -28.5t119.5 -73.5z" />
<glyph unicode="d" horiz-adv-x="1087" d="M879 789q-32 51 -67.5 87t-75.5 58t-85.5 32t-97.5 10q-103 0 -179 -37.5t-126.5 -103.5t-75.5 -155t-25 -192q0 -244 93.5 -362t274.5 -118q109 0 202.5 61t161.5 168v552zM903 1440v-1440h-6q-14 0 -14 16l-4 190q-66 -101 -159.5 -159.5t-204.5 -58.5 q-191 0 -291.5 122.5t-100.5 377.5q0 106 27 199t81 161.5t134.5 108t187.5 39.5q216 0 326 -175v619h24z" />
<glyph unicode="e" horiz-adv-x="1031" d="M900 582q0 95 -27 168.5t-74.5 123.5t-111.5 76t-137 26q-88 0 -158.5 -28t-121.5 -80t-81.5 -124.5t-39.5 -161.5h751zM894 116q-17 -21 -50.5 -43.5t-79 -41.5t-99.5 -31t-111 -12q-101 0 -181 35.5t-135.5 102.5t-85.5 164t-30 220q0 108 29 197.5t84 153.5 t134.5 99.5t180.5 35.5q77 0 145 -27.5t118.5 -81.5t79.5 -132.5t29 -180.5q0 -5 -3.5 -7.5t-8.5 -2.5h-762q-1 -14 -1.5 -27t-0.5 -27q0 -122 29 -215.5t82.5 -157t129 -96.5t167.5 -33q82 0 142 18t100 40t61 40t25 18t8 -4z" />
<glyph unicode="f" horiz-adv-x="664" d="M237 0v918l-164 4q-12 0 -12 8v8h176v150q0 84 20 145.5t55 101.5t84 59.5t108 19.5q29 0 60 -5.5t52 -16.5l-2 -8q-2 -7 -8 -6t-18.5 4.5t-33 7.5t-50.5 4q-52 0 -96.5 -16.5t-77 -53t-51 -95t-18.5 -141.5v-150h349v-20h-349v-918h-24z" />
<glyph unicode="g" horiz-adv-x="1004" d="M794 684q0 65 -21.5 119t-61.5 92.5t-97 59.5t-128 21t-128 -21t-97 -59.5t-61.5 -92.5t-21.5 -119t21.5 -119t61.5 -92.5t97 -59.5t128 -21q73 0 130 21t96.5 59.5t60.5 92.5t21 119zM902 -78q0 56 -27.5 89.5t-73.5 52t-105 25.5t-123 10.5t-127 6.5t-116 13 q-47 -17 -87 -39t-68.5 -51t-44.5 -64t-16 -77q0 -51 27 -95.5t76.5 -77.5t120.5 -52t160 -19q79 0 152 20.5t129 57t89.5 87.5t33.5 113zM938 932v-4q0 -6 -5 -10t-11 -4l-196 -4q45 -42 68.5 -99t23.5 -127t-23.5 -127.5t-67 -98.5t-104.5 -63.5t-137 -22.5 q-50 0 -92.5 9.5t-79.5 27.5q-50 -28 -82 -70t-32 -81q0 -50 31 -76.5t82 -39.5t116 -16.5t133 -6.5t133 -10t116 -27.5t82 -58t31 -101.5q0 -59 -30.5 -112.5t-86 -95t-134 -66t-175.5 -24.5q-99 0 -175 21t-128 57t-78.5 84t-26.5 102q0 41 15 77.5t42.5 66.5t66.5 54 t87 40q-55 14 -89 44.5t-34 87.5q0 20 8.5 42t23.5 43.5t36.5 41t48.5 34.5q-68 40 -104.5 108t-36.5 157q0 69 23 126.5t66.5 98.5t104.5 64t138 23q65 0 118.5 -16.5t95.5 -47.5h238z" />
<glyph unicode="h" horiz-adv-x="1087" d="M208 776q34 50 76.5 91t91.5 69.5t103 44t111 15.5q163 0 243.5 -97t80.5 -271v-628h-24v628q0 82 -18 146.5t-55.5 109.5t-94 68.5t-132.5 23.5q-115 0 -212 -61t-170 -169v-746h-24v1440h24v-664z" />
<glyph unicode="i" horiz-adv-x="416" d="M220 980v-980h-24v980h24zM264 1344q0 -21 -17.5 -37.5t-38.5 -16.5q-23 0 -39.5 16.5t-16.5 37.5q0 23 16.5 39.5t39.5 16.5q21 0 38.5 -16.5t17.5 -39.5z" />
<glyph unicode="j" horiz-adv-x="416" d="M220 980v-1152q0 -44 -14 -81t-39.5 -64t-61.5 -42t-81 -15q-27 0 -46.5 5.5t-37.5 16.5l4 8q4 8 9 7.5t14 -4.5t23 -8.5t34 -4.5q85 0 128.5 50.5t43.5 131.5v1152h24zM263 1344q0 -21 -17.5 -37.5t-38.5 -16.5q-23 0 -39.5 16.5t-16.5 37.5q0 23 16.5 39.5t39.5 16.5 q21 0 38.5 -16.5t17.5 -39.5z" />
<glyph unicode="k" horiz-adv-x="897" d="M208 1440v-904h46q9 0 21 2t27 16l466 410q8 8 16 12t20 4h18l-496 -434q-13 -12 -25 -17q14 -4 24 -10.5t19 -14.5l518 -504h-18q-8 0 -14 2t-14 10l-492 478q-18 16 -32 22t-44 6h-40v-518h-24v1440h24z" />
<glyph unicode="l" horiz-adv-x="416" d="M220 1440v-1440h-24v1440h24z" />
<glyph unicode="m" horiz-adv-x="1579" d="M184 0v980h6q14 0 14 -16l3 -185q57 99 139 158t178 59q118 0 184.5 -73t82.5 -208q12 71 41.5 124t71.5 88t93.5 52t106.5 17q69 0 125 -24t95 -70.5t60.5 -115.5t21.5 -158v-628h-24v628q0 169 -72.5 258.5t-205.5 89.5q-59 0 -113.5 -22t-96.5 -65.5t-67 -108.5 t-25 -152v-628h-24v628q0 82 -16.5 146.5t-49 109.5t-80.5 68.5t-110 23.5q-95 0 -174.5 -60.5t-139.5 -167.5v-748h-24z" />
<glyph unicode="n" horiz-adv-x="1087" d="M208 776q34 50 76.5 91t91.5 69.5t103 44t111 15.5q163 0 243.5 -97t80.5 -271v-628h-24v628q0 82 -18 146.5t-55.5 109.5t-94 68.5t-132.5 23.5q-115 0 -212 -61t-170 -169v-746h-24v980h6q14 0 14 -16z" />
<glyph unicode="o" horiz-adv-x="1101" d="M550 996q103 0 183 -36.5t134.5 -102.5t82.5 -159.5t28 -207.5t-28 -206.5t-82.5 -158.5t-134.5 -101.5t-183 -35.5q-104 0 -183.5 35.5t-134 101.5t-82.5 158.5t-28 206.5t28 207.5t82.5 159.5t134 102.5t183.5 36.5zM550 8q100 0 176 35t126.5 98t76 152t25.5 197 t-25.5 197.5t-76 153.5t-126.5 99.5t-176 35.5q-101 0 -176.5 -35.5t-126 -99.5t-76 -153.5t-25.5 -197.5t25.5 -197t76 -152t126 -98t176.5 -35z" />
<glyph unicode="p" horiz-adv-x="1087" d="M208 195q64 -103 143 -145t183 -42q103 0 179 37.5t126.5 103.5t75.5 155t25 192q0 244 -93.5 362t-274.5 118q-109 0 -202.5 -61t-161.5 -168v-552zM208 778q66 101 159.5 159.5t204.5 58.5q190 0 291 -122.5t101 -377.5q0 -107 -27.5 -199.5t-81.5 -161t-134.5 -108 t-186.5 -39.5q-216 0 -326 175v-523h-24v1340h6q14 0 14 -16z" />
<glyph unicode="q" horiz-adv-x="1085" d="M879 789q-60 99 -141.5 143t-184.5 44t-179 -37.5t-126.5 -103.5t-75.5 -155t-25 -192q0 -244 93.5 -362t274.5 -118q109 0 202.5 61t161.5 168v552zM903 980v-1340h-24v565q-66 -100 -159.5 -158.5t-204.5 -58.5q-191 0 -291.5 122.5t-100.5 377.5q0 106 27 199 t81 161.5t134.5 108t187.5 39.5q109 0 189.5 -43t136.5 -133l4 144q0 16 14 16h6z" />
<glyph unicode="r" horiz-adv-x="688" d="M208 693q21 72 50 128.5t69.5 95.5t93 59t119.5 20q29 0 59.5 -4.5t54.5 -17.5l-4 -8q-2 -3 -3.5 -5.5t-6.5 -2.5t-13 2.5t-19.5 5.5t-28 5.5t-39.5 2.5q-66 0 -117 -21t-90.5 -62t-70 -103t-54.5 -144v-644h-24v980h6q14 0 14 -16z" />
<glyph unicode="s" horiz-adv-x="837" d="M693 894q-3 -6 -10 -6q-8 0 -23.5 13.5t-45 30t-74.5 30.5t-111 14q-62 0 -113.5 -19t-88.5 -50.5t-57.5 -72.5t-20.5 -86q0 -53 25 -88.5t65.5 -60t92.5 -41.5t106 -33.5t106 -35t92.5 -46.5t65.5 -68.5t25 -100.5t-21.5 -113t-62.5 -92t-100.5 -62t-135.5 -23 q-53 0 -95 8.5t-77 23.5t-66 37t-61 49l6 6q3 3 5 4.5t7 1.5q8 0 26 -17t50.5 -38t82.5 -38t122 -17t127.5 21t93.5 57.5t57.5 85t19.5 104.5q0 57 -25 94.5t-65.5 63.5t-92.5 43.5t-106 33.5t-106 34t-92.5 44.5t-65.5 65.5t-25 97q0 49 22 93.5t62 79t95.5 55t122.5 20.5 q83 0 146 -22.5t122 -73.5z" />
<glyph unicode="t" horiz-adv-x="657" d="M423 -16q-86 0 -135 47t-49 155v732h-162q-14 0 -14 10v6l176 4l8 394q0 5 2.5 9.5t7.5 4.5h6v-408h334v-20h-334v-732q0 -50 12.5 -84.5t34.5 -56t51 -31.5t62 -10q42 0 73.5 13t53.5 28t35.5 28t19.5 13q4 0 8 -4l4 -4q-15 -20 -36.5 -37.5t-47 -30t-54 -19.5t-56.5 -7 z" />
<glyph unicode="u" horiz-adv-x="1085" d="M903 980v-980h-6q-14 0 -14 16l-4 188q-35 -50 -77 -91t-91 -69.5t-103 -44t-111 -15.5q-164 0 -244 97t-80 271v628h24v-628q0 -82 18 -146.5t55.5 -109.5t93.5 -68.5t133 -23.5q115 0 212 61t170 169v746h24z" />
<glyph unicode="v" horiz-adv-x="978" d="M924 980l-426 -980h-18l-426 980h14q8 0 12 -4.5t6 -9.5l390 -898q5 -9 8 -18.5t5 -18.5q2 9 5 18.5t8 18.5l390 898q7 14 18 14h14z" />
<glyph unicode="w" horiz-adv-x="1494" d="M1429 980l-336 -980h-10q-9 0 -12 10l-314 912q-6 16 -9 29q-3 -13 -9 -29l-318 -912q-3 -10 -10 -10h-10l-336 980h14q8 0 12 -4.5t6 -9.5l300 -898q4 -11 7.5 -21.5t5.5 -21.5q2 11 5.5 21.5t7.5 21.5l312 908q3 10 10 10h6q7 0 10 -10l310 -908q8 -22 12 -40 q3 10 6.5 19.5t7.5 20.5l300 898q7 14 18 14h14z" />
<glyph unicode="x" horiz-adv-x="888" d="M827 0h-22q-8 0 -11.5 5.5t-6.5 8.5l-343 474q-2 -3 -3.5 -6t-5.5 -8l-334 -460q-5 -5 -8.5 -9.5t-9.5 -4.5h-22l367 499l-353 481h22q8 0 11.5 -5.5t6.5 -8.5l330 -455q3 7 8 15l320 440q3 5 7.5 9.5t10.5 4.5h22l-353 -479z" />
<glyph unicode="y" horiz-adv-x="979" d="M927 980l-578 -1318q-3 -8 -9 -15t-15 -7h-14l168 377l-424 963h14q8 0 13 -4.5t7 -9.5l390 -890q8 -17 13 -37q2 9 5.5 18.5t7.5 18.5l390 890q7 14 18 14h14z" />
<glyph unicode="z" horiz-adv-x="872" d="M798 980v-10q0 -3 -1.5 -5t-4.5 -7l-686 -938h662v-20h-696v6q0 5 1.5 7t4.5 7l688 940h-660v20h692z" />
<glyph unicode="{" horiz-adv-x="580" d="M438 1484q-47 0 -86.5 -17t-69 -48.5t-46 -75.5t-16.5 -99q0 -57 10.5 -112.5t23.5 -111t23.5 -111t10.5 -111.5q0 -38 -13.5 -67.5t-35 -50.5t-47.5 -33.5t-51 -16.5q25 -4 51 -16.5t47.5 -33.5t35 -50.5t13.5 -67.5q0 -56 -10.5 -111.5t-23.5 -111t-23.5 -111 t-10.5 -112.5q0 -55 16.5 -99t46 -75.5t69 -48.5t86.5 -17h44q12 0 12 -10v-8h-56q-53 0 -97.5 20t-76 55t-49 82t-17.5 101q0 59 10.5 114.5t23.5 109.5t23.5 108.5t10.5 113.5q0 34 -13 63t-36 50t-54.5 33t-68.5 12v20q37 0 68.5 11.5t54.5 32.5t36 50t13 64 q0 58 -10.5 113t-23.5 109t-23.5 109.5t-10.5 114.5q0 54 17.5 101t49 82t76 55t97.5 20h56v-8q0 -10 -12 -10h-44z" />
<glyph unicode="|" horiz-adv-x="456" d="M218 1502h20v-1863h-20v1863z" />
<glyph unicode="}" horiz-adv-x="580" d="M486 620q-37 0 -68.5 -12t-54.5 -33t-36 -50t-13 -63q0 -59 10.5 -113.5t23.5 -108.5t23.5 -109.5t10.5 -114.5q0 -54 -17.5 -101t-49 -82t-76 -55t-97.5 -20h-56v8q0 10 12 10h44q46 0 86 17t69.5 48.5t46 75.5t16.5 99q0 57 -10.5 112.5t-23.5 111t-23.5 111 t-10.5 111.5q0 38 13.5 67.5t35 50.5t47.5 33.5t51 16.5q-25 4 -51 16.5t-47.5 33.5t-35 50.5t-13.5 67.5q0 56 10.5 111.5t23.5 111t23.5 111t10.5 112.5q0 55 -16.5 99t-46 75.5t-69.5 48.5t-86 17h-44q-12 0 -12 10v8h56q53 0 97.5 -20t76 -55t49 -82t17.5 -101 q0 -59 -10.5 -114.5t-23.5 -109.5t-23.5 -109t-10.5 -113q0 -35 13 -64t36 -50t54.5 -32.5t68.5 -11.5v-20z" />
<glyph unicode="~" horiz-adv-x="1160" d="M799 528q42 0 75.5 15.5t57.5 42.5t37 63.5t14 78.5h20q0 -44 -13.5 -83.5t-39.5 -70t-64 -48.5t-87 -18q-51 0 -107 22.5t-112 49.5t-110.5 49.5t-102.5 22.5q-42 0 -75.5 -15.5t-57.5 -42.5t-37 -63.5t-14 -78.5h-20q0 43 13.5 83t39.5 70.5t64 48.5t87 18 q51 0 107 -22.5t112 -49.5t110.5 -49.5t102.5 -22.5z" />
<glyph unicode="&#xa1;" horiz-adv-x="422" d="M198 -360v558q0 44 0.5 82.5t1 78.5t1.5 86t3 105h16q1 -59 2.5 -105t2 -86t1 -78.5t0.5 -82.5v-558h-28zM144 932q0 27 18.5 45.5t45.5 18.5t46.5 -18.5t19.5 -45.5t-19.5 -46.5t-46.5 -19.5t-45.5 19.5t-18.5 46.5z" />
<glyph unicode="&#xa2;" horiz-adv-x="1160" d="M979 116q-15 -21 -46 -43.5t-74.5 -41t-97.5 -30.5t-116 -13l-8 -240q0 -16 -12 -16h-10l9 256q-101 3 -181.5 38t-137.5 99.5t-87.5 156.5t-30.5 208q0 114 32 207.5t92 159.5t147.5 102.5t198.5 36.5l8 230q0 16 12 16h10l-8 -246q90 -4 160.5 -31.5t121.5 -70.5l-6 -6 q-4 -4 -8 -4q-6 0 -23 13.5t-49 30t-80.5 31t-116.5 17.5l-32 -968q84 1 142.5 19t96 39.5t57 39.5t25.5 18q4 0 8 -4zM657 976q-105 0 -188 -34t-140 -97t-87.5 -153t-30.5 -202q0 -113 29.5 -201.5t83.5 -150t130.5 -94.5t169.5 -36z" />
<glyph unicode="&#xa3;" horiz-adv-x="1160" d="M72 656q0 6 4.5 9t9.5 3h192v322q0 92 25 170t74 134.5t122 88t169 31.5q74 0 130 -18t97 -48t69 -70.5t48 -85.5l-10 -2q-10 -3 -18 10q-20 36 -44.5 71t-60.5 62t-87 44t-124 17q-90 0 -158.5 -30t-114.5 -83.5t-69.5 -128t-23.5 -162.5v-322h512v-10q0 -5 -3.5 -7.5 t-8.5 -2.5h-500v-358q0 -52 -12 -93.5t-34 -74.5t-53 -58.5t-70 -44.5q20 2 36.5 2.5t36.5 0.5h882v-10q0 -5 -4 -8.5t-10 -3.5h-976v22q35 16 67.5 38t57.5 54t40 75t15 101v358h-206v8z" />
<glyph unicode="&#xa4;" horiz-adv-x="1160" d="M270 670q0 -64 24.5 -120.5t66.5 -98.5t98.5 -66.5t120.5 -24.5t121 24.5t99.5 66.5t67 98.5t24.5 120.5t-24.5 121t-67 99.5t-99.5 67t-121 24.5t-120.5 -24.5t-98.5 -67t-66.5 -99.5t-24.5 -121zM822 898q42 -45 66 -103.5t24 -124.5t-24.5 -124t-66.5 -103l157 -157 l-14 -14l-157 157q-45 -42 -103 -65.5t-124 -23.5t-123.5 24t-102.5 66l-158 -158l-14 14l158 158q-42 45 -66 102.5t-24 123.5t23.5 124t65.5 103l-157 157l14 14l157 -157q45 42 103 66.5t124 24.5t124.5 -24t103.5 -66l156 156l14 -14z" />
<glyph unicode="&#xa5;" horiz-adv-x="1160" d="M599 608h381v-20h-388v-128h388v-20h-388v-440h-24v440h-388v20h388v128h-388v20h381l-435 792h20q9 0 14 -8l406 -750q4 -8 7.5 -13.5t6.5 -13.5q3 8 6.5 13.5t7.5 13.5l406 750q5 8 14 8h20z" />
<glyph unicode="&#xa6;" horiz-adv-x="462" d="M221 1502h20v-762h-20v762zM221 402h20v-762h-20v762z" />
<glyph unicode="&#xa7;" horiz-adv-x="952" d="M151 728q0 -49 23 -86.5t61.5 -67.5t89 -55t104.5 -48.5t108 -48t100 -53.5q85 39 122.5 95.5t37.5 129.5q0 54 -20.5 95t-55.5 73t-80 56.5t-94.5 47t-99.5 44t-94 46.5q-111 -44 -156.5 -100.5t-45.5 -127.5zM769 1314q-3 -6 -10 -6q-8 0 -23.5 13.5t-45 30t-74.5 30.5 t-111 14q-62 0 -113.5 -19t-88.5 -50.5t-57.5 -72.5t-20.5 -86q0 -53 25.5 -92t67.5 -69.5t95 -55t109 -49t109 -52t95 -63t67.5 -82t25.5 -109.5q0 -85 -43.5 -144t-119.5 -96q55 -37 89 -85.5t34 -116.5q0 -60 -21.5 -113t-62.5 -92t-100.5 -62t-135.5 -23 q-53 0 -94.5 8.5t-77 23.5t-66 37t-60.5 49l6 6q3 3 5 4.5t7 1.5q8 0 26 -17t50.5 -38t82 -38t121.5 -17t127.5 21t93.5 57.5t57.5 85t19.5 104.5q0 57 -27 99t-71 75t-100.5 59.5t-115.5 51.5t-115.5 52t-100.5 60.5t-71 77t-27 101.5q0 36 11 70t35 64.5t63 57t96 47.5 q-29 18 -53 38t-41 44.5t-27 54t-10 64.5q0 49 22 93.5t62 79t95.5 55t122.5 20.5q83 0 146 -22.5t122 -73.5z" />
<glyph unicode="&#xa8;" horiz-adv-x="800" d="M292 1280q0 -21 -17.5 -37.5t-38.5 -16.5q-23 0 -39.5 16.5t-16.5 37.5q0 23 16.5 39.5t39.5 16.5q21 0 38.5 -16.5t17.5 -39.5zM620 1280q0 -21 -17.5 -37.5t-38.5 -16.5q-23 0 -39.5 16.5t-16.5 37.5q0 23 16.5 39.5t39.5 16.5q21 0 38.5 -16.5t17.5 -39.5z" />
<glyph unicode="&#xa9;" horiz-adv-x="1698" d="M1171 384q4 2 8 2l12 -10q-30 -26 -63.5 -48t-74 -38t-88.5 -25t-106 -9q-95 0 -174.5 31t-137 88.5t-90 139.5t-32.5 185q0 100 32.5 182t91.5 140.5t141.5 91t182.5 32.5q51 0 92 -6.5t76.5 -19t67.5 -32t64 -44.5l-4 -6q-2 -4 -10 -4q-6 0 -23 14.5t-50 31.5t-85 31.5 t-128 14.5q-94 0 -172 -29.5t-134 -85t-87 -134.5t-31 -177q0 -100 31 -178.5t85.5 -133t129.5 -83.5t164 -29q57 0 101.5 7t81 20.5t67.5 34t62 46.5zM135 700q0 148 56 278t153 227t227 153t278 56t278 -56t227 -153t153 -227t56 -278t-56 -278t-153 -227t-227 -153 t-278 -56t-278 56t-227 153t-153 227t-56 278zM159 700q0 -143 54 -269t147.5 -219.5t219.5 -147.5t269 -54q96 0 184 24.5t165 69.5t140 108t108.5 139.5t70 164.5t24.5 184q0 95 -24.5 183.5t-70 165.5t-108.5 140t-140 108.5t-165.5 70t-183.5 24.5t-183.5 -24.5 t-165 -70t-139.5 -108.5t-108 -140t-69.5 -165.5t-24.5 -183.5z" />
<glyph unicode="&#xaa;" horiz-adv-x="736" d="M541 1126q-192 -6 -284 -45.5t-92 -108.5q0 -33 12 -56.5t31.5 -38.5t44 -22t50.5 -7q41 0 74.5 9t62.5 24.5t53.5 36t47.5 42.5v166zM177 1322q44 45 91 67.5t109 22.5q95 0 140.5 -53.5t45.5 -148.5v-372h-8q-8 0 -10 10l-4 88q-52 -51 -107 -79.5t-133 -28.5 q-29 0 -57 8t-50.5 25t-36.5 44t-14 65t23 70t72 55t124 36t179 15v64q0 88 -39 135t-125 47q-47 0 -80 -12.5t-55 -27.5t-34.5 -27.5t-18.5 -12.5q-4 0 -8 4z" />
<glyph unicode="&#xab;" horiz-adv-x="739" d="M365 166q6 -9 4.5 -15t-6.5 -9l-6 -4l-234 370v4l234 370l6 -4q5 -3 6.5 -9t-4.5 -15l-204 -322q-12 -18 -18 -22q6 -4 18 -22zM585 166q6 -9 4.5 -15t-6.5 -9l-6 -4l-234 370v4l234 370l6 -4q5 -3 6.5 -9t-4.5 -15l-204 -322q-12 -18 -18 -22q6 -4 18 -22z" />
<glyph unicode="&#xac;" horiz-adv-x="1160" d="M985 360h-22v300h-780v20h802v-320z" />
<glyph unicode="&#xad;" horiz-adv-x="738" d="M149 598h440v-20h-440v20z" />
<glyph unicode="&#xae;" horiz-adv-x="1698" d="M809 704q130 0 202 56t72 160q0 106 -65.5 153t-196.5 47h-188v-416h176zM821 1140q137 0 211.5 -53.5t74.5 -166.5q0 -53 -20.5 -95.5t-57 -73t-88 -47.5t-113.5 -20q17 -7 33 -26l334 -398h-20q-5 0 -8 1t-8 7l-330 394q-8 9 -19.5 15.5t-40.5 6.5h-136v-424h-24v880 h212zM849 10q96 0 184 24.5t165 69.5t140 108t108.5 139.5t70 164.5t24.5 184q0 95 -24.5 183.5t-70 165.5t-108.5 140t-140 108.5t-165.5 70t-183.5 24.5t-183.5 -24.5t-165 -70t-139.5 -108.5t-108 -140t-69.5 -165.5t-24.5 -183.5q0 -143 54 -269t147.5 -219.5 t219.5 -147.5t269 -54zM849 1414q148 0 278 -56t227 -153t153 -227t56 -278t-56 -278t-153 -227t-227 -153t-278 -56t-278 56t-227 153t-153 227t-56 278t56 278t153 227t227 153t278 56z" />
<glyph unicode="&#xaf;" horiz-adv-x="800" d="M140 1290h520v-20h-520v20z" />
<glyph unicode="&#xb0;" horiz-adv-x="826" d="M133 1140q0 58 22 108t59.5 87.5t88.5 59t110 21.5q58 0 109.5 -21.5t89 -59t59.5 -87.5t22 -108t-22 -108.5t-59.5 -88t-89 -59.5t-109.5 -22q-59 0 -110 22t-88.5 59.5t-59.5 88t-22 108.5zM157 1140q0 -53 20 -100t54.5 -81.5t81.5 -54.5t100 -20t100 20t81.5 54.5 t54.5 81.5t20 100t-20 100t-54.5 81.5t-81.5 54.5t-100 20t-100 -20t-81.5 -54.5t-54.5 -81.5t-20 -100z" />
<glyph unicode="&#xb1;" horiz-adv-x="1160" d="M119 100h922v-20h-922v20zM1041 680v-20h-452v-432h-20v432h-450v20h450v430h20v-430h452z" />
<glyph unicode="&#xb2;" d="M543 920q8 0 8 -8v-12h-442v8q0 6 6 12l248 252q31 31 58 60.5t47 59.5t31.5 62.5t11.5 69.5q0 43 -15 74.5t-39 52t-55.5 30t-64.5 9.5q-75 0 -123 -43.5t-63 -112.5q-3 -10 -14 -10l-10 2q6 43 24 77t45 58t63 36.5t78 12.5q37 0 72.5 -11t63 -33.5t44 -57.5t16.5 -84 q0 -40 -12.5 -74.5t-33.5 -66t-49 -61t-59 -60.5l-242 -245q25 3 62 3h344z" />
<glyph unicode="&#xb3;" d="M127 1426q6 43 24 77t45 58t63 36.5t78 12.5q37 0 72 -10.5t61.5 -32t42.5 -54.5t16 -79q0 -35 -12.5 -64t-33 -50.5t-48 -35.5t-57.5 -20q83 -11 127 -58t44 -118q0 -41 -16.5 -76.5t-46.5 -62t-70.5 -42t-88.5 -15.5q-62 0 -102 17.5t-64.5 43.5t-37.5 57t-20 58l8 4 q3 2 9 1.5t9 -9.5q2 -6 9.5 -31t28 -52t58.5 -49t102 -22q49 0 86.5 16.5t62 42t37 57t12.5 60.5q0 35 -12 65.5t-37.5 53t-67 35t-99.5 12.5v16q94 3 146 47.5t52 116.5q0 41 -14 71t-38 49.5t-54.5 28.5t-63.5 9q-75 0 -123 -43.5t-63 -112.5q-3 -10 -12 -10z" />
<glyph unicode="&#xb4;" horiz-adv-x="800" d="M568 1416l-202 -250q-5 -8 -16 -8h-14l164 236q9 14 17 18t25 4h26z" />
<glyph unicode="&#xb5;" horiz-adv-x="1250" d="M1177 12v-10q0 -10 -44 -10q-41 0 -79 12t-66.5 37.5t-46 65.5t-17.5 97q-69 -102 -168.5 -161t-215.5 -59q-130 0 -204 61.5t-99 174.5q1 -25 1.5 -52.5l1 -55t0.5 -54v-48.5v-370h-12q-6 0 -9 3.5t-3 8.5v1328h24v-628q0 -82 18 -146.5t55.5 -109.5t93.5 -68.5 t133 -23.5q115 0 212 59.5t170 167.5v749h24v-773q0 -51 15 -88t42 -60.5t64 -35t82 -11.5h28z" />
<glyph unicode="&#xb6;" horiz-adv-x="1238" d="M1168 1378h-230v-1558h-24v1558h-372v-1558h-24v912q-103 0 -184 26t-137 72t-85.5 109t-29.5 137q0 75 29.5 135t85.5 102t137 64.5t184 22.5h650v-22z" />
<glyph unicode="&#xb7;" horiz-adv-x="454" d="M167 590q0 26 17.5 44t40.5 18q26 0 44 -18t18 -44q0 -23 -18 -40.5t-44 -17.5q-23 0 -40.5 17.5t-17.5 40.5z" />
<glyph unicode="&#xb8;" horiz-adv-x="800" d="M381 -110q43 -7 78 -16t60 -23.5t39 -36t14 -52.5q0 -29 -11.5 -51t-32.5 -37.5t-49.5 -23.5t-62.5 -8q-41 0 -81 14.5t-63 37.5l4 4q6 6 10 6t13 -7t25 -15t39.5 -15t58.5 -7q60 0 94 26.5t34 73.5q0 31 -15 51t-41 32.5t-61 19t-75 11.5l40 126h18z" />
<glyph unicode="&#xb9;" d="M538 918v-18h-354v18h168v626l4 33l-176 -159q-7 -7 -14 0l-6 10l200 178h16v-688h162z" />
<glyph unicode="&#xba;" horiz-adv-x="812" d="M407 1412q64 0 113.5 -21t83.5 -59.5t51.5 -92.5t17.5 -121t-17.5 -121t-51.5 -92t-83.5 -58.5t-113.5 -20.5q-65 0 -114.5 20.5t-84 58.5t-52 92t-17.5 121t17.5 121t52 92.5t84 59.5t114.5 21zM407 842q61 0 107 20t77 56t46.5 87t15.5 113t-15.5 113.5t-46.5 88 t-77 56.5t-107 20q-62 0 -108 -20t-77.5 -56.5t-47 -88t-15.5 -113.5t15.5 -113t47 -87t77.5 -56t108 -20z" />
<glyph unicode="&#xbb;" horiz-adv-x="741" d="M398 512v-4l-234 -370l-6 4q-5 3 -6.5 9t4.5 15l204 322q12 18 18 22q-6 4 -18 22l-204 322q-6 9 -4.5 15t6.5 9l6 4zM618 512v-4l-234 -370l-6 4q-5 3 -6.5 9t4.5 15l204 322q12 18 18 22q-6 4 -18 22l-204 322q-6 9 -4.5 15t6.5 9l6 4z" />
<glyph unicode="&#xbc;" horiz-adv-x="1426" d="M342 12q-5 -8 -10.5 -10t-11.5 -2h-10l784 1388q6 12 20 12h12zM496 716v-18h-354v18h168v626l4 33l-176 -159q-7 -7 -14 0l-6 10l200 178h16v-688h162zM1178 230v416q0 7 0.5 13t1.5 14l-334 -443h332zM1340 230v-10q0 -8 -10 -8h-132v-212h-20v212h-344q-12 0 -12 6 l-2 10l360 474h18v-472h142z" />
<glyph unicode="&#xbd;" horiz-adv-x="1406" d="M296 12q-5 -8 -10.5 -10t-11.5 -2h-10l784 1388q6 12 20 12h12zM500 716v-18h-354v18h168v626l4 33l-176 -159q-7 -7 -14 0l-6 10l200 178h16v-688h162zM1292 20q8 0 8 -8v-12h-442v8q0 6 6 12l248 252q31 31 58 60.5t47 59.5t31.5 62.5t11.5 69.5q0 43 -15 74.5t-39 52 t-55.5 30t-64.5 9.5q-75 0 -123 -43.5t-63 -112.5q-3 -10 -14 -10l-10 2q6 43 24 77t45 58t63 36.5t78 12.5q37 0 72.5 -11t63 -33.5t44 -57.5t16.5 -84q0 -40 -12.5 -74.5t-33.5 -66t-49 -61t-59 -60.5l-242 -245q25 3 62 3h344z" />
<glyph unicode="&#xbe;" horiz-adv-x="1449" d="M373 12q-5 -8 -10.5 -10t-11.5 -2h-10l784 1388q6 12 20 12h12zM137 1224q6 43 24 77t45 58t63 36.5t78 12.5q37 0 72 -10.5t61.5 -32t42.5 -54.5t16 -79q0 -35 -12.5 -64t-33 -50.5t-48 -35.5t-57.5 -20q83 -11 127 -58t44 -118q0 -41 -16.5 -76.5t-46.5 -62t-70.5 -42 t-88.5 -15.5q-62 0 -102 17.5t-64.5 43.5t-37.5 57t-20 58l8 4q3 2 9 1.5t9 -9.5q2 -6 9.5 -31t28 -52t58.5 -49t102 -22q49 0 86.5 16.5t62 42t37 57t12.5 60.5q0 35 -12 65.5t-37.5 53t-67 35t-99.5 12.5v16q94 3 146 47.5t52 116.5q0 41 -14 71t-38 49.5t-54.5 28.5 t-63.5 9q-75 0 -123 -43.5t-63 -112.5q-3 -10 -12 -10zM1199 230v416q0 7 0.5 13t1.5 14l-334 -443h332zM1361 230v-10q0 -8 -10 -8h-132v-212h-20v212h-344q-12 0 -12 6l-2 10l360 474h18v-472h142z" />
<glyph unicode="&#xbf;" horiz-adv-x="813" d="M721 -234q-24 -26 -54.5 -50t-68 -43.5t-82.5 -31t-97 -11.5q-62 0 -119.5 19.5t-102 56t-71.5 89t-27 119.5q0 75 24.5 129t61.5 93.5t80.5 68.5t80.5 55.5t62.5 54t26.5 63.5l6 172h16v-174q0 -39 -24.5 -68t-62 -56t-80.5 -55.5t-80.5 -67t-62 -90.5t-24.5 -125 q0 -62 25 -111t66 -83t94.5 -52t110.5 -18q70 0 122.5 20t88 44t54.5 44t23 20t8 -4zM385 930q0 27 18.5 46.5t45.5 19.5t46.5 -19.5t19.5 -46.5t-19.5 -45.5t-46.5 -18.5t-45.5 18.5t-18.5 45.5z" />
<glyph unicode="&#xc0;" horiz-adv-x="1274" d="M998 498l-345 828q-5 11 -8.5 21t-7.5 21q-4 -11 -7.5 -21t-8.5 -21l-345 -828h722zM1231 0h-18q-9 0 -12 10l-195 468h-738l-195 -468q-3 -10 -14 -10h-16l584 1400h20zM430 1832q17 0 25.5 -2.5t16.5 -11.5l249 -280h-12q-5 0 -9.5 1t-8.5 5l-297 288h36z" />
<glyph unicode="&#xc1;" horiz-adv-x="1274" d="M998 498l-345 828q-5 11 -8.5 21t-7.5 21q-4 -11 -7.5 -21t-8.5 -21l-345 -828h722zM1231 0h-18q-9 0 -12 10l-195 468h-738l-195 -468q-3 -10 -14 -10h-16l584 1400h20zM920 1832l-329 -288q-4 -4 -8.5 -5t-9.5 -1h-12l281 280q8 8 16.5 11t25.5 3h36z" />
<glyph unicode="&#xc2;" horiz-adv-x="1274" d="M998 498l-345 828q-5 11 -8.5 21t-7.5 21q-4 -11 -7.5 -21t-8.5 -21l-345 -828h722zM1231 0h-18q-9 0 -12 10l-195 468h-738l-195 -468q-3 -10 -14 -10h-16l584 1400h20zM877 1538h-20q-5 0 -10 1.5t-10 6.5l-196 224q-2 2 -4 6q-2 -4 -4 -6l-196 -224q-5 -5 -10 -6.5 t-10 -1.5h-20l232 264h16z" />
<glyph unicode="&#xc3;" horiz-adv-x="1274" d="M998 498l-345 828q-5 11 -8.5 21t-7.5 21q-4 -11 -7.5 -21t-8.5 -21l-345 -828h722zM1231 0h-18q-9 0 -12 10l-195 468h-738l-195 -468q-3 -10 -14 -10h-16l584 1400h20zM765 1576q50 0 79 33t31 81h16q0 -27 -8.5 -51.5t-24.5 -42.5t-39.5 -29t-53.5 -11q-32 0 -63.5 18 t-61.5 40t-60 40t-59 18q-24 0 -44 -9t-34.5 -24.5t-22.5 -36.5t-9 -44h-18q0 27 9 51.5t25.5 42.5t40.5 29t53 11q33 0 64.5 -18t61.5 -40t59.5 -40t58.5 -18z" />
<glyph unicode="&#xc4;" horiz-adv-x="1274" d="M998 498l-345 828q-5 11 -8.5 21t-7.5 21q-4 -11 -7.5 -21t-8.5 -21l-345 -828h722zM1231 0h-18q-9 0 -12 10l-195 468h-738l-195 -468q-3 -10 -14 -10h-16l584 1400h20zM509 1664q0 -21 -17.5 -37.5t-38.5 -16.5q-23 0 -39.5 16.5t-16.5 37.5q0 23 16.5 39.5t39.5 16.5 q21 0 38.5 -16.5t17.5 -39.5zM877 1664q0 -21 -17.5 -37.5t-38.5 -16.5q-23 0 -39.5 16.5t-16.5 37.5q0 23 16.5 39.5t39.5 16.5q21 0 38.5 -16.5t17.5 -39.5z" />
<glyph unicode="&#xc5;" horiz-adv-x="1274" d="M998 498l-345 828q-5 11 -8.5 21t-7.5 21q-4 -11 -7.5 -21t-8.5 -21l-345 -828h722zM1231 0h-18q-9 0 -12 10l-195 468h-738l-195 -468q-3 -10 -14 -10h-16l584 1400h20zM489 1674q0 31 11.5 57t31.5 45.5t47 30.5t58 11t58 -11t47 -30.5t31.5 -45.5t11.5 -57t-11.5 -57 t-31.5 -45.5t-47 -30.5t-58 -11t-58 11t-47 30.5t-31.5 45.5t-11.5 57zM511 1674q0 -27 9.5 -50t26.5 -40t40 -26.5t50 -9.5t50 9.5t40 26.5t26.5 40t9.5 50t-9.5 50t-26.5 40t-40 26.5t-50 9.5t-50 -9.5t-40 -26.5t-26.5 -40t-9.5 -50z" />
<glyph unicode="&#xc6;" horiz-adv-x="1850" d="M954 498l-114 881q-5 -14 -10.5 -25.5t-14.5 -27.5l-476 -828h615zM1737 22l-2 -22h-716l-62 478h-629l-270 -470q-4 -8 -13 -8h-20l804 1400h906v-22h-873l85 -656h668v-22h-665l88 -678h699z" />
<glyph unicode="&#xc7;" horiz-adv-x="1366" d="M769 -110q43 -7 78 -16t60 -23.5t39 -36t14 -52.5q0 -29 -11.5 -51t-32.5 -37.5t-49.5 -23.5t-62.5 -8q-41 0 -81 14.5t-63 37.5l4 4q6 6 10 6t13 -7t25 -15t39.5 -15t58.5 -7q60 0 94 26.5t34 73.5q0 31 -15 51t-41 32.5t-61 19t-75 11.5l35 110q-140 1 -258 51 t-204 143t-134.5 225t-48.5 297q0 160 48.5 292t137 226.5t212 146t272.5 51.5q69 0 130 -10.5t115.5 -31.5t104.5 -51.5t98 -70.5l-4 -6q-2 -4 -10 -4q-7 0 -35.5 24t-81.5 53t-131.5 53t-185.5 24q-142 0 -260.5 -48.5t-204 -139t-133.5 -219.5t-48 -289q0 -163 47.5 -292 t131.5 -219t198.5 -137.5t248.5 -47.5q85 0 152 12t122.5 35t103 56.5t94.5 76.5q5 5 8 5q4 0 7 -3l9 -8q-44 -42 -93 -77t-108 -60.5t-128.5 -40.5t-153.5 -16z" />
<glyph unicode="&#xc8;" horiz-adv-x="1165" d="M1052 22l-2 -22h-818v1400h818v-22h-794v-656h674v-22h-674v-678h796zM441 1832q17 0 25.5 -2.5t16.5 -11.5l249 -280h-12q-5 0 -9.5 1t-8.5 5l-297 288h36z" />
<glyph unicode="&#xc9;" horiz-adv-x="1165" d="M1052 22l-2 -22h-818v1400h818v-22h-794v-656h674v-22h-674v-678h796zM931 1832l-329 -288q-4 -4 -8.5 -5t-9.5 -1h-12l281 280q8 8 16.5 11t25.5 3h36z" />
<glyph unicode="&#xca;" horiz-adv-x="1165" d="M1052 22l-2 -22h-818v1400h818v-22h-794v-656h674v-22h-674v-678h796zM888 1538h-20q-5 0 -10 1.5t-10 6.5l-196 224q-2 2 -4 6q-2 -4 -4 -6l-196 -224q-5 -5 -10 -6.5t-10 -1.5h-20l232 264h16z" />
<glyph unicode="&#xcb;" horiz-adv-x="1165" d="M1052 22l-2 -22h-818v1400h818v-22h-794v-656h674v-22h-674v-678h796zM520 1664q0 -21 -17.5 -37.5t-38.5 -16.5q-23 0 -39.5 16.5t-16.5 37.5q0 23 16.5 39.5t39.5 16.5q21 0 38.5 -16.5t17.5 -39.5zM888 1664q0 -21 -17.5 -37.5t-38.5 -16.5q-23 0 -39.5 16.5 t-16.5 37.5q0 23 16.5 39.5t39.5 16.5q21 0 38.5 -16.5t17.5 -39.5z" />
<glyph unicode="&#xcc;" horiz-adv-x="488" d="M256 0h-24v1400h24v-1400zM39 1832q17 0 25.5 -2.5t16.5 -11.5l249 -280h-12q-5 0 -9.5 1t-8.5 5l-297 288h36z" />
<glyph unicode="&#xcd;" horiz-adv-x="488" d="M256 0h-24v1400h24v-1400zM529 1832l-329 -288q-4 -4 -8.5 -5t-9.5 -1h-12l281 280q8 8 16.5 11t25.5 3h36z" />
<glyph unicode="&#xce;" horiz-adv-x="488" d="M256 0h-24v1400h24v-1400zM486 1538h-20q-5 0 -10 1.5t-10 6.5l-196 224q-2 2 -4 6q-2 -4 -4 -6l-196 -224q-5 -5 -10 -6.5t-10 -1.5h-20l232 264h16z" />
<glyph unicode="&#xcf;" horiz-adv-x="488" d="M256 0h-24v1400h24v-1400zM118 1664q0 -21 -17.5 -37.5t-38.5 -16.5q-23 0 -39.5 16.5t-16.5 37.5q0 23 16.5 39.5t39.5 16.5q21 0 38.5 -16.5t17.5 -39.5zM486 1664q0 -21 -17.5 -37.5t-38.5 -16.5q-23 0 -39.5 16.5t-16.5 37.5q0 23 16.5 39.5t39.5 16.5 q21 0 38.5 -16.5t17.5 -39.5z" />
<glyph unicode="&#xd0;" horiz-adv-x="1530" d="M743 20q138 0 252.5 45t196.5 132t127.5 213.5t45.5 289.5t-45.5 289.5t-127.5 213.5t-196.5 132t-252.5 45h-476v-658h344v-20h-344v-682h476zM743 1400q144 0 263 -47t204.5 -137t133 -220t47.5 -296t-47.5 -296t-133 -220t-204.5 -137t-263 -47h-500v702h-232v20h232 v678h500z" />
<glyph unicode="&#xd1;" horiz-adv-x="1496" d="M1264 1400v-1400h-6q-6 0 -11 7l-996 1356q1 -7 1 -13v-12v-1338h-20v1400h8q9 0 14 -8l991 -1349q-1 5 -1 10.5v10.5v1336h20zM905 1574q50 0 79 33t31 81h16q0 -27 -8.5 -51.5t-24.5 -42.5t-39.5 -29t-53.5 -11q-32 0 -63.5 18t-61.5 40t-60 40t-59 18q-24 0 -44 -9 t-34.5 -24.5t-22.5 -36.5t-9 -44h-18q0 27 9 51.5t25.5 42.5t40.5 29t53 11q33 0 64.5 -18t61.5 -40t59.5 -40t58.5 -18z" />
<glyph unicode="&#xd2;" horiz-adv-x="1568" d="M1431 700q0 -166 -47.5 -298t-133 -224.5t-204.5 -142t-263 -49.5q-143 0 -261.5 49.5t-204 142t-133 224.5t-47.5 298q0 165 47.5 297.5t133 225.5t204 143t261.5 50q144 0 263 -49.5t204.5 -142.5t133 -225.5t47.5 -298.5zM1405 700q0 163 -45.5 292t-127.5 219 t-196.5 137.5t-252.5 47.5q-136 0 -250 -47.5t-196.5 -137.5t-129 -219t-46.5 -292t46.5 -291.5t129 -218t196.5 -137t250 -47.5q138 0 252.5 47.5t196.5 137t127.5 218t45.5 291.5zM578 1832q17 0 25.5 -2.5t16.5 -11.5l249 -280h-12q-5 0 -9.5 1t-8.5 5l-297 288h36z" />
<glyph unicode="&#xd3;" horiz-adv-x="1568" d="M1431 700q0 -166 -47.5 -298t-133 -224.5t-204.5 -142t-263 -49.5q-143 0 -261.5 49.5t-204 142t-133 224.5t-47.5 298q0 165 47.5 297.5t133 225.5t204 143t261.5 50q144 0 263 -49.5t204.5 -142.5t133 -225.5t47.5 -298.5zM1405 700q0 163 -45.5 292t-127.5 219 t-196.5 137.5t-252.5 47.5q-136 0 -250 -47.5t-196.5 -137.5t-129 -219t-46.5 -292t46.5 -291.5t129 -218t196.5 -137t250 -47.5q138 0 252.5 47.5t196.5 137t127.5 218t45.5 291.5zM1068 1832l-329 -288q-4 -4 -8.5 -5t-9.5 -1h-12l281 280q8 8 16.5 11t25.5 3h36z" />
<glyph unicode="&#xd4;" horiz-adv-x="1568" d="M1431 700q0 -166 -47.5 -298t-133 -224.5t-204.5 -142t-263 -49.5q-143 0 -261.5 49.5t-204 142t-133 224.5t-47.5 298q0 165 47.5 297.5t133 225.5t204 143t261.5 50q144 0 263 -49.5t204.5 -142.5t133 -225.5t47.5 -298.5zM1405 700q0 163 -45.5 292t-127.5 219 t-196.5 137.5t-252.5 47.5q-136 0 -250 -47.5t-196.5 -137.5t-129 -219t-46.5 -292t46.5 -291.5t129 -218t196.5 -137t250 -47.5q138 0 252.5 47.5t196.5 137t127.5 218t45.5 291.5zM1025 1538h-20q-5 0 -10 1.5t-10 6.5l-196 224q-2 2 -4 6q-2 -4 -4 -6l-196 -224 q-5 -5 -10 -6.5t-10 -1.5h-20l232 264h16z" />
<glyph unicode="&#xd5;" horiz-adv-x="1568" d="M1431 700q0 -166 -47.5 -298t-133 -224.5t-204.5 -142t-263 -49.5q-143 0 -261.5 49.5t-204 142t-133 224.5t-47.5 298q0 165 47.5 297.5t133 225.5t204 143t261.5 50q144 0 263 -49.5t204.5 -142.5t133 -225.5t47.5 -298.5zM1405 700q0 163 -45.5 292t-127.5 219 t-196.5 137.5t-252.5 47.5q-136 0 -250 -47.5t-196.5 -137.5t-129 -219t-46.5 -292t46.5 -291.5t129 -218t196.5 -137t250 -47.5q138 0 252.5 47.5t196.5 137t127.5 218t45.5 291.5zM913 1576q50 0 79 33t31 81h16q0 -27 -8.5 -51.5t-24.5 -42.5t-39.5 -29t-53.5 -11 q-32 0 -63.5 18t-61.5 40t-60 40t-59 18q-24 0 -44 -9t-34.5 -24.5t-22.5 -36.5t-9 -44h-18q0 27 9 51.5t25.5 42.5t40.5 29t53 11q33 0 64.5 -18t61.5 -40t59.5 -40t58.5 -18z" />
<glyph unicode="&#xd6;" horiz-adv-x="1568" d="M1431 700q0 -166 -47.5 -298t-133 -224.5t-204.5 -142t-263 -49.5q-143 0 -261.5 49.5t-204 142t-133 224.5t-47.5 298q0 165 47.5 297.5t133 225.5t204 143t261.5 50q144 0 263 -49.5t204.5 -142.5t133 -225.5t47.5 -298.5zM1405 700q0 163 -45.5 292t-127.5 219 t-196.5 137.5t-252.5 47.5q-136 0 -250 -47.5t-196.5 -137.5t-129 -219t-46.5 -292t46.5 -291.5t129 -218t196.5 -137t250 -47.5q138 0 252.5 47.5t196.5 137t127.5 218t45.5 291.5zM657 1664q0 -21 -17.5 -37.5t-38.5 -16.5q-23 0 -39.5 16.5t-16.5 37.5q0 23 16.5 39.5 t39.5 16.5q21 0 38.5 -16.5t17.5 -39.5zM1025 1664q0 -21 -17.5 -37.5t-38.5 -16.5q-23 0 -39.5 16.5t-16.5 37.5q0 23 16.5 39.5t39.5 16.5q21 0 38.5 -16.5t17.5 -39.5z" />
<glyph unicode="&#xd7;" horiz-adv-x="1160" d="M596 670l387 -388l-14 -14l-388 387l-390 -389l-14 14l389 390l-389 388l16 16l388 -389l386 387l16 -16z" />
<glyph unicode="&#xd8;" horiz-adv-x="1568" d="M387 142q79 -66 179 -101t217 -35q138 0 252.5 47.5t196.5 137t127.5 218t45.5 291.5q0 176 -51.5 310.5t-145.5 225.5zM1192 1250q-80 72 -183 109t-226 37q-136 0 -250 -47.5t-196.5 -137.5t-129 -219t-46.5 -292q0 -180 55.5 -317t154.5 -227zM1221 1254 q100 -94 155 -233.5t55 -320.5q0 -166 -47.5 -298t-133 -224.5t-204.5 -142t-263 -49.5q-121 0 -224.5 35.5t-184.5 102.5l-161 -214q-9 -12 -22 -12h-14l180 240q-104 93 -162 234.5t-58 327.5q0 165 47.5 297.5t133 225.5t204 143t261.5 50q127 0 233 -38t189 -110 l138 184q5 6 8.5 9t11.5 3h16z" />
<glyph unicode="&#xd9;" horiz-adv-x="1440" d="M720 4q113 0 202.5 40.5t151.5 110.5t95 164t33 201v880h24v-880q0 -111 -35 -209t-101 -171t-159.5 -115.5t-210.5 -42.5t-210.5 42.5t-159.5 115.5t-101 171t-35 209v880h24v-878q0 -107 33 -201.5t95 -165t151.5 -111t202.5 -40.5zM513 1832q17 0 25.5 -2.5 t16.5 -11.5l249 -280h-12q-5 0 -9.5 1t-8.5 5l-297 288h36z" />
<glyph unicode="&#xda;" horiz-adv-x="1440" d="M720 4q113 0 202.5 40.5t151.5 110.5t95 164t33 201v880h24v-880q0 -111 -35 -209t-101 -171t-159.5 -115.5t-210.5 -42.5t-210.5 42.5t-159.5 115.5t-101 171t-35 209v880h24v-878q0 -107 33 -201.5t95 -165t151.5 -111t202.5 -40.5zM1003 1832l-329 -288q-4 -4 -8.5 -5 t-9.5 -1h-12l281 280q8 8 16.5 11t25.5 3h36z" />
<glyph unicode="&#xdb;" horiz-adv-x="1440" d="M720 4q113 0 202.5 40.5t151.5 110.5t95 164t33 201v880h24v-880q0 -111 -35 -209t-101 -171t-159.5 -115.5t-210.5 -42.5t-210.5 42.5t-159.5 115.5t-101 171t-35 209v880h24v-878q0 -107 33 -201.5t95 -165t151.5 -111t202.5 -40.5zM960 1538h-20q-5 0 -10 1.5t-10 6.5 l-196 224q-2 2 -4 6q-2 -4 -4 -6l-196 -224q-5 -5 -10 -6.5t-10 -1.5h-20l232 264h16z" />
<glyph unicode="&#xdc;" horiz-adv-x="1440" d="M720 4q113 0 202.5 40.5t151.5 110.5t95 164t33 201v880h24v-880q0 -111 -35 -209t-101 -171t-159.5 -115.5t-210.5 -42.5t-210.5 42.5t-159.5 115.5t-101 171t-35 209v880h24v-878q0 -107 33 -201.5t95 -165t151.5 -111t202.5 -40.5zM592 1664q0 -21 -17.5 -37.5 t-38.5 -16.5q-23 0 -39.5 16.5t-16.5 37.5q0 23 16.5 39.5t39.5 16.5q21 0 38.5 -16.5t17.5 -39.5zM960 1664q0 -21 -17.5 -37.5t-38.5 -16.5q-23 0 -39.5 16.5t-16.5 37.5q0 23 16.5 39.5t39.5 16.5q21 0 38.5 -16.5t17.5 -39.5z" />
<glyph unicode="&#xdd;" horiz-adv-x="1140" d="M582 595v-595h-24v595l-522 805h20q9 0 14 -8l471 -730q8 -13 16 -24.5t13 -23.5q6 12 13.5 23.5t15.5 24.5l471 730q5 8 14 8h20zM853 1832l-329 -288q-4 -4 -8.5 -5t-9.5 -1h-12l281 280q8 8 16.5 11t25.5 3h36z" />
<glyph unicode="&#xde;" horiz-adv-x="1119" d="M548 318q103 0 186 29.5t141.5 81t90.5 120.5t32 149q0 187 -112.5 283.5t-337.5 96.5h-292v-760h292zM548 1098q229 0 351.5 -99t122.5 -301q0 -87 -34.5 -160.5t-97.5 -126.5t-150 -83t-192 -30h-292v-298h-24v1400h24v-302h292z" />
<glyph unicode="&#xdf;" horiz-adv-x="1060" d="M588 1414q70 0 128 -21t99.5 -56.5t64 -81.5t22.5 -95q0 -65 -25.5 -112.5t-63.5 -85.5t-83 -68.5t-83 -60.5t-63.5 -63t-25.5 -74t17.5 -67.5t46.5 -45.5t66 -32.5t76 -28t76 -32.5t66 -46.5t46.5 -69t17.5 -100.5t-21.5 -113t-62.5 -92t-100.5 -62t-135.5 -23 q-53 0 -94.5 8.5t-77 23.5t-66 37t-60.5 49l6 6q3 3 5 4.5t7 1.5q8 0 26 -17t50.5 -38t82 -38t121.5 -17t127.5 21t93.5 57.5t57.5 85t19.5 104.5q0 58 -17.5 97t-46.5 65.5t-66 43.5t-76 31.5t-76 28.5t-66 34t-46.5 49.5t-17.5 74.5q0 44 25.5 78.5t64 65.5t83.5 61.5 t83.5 67.5t64 83.5t25.5 109.5q0 30 -15 70t-49.5 76t-91 61t-138.5 25q-74 0 -142.5 -21.5t-121 -68t-84.5 -119t-32 -175.5v-1010h-24v1010q0 99 31.5 174.5t86 126.5t128 77t158.5 26z" />
<glyph unicode="&#xe0;" horiz-adv-x="946" d="M748 502q-315 -10 -468.5 -78.5t-153.5 -193.5q0 -59 19.5 -101.5t51.5 -70t73 -41t84 -13.5q69 0 125 16t103.5 43t88 62.5t77.5 74.5v302zM154 840q72 76 149 116t179 40q75 0 129.5 -24t90.5 -69t53 -109.5t17 -145.5v-648h-4q-14 0 -14 16l-6 160q-42 -44 -84 -79.5 t-89 -60.5t-101 -38.5t-120 -13.5q-44 0 -89 13.5t-81 43t-59 76t-23 113.5q0 66 39 118.5t118.5 89.5t201 58.5t287.5 25.5v126q0 77 -17 138t-50 103t-83 64.5t-116 22.5q-52 0 -94 -11t-75 -27t-57.5 -35t-42.5 -35t-29 -27t-16 -11q-4 0 -10 6zM338 1416q17 0 25 -4 t17 -18l164 -236h-14q-11 0 -16 8l-202 250h26z" />
<glyph unicode="&#xe1;" horiz-adv-x="946" d="M748 502q-315 -10 -468.5 -78.5t-153.5 -193.5q0 -59 19.5 -101.5t51.5 -70t73 -41t84 -13.5q69 0 125 16t103.5 43t88 62.5t77.5 74.5v302zM154 840q72 76 149 116t179 40q75 0 129.5 -24t90.5 -69t53 -109.5t17 -145.5v-648h-4q-14 0 -14 16l-6 160q-42 -44 -84 -79.5 t-89 -60.5t-101 -38.5t-120 -13.5q-44 0 -89 13.5t-81 43t-59 76t-23 113.5q0 66 39 118.5t118.5 89.5t201 58.5t287.5 25.5v126q0 77 -17 138t-50 103t-83 64.5t-116 22.5q-52 0 -94 -11t-75 -27t-57.5 -35t-42.5 -35t-29 -27t-16 -11q-4 0 -10 6zM632 1416l-202 -250 q-5 -8 -16 -8h-14l164 236q9 14 17 18t25 4h26z" />
<glyph unicode="&#xe2;" horiz-adv-x="946" d="M748 502q-315 -10 -468.5 -78.5t-153.5 -193.5q0 -59 19.5 -101.5t51.5 -70t73 -41t84 -13.5q69 0 125 16t103.5 43t88 62.5t77.5 74.5v302zM154 840q72 76 149 116t179 40q75 0 129.5 -24t90.5 -69t53 -109.5t17 -145.5v-648h-4q-14 0 -14 16l-6 160q-42 -44 -84 -79.5 t-89 -60.5t-101 -38.5t-120 -13.5q-44 0 -89 13.5t-81 43t-59 76t-23 113.5q0 66 39 118.5t118.5 89.5t201 58.5t287.5 25.5v126q0 77 -17 138t-50 103t-83 64.5t-116 22.5q-52 0 -94 -11t-75 -27t-57.5 -35t-42.5 -35t-29 -27t-16 -11q-4 0 -10 6zM684 1170h-18q-8 0 -16 8 l-180 196q-4 4 -6 7q-2 -3 -6 -7l-180 -196q-3 -3 -7 -5.5t-9 -2.5h-18l212 230h16z" />
<glyph unicode="&#xe3;" horiz-adv-x="946" d="M748 502q-315 -10 -468.5 -78.5t-153.5 -193.5q0 -59 19.5 -101.5t51.5 -70t73 -41t84 -13.5q69 0 125 16t103.5 43t88 62.5t77.5 74.5v302zM154 840q72 76 149 116t179 40q75 0 129.5 -24t90.5 -69t53 -109.5t17 -145.5v-648h-4q-14 0 -14 16l-6 160q-42 -44 -84 -79.5 t-89 -60.5t-101 -38.5t-120 -13.5q-44 0 -89 13.5t-81 43t-59 76t-23 113.5q0 66 39 118.5t118.5 89.5t201 58.5t287.5 25.5v126q0 77 -17 138t-50 103t-83 64.5t-116 22.5q-52 0 -94 -11t-75 -27t-57.5 -35t-42.5 -35t-29 -27t-16 -11q-4 0 -10 6zM582 1242q50 0 74 33 t26 81h16q0 -27 -7 -51.5t-21 -42.5t-36 -29t-52 -11q-32 0 -60 18t-55 40t-53.5 40t-55.5 18q-24 0 -42.5 -9t-31 -24.5t-19 -36.5t-7.5 -44h-18q0 27 7.5 51.5t22.5 42.5t37 29t51 11q33 0 61 -18t54.5 -40t53 -40t55.5 -18z" />
<glyph unicode="&#xe4;" horiz-adv-x="946" d="M748 502q-315 -10 -468.5 -78.5t-153.5 -193.5q0 -59 19.5 -101.5t51.5 -70t73 -41t84 -13.5q69 0 125 16t103.5 43t88 62.5t77.5 74.5v302zM154 840q72 76 149 116t179 40q75 0 129.5 -24t90.5 -69t53 -109.5t17 -145.5v-648h-4q-14 0 -14 16l-6 160q-42 -44 -84 -79.5 t-89 -60.5t-101 -38.5t-120 -13.5q-44 0 -89 13.5t-81 43t-59 76t-23 113.5q0 66 39 118.5t118.5 89.5t201 58.5t287.5 25.5v126q0 77 -17 138t-50 103t-83 64.5t-116 22.5q-52 0 -94 -11t-75 -27t-57.5 -35t-42.5 -35t-29 -27t-16 -11q-4 0 -10 6zM356 1280 q0 -21 -17.5 -37.5t-38.5 -16.5q-23 0 -39.5 16.5t-16.5 37.5q0 23 16.5 39.5t39.5 16.5q21 0 38.5 -16.5t17.5 -39.5zM684 1280q0 -21 -17.5 -37.5t-38.5 -16.5q-23 0 -39.5 16.5t-16.5 37.5q0 23 16.5 39.5t39.5 16.5q21 0 38.5 -16.5t17.5 -39.5z" />
<glyph unicode="&#xe5;" horiz-adv-x="946" d="M748 502q-315 -10 -468.5 -78.5t-153.5 -193.5q0 -59 19.5 -101.5t51.5 -70t73 -41t84 -13.5q69 0 125 16t103.5 43t88 62.5t77.5 74.5v302zM154 840q72 76 149 116t179 40q75 0 129.5 -24t90.5 -69t53 -109.5t17 -145.5v-648h-4q-14 0 -14 16l-6 160q-42 -44 -84 -79.5 t-89 -60.5t-101 -38.5t-120 -13.5q-44 0 -89 13.5t-81 43t-59 76t-23 113.5q0 66 39 118.5t118.5 89.5t201 58.5t287.5 25.5v126q0 77 -17 138t-50 103t-83 64.5t-116 22.5q-52 0 -94 -11t-75 -27t-57.5 -35t-42.5 -35t-29 -27t-16 -11q-4 0 -10 6zM316 1290q0 31 11.5 57 t31.5 45.5t47 30.5t58 11t58 -11t47 -30.5t31.5 -45.5t11.5 -57t-11.5 -57t-31.5 -45.5t-47 -30.5t-58 -11t-58 11t-47 30.5t-31.5 45.5t-11.5 57zM338 1290q0 -27 9.5 -50t26.5 -40t40 -26.5t50 -9.5t50 9.5t40 26.5t26.5 40t9.5 50t-9.5 50t-26.5 40t-40 26.5t-50 9.5 t-50 -9.5t-40 -26.5t-26.5 -40t-9.5 -50z" />
<glyph unicode="&#xe6;" horiz-adv-x="1589" d="M1456 562q0 103 -25 180.5t-68 129.5t-100.5 78t-122.5 26q-82 0 -147.5 -30t-112 -84t-73.5 -130.5t-33 -169.5h682zM750 542q-158 -5 -274.5 -27.5t-193 -60.5t-114.5 -89.5t-38 -114.5q0 -66 20 -112.5t54.5 -76.5t82 -43.5t103.5 -13.5q74 0 139.5 25.5t114.5 73.5 t77.5 115.5t28.5 151.5v172zM156 840q72 76 149 116t179 40q71 0 123.5 -23.5t88 -67t53.5 -106t19 -140.5q15 77 47 139t79 106t108 68t136 24q70 0 131.5 -28t107.5 -83.5t72.5 -138.5t26.5 -192q0 -10 -10 -10h-693q-1 -8 -1 -17v-17q0 -122 26.5 -215.5t75 -157 t117 -96.5t151.5 -33q73 0 126.5 18t89.5 40t55.5 40t24.5 18q4 0 8 -4l4 -4q-15 -21 -45.5 -43.5t-71.5 -41.5t-90 -31t-101 -12q-151 0 -247 93.5t-127 265.5q-5 -104 -44 -173.5t-95.5 -111.5t-120.5 -60t-118 -18q-57 0 -108.5 13.5t-90.5 45t-62 82.5t-23 125 q0 66 38.5 121.5t118 96.5t200.5 65.5t287 28.5v86q0 77 -17 138t-50 103t-83 64.5t-116 22.5q-52 0 -94 -11t-75 -27t-57.5 -35t-42.5 -35t-29 -27t-16 -11q-4 0 -10 6z" />
<glyph unicode="&#xe7;" horiz-adv-x="933" d="M844 116q-14 -21 -41 -42.5t-64 -39.5t-83.5 -30.5t-99.5 -14.5l-31 -99q43 -7 78 -16t60 -23.5t39 -36t14 -52.5q0 -29 -11.5 -51t-32.5 -37.5t-49.5 -23.5t-62.5 -8q-41 0 -81 14.5t-63 37.5l4 4q6 6 10 6t13 -7t25 -15t39.5 -15t58.5 -7q60 0 94 26.5t34 73.5 q0 31 -15 51t-41 32.5t-61 19t-75 11.5l36 114h-4q-95 0 -171 34t-129.5 98.5t-82.5 157.5t-29 212q0 114 29 207.5t84 159.5t134.5 102.5t180.5 36.5q89 0 158.5 -28.5t119.5 -73.5l-6 -6q-4 -4 -8 -4q-6 0 -22.5 14.5t-48 31.5t-79 31.5t-114.5 14.5q-95 0 -170 -34 t-127 -97t-79.5 -153t-27.5 -202q0 -116 27.5 -205.5t78.5 -151t122.5 -93.5t159.5 -32q78 0 132 18t89 40t53 40t24 18q4 0 8 -4z" />
<glyph unicode="&#xe8;" horiz-adv-x="1031" d="M900 582q0 95 -27 168.5t-74.5 123.5t-111.5 76t-137 26q-88 0 -158.5 -28t-121.5 -80t-81.5 -124.5t-39.5 -161.5h751zM894 116q-17 -21 -50.5 -43.5t-79 -41.5t-99.5 -31t-111 -12q-101 0 -181 35.5t-135.5 102.5t-85.5 164t-30 220q0 108 29 197.5t84 153.5 t134.5 99.5t180.5 35.5q77 0 145 -27.5t118.5 -81.5t79.5 -132.5t29 -180.5q0 -5 -3.5 -7.5t-8.5 -2.5h-762q-1 -14 -1.5 -27t-0.5 -27q0 -122 29 -215.5t82.5 -157t129 -96.5t167.5 -33q82 0 142 18t100 40t61 40t25 18t8 -4zM422 1416q17 0 25 -4t17 -18l164 -236h-14 q-11 0 -16 8l-202 250h26z" />
<glyph unicode="&#xe9;" horiz-adv-x="1031" d="M900 582q0 95 -27 168.5t-74.5 123.5t-111.5 76t-137 26q-88 0 -158.5 -28t-121.5 -80t-81.5 -124.5t-39.5 -161.5h751zM894 116q-17 -21 -50.5 -43.5t-79 -41.5t-99.5 -31t-111 -12q-101 0 -181 35.5t-135.5 102.5t-85.5 164t-30 220q0 108 29 197.5t84 153.5 t134.5 99.5t180.5 35.5q77 0 145 -27.5t118.5 -81.5t79.5 -132.5t29 -180.5q0 -5 -3.5 -7.5t-8.5 -2.5h-762q-1 -14 -1.5 -27t-0.5 -27q0 -122 29 -215.5t82.5 -157t129 -96.5t167.5 -33q82 0 142 18t100 40t61 40t25 18t8 -4zM716 1416l-202 -250q-5 -8 -16 -8h-14l164 236 q9 14 17 18t25 4h26z" />
<glyph unicode="&#xea;" horiz-adv-x="1031" d="M900 582q0 95 -27 168.5t-74.5 123.5t-111.5 76t-137 26q-88 0 -158.5 -28t-121.5 -80t-81.5 -124.5t-39.5 -161.5h751zM894 116q-17 -21 -50.5 -43.5t-79 -41.5t-99.5 -31t-111 -12q-101 0 -181 35.5t-135.5 102.5t-85.5 164t-30 220q0 108 29 197.5t84 153.5 t134.5 99.5t180.5 35.5q77 0 145 -27.5t118.5 -81.5t79.5 -132.5t29 -180.5q0 -5 -3.5 -7.5t-8.5 -2.5h-762q-1 -14 -1.5 -27t-0.5 -27q0 -122 29 -215.5t82.5 -157t129 -96.5t167.5 -33q82 0 142 18t100 40t61 40t25 18t8 -4zM768 1170h-18q-8 0 -16 8l-180 196q-4 4 -6 7 q-2 -3 -6 -7l-180 -196q-3 -3 -7 -5.5t-9 -2.5h-18l212 230h16z" />
<glyph unicode="&#xeb;" horiz-adv-x="1031" d="M900 582q0 95 -27 168.5t-74.5 123.5t-111.5 76t-137 26q-88 0 -158.5 -28t-121.5 -80t-81.5 -124.5t-39.5 -161.5h751zM894 116q-17 -21 -50.5 -43.5t-79 -41.5t-99.5 -31t-111 -12q-101 0 -181 35.5t-135.5 102.5t-85.5 164t-30 220q0 108 29 197.5t84 153.5 t134.5 99.5t180.5 35.5q77 0 145 -27.5t118.5 -81.5t79.5 -132.5t29 -180.5q0 -5 -3.5 -7.5t-8.5 -2.5h-762q-1 -14 -1.5 -27t-0.5 -27q0 -122 29 -215.5t82.5 -157t129 -96.5t167.5 -33q82 0 142 18t100 40t61 40t25 18t8 -4zM440 1280q0 -21 -17.5 -37.5t-38.5 -16.5 q-23 0 -39.5 16.5t-16.5 37.5q0 23 16.5 39.5t39.5 16.5q21 0 38.5 -16.5t17.5 -39.5zM768 1280q0 -21 -17.5 -37.5t-38.5 -16.5q-23 0 -39.5 16.5t-16.5 37.5q0 23 16.5 39.5t39.5 16.5q21 0 38.5 -16.5t17.5 -39.5z" />
<glyph unicode="&#xec;" horiz-adv-x="416" d="M220 980v-980h-24v980h24zM82 1416q17 0 25 -4t17 -18l164 -236h-14q-11 0 -16 8l-202 250h26z" />
<glyph unicode="&#xed;" horiz-adv-x="416" d="M220 980v-980h-24v980h24zM376 1416l-202 -250q-5 -8 -16 -8h-14l164 236q9 14 17 18t25 4h26z" />
<glyph unicode="&#xee;" horiz-adv-x="416" d="M220 980v-980h-24v980h24zM428 1170h-18q-8 0 -16 8l-180 196q-4 4 -6 7q-2 -3 -6 -7l-180 -196q-3 -3 -7 -5.5t-9 -2.5h-18l212 230h16z" />
<glyph unicode="&#xef;" horiz-adv-x="416" d="M220 980v-980h-24v980h24zM140 1280q0 -21 -17.5 -37.5t-38.5 -16.5q-23 0 -39.5 16.5t-16.5 37.5q0 23 16.5 39.5t39.5 16.5q21 0 38.5 -16.5t17.5 -39.5zM388 1280q0 -21 -17.5 -37.5t-38.5 -16.5q-23 0 -39.5 16.5t-16.5 37.5q0 23 16.5 39.5t39.5 16.5 q21 0 38.5 -16.5t17.5 -39.5z" />
<glyph unicode="&#xf0;" horiz-adv-x="1112" d="M538 10q101 0 177 41t127 114t78 174t30 221q-15 57 -46.5 117t-81 108.5t-118 79.5t-156.5 31q-99 0 -174 -34.5t-125 -95t-75.5 -143t-25.5 -177.5q0 -103 31.5 -184t85.5 -137t124.5 -85.5t148.5 -29.5zM673 1239q64 -44 118 -103.5t94 -139t62.5 -179.5t22.5 -223 q0 -134 -26 -245t-79 -190.5t-134.5 -124t-192.5 -44.5q-85 0 -160 32t-131.5 91t-89.5 143.5t-33 189.5q0 98 27.5 184t81.5 149.5t133 100t182 36.5q55 0 115 -16.5t115.5 -53.5t101.5 -95.5t72 -142.5q-1 116 -23 211t-61 171.5t-91.5 135t-115.5 101.5l-147 -157l-4 4 q-5 3 -6 8t4 10l137 145q-71 46 -150.5 73.5t-162.5 41.5q-3 0 -8.5 3t-3.5 9l2 8q86 -14 172 -42.5t164 -79.5l136 148l4 -4q3 -5 3 -9.5t-6 -11.5z" />
<glyph unicode="&#xf1;" horiz-adv-x="1087" d="M208 776q34 50 76.5 91t91.5 69.5t103 44t111 15.5q163 0 243.5 -97t80.5 -271v-628h-24v628q0 82 -18 146.5t-55.5 109.5t-94 68.5t-132.5 23.5q-115 0 -212 -61t-170 -169v-746h-24v980h6q14 0 14 -16zM660 1242q50 0 74 33t26 81h16q0 -27 -7 -51.5t-21 -42.5t-36 -29 t-52 -11q-32 0 -60 18t-55 40t-53.5 40t-55.5 18q-24 0 -42.5 -9t-31 -24.5t-19 -36.5t-7.5 -44h-18q0 27 7.5 51.5t22.5 42.5t37 29t51 11q33 0 61 -18t54.5 -40t53 -40t55.5 -18z" />
<glyph unicode="&#xf2;" horiz-adv-x="1101" d="M550 996q103 0 183 -36.5t134.5 -102.5t82.5 -159.5t28 -207.5t-28 -206.5t-82.5 -158.5t-134.5 -101.5t-183 -35.5q-104 0 -183.5 35.5t-134 101.5t-82.5 158.5t-28 206.5t28 207.5t82.5 159.5t134 102.5t183.5 36.5zM550 8q100 0 176 35t126.5 98t76 152t25.5 197 t-25.5 197.5t-76 153.5t-126.5 99.5t-176 35.5q-101 0 -176.5 -35.5t-126 -99.5t-76 -153.5t-25.5 -197.5t25.5 -197t76 -152t126 -98t176.5 -35zM426 1416q17 0 25 -4t17 -18l164 -236h-14q-11 0 -16 8l-202 250h26z" />
<glyph unicode="&#xf3;" horiz-adv-x="1101" d="M550 996q103 0 183 -36.5t134.5 -102.5t82.5 -159.5t28 -207.5t-28 -206.5t-82.5 -158.5t-134.5 -101.5t-183 -35.5q-104 0 -183.5 35.5t-134 101.5t-82.5 158.5t-28 206.5t28 207.5t82.5 159.5t134 102.5t183.5 36.5zM550 8q100 0 176 35t126.5 98t76 152t25.5 197 t-25.5 197.5t-76 153.5t-126.5 99.5t-176 35.5q-101 0 -176.5 -35.5t-126 -99.5t-76 -153.5t-25.5 -197.5t25.5 -197t76 -152t126 -98t176.5 -35zM720 1416l-202 -250q-5 -8 -16 -8h-14l164 236q9 14 17 18t25 4h26z" />
<glyph unicode="&#xf4;" horiz-adv-x="1101" d="M550 996q103 0 183 -36.5t134.5 -102.5t82.5 -159.5t28 -207.5t-28 -206.5t-82.5 -158.5t-134.5 -101.5t-183 -35.5q-104 0 -183.5 35.5t-134 101.5t-82.5 158.5t-28 206.5t28 207.5t82.5 159.5t134 102.5t183.5 36.5zM550 8q100 0 176 35t126.5 98t76 152t25.5 197 t-25.5 197.5t-76 153.5t-126.5 99.5t-176 35.5q-101 0 -176.5 -35.5t-126 -99.5t-76 -153.5t-25.5 -197.5t25.5 -197t76 -152t126 -98t176.5 -35zM772 1170h-18q-8 0 -16 8l-180 196q-4 4 -6 7q-2 -3 -6 -7l-180 -196q-3 -3 -7 -5.5t-9 -2.5h-18l212 230h16z" />
<glyph unicode="&#xf5;" horiz-adv-x="1101" d="M550 996q103 0 183 -36.5t134.5 -102.5t82.5 -159.5t28 -207.5t-28 -206.5t-82.5 -158.5t-134.5 -101.5t-183 -35.5q-104 0 -183.5 35.5t-134 101.5t-82.5 158.5t-28 206.5t28 207.5t82.5 159.5t134 102.5t183.5 36.5zM550 8q100 0 176 35t126.5 98t76 152t25.5 197 t-25.5 197.5t-76 153.5t-126.5 99.5t-176 35.5q-101 0 -176.5 -35.5t-126 -99.5t-76 -153.5t-25.5 -197.5t25.5 -197t76 -152t126 -98t176.5 -35zM670 1242q50 0 74 33t26 81h16q0 -27 -7 -51.5t-21 -42.5t-36 -29t-52 -11q-32 0 -60 18t-55 40t-53.5 40t-55.5 18 q-24 0 -42.5 -9t-31 -24.5t-19 -36.5t-7.5 -44h-18q0 27 7.5 51.5t22.5 42.5t37 29t51 11q33 0 61 -18t54.5 -40t53 -40t55.5 -18z" />
<glyph unicode="&#xf6;" horiz-adv-x="1101" d="M550 996q103 0 183 -36.5t134.5 -102.5t82.5 -159.5t28 -207.5t-28 -206.5t-82.5 -158.5t-134.5 -101.5t-183 -35.5q-104 0 -183.5 35.5t-134 101.5t-82.5 158.5t-28 206.5t28 207.5t82.5 159.5t134 102.5t183.5 36.5zM550 8q100 0 176 35t126.5 98t76 152t25.5 197 t-25.5 197.5t-76 153.5t-126.5 99.5t-176 35.5q-101 0 -176.5 -35.5t-126 -99.5t-76 -153.5t-25.5 -197.5t25.5 -197t76 -152t126 -98t176.5 -35zM444 1280q0 -21 -17.5 -37.5t-38.5 -16.5q-23 0 -39.5 16.5t-16.5 37.5q0 23 16.5 39.5t39.5 16.5q21 0 38.5 -16.5 t17.5 -39.5zM772 1280q0 -21 -17.5 -37.5t-38.5 -16.5q-23 0 -39.5 16.5t-16.5 37.5q0 23 16.5 39.5t39.5 16.5q21 0 38.5 -16.5t17.5 -39.5z" />
<glyph unicode="&#xf7;" horiz-adv-x="1160" d="M118 680h922v-20h-922v20zM514 1024q0 27 18.5 46.5t45.5 19.5t46.5 -19.5t19.5 -46.5t-19.5 -45.5t-46.5 -18.5t-45.5 18.5t-18.5 45.5zM514 312q0 27 18.5 46.5t45.5 19.5t46.5 -19.5t19.5 -46.5t-19.5 -45.5t-46.5 -18.5t-45.5 18.5t-18.5 45.5z" />
<glyph unicode="&#xf8;" horiz-adv-x="1098" d="M289 97q49 -43 114 -66t147 -23q100 0 176 35t126.5 98t76 152t25.5 197q0 111 -26 201t-79 155zM834 862q-51 55 -121.5 84.5t-162.5 29.5q-101 0 -176.5 -35.5t-126 -99.5t-76 -153.5t-25.5 -197.5q0 -121 32 -217.5t95 -160.5zM862 864q57 -67 86.5 -161.5 t29.5 -212.5q0 -114 -28 -206.5t-82.5 -158.5t-134.5 -101.5t-183 -35.5q-85 0 -153 23.5t-121 68.5l-106 -142q-9 -12 -22 -12h-14l126 169q-68 66 -103 166.5t-35 228.5q0 114 28 207.5t82.5 159.5t134 102.5t183.5 36.5q95 0 169 -30t128 -86l105 140q5 6 8.5 9t11.5 3 h16z" />
<glyph unicode="&#xf9;" horiz-adv-x="1085" d="M903 980v-980h-6q-14 0 -14 16l-4 188q-35 -50 -77 -91t-91 -69.5t-103 -44t-111 -15.5q-164 0 -244 97t-80 271v628h24v-628q0 -82 18 -146.5t55.5 -109.5t93.5 -68.5t133 -23.5q115 0 212 61t170 169v746h24zM419 1416q17 0 25 -4t17 -18l164 -236h-14q-11 0 -16 8 l-202 250h26z" />
<glyph unicode="&#xfa;" horiz-adv-x="1085" d="M903 980v-980h-6q-14 0 -14 16l-4 188q-35 -50 -77 -91t-91 -69.5t-103 -44t-111 -15.5q-164 0 -244 97t-80 271v628h24v-628q0 -82 18 -146.5t55.5 -109.5t93.5 -68.5t133 -23.5q115 0 212 61t170 169v746h24zM713 1416l-202 -250q-5 -8 -16 -8h-14l164 236q9 14 17 18 t25 4h26z" />
<glyph unicode="&#xfb;" horiz-adv-x="1085" d="M903 980v-980h-6q-14 0 -14 16l-4 188q-35 -50 -77 -91t-91 -69.5t-103 -44t-111 -15.5q-164 0 -244 97t-80 271v628h24v-628q0 -82 18 -146.5t55.5 -109.5t93.5 -68.5t133 -23.5q115 0 212 61t170 169v746h24zM765 1170h-18q-8 0 -16 8l-180 196q-4 4 -6 7q-2 -3 -6 -7 l-180 -196q-3 -3 -7 -5.5t-9 -2.5h-18l212 230h16z" />
<glyph unicode="&#xfc;" horiz-adv-x="1085" d="M903 980v-980h-6q-14 0 -14 16l-4 188q-35 -50 -77 -91t-91 -69.5t-103 -44t-111 -15.5q-164 0 -244 97t-80 271v628h24v-628q0 -82 18 -146.5t55.5 -109.5t93.5 -68.5t133 -23.5q115 0 212 61t170 169v746h24zM437 1280q0 -21 -17.5 -37.5t-38.5 -16.5q-23 0 -39.5 16.5 t-16.5 37.5q0 23 16.5 39.5t39.5 16.5q21 0 38.5 -16.5t17.5 -39.5zM765 1280q0 -21 -17.5 -37.5t-38.5 -16.5q-23 0 -39.5 16.5t-16.5 37.5q0 23 16.5 39.5t39.5 16.5q21 0 38.5 -16.5t17.5 -39.5z" />
<glyph unicode="&#xfd;" horiz-adv-x="979" d="M927 980l-578 -1318q-3 -8 -9 -15t-15 -7h-14l168 377l-424 963h14q8 0 13 -4.5t7 -9.5l390 -890q8 -17 13 -37q2 9 5.5 18.5t7.5 18.5l390 890q7 14 18 14h14zM687 1416l-202 -250q-5 -8 -16 -8h-14l164 236q9 14 17 18t25 4h26z" />
<glyph unicode="&#xfe;" horiz-adv-x="1087" d="M208 195q64 -103 143 -145t183 -42q103 0 179 37.5t126.5 103.5t75.5 155t25 192q0 244 -93.5 362t-274.5 118q-109 0 -202.5 -61t-161.5 -168v-552zM208 779q66 100 159.5 158.5t204.5 58.5q190 0 291 -122.5t101 -377.5q0 -107 -27.5 -199.5t-81.5 -161t-134.5 -108 t-186.5 -39.5q-216 0 -326 175v-523h-24v1800h24v-661z" />
<glyph unicode="&#xff;" horiz-adv-x="979" d="M927 980l-578 -1318q-3 -8 -9 -15t-15 -7h-14l168 377l-424 963h14q8 0 13 -4.5t7 -9.5l390 -890q8 -17 13 -37q2 9 5.5 18.5t7.5 18.5l390 890q7 14 18 14h14zM411 1280q0 -21 -17.5 -37.5t-38.5 -16.5q-23 0 -39.5 16.5t-16.5 37.5q0 23 16.5 39.5t39.5 16.5 q21 0 38.5 -16.5t17.5 -39.5zM739 1280q0 -21 -17.5 -37.5t-38.5 -16.5q-23 0 -39.5 16.5t-16.5 37.5q0 23 16.5 39.5t39.5 16.5q21 0 38.5 -16.5t17.5 -39.5z" />
<glyph unicode="&#x100;" horiz-adv-x="1274" d="M998 498l-345 828q-5 11 -8.5 21t-7.5 21q-4 -11 -7.5 -21t-8.5 -21l-345 -828h722zM1231 0h-18q-9 0 -12 10l-195 468h-738l-195 -468q-3 -10 -14 -10h-16l584 1400h20zM407 1652h460v-20h-460v20z" />
<glyph unicode="&#x101;" horiz-adv-x="946" d="M748 502q-315 -10 -468.5 -78.5t-153.5 -193.5q0 -59 19.5 -101.5t51.5 -70t73 -41t84 -13.5q69 0 125 16t103.5 43t88 62.5t77.5 74.5v302zM154 840q72 76 149 116t179 40q75 0 129.5 -24t90.5 -69t53 -109.5t17 -145.5v-648h-4q-14 0 -14 16l-6 160q-42 -44 -84 -79.5 t-89 -60.5t-101 -38.5t-120 -13.5q-44 0 -89 13.5t-81 43t-59 76t-23 113.5q0 66 39 118.5t118.5 89.5t201 58.5t287.5 25.5v126q0 77 -17 138t-50 103t-83 64.5t-116 22.5q-52 0 -94 -11t-75 -27t-57.5 -35t-42.5 -35t-29 -27t-16 -11q-4 0 -10 6zM204 1290h520v-20h-520 v20z" />
<glyph unicode="&#x102;" horiz-adv-x="1274" d="M998 498l-345 828q-5 11 -8.5 21t-7.5 21q-4 -11 -7.5 -21t-8.5 -21l-345 -828h722zM1231 0h-18q-9 0 -12 10l-195 468h-738l-195 -468q-3 -10 -14 -10h-16l584 1400h20zM636 1541q-123 0 -176.5 60t-53.5 182h22q0 -53 11 -94t35.5 -69.5t64.5 -43.5t97 -15t97 15 t64.5 43.5t35.5 69.5t11 94h22q0 -122 -53.5 -182t-176.5 -60z" />
<glyph unicode="&#x103;" horiz-adv-x="946" d="M748 502q-315 -10 -468.5 -78.5t-153.5 -193.5q0 -59 19.5 -101.5t51.5 -70t73 -41t84 -13.5q69 0 125 16t103.5 43t88 62.5t77.5 74.5v302zM154 840q72 76 149 116t179 40q75 0 129.5 -24t90.5 -69t53 -109.5t17 -145.5v-648h-4q-14 0 -14 16l-6 160q-42 -44 -84 -79.5 t-89 -60.5t-101 -38.5t-120 -13.5q-44 0 -89 13.5t-81 43t-59 76t-23 113.5q0 66 39 118.5t118.5 89.5t201 58.5t287.5 25.5v126q0 77 -17 138t-50 103t-83 64.5t-116 22.5q-52 0 -94 -11t-75 -27t-57.5 -35t-42.5 -35t-29 -27t-16 -11q-4 0 -10 6zM464 1172q-56 0 -96 18 t-65.5 49.5t-37 72.5t-11.5 88h20q0 -41 10 -78.5t32.5 -66t58.5 -46t89 -17.5q52 0 88.5 17.5t59 46t32.5 66t10 78.5h20q0 -47 -11.5 -88t-37 -72.5t-65.5 -49.5t-96 -18z" />
<glyph unicode="&#x104;" horiz-adv-x="1274" d="M998 498l-345 828q-5 11 -8.5 21t-7.5 21q-4 -11 -7.5 -21t-8.5 -21l-345 -828h722zM1363 -280q-26 -26 -65 -40t-81 -14q-66 0 -110 35t-44 103q0 33 13 63t33.5 55.5t45.5 46.5t49 36q-1 1 -3 5l-195 468h-738l-195 -468q-3 -10 -14 -10h-16l584 1400h20l584 -1400 q-20 -11 -45.5 -29.5t-48 -43.5t-37.5 -56t-15 -67q0 -56 38.5 -87t95.5 -31q32 0 54.5 7t37.5 15t24 15t14 7q4 0 8 -4z" />
<glyph unicode="&#x105;" horiz-adv-x="946" d="M748 502q-315 -10 -468.5 -78.5t-153.5 -193.5q0 -59 19.5 -101.5t51.5 -70t73 -41t84 -13.5q69 0 125 16t103.5 43t88 62.5t77.5 74.5v302zM904 -280q-26 -26 -65 -40t-81 -14q-66 0 -110 35t-44 103q0 35 14.5 66t37 57.5t49 47.5t50.5 36q-1 1 -1 5l-6 160 q-42 -44 -84 -79.5t-89 -60.5t-101 -38.5t-120 -13.5q-44 0 -89 13.5t-81 43t-59 76t-23 113.5q0 66 39 118.5t118.5 89.5t201 58.5t287.5 25.5v126q0 77 -17 138t-50 103t-83 64.5t-116 22.5q-52 0 -94 -11t-75 -27t-57.5 -35t-42.5 -35t-29 -27t-16 -11q-4 0 -10 6l-4 4 q72 76 149 116t179 40q75 0 129.5 -24t90.5 -69t53 -109.5t17 -145.5v-648q-20 -11 -45.5 -29.5t-48 -43.5t-37.5 -56t-15 -67q0 -56 38.5 -87t95.5 -31q32 0 54.5 7t37.5 15t24 15t14 7q4 0 8 -4z" />
<glyph unicode="&#x106;" horiz-adv-x="1366" d="M1266 189q4 0 7 -3l9 -8q-44 -43 -94.5 -78.5t-110.5 -61t-132 -40t-159 -14.5q-141 0 -260 49.5t-206 142.5t-135.5 225.5t-48.5 298.5q0 160 48.5 292t137 226.5t212 146t272.5 51.5q69 0 130 -10.5t115.5 -31.5t104.5 -51.5t98 -70.5l-4 -6q-2 -4 -10 -4 q-7 0 -35.5 24t-81.5 53t-131.5 53t-185.5 24q-142 0 -260.5 -48.5t-204 -139t-133.5 -219.5t-48 -289q0 -163 47.5 -292t131.5 -219t198.5 -137.5t248.5 -47.5q85 0 152 12t122.5 35t103 56.5t94.5 76.5q5 5 8 5zM1097 1832l-329 -288q-4 -4 -8.5 -5t-9.5 -1h-12l281 280 q8 8 16.5 11t25.5 3h36z" />
<glyph unicode="&#x107;" horiz-adv-x="933" d="M822 888q-4 -4 -8 -4q-6 0 -22.5 14.5t-48 31.5t-79 31.5t-114.5 14.5q-95 0 -170 -34t-127 -97t-79.5 -153t-27.5 -202q0 -116 27.5 -205.5t78.5 -151t122.5 -93.5t159.5 -32q78 0 132 18t89 40t53 40t24 18q4 0 8 -4l4 -4q-15 -22 -44 -44.5t-69 -41t-90 -30.5 t-107 -12q-95 0 -171 34t-129.5 98.5t-82.5 157.5t-29 212q0 114 29 207.5t84 159.5t134.5 102.5t180.5 36.5q89 0 158.5 -28.5t119.5 -73.5zM718 1416l-202 -250q-5 -8 -16 -8h-14l164 236q9 14 17 18t25 4h26z" />
<glyph unicode="&#x108;" horiz-adv-x="1366" d="M1266 189q4 0 7 -3l9 -8q-44 -43 -94.5 -78.5t-110.5 -61t-132 -40t-159 -14.5q-141 0 -260 49.5t-206 142.5t-135.5 225.5t-48.5 298.5q0 160 48.5 292t137 226.5t212 146t272.5 51.5q69 0 130 -10.5t115.5 -31.5t104.5 -51.5t98 -70.5l-4 -6q-2 -4 -10 -4 q-7 0 -35.5 24t-81.5 53t-131.5 53t-185.5 24q-142 0 -260.5 -48.5t-204 -139t-133.5 -219.5t-48 -289q0 -163 47.5 -292t131.5 -219t198.5 -137.5t248.5 -47.5q85 0 152 12t122.5 35t103 56.5t94.5 76.5q5 5 8 5zM1054 1538h-20q-5 0 -10 1.5t-10 6.5l-196 224q-2 2 -4 6 q-2 -4 -4 -6l-196 -224q-5 -5 -10 -6.5t-10 -1.5h-20l232 264h16z" />
<glyph unicode="&#x109;" horiz-adv-x="933" d="M822 888q-4 -4 -8 -4q-6 0 -22.5 14.5t-48 31.5t-79 31.5t-114.5 14.5q-95 0 -170 -34t-127 -97t-79.5 -153t-27.5 -202q0 -116 27.5 -205.5t78.5 -151t122.5 -93.5t159.5 -32q78 0 132 18t89 40t53 40t24 18q4 0 8 -4l4 -4q-15 -22 -44 -44.5t-69 -41t-90 -30.5 t-107 -12q-95 0 -171 34t-129.5 98.5t-82.5 157.5t-29 212q0 114 29 207.5t84 159.5t134.5 102.5t180.5 36.5q89 0 158.5 -28.5t119.5 -73.5zM770 1170h-18q-8 0 -16 8l-180 196q-4 4 -6 7q-2 -3 -6 -7l-180 -196q-3 -3 -7 -5.5t-9 -2.5h-18l212 230h16z" />
<glyph unicode="&#x10a;" horiz-adv-x="1366" d="M1266 189q4 0 7 -3l9 -8q-44 -43 -94.5 -78.5t-110.5 -61t-132 -40t-159 -14.5q-141 0 -260 49.5t-206 142.5t-135.5 225.5t-48.5 298.5q0 160 48.5 292t137 226.5t212 146t272.5 51.5q69 0 130 -10.5t115.5 -31.5t104.5 -51.5t98 -70.5l-4 -6q-2 -4 -10 -4 q-7 0 -35.5 24t-81.5 53t-131.5 53t-185.5 24q-142 0 -260.5 -48.5t-204 -139t-133.5 -219.5t-48 -289q0 -163 47.5 -292t131.5 -219t198.5 -137.5t248.5 -47.5q85 0 152 12t122.5 35t103 56.5t94.5 76.5q5 5 8 5zM868 1668q0 -21 -17.5 -37.5t-38.5 -16.5q-23 0 -39.5 16.5 t-16.5 37.5q0 23 16.5 39.5t39.5 16.5q21 0 38.5 -16.5t17.5 -39.5z" />
<glyph unicode="&#x10b;" horiz-adv-x="933" d="M822 888q-4 -4 -8 -4q-6 0 -22.5 14.5t-48 31.5t-79 31.5t-114.5 14.5q-95 0 -170 -34t-127 -97t-79.5 -153t-27.5 -202q0 -116 27.5 -205.5t78.5 -151t122.5 -93.5t159.5 -32q78 0 132 18t89 40t53 40t24 18q4 0 8 -4l4 -4q-15 -22 -44 -44.5t-69 -41t-90 -30.5 t-107 -12q-95 0 -171 34t-129.5 98.5t-82.5 157.5t-29 212q0 114 29 207.5t84 159.5t134.5 102.5t180.5 36.5q89 0 158.5 -28.5t119.5 -73.5zM606 1360q0 -21 -17.5 -37.5t-38.5 -16.5q-23 0 -39.5 16.5t-16.5 37.5q0 23 16.5 39.5t39.5 16.5q21 0 38.5 -16.5t17.5 -39.5z " />
<glyph unicode="&#x10c;" horiz-adv-x="1366" d="M1266 189q4 0 7 -3l9 -8q-44 -43 -94.5 -78.5t-110.5 -61t-132 -40t-159 -14.5q-141 0 -260 49.5t-206 142.5t-135.5 225.5t-48.5 298.5q0 160 48.5 292t137 226.5t212 146t272.5 51.5q69 0 130 -10.5t115.5 -31.5t104.5 -51.5t98 -70.5l-4 -6q-2 -4 -10 -4 q-7 0 -35.5 24t-81.5 53t-131.5 53t-185.5 24q-142 0 -260.5 -48.5t-204 -139t-133.5 -219.5t-48 -289q0 -163 47.5 -292t131.5 -219t198.5 -137.5t248.5 -47.5q85 0 152 12t122.5 35t103 56.5t94.5 76.5q5 5 8 5zM1054 1802l-232 -264h-16l-232 264h20q5 0 10 -1.5t10 -6.5 l196 -234l4 -6l4 6l196 234q5 5 10 6.5t10 1.5h20z" />
<glyph unicode="&#x10d;" horiz-adv-x="933" d="M822 888q-4 -4 -8 -4q-6 0 -22.5 14.5t-48 31.5t-79 31.5t-114.5 14.5q-95 0 -170 -34t-127 -97t-79.5 -153t-27.5 -202q0 -116 27.5 -205.5t78.5 -151t122.5 -93.5t159.5 -32q78 0 132 18t89 40t53 40t24 18q4 0 8 -4l4 -4q-15 -22 -44 -44.5t-69 -41t-90 -30.5 t-107 -12q-95 0 -171 34t-129.5 98.5t-82.5 157.5t-29 212q0 114 29 207.5t84 159.5t134.5 102.5t180.5 36.5q89 0 158.5 -28.5t119.5 -73.5zM770 1400l-212 -230h-16l-212 230h18q8 0 16 -8l180 -196q4 -4 6 -7q2 3 6 7l180 196q8 8 16 8h18z" />
<glyph unicode="&#x10e;" horiz-adv-x="1519" d="M1380 700q0 -166 -47.5 -296t-133 -220t-204.5 -137t-263 -47h-500v1400h500q144 0 263 -47t204.5 -137t133 -220t47.5 -296zM1354 700q0 163 -45.5 289.5t-127.5 213.5t-196.5 132t-252.5 45h-476v-1360h476q138 0 252.5 45t196.5 132t127.5 213.5t45.5 289.5zM936 1802 l-232 -264h-16l-232 264h20q5 0 10 -1.5t10 -6.5l196 -234l4 -6l4 6l196 234q5 5 10 6.5t10 1.5h20z" />
<glyph unicode="&#x10f;" horiz-adv-x="1087" d="M879 789q-32 51 -67.5 87t-75.5 58t-85.5 32t-97.5 10q-103 0 -179 -37.5t-126.5 -103.5t-75.5 -155t-25 -192q0 -244 93.5 -362t274.5 -118q109 0 202.5 61t161.5 168v552zM903 1440v-1440h-6q-14 0 -14 16l-4 190q-66 -101 -159.5 -159.5t-204.5 -58.5 q-191 0 -291.5 122.5t-100.5 377.5q0 106 27 199t81 161.5t134.5 108t187.5 39.5q216 0 326 -175v619h24zM1119 1442q16 0 16 -22q0 -11 -3.5 -30t-10 -48.5t-16 -70t-22.5 -95.5q-2 -6 -4 -10t-10 -4h-6l46 280h10z" />
<glyph unicode="&#x110;" horiz-adv-x="1530" d="M743 20q138 0 252.5 45t196.5 132t127.5 213.5t45.5 289.5t-45.5 289.5t-127.5 213.5t-196.5 132t-252.5 45h-476v-658h344v-20h-344v-682h476zM743 1400q144 0 263 -47t204.5 -137t133 -220t47.5 -296t-47.5 -296t-133 -220t-204.5 -137t-263 -47h-500v702h-232v20h232 v678h500z" />
<glyph unicode="&#x111;" horiz-adv-x="1087" d="M879 789q-32 51 -67.5 87t-75.5 58t-85.5 32t-97.5 10q-103 0 -179 -37.5t-126.5 -103.5t-75.5 -155t-25 -192q0 -244 93.5 -362t274.5 -118q109 0 202.5 61t161.5 168v552zM1061 1170h-158v-1170h-6q-14 0 -14 16l-4 190q-66 -101 -159.5 -159.5t-204.5 -58.5 q-191 0 -291.5 122.5t-100.5 377.5q0 106 27 199t81 161.5t134.5 108t187.5 39.5q216 0 326 -175v349h-258v20h258v250h24v-250h158v-20z" />
<glyph unicode="&#x112;" horiz-adv-x="1165" d="M1052 22l-2 -22h-818v1400h818v-22h-794v-656h674v-22h-674v-678h796zM418 1652h460v-20h-460v20z" />
<glyph unicode="&#x113;" horiz-adv-x="1031" d="M900 582q0 95 -27 168.5t-74.5 123.5t-111.5 76t-137 26q-88 0 -158.5 -28t-121.5 -80t-81.5 -124.5t-39.5 -161.5h751zM894 116q-17 -21 -50.5 -43.5t-79 -41.5t-99.5 -31t-111 -12q-101 0 -181 35.5t-135.5 102.5t-85.5 164t-30 220q0 108 29 197.5t84 153.5 t134.5 99.5t180.5 35.5q77 0 145 -27.5t118.5 -81.5t79.5 -132.5t29 -180.5q0 -5 -3.5 -7.5t-8.5 -2.5h-762q-1 -14 -1.5 -27t-0.5 -27q0 -122 29 -215.5t82.5 -157t129 -96.5t167.5 -33q82 0 142 18t100 40t61 40t25 18t8 -4zM288 1290h520v-20h-520v20z" />
<glyph unicode="&#x114;" horiz-adv-x="1165" d="M1052 22l-2 -22h-818v1400h818v-22h-794v-656h674v-22h-674v-678h796zM647 1541q-123 0 -176.5 60t-53.5 182h22q0 -53 11 -94t35.5 -69.5t64.5 -43.5t97 -15t97 15t64.5 43.5t35.5 69.5t11 94h22q0 -122 -53.5 -182t-176.5 -60z" />
<glyph unicode="&#x115;" horiz-adv-x="1031" d="M900 582q0 95 -27 168.5t-74.5 123.5t-111.5 76t-137 26q-88 0 -158.5 -28t-121.5 -80t-81.5 -124.5t-39.5 -161.5h751zM894 116q-17 -21 -50.5 -43.5t-79 -41.5t-99.5 -31t-111 -12q-101 0 -181 35.5t-135.5 102.5t-85.5 164t-30 220q0 108 29 197.5t84 153.5 t134.5 99.5t180.5 35.5q77 0 145 -27.5t118.5 -81.5t79.5 -132.5t29 -180.5q0 -5 -3.5 -7.5t-8.5 -2.5h-762q-1 -14 -1.5 -27t-0.5 -27q0 -122 29 -215.5t82.5 -157t129 -96.5t167.5 -33q82 0 142 18t100 40t61 40t25 18t8 -4zM548 1172q-56 0 -96 18t-65.5 49.5t-37 72.5 t-11.5 88h20q0 -41 10 -78.5t32.5 -66t58.5 -46t89 -17.5q52 0 88.5 17.5t59 46t32.5 66t10 78.5h20q0 -47 -11.5 -88t-37 -72.5t-65.5 -49.5t-96 -18z" />
<glyph unicode="&#x116;" horiz-adv-x="1165" d="M1052 22l-2 -22h-818v1400h818v-22h-794v-656h674v-22h-674v-678h796zM702 1668q0 -21 -17.5 -37.5t-38.5 -16.5q-23 0 -39.5 16.5t-16.5 37.5q0 23 16.5 39.5t39.5 16.5q21 0 38.5 -16.5t17.5 -39.5z" />
<glyph unicode="&#x117;" horiz-adv-x="1031" d="M900 582q0 95 -27 168.5t-74.5 123.5t-111.5 76t-137 26q-88 0 -158.5 -28t-121.5 -80t-81.5 -124.5t-39.5 -161.5h751zM894 116q-17 -21 -50.5 -43.5t-79 -41.5t-99.5 -31t-111 -12q-101 0 -181 35.5t-135.5 102.5t-85.5 164t-30 220q0 108 29 197.5t84 153.5 t134.5 99.5t180.5 35.5q77 0 145 -27.5t118.5 -81.5t79.5 -132.5t29 -180.5q0 -5 -3.5 -7.5t-8.5 -2.5h-762q-1 -14 -1.5 -27t-0.5 -27q0 -122 29 -215.5t82.5 -157t129 -96.5t167.5 -33q82 0 142 18t100 40t61 40t25 18t8 -4zM604 1360q0 -21 -17.5 -37.5t-38.5 -16.5 q-23 0 -39.5 16.5t-16.5 37.5q0 23 16.5 39.5t39.5 16.5q21 0 38.5 -16.5t17.5 -39.5z" />
<glyph unicode="&#x118;" horiz-adv-x="1165" d="M1092 -280q-26 -26 -65 -40t-81 -14q-66 0 -110 35t-44 103q0 32 12.5 61t32 53.5t43 45.5t46.5 36h-694v1400h818v-22h-794v-656h674v-22h-674v-678h796l-2 -22h-90q-20 -11 -45.5 -29.5t-48 -43.5t-37.5 -56t-15 -67q0 -56 38.5 -87t95.5 -31q32 0 54.5 7t37.5 15 t24 15t14 7q4 0 8 -4z" />
<glyph unicode="&#x119;" horiz-adv-x="1031" d="M900 582q0 95 -27 168.5t-74.5 123.5t-111.5 76t-137 26q-88 0 -158.5 -28t-121.5 -80t-81.5 -124.5t-39.5 -161.5h751zM782 -280q-26 -26 -65 -40t-81 -14q-66 0 -110 35t-44 103q0 30 10.5 56.5t27.5 50t38.5 43.5t43.5 36q-12 -1 -24 -1.5t-24 -0.5q-101 0 -181 35.5 t-135.5 102.5t-85.5 164t-30 220q0 108 29 197.5t84 153.5t134.5 99.5t180.5 35.5q77 0 145 -27.5t118.5 -81.5t79.5 -132.5t29 -180.5q0 -5 -3.5 -7.5t-8.5 -2.5h-762q-1 -14 -1.5 -27t-0.5 -27q0 -122 29 -215.5t82.5 -157t129 -96.5t167.5 -33q82 0 142 18t100 40t61 40 t25 18t8 -4l4 -4q-13 -17 -37.5 -35t-57.5 -34.5t-73 -30t-83 -20.5q-21 -12 -45 -30.5t-45 -43t-35 -54.5t-14 -64q0 -56 38.5 -87t95.5 -31q32 0 54.5 7t37.5 15t24 15t14 7q4 0 8 -4z" />
<glyph unicode="&#x11a;" horiz-adv-x="1165" d="M1052 22l-2 -22h-818v1400h818v-22h-794v-656h674v-22h-674v-678h796zM888 1802l-232 -264h-16l-232 264h20q5 0 10 -1.5t10 -6.5l196 -234l4 -6l4 6l196 234q5 5 10 6.5t10 1.5h20z" />
<glyph unicode="&#x11b;" horiz-adv-x="1031" d="M900 582q0 95 -27 168.5t-74.5 123.5t-111.5 76t-137 26q-88 0 -158.5 -28t-121.5 -80t-81.5 -124.5t-39.5 -161.5h751zM894 116q-17 -21 -50.5 -43.5t-79 -41.5t-99.5 -31t-111 -12q-101 0 -181 35.5t-135.5 102.5t-85.5 164t-30 220q0 108 29 197.5t84 153.5 t134.5 99.5t180.5 35.5q77 0 145 -27.5t118.5 -81.5t79.5 -132.5t29 -180.5q0 -5 -3.5 -7.5t-8.5 -2.5h-762q-1 -14 -1.5 -27t-0.5 -27q0 -122 29 -215.5t82.5 -157t129 -96.5t167.5 -33q82 0 142 18t100 40t61 40t25 18t8 -4zM768 1400l-212 -230h-16l-212 230h18 q8 0 16 -8l180 -196q4 -4 6 -7q2 3 6 7l180 196q8 8 16 8h18z" />
<glyph unicode="&#x11c;" horiz-adv-x="1479" d="M1333 602v-464q-52 -35 -107 -63.5t-115.5 -48.5t-128 -31t-143.5 -11q-164 0 -294 49.5t-220.5 142.5t-139 225.5t-48.5 298.5q0 165 48 297.5t138 225.5t217.5 143t286.5 50q78 0 143 -9.5t121 -29t105.5 -50t96.5 -71.5l-4 -6q-3 -6 -10 -6q-5 0 -17.5 11.5t-35.5 28 t-58 36.5t-84 36.5t-112.5 28t-144.5 11.5q-152 0 -275 -47.5t-210 -137.5t-134 -219t-47 -292q0 -161 46 -290t133.5 -219t213.5 -138.5t285 -48.5q74 0 136.5 9.5t119 28t109.5 45t107 60.5v435h-314q-5 0 -8.5 3.5t-3.5 6.5v10h348zM1079 1538h-20q-5 0 -10 1.5t-10 6.5 l-196 224q-2 2 -4 6q-2 -4 -4 -6l-196 -224q-5 -5 -10 -6.5t-10 -1.5h-20l232 264h16z" />
<glyph unicode="&#x11d;" horiz-adv-x="1004" d="M794 684q0 65 -21.5 119t-61.5 92.5t-97 59.5t-128 21t-128 -21t-97 -59.5t-61.5 -92.5t-21.5 -119t21.5 -119t61.5 -92.5t97 -59.5t128 -21q73 0 130 21t96.5 59.5t60.5 92.5t21 119zM902 -78q0 56 -27.5 89.5t-73.5 52t-105 25.5t-123 10.5t-127 6.5t-116 13 q-47 -17 -87 -39t-68.5 -51t-44.5 -64t-16 -77q0 -51 27 -95.5t76.5 -77.5t120.5 -52t160 -19q79 0 152 20.5t129 57t89.5 87.5t33.5 113zM938 932v-4q0 -6 -5 -10t-11 -4l-196 -4q45 -42 68.5 -99t23.5 -127t-23.5 -127.5t-67 -98.5t-104.5 -63.5t-137 -22.5 q-50 0 -92.5 9.5t-79.5 27.5q-50 -28 -82 -70t-32 -81q0 -50 31 -76.5t82 -39.5t116 -16.5t133 -6.5t133 -10t116 -27.5t82 -58t31 -101.5q0 -59 -30.5 -112.5t-86 -95t-134 -66t-175.5 -24.5q-99 0 -175 21t-128 57t-78.5 84t-26.5 102q0 41 15 77.5t42.5 66.5t66.5 54 t87 40q-55 14 -89 44.5t-34 87.5q0 20 8.5 42t23.5 43.5t36.5 41t48.5 34.5q-68 40 -104.5 108t-36.5 157q0 69 23 126.5t66.5 98.5t104.5 64t138 23q65 0 118.5 -16.5t95.5 -47.5h238zM729 1170h-18q-8 0 -16 8l-180 196q-4 4 -6 7q-2 -3 -6 -7l-180 -196q-3 -3 -7 -5.5 t-9 -2.5h-18l212 230h16z" />
<glyph unicode="&#x11e;" horiz-adv-x="1479" d="M1333 602v-464q-52 -35 -107 -63.5t-115.5 -48.5t-128 -31t-143.5 -11q-164 0 -294 49.5t-220.5 142.5t-139 225.5t-48.5 298.5q0 165 48 297.5t138 225.5t217.5 143t286.5 50q78 0 143 -9.5t121 -29t105.5 -50t96.5 -71.5l-4 -6q-3 -6 -10 -6q-5 0 -17.5 11.5t-35.5 28 t-58 36.5t-84 36.5t-112.5 28t-144.5 11.5q-152 0 -275 -47.5t-210 -137.5t-134 -219t-47 -292q0 -161 46 -290t133.5 -219t213.5 -138.5t285 -48.5q74 0 136.5 9.5t119 28t109.5 45t107 60.5v435h-314q-5 0 -8.5 3.5t-3.5 6.5v10h348zM838 1541q-123 0 -176.5 60t-53.5 182 h22q0 -53 11 -94t35.5 -69.5t64.5 -43.5t97 -15t97 15t64.5 43.5t35.5 69.5t11 94h22q0 -122 -53.5 -182t-176.5 -60z" />
<glyph unicode="&#x11f;" horiz-adv-x="1004" d="M794 684q0 65 -21.5 119t-61.5 92.5t-97 59.5t-128 21t-128 -21t-97 -59.5t-61.5 -92.5t-21.5 -119t21.5 -119t61.5 -92.5t97 -59.5t128 -21q73 0 130 21t96.5 59.5t60.5 92.5t21 119zM902 -78q0 56 -27.5 89.5t-73.5 52t-105 25.5t-123 10.5t-127 6.5t-116 13 q-47 -17 -87 -39t-68.5 -51t-44.5 -64t-16 -77q0 -51 27 -95.5t76.5 -77.5t120.5 -52t160 -19q79 0 152 20.5t129 57t89.5 87.5t33.5 113zM938 932v-4q0 -6 -5 -10t-11 -4l-196 -4q45 -42 68.5 -99t23.5 -127t-23.5 -127.5t-67 -98.5t-104.5 -63.5t-137 -22.5 q-50 0 -92.5 9.5t-79.5 27.5q-50 -28 -82 -70t-32 -81q0 -50 31 -76.5t82 -39.5t116 -16.5t133 -6.5t133 -10t116 -27.5t82 -58t31 -101.5q0 -59 -30.5 -112.5t-86 -95t-134 -66t-175.5 -24.5q-99 0 -175 21t-128 57t-78.5 84t-26.5 102q0 41 15 77.5t42.5 66.5t66.5 54 t87 40q-55 14 -89 44.5t-34 87.5q0 20 8.5 42t23.5 43.5t36.5 41t48.5 34.5q-68 40 -104.5 108t-36.5 157q0 69 23 126.5t66.5 98.5t104.5 64t138 23q65 0 118.5 -16.5t95.5 -47.5h238zM509 1172q-56 0 -96 18t-65.5 49.5t-37 72.5t-11.5 88h20q0 -41 10 -78.5t32.5 -66 t58.5 -46t89 -17.5q52 0 88.5 17.5t59 46t32.5 66t10 78.5h20q0 -47 -11.5 -88t-37 -72.5t-65.5 -49.5t-96 -18z" />
<glyph unicode="&#x120;" horiz-adv-x="1479" d="M1333 602v-464q-52 -35 -107 -63.5t-115.5 -48.5t-128 -31t-143.5 -11q-164 0 -294 49.5t-220.5 142.5t-139 225.5t-48.5 298.5q0 165 48 297.5t138 225.5t217.5 143t286.5 50q78 0 143 -9.5t121 -29t105.5 -50t96.5 -71.5l-4 -6q-3 -6 -10 -6q-5 0 -17.5 11.5t-35.5 28 t-58 36.5t-84 36.5t-112.5 28t-144.5 11.5q-152 0 -275 -47.5t-210 -137.5t-134 -219t-47 -292q0 -161 46 -290t133.5 -219t213.5 -138.5t285 -48.5q74 0 136.5 9.5t119 28t109.5 45t107 60.5v435h-314q-5 0 -8.5 3.5t-3.5 6.5v10h348zM893 1668q0 -21 -17.5 -37.5 t-38.5 -16.5q-23 0 -39.5 16.5t-16.5 37.5q0 23 16.5 39.5t39.5 16.5q21 0 38.5 -16.5t17.5 -39.5z" />
<glyph unicode="&#x121;" horiz-adv-x="1004" d="M794 684q0 65 -21.5 119t-61.5 92.5t-97 59.5t-128 21t-128 -21t-97 -59.5t-61.5 -92.5t-21.5 -119t21.5 -119t61.5 -92.5t97 -59.5t128 -21q73 0 130 21t96.5 59.5t60.5 92.5t21 119zM902 -78q0 56 -27.5 89.5t-73.5 52t-105 25.5t-123 10.5t-127 6.5t-116 13 q-47 -17 -87 -39t-68.5 -51t-44.5 -64t-16 -77q0 -51 27 -95.5t76.5 -77.5t120.5 -52t160 -19q79 0 152 20.5t129 57t89.5 87.5t33.5 113zM938 932v-4q0 -6 -5 -10t-11 -4l-196 -4q45 -42 68.5 -99t23.5 -127t-23.5 -127.5t-67 -98.5t-104.5 -63.5t-137 -22.5 q-50 0 -92.5 9.5t-79.5 27.5q-50 -28 -82 -70t-32 -81q0 -50 31 -76.5t82 -39.5t116 -16.5t133 -6.5t133 -10t116 -27.5t82 -58t31 -101.5q0 -59 -30.5 -112.5t-86 -95t-134 -66t-175.5 -24.5q-99 0 -175 21t-128 57t-78.5 84t-26.5 102q0 41 15 77.5t42.5 66.5t66.5 54 t87 40q-55 14 -89 44.5t-34 87.5q0 20 8.5 42t23.5 43.5t36.5 41t48.5 34.5q-68 40 -104.5 108t-36.5 157q0 69 23 126.5t66.5 98.5t104.5 64t138 23q65 0 118.5 -16.5t95.5 -47.5h238zM565 1360q0 -21 -17.5 -37.5t-38.5 -16.5q-23 0 -39.5 16.5t-16.5 37.5q0 23 16.5 39.5 t39.5 16.5q21 0 38.5 -16.5t17.5 -39.5z" />
<glyph unicode="&#x122;" horiz-adv-x="1479" d="M1333 602v-464q-52 -35 -107 -63.5t-115.5 -48.5t-128 -31t-143.5 -11q-164 0 -294 49.5t-220.5 142.5t-139 225.5t-48.5 298.5q0 165 48 297.5t138 225.5t217.5 143t286.5 50q78 0 143 -9.5t121 -29t105.5 -50t96.5 -71.5l-4 -6q-3 -6 -10 -6q-5 0 -17.5 11.5t-35.5 28 t-58 36.5t-84 36.5t-112.5 28t-144.5 11.5q-152 0 -275 -47.5t-210 -137.5t-134 -219t-47 -292q0 -161 46 -290t133.5 -219t213.5 -138.5t285 -48.5q74 0 136.5 9.5t119 28t109.5 45t107 60.5v435h-314q-5 0 -8.5 3.5t-3.5 6.5v10h348zM766 -110q16 0 16 -22q0 -11 -3.5 -30 t-10 -48.5t-16 -70t-22.5 -95.5q-2 -6 -4 -10t-10 -4h-6l46 280h10z" />
<glyph unicode="&#x123;" horiz-adv-x="1004" d="M794 684q0 65 -21.5 119t-61.5 92.5t-97 59.5t-128 21t-128 -21t-97 -59.5t-61.5 -92.5t-21.5 -119t21.5 -119t61.5 -92.5t97 -59.5t128 -21q73 0 130 21t96.5 59.5t60.5 92.5t21 119zM902 -78q0 56 -27.5 89.5t-73.5 52t-105 25.5t-123 10.5t-127 6.5t-116 13 q-47 -17 -87 -39t-68.5 -51t-44.5 -64t-16 -77q0 -51 27 -95.5t76.5 -77.5t120.5 -52t160 -19q79 0 152 20.5t129 57t89.5 87.5t33.5 113zM938 932v-4q0 -6 -5 -10t-11 -4l-196 -4q45 -42 68.5 -99t23.5 -127t-23.5 -127.5t-67 -98.5t-104.5 -63.5t-137 -22.5 q-50 0 -92.5 9.5t-79.5 27.5q-50 -28 -82 -70t-32 -81q0 -50 31 -76.5t82 -39.5t116 -16.5t133 -6.5t133 -10t116 -27.5t82 -58t31 -101.5q0 -59 -30.5 -112.5t-86 -95t-134 -66t-175.5 -24.5q-99 0 -175 21t-128 57t-78.5 84t-26.5 102q0 41 15 77.5t42.5 66.5t66.5 54 t87 40q-55 14 -89 44.5t-34 87.5q0 20 8.5 42t23.5 43.5t36.5 41t48.5 34.5q-68 40 -104.5 108t-36.5 157q0 69 23 126.5t66.5 98.5t104.5 64t138 23q65 0 118.5 -16.5t95.5 -47.5h238zM520 1136h-34l64 280h16z" />
<glyph unicode="&#x124;" horiz-adv-x="1496" d="M1264 1400v-1400h-24v700h-984v-700h-24v1400h24v-678h984v678h24zM998 1538h-20q-5 0 -10 1.5t-10 6.5l-196 224q-2 2 -4 6q-2 -4 -4 -6l-196 -224q-5 -5 -10 -6.5t-10 -1.5h-20l232 264h16z" />
<glyph unicode="&#x125;" horiz-adv-x="1087" d="M208 776q34 50 76.5 91t91.5 69.5t103 44t111 15.5q163 0 243.5 -97t80.5 -271v-628h-24v628q0 82 -18 146.5t-55.5 109.5t-94 68.5t-132.5 23.5q-115 0 -212 -61t-170 -169v-746h-24v1440h24v-664zM436 1538h-20q-5 0 -10 1.5t-10 6.5l-196 224q-2 2 -4 6q-2 -4 -4 -6 l-196 -224q-5 -5 -10 -6.5t-10 -1.5h-20l232 264h16z" />
<glyph unicode="&#x126;" horiz-adv-x="1500" d="M1242 1042h-984v-320h984v320zM1456 1042h-190v-1042h-24v700h-984v-700h-24v1042h-190v18h190v340h24v-340h984v340h24v-340h190v-18z" />
<glyph unicode="&#x127;" horiz-adv-x="1087" d="M208 776q34 50 76.5 91t91.5 69.5t103 44t111 15.5q163 0 243.5 -97t80.5 -271v-628h-24v628q0 82 -18 146.5t-55.5 109.5t-94 68.5t-132.5 23.5q-115 0 -212 -61t-170 -169v-746h-24v1200h-176v20h176v220h24v-220h320v-20h-320v-424z" />
<glyph unicode="&#x128;" horiz-adv-x="488" d="M256 0h-24v1400h24v-1400zM374 1576q50 0 79 33t31 81h16q0 -27 -8.5 -51.5t-24.5 -42.5t-39.5 -29t-53.5 -11q-32 0 -63.5 18t-61.5 40t-60 40t-59 18q-24 0 -44 -9t-34.5 -24.5t-22.5 -36.5t-9 -44h-18q0 27 9 51.5t25.5 42.5t40.5 29t53 11q33 0 64.5 -18t61.5 -40 t59.5 -40t58.5 -18z" />
<glyph unicode="&#x129;" horiz-adv-x="416" d="M220 980v-980h-24v980h24zM326 1242q50 0 74 33t26 81h16q0 -27 -7 -51.5t-21 -42.5t-36 -29t-52 -11q-32 0 -60 18t-55 40t-53.5 40t-55.5 18q-24 0 -42.5 -9t-31 -24.5t-19 -36.5t-7.5 -44h-18q0 27 7.5 51.5t22.5 42.5t37 29t51 11q33 0 61 -18t54.5 -40t53 -40 t55.5 -18z" />
<glyph unicode="&#x12a;" horiz-adv-x="488" d="M256 0h-24v1400h24v-1400zM16 1652h460v-20h-460v20z" />
<glyph unicode="&#x12b;" horiz-adv-x="416" d="M220 980v-980h-24v980h24zM-52 1290h520v-20h-520v20z" />
<glyph unicode="&#x12c;" horiz-adv-x="488" d="M256 0h-24v1400h24v-1400zM245 1541q-123 0 -176.5 60t-53.5 182h22q0 -53 11 -94t35.5 -69.5t64.5 -43.5t97 -15t97 15t64.5 43.5t35.5 69.5t11 94h22q0 -122 -53.5 -182t-176.5 -60z" />
<glyph unicode="&#x12d;" horiz-adv-x="416" d="M220 980v-980h-24v980h24zM208 1172q-56 0 -96 18t-65.5 49.5t-37 72.5t-11.5 88h20q0 -41 10 -78.5t32.5 -66t58.5 -46t89 -17.5q52 0 88.5 17.5t59 46t32.5 66t10 78.5h20q0 -47 -11.5 -88t-37 -72.5t-65.5 -49.5t-96 -18z" />
<glyph unicode="&#x12e;" horiz-adv-x="490" d="M390 -280q-26 -26 -65 -40t-81 -14q-66 0 -110 35t-44 103q0 34 13.5 64t34.5 56t46.5 47t49.5 36v1393h24v-1400q-20 -11 -45.5 -29.5t-48 -43.5t-37.5 -56t-15 -67q0 -56 38.5 -87t95.5 -31q32 0 54.5 7t37.5 15t24 15t14 7q4 0 8 -4z" />
<glyph unicode="&#x12f;" horiz-adv-x="416" d="M208 1290q-23 0 -39.5 16.5t-16.5 37.5q0 23 16.5 39.5t39.5 16.5q21 0 38.5 -16.5t17.5 -39.5q0 -21 -17.5 -37.5t-38.5 -16.5zM352 -280q-26 -26 -65 -40t-81 -14q-66 0 -110 35t-44 103q0 34 13.5 64t34.5 56t46.5 47t49.5 36v973h24v-980q-20 -11 -45.5 -29.5 t-48 -43.5t-37.5 -56t-15 -67q0 -56 38.5 -87t95.5 -31q32 0 54.5 7t37.5 15t24 15t14 7q4 0 8 -4z" />
<glyph unicode="&#x130;" horiz-adv-x="488" d="M256 0h-24v1400h24v-1400zM300 1668q0 -21 -17.5 -37.5t-38.5 -16.5q-23 0 -39.5 16.5t-16.5 37.5q0 23 16.5 39.5t39.5 16.5q21 0 38.5 -16.5t17.5 -39.5z" />
<glyph unicode="&#x131;" horiz-adv-x="416" d="M220 980v-980h-24v980h24z" />
<glyph unicode="&#x132;" horiz-adv-x="1437" d="M256 0h-24v1400h24v-1400zM1220 452q0 -118 -29 -205.5t-81.5 -146t-126 -87.5t-161.5 -29q-82 0 -172 30q0 2 1 3t1 3q2 3 3 6.5t9 3.5q10 0 23 -4t31.5 -9t43.5 -9t60 -4q85 0 154.5 28t118 84t75 140t26.5 196v948h24v-948z" />
<glyph unicode="&#x133;" horiz-adv-x="880" d="M220 980v-980h-24v980h24zM264 1344q0 -21 -17.5 -37.5t-38.5 -16.5q-23 0 -39.5 16.5t-16.5 37.5q0 23 16.5 39.5t39.5 16.5q21 0 38.5 -16.5t17.5 -39.5zM684 980v-1152q0 -44 -14 -81t-39.5 -64t-61.5 -42t-81 -15q-27 0 -46.5 5.5t-37.5 16.5l4 8q4 8 9 7.5t14 -4.5 t23 -8.5t34 -4.5q85 0 128.5 50.5t43.5 131.5v1152h24zM727 1344q0 -21 -17.5 -37.5t-38.5 -16.5q-23 0 -39.5 16.5t-16.5 37.5q0 23 16.5 39.5t39.5 16.5q21 0 38.5 -16.5t17.5 -39.5z" />
<glyph unicode="&#x134;" horiz-adv-x="815" d="M598 452q0 -118 -29 -205.5t-81.5 -146t-126 -87.5t-161.5 -29q-82 0 -172 30q0 2 1 3t1 3q2 3 3 6.5t9 3.5q10 0 23 -4t31.5 -9t43.5 -9t60 -4q85 0 154.5 28t118 84t75 140t26.5 196v948h24v-948zM826 1538h-20q-5 0 -10 1.5t-10 6.5l-196 224q-2 2 -4 6q-2 -4 -4 -6 l-196 -224q-5 -5 -10 -6.5t-10 -1.5h-20l232 264h16z" />
<glyph unicode="&#x135;" horiz-adv-x="416" d="M220 980v-1152q0 -44 -14 -81t-39.5 -64t-61.5 -42t-81 -15q-27 0 -46.5 5.5t-37.5 16.5l4 8q4 8 9 7.5t14 -4.5t23 -8.5t34 -4.5q85 0 128.5 50.5t43.5 131.5v1152h24zM428 1170h-18q-8 0 -16 8l-180 196q-4 4 -6 7q-2 -3 -6 -7l-180 -196q-3 -3 -7 -5.5t-9 -2.5h-18 l212 230h16z" />
<glyph unicode="&#x136;" horiz-adv-x="1222" d="M256 724h94q19 0 32.5 1t24 4.5t20.5 10.5t21 18l652 626q11 9 18 12.5t18 3.5h12l-680 -652q-18 -16 -29.5 -23t-30.5 -11q18 -3 31 -10.5t27 -21.5l722 -682h-10q-15 0 -21.5 3t-14.5 11l-688 650q-11 10 -20 18t-19.5 12.5t-25.5 7t-39 2.5h-94v-704h-24v1400h24v-676 zM595 -110q16 0 16 -22q0 -11 -3.5 -30t-10 -48.5t-16 -70t-22.5 -95.5q-2 -6 -4 -10t-10 -4h-6l46 280h10z" />
<glyph unicode="&#x137;" horiz-adv-x="897" d="M208 1440v-904h46q9 0 21 2t27 16l466 410q8 8 16 12t20 4h18l-496 -434q-13 -12 -25 -17q14 -4 24 -10.5t19 -14.5l518 -504h-18q-8 0 -14 2t-14 10l-492 478q-18 16 -32 22t-44 6h-40v-518h-24v1440h24zM478 -110q16 0 16 -22q0 -11 -3.5 -30t-10 -48.5t-16 -70 t-22.5 -95.5q-2 -6 -4 -10t-10 -4h-6l46 280h10z" />
<glyph unicode="&#x138;" horiz-adv-x="897" d="M208 980v-444h46q9 0 21 2t27 16l466 410q8 8 16 12t20 4h18l-496 -434q-13 -12 -25 -17q14 -4 24 -10.5t19 -14.5l518 -504h-18q-8 0 -14 2t-14 10l-492 478q-18 16 -32 22t-44 6h-40v-518h-24v980h24z" />
<glyph unicode="&#x139;" horiz-adv-x="1000" d="M970 22v-22h-738v1400h24v-1378h714zM527 1832l-329 -288q-4 -4 -8.5 -5t-9.5 -1h-12l281 280q8 8 16.5 11t25.5 3h36z" />
<glyph unicode="&#x13a;" horiz-adv-x="416" d="M220 1440v-1440h-24v1440h24zM490 1832l-329 -288q-4 -4 -8.5 -5t-9.5 -1h-12l281 280q8 8 16.5 11t25.5 3h36z" />
<glyph unicode="&#x13b;" horiz-adv-x="1000" d="M970 22v-22h-738v1400h24v-1378h714zM574 -110q16 0 16 -22q0 -11 -3.5 -30t-10 -48.5t-16 -70t-22.5 -95.5q-2 -6 -4 -10t-10 -4h-6l46 280h10z" />
<glyph unicode="&#x13c;" horiz-adv-x="416" d="M220 1440v-1440h-24v1440h24zM203 -110q16 0 16 -22q0 -11 -3.5 -30t-10 -48.5t-16 -70t-22.5 -95.5q-2 -6 -4 -10t-10 -4h-6l46 280h10z" />
<glyph unicode="&#x13d;" horiz-adv-x="1000" d="M970 22v-22h-738v1400h24v-1378h714zM577 1442q16 0 16 -22q0 -11 -3.5 -30t-10 -48.5t-16 -70t-22.5 -95.5q-2 -6 -4 -10t-10 -4h-6l46 280h10z" />
<glyph unicode="&#x13e;" horiz-adv-x="416" d="M220 1440v-1440h-24v1440h24zM436 1442q16 0 16 -22q0 -11 -3.5 -30t-10 -48.5t-16 -70t-22.5 -95.5q-2 -6 -4 -10t-10 -4h-6l46 280h10z" />
<glyph unicode="&#x13f;" horiz-adv-x="1033" d="M970 22v-22h-738v1400h24v-1378h714zM808 741q0 -21 -17.5 -37.5t-38.5 -16.5q-23 0 -39.5 16.5t-16.5 37.5q0 23 16.5 39.5t39.5 16.5q21 0 38.5 -16.5t17.5 -39.5z" />
<glyph unicode="&#x140;" horiz-adv-x="656" d="M220 1440v-1440h-24v1440h24zM476 730q0 27 18.5 46.5t45.5 19.5t46.5 -19.5t19.5 -46.5t-19.5 -45.5t-46.5 -18.5t-45.5 18.5t-18.5 45.5z" />
<glyph unicode="&#x141;" horiz-adv-x="1021" d="M991 22v-22h-738v616l-202 -108v10q0 8 2 11.5t10 8.5l190 102v760h24v-750l444 236v-11q0 -6 -1.5 -10.5t-10.5 -9.5l-432 -229v-604h714z" />
<glyph unicode="&#x142;" horiz-adv-x="521" d="M496 950v-6q0 -6 -1.5 -10.5t-10.5 -9.5l-198 -97v-827h-24v817l-210 -103v6q0 8 2 11.5t10 8.5l198 99v601h24v-591z" />
<glyph unicode="&#x143;" horiz-adv-x="1496" d="M1264 1400v-1400h-6q-6 0 -11 7l-996 1356q1 -7 1 -13v-12v-1338h-20v1400h8q9 0 14 -8l991 -1349q-1 5 -1 10.5v10.5v1336h20zM1060 1830l-329 -288q-4 -4 -8.5 -5t-9.5 -1h-12l281 280q8 8 16.5 11t25.5 3h36z" />
<glyph unicode="&#x144;" horiz-adv-x="1087" d="M208 776q34 50 76.5 91t91.5 69.5t103 44t111 15.5q163 0 243.5 -97t80.5 -271v-628h-24v628q0 82 -18 146.5t-55.5 109.5t-94 68.5t-132.5 23.5q-115 0 -212 -61t-170 -169v-746h-24v980h6q14 0 14 -16zM710 1416l-202 -250q-5 -8 -16 -8h-14l164 236q9 14 17 18t25 4 h26z" />
<glyph unicode="&#x145;" horiz-adv-x="1496" d="M1264 1400v-1400h-6q-6 0 -11 7l-996 1356q1 -7 1 -13v-12v-1338h-20v1400h8q9 0 14 -8l991 -1349q-1 5 -1 10.5v10.5v1336h20zM768 -110q16 0 16 -22q0 -11 -3.5 -30t-10 -48.5t-16 -70t-22.5 -95.5q-2 -6 -4 -10t-10 -4h-6l46 280h10z" />
<glyph unicode="&#x146;" horiz-adv-x="1087" d="M208 776q34 50 76.5 91t91.5 69.5t103 44t111 15.5q163 0 243.5 -97t80.5 -271v-628h-24v628q0 82 -18 146.5t-55.5 109.5t-94 68.5t-132.5 23.5q-115 0 -212 -61t-170 -169v-746h-24v980h6q14 0 14 -16zM564 -110q16 0 16 -22q0 -11 -3.5 -30t-10 -48.5t-16 -70 t-22.5 -95.5q-2 -6 -4 -10t-10 -4h-6l46 280h10z" />
<glyph unicode="&#x147;" horiz-adv-x="1496" d="M1264 1400v-1400h-6q-6 0 -11 7l-996 1356q1 -7 1 -13v-12v-1338h-20v1400h8q9 0 14 -8l991 -1349q-1 5 -1 10.5v10.5v1336h20zM1017 1800l-232 -264h-16l-232 264h20q5 0 10 -1.5t10 -6.5l196 -234l4 -6l4 6l196 234q5 5 10 6.5t10 1.5h20z" />
<glyph unicode="&#x148;" horiz-adv-x="1087" d="M208 776q34 50 76.5 91t91.5 69.5t103 44t111 15.5q163 0 243.5 -97t80.5 -271v-628h-24v628q0 82 -18 146.5t-55.5 109.5t-94 68.5t-132.5 23.5q-115 0 -212 -61t-170 -169v-746h-24v980h6q14 0 14 -16zM762 1400l-212 -230h-16l-212 230h18q8 0 16 -8l180 -196 q4 -4 6 -7q2 3 6 7l180 196q8 8 16 8h18z" />
<glyph unicode="&#x149;" horiz-adv-x="1086" d="M161 1496q28 -53 38.5 -115t4 -123.5t-29 -118.5t-59.5 -99l-4 4q-4 4 0 10q37 50 53.5 107t18 112.5t-10.5 106t-33 88.5q-3 5 -3.5 10t5.5 8zM209 776q34 50 76.5 91t91.5 69.5t103 44t111 15.5q163 0 243.5 -97t80.5 -271v-628h-24v628q0 82 -18 146.5t-55.5 109.5 t-94 68.5t-132.5 23.5q-115 0 -212 -61t-170 -169v-746h-24v980h6q14 0 14 -16z" />
<glyph unicode="&#x14a;" horiz-adv-x="1496" d="M1264 1400v-1470q0 -140 -60.5 -215t-178.5 -75q-35 0 -66.5 6.5t-63.5 19.5l2 7q2 6 5 7t5 1q7 0 36.5 -10.5t80.5 -10.5q105 0 162.5 67.5t57.5 202.5v81l-993 1352q1 -7 1 -13v-12v-1338h-20v1400h8q9 0 14 -8l991 -1349q-1 5 -1 10.5v10.5v1336h20z" />
<glyph unicode="&#x14b;" horiz-adv-x="1087" d="M208 776q34 50 76.5 91t91.5 69.5t103 44t111 15.5q163 0 243.5 -97t80.5 -271v-714q0 -140 -62.5 -215t-180.5 -75q-35 0 -66.5 6.5t-63.5 19.5l2 7q2 6 5 7t5 1q7 0 36.5 -10.5t80.5 -10.5q105 0 162.5 67.5t57.5 202.5v714q0 82 -18 146.5t-55.5 109.5t-94 68.5 t-132.5 23.5q-115 0 -212 -61t-170 -169v-746h-24v980h6q14 0 14 -16z" />
<glyph unicode="&#x14c;" horiz-adv-x="1568" d="M1431 700q0 -166 -47.5 -298t-133 -224.5t-204.5 -142t-263 -49.5q-143 0 -261.5 49.5t-204 142t-133 224.5t-47.5 298q0 165 47.5 297.5t133 225.5t204 143t261.5 50q144 0 263 -49.5t204.5 -142.5t133 -225.5t47.5 -298.5zM1405 700q0 163 -45.5 292t-127.5 219 t-196.5 137.5t-252.5 47.5q-136 0 -250 -47.5t-196.5 -137.5t-129 -219t-46.5 -292t46.5 -291.5t129 -218t196.5 -137t250 -47.5q138 0 252.5 47.5t196.5 137t127.5 218t45.5 291.5zM555 1652h460v-20h-460v20z" />
<glyph unicode="&#x14d;" horiz-adv-x="1101" d="M550 996q103 0 183 -36.5t134.5 -102.5t82.5 -159.5t28 -207.5t-28 -206.5t-82.5 -158.5t-134.5 -101.5t-183 -35.5q-104 0 -183.5 35.5t-134 101.5t-82.5 158.5t-28 206.5t28 207.5t82.5 159.5t134 102.5t183.5 36.5zM550 8q100 0 176 35t126.5 98t76 152t25.5 197 t-25.5 197.5t-76 153.5t-126.5 99.5t-176 35.5q-101 0 -176.5 -35.5t-126 -99.5t-76 -153.5t-25.5 -197.5t25.5 -197t76 -152t126 -98t176.5 -35zM292 1290h520v-20h-520v20z" />
<glyph unicode="&#x14e;" horiz-adv-x="1568" d="M1431 700q0 -166 -47.5 -298t-133 -224.5t-204.5 -142t-263 -49.5q-143 0 -261.5 49.5t-204 142t-133 224.5t-47.5 298q0 165 47.5 297.5t133 225.5t204 143t261.5 50q144 0 263 -49.5t204.5 -142.5t133 -225.5t47.5 -298.5zM1405 700q0 163 -45.5 292t-127.5 219 t-196.5 137.5t-252.5 47.5q-136 0 -250 -47.5t-196.5 -137.5t-129 -219t-46.5 -292t46.5 -291.5t129 -218t196.5 -137t250 -47.5q138 0 252.5 47.5t196.5 137t127.5 218t45.5 291.5zM784 1541q-123 0 -176.5 60t-53.5 182h22q0 -53 11 -94t35.5 -69.5t64.5 -43.5t97 -15 t97 15t64.5 43.5t35.5 69.5t11 94h22q0 -122 -53.5 -182t-176.5 -60z" />
<glyph unicode="&#x14f;" horiz-adv-x="1101" d="M550 996q103 0 183 -36.5t134.5 -102.5t82.5 -159.5t28 -207.5t-28 -206.5t-82.5 -158.5t-134.5 -101.5t-183 -35.5q-104 0 -183.5 35.5t-134 101.5t-82.5 158.5t-28 206.5t28 207.5t82.5 159.5t134 102.5t183.5 36.5zM550 8q100 0 176 35t126.5 98t76 152t25.5 197 t-25.5 197.5t-76 153.5t-126.5 99.5t-176 35.5q-101 0 -176.5 -35.5t-126 -99.5t-76 -153.5t-25.5 -197.5t25.5 -197t76 -152t126 -98t176.5 -35zM552 1172q-56 0 -96 18t-65.5 49.5t-37 72.5t-11.5 88h20q0 -41 10 -78.5t32.5 -66t58.5 -46t89 -17.5q52 0 88.5 17.5t59 46 t32.5 66t10 78.5h20q0 -47 -11.5 -88t-37 -72.5t-65.5 -49.5t-96 -18z" />
<glyph unicode="&#x150;" horiz-adv-x="1568" d="M1431 700q0 -166 -47.5 -298t-133 -224.5t-204.5 -142t-263 -49.5q-143 0 -261.5 49.5t-204 142t-133 224.5t-47.5 298q0 165 47.5 297.5t133 225.5t204 143t261.5 50q144 0 263 -49.5t204.5 -142.5t133 -225.5t47.5 -298.5zM1405 700q0 163 -45.5 292t-127.5 219 t-196.5 137.5t-252.5 47.5q-136 0 -250 -47.5t-196.5 -137.5t-129 -219t-46.5 -292t46.5 -291.5t129 -218t196.5 -137t250 -47.5q138 0 252.5 47.5t196.5 137t127.5 218t45.5 291.5zM849 1803l-204 -257q-5 -8 -16 -8h-14l170 243q9 13 18 17.5t26 4.5h20zM1165 1803 l-228 -257q-8 -8 -16 -8h-14l190 243q11 14 19 18t25 4h24z" />
<glyph unicode="&#x151;" horiz-adv-x="1101" d="M550 996q103 0 183 -36.5t134.5 -102.5t82.5 -159.5t28 -207.5t-28 -206.5t-82.5 -158.5t-134.5 -101.5t-183 -35.5q-104 0 -183.5 35.5t-134 101.5t-82.5 158.5t-28 206.5t28 207.5t82.5 159.5t134 102.5t183.5 36.5zM550 8q100 0 176 35t126.5 98t76 152t25.5 197 t-25.5 197.5t-76 153.5t-126.5 99.5t-176 35.5q-101 0 -176.5 -35.5t-126 -99.5t-76 -153.5t-25.5 -197.5t25.5 -197t76 -152t126 -98t176.5 -35zM650 1416l-198 -250q-5 -8 -16 -8h-14l164 236q9 14 17 18t25 4h22zM886 1416l-222 -250q-5 -8 -16 -8h-14l184 236 q11 14 18 18t24 4h26z" />
<glyph unicode="&#x152;" horiz-adv-x="2220" d="M725 8q124 0 227.5 47t178 136t115.5 217.5t41 291.5t-41 292t-115.5 219t-178 137.5t-227.5 47.5q-123 0 -226 -47.5t-178 -137.5t-116.5 -219t-41.5 -292t41.5 -291.5t116.5 -217.5t178 -136t226 -47zM2107 22l-2 -22h-816v498q-23 -120 -73 -215t-123 -160.5 t-167 -100t-205 -34.5q-128 0 -235 49t-184 141t-120 224t-43 298q0 165 43 297.5t120 225.5t184 143t235 50q111 0 205 -35t167 -101t123 -161.5t73 -216.5v498h816v-22h-794v-656h674v-22h-674v-678h796z" />
<glyph unicode="&#x153;" horiz-adv-x="1734" d="M1599 562q0 103 -24 180.5t-66 129.5t-98.5 78t-121.5 26q-82 0 -147.5 -30t-112 -84t-73.5 -130.5t-33 -169.5h676zM523 8q93 0 163 35t117 98t70.5 152t23.5 197t-23.5 197.5t-70.5 153.5t-117 99.5t-163 35.5q-94 0 -164.5 -35.5t-117.5 -99.5t-70.5 -153.5 t-23.5 -197.5t23.5 -197t70.5 -152t117.5 -98t164.5 -35zM1599 116q-15 -21 -45.5 -43.5t-71.5 -41.5t-90 -31t-101 -12q-80 0 -145 27t-113.5 79t-79.5 127t-43 171q-10 -93 -40 -168t-78.5 -127.5t-116 -80.5t-152.5 -28q-97 0 -171.5 35.5t-125.5 101.5t-77 158.5 t-26 206.5t26 207.5t77 159.5t125.5 102.5t171.5 36.5q84 0 150 -27.5t114.5 -79t79 -124t41.5 -162.5q10 89 40.5 161.5t78.5 124t113.5 79.5t146.5 28q70 0 130.5 -28t105.5 -83.5t70.5 -138.5t25.5 -192q0 -10 -10 -10h-687q-1 -8 -1 -17v-17q0 -122 26.5 -215.5t75 -157 t117 -96.5t151.5 -33q73 0 126.5 18t89.5 40t55.5 40t24.5 18q4 0 8 -4z" />
<glyph unicode="&#x154;" horiz-adv-x="1181" d="M256 696h282q103 0 185.5 24.5t141 70t90 111t31.5 148.5q0 171 -111 250.5t-319 79.5h-300v-684zM1136 0h-16q-8 0 -13 1.5t-13 10.5l-524 628q-8 10 -16.5 17t-19 11.5t-25 6t-35.5 1.5h-218v-676h-24v1400h324q219 0 336.5 -85t117.5 -265q0 -85 -33 -153.5 t-93 -116.5t-143.5 -75t-184.5 -29q10 -4 18 -10.5t16 -15.5zM833 1832l-329 -288q-4 -4 -8.5 -5t-9.5 -1h-12l281 280q8 8 16.5 11t25.5 3h36z" />
<glyph unicode="&#x155;" horiz-adv-x="688" d="M208 693q21 72 50 128.5t69.5 95.5t93 59t119.5 20q29 0 59.5 -4.5t54.5 -17.5l-4 -8q-2 -3 -3.5 -5.5t-6.5 -2.5t-13 2.5t-19.5 5.5t-28 5.5t-39.5 2.5q-66 0 -117 -21t-90.5 -62t-70 -103t-54.5 -144v-644h-24v980h6q14 0 14 -16zM586 1416l-202 -250q-5 -8 -16 -8h-14 l164 236q9 14 17 18t25 4h26z" />
<glyph unicode="&#x156;" horiz-adv-x="1181" d="M256 696h282q103 0 185.5 24.5t141 70t90 111t31.5 148.5q0 171 -111 250.5t-319 79.5h-300v-684zM1136 0h-16q-8 0 -13 1.5t-13 10.5l-524 628q-8 10 -16.5 17t-19 11.5t-25 6t-35.5 1.5h-218v-676h-24v1400h324q219 0 336.5 -85t117.5 -265q0 -85 -33 -153.5 t-93 -116.5t-143.5 -75t-184.5 -29q10 -4 18 -10.5t16 -15.5zM612 -110q16 0 16 -22q0 -11 -3.5 -30t-10 -48.5t-16 -70t-22.5 -95.5q-2 -6 -4 -10t-10 -4h-6l46 280h10z" />
<glyph unicode="&#x157;" horiz-adv-x="688" d="M208 693q21 72 50 128.5t69.5 95.5t93 59t119.5 20q29 0 59.5 -4.5t54.5 -17.5l-4 -8q-2 -3 -3.5 -5.5t-6.5 -2.5t-13 2.5t-19.5 5.5t-28 5.5t-39.5 2.5q-66 0 -117 -21t-90.5 -62t-70 -103t-54.5 -144v-644h-24v980h6q14 0 14 -16zM190 -110q16 0 16 -22q0 -11 -3.5 -30 t-10 -48.5t-16 -70t-22.5 -95.5q-2 -6 -4 -10t-10 -4h-6l46 280h10z" />
<glyph unicode="&#x158;" horiz-adv-x="1181" d="M256 696h282q103 0 185.5 24.5t141 70t90 111t31.5 148.5q0 171 -111 250.5t-319 79.5h-300v-684zM1136 0h-16q-8 0 -13 1.5t-13 10.5l-524 628q-8 10 -16.5 17t-19 11.5t-25 6t-35.5 1.5h-218v-676h-24v1400h324q219 0 336.5 -85t117.5 -265q0 -85 -33 -153.5 t-93 -116.5t-143.5 -75t-184.5 -29q10 -4 18 -10.5t16 -15.5zM790 1802l-232 -264h-16l-232 264h20q5 0 10 -1.5t10 -6.5l196 -234l4 -6l4 6l196 234q5 5 10 6.5t10 1.5h20z" />
<glyph unicode="&#x159;" horiz-adv-x="688" d="M208 693q21 72 50 128.5t69.5 95.5t93 59t119.5 20q29 0 59.5 -4.5t54.5 -17.5l-4 -8q-2 -3 -3.5 -5.5t-6.5 -2.5t-13 2.5t-19.5 5.5t-28 5.5t-39.5 2.5q-66 0 -117 -21t-90.5 -62t-70 -103t-54.5 -144v-644h-24v980h6q14 0 14 -16zM638 1400l-212 -230h-16l-212 230h18 q8 0 16 -8l180 -196q4 -4 6 -7q2 3 6 7l180 196q8 8 16 8h18z" />
<glyph unicode="&#x15a;" horiz-adv-x="1058" d="M880 1272q-3 -6 -10 -6t-17 9.5t-26 24t-39.5 31.5t-56.5 31.5t-76 24t-99 9.5q-86 0 -152.5 -26.5t-111.5 -70.5t-68.5 -102t-23.5 -121q0 -81 31.5 -135t82.5 -91t117 -61.5t134 -47t134 -47.5t117 -63.5t82.5 -95t31.5 -141.5q0 -86 -29 -160.5t-84 -130t-135 -87.5 t-182 -32q-71 0 -127 12.5t-102.5 36t-85.5 57t-75 76.5l4 4q3 3 5 4.5t7 1.5q6 0 17.5 -12.5t31.5 -32t48 -41.5t68 -41.5t91.5 -32t117.5 -12.5q97 0 172.5 31t128 83.5t80 122.5t27.5 149q0 66 -20.5 114t-55.5 82.5t-81.5 59t-99.5 44t-108 36t-108 36.5t-99.5 45.5 t-81.5 62t-55.5 87t-20.5 119.5q0 67 25 128.5t73 108.5t118.5 75t161.5 28q102 0 180.5 -33t147.5 -105zM860 1832l-329 -288q-4 -4 -8.5 -5t-9.5 -1h-12l281 280q8 8 16.5 11t25.5 3h36z" />
<glyph unicode="&#x15b;" horiz-adv-x="837" d="M693 894q-3 -6 -10 -6q-8 0 -23.5 13.5t-45 30t-74.5 30.5t-111 14q-62 0 -113.5 -19t-88.5 -50.5t-57.5 -72.5t-20.5 -86q0 -53 25 -88.5t65.5 -60t92.5 -41.5t106 -33.5t106 -35t92.5 -46.5t65.5 -68.5t25 -100.5t-21.5 -113t-62.5 -92t-100.5 -62t-135.5 -23 q-53 0 -95 8.5t-77 23.5t-66 37t-61 49l6 6q3 3 5 4.5t7 1.5q8 0 26 -17t50.5 -38t82.5 -38t122 -17t127.5 21t93.5 57.5t57.5 85t19.5 104.5q0 57 -25 94.5t-65.5 63.5t-92.5 43.5t-106 33.5t-106 34t-92.5 44.5t-65.5 65.5t-25 97q0 49 22 93.5t62 79t95.5 55t122.5 20.5 q83 0 146 -22.5t122 -73.5zM600 1416l-202 -250q-5 -8 -16 -8h-14l164 236q9 14 17 18t25 4h26z" />
<glyph unicode="&#x15c;" horiz-adv-x="1058" d="M880 1272q-3 -6 -10 -6t-17 9.5t-26 24t-39.5 31.5t-56.5 31.5t-76 24t-99 9.5q-86 0 -152.5 -26.5t-111.5 -70.5t-68.5 -102t-23.5 -121q0 -81 31.5 -135t82.5 -91t117 -61.5t134 -47t134 -47.5t117 -63.5t82.5 -95t31.5 -141.5q0 -86 -29 -160.5t-84 -130t-135 -87.5 t-182 -32q-71 0 -127 12.5t-102.5 36t-85.5 57t-75 76.5l4 4q3 3 5 4.5t7 1.5q6 0 17.5 -12.5t31.5 -32t48 -41.5t68 -41.5t91.5 -32t117.5 -12.5q97 0 172.5 31t128 83.5t80 122.5t27.5 149q0 66 -20.5 114t-55.5 82.5t-81.5 59t-99.5 44t-108 36t-108 36.5t-99.5 45.5 t-81.5 62t-55.5 87t-20.5 119.5q0 67 25 128.5t73 108.5t118.5 75t161.5 28q102 0 180.5 -33t147.5 -105zM817 1538h-20q-5 0 -10 1.5t-10 6.5l-196 224q-2 2 -4 6q-2 -4 -4 -6l-196 -224q-5 -5 -10 -6.5t-10 -1.5h-20l232 264h16z" />
<glyph unicode="&#x15d;" horiz-adv-x="837" d="M693 894q-3 -6 -10 -6q-8 0 -23.5 13.5t-45 30t-74.5 30.5t-111 14q-62 0 -113.5 -19t-88.5 -50.5t-57.5 -72.5t-20.5 -86q0 -53 25 -88.5t65.5 -60t92.5 -41.5t106 -33.5t106 -35t92.5 -46.5t65.5 -68.5t25 -100.5t-21.5 -113t-62.5 -92t-100.5 -62t-135.5 -23 q-53 0 -95 8.5t-77 23.5t-66 37t-61 49l6 6q3 3 5 4.5t7 1.5q8 0 26 -17t50.5 -38t82.5 -38t122 -17t127.5 21t93.5 57.5t57.5 85t19.5 104.5q0 57 -25 94.5t-65.5 63.5t-92.5 43.5t-106 33.5t-106 34t-92.5 44.5t-65.5 65.5t-25 97q0 49 22 93.5t62 79t95.5 55t122.5 20.5 q83 0 146 -22.5t122 -73.5zM652 1170h-18q-8 0 -16 8l-180 196q-4 4 -6 7q-2 -3 -6 -7l-180 -196q-3 -3 -7 -5.5t-9 -2.5h-18l212 230h16z" />
<glyph unicode="&#x15e;" horiz-adv-x="1058" d="M880 1272q-3 -6 -10 -6t-17 9.5t-26 24t-39.5 31.5t-56.5 31.5t-76 24t-99 9.5q-86 0 -152.5 -26.5t-111.5 -70.5t-68.5 -102t-23.5 -121q0 -81 31.5 -135t82.5 -91t117 -61.5t134 -47t134 -47.5t117 -63.5t82.5 -95t31.5 -141.5q0 -80 -25.5 -150.5t-73.5 -125 t-118.5 -89t-160.5 -42.5l-30 -97q43 -7 78 -16t60 -23.5t39 -36t14 -52.5q0 -29 -11.5 -51t-32.5 -37.5t-49.5 -23.5t-62.5 -8q-41 0 -81 14.5t-63 37.5l4 4q6 6 10 6t13 -7t25 -15t39.5 -15t58.5 -7q60 0 94 26.5t34 73.5q0 31 -15 51t-41 32.5t-61 19t-75 11.5l35 111 q-8 0 -17 -0.5t-17 -0.5q-71 0 -127 12.5t-102.5 36t-85.5 57t-75 76.5l4 4q3 3 5 4.5t7 1.5q6 0 17.5 -12.5t31.5 -32t48 -41.5t68 -41.5t91.5 -32t117.5 -12.5q97 0 172.5 31t128 83.5t80 122.5t27.5 149q0 66 -20.5 114t-55.5 82.5t-81.5 59t-99.5 44t-108 36t-108 36.5 t-99.5 45.5t-81.5 62t-55.5 87t-20.5 119.5q0 67 25 128.5t73 108.5t118.5 75t161.5 28q102 0 180.5 -33t147.5 -105z" />
<glyph unicode="&#x15f;" horiz-adv-x="837" d="M405 -16l-30 -94q43 -7 78 -16t60 -23.5t39 -36t14 -52.5q0 -29 -11.5 -51t-32.5 -37.5t-49.5 -23.5t-62.5 -8q-41 0 -81 14.5t-63 37.5l4 4q6 6 10 6t13 -7t25 -15t39.5 -15t58.5 -7q60 0 94 26.5t34 73.5q0 31 -15 51t-41 32.5t-61 19t-75 11.5l35 110q-48 2 -87 11 t-72 24t-62.5 36t-57.5 47l6 6q3 3 5 4.5t7 1.5q8 0 26 -17t50.5 -38t82.5 -38t122 -17t127.5 21t93.5 57.5t57.5 85t19.5 104.5q0 57 -25 94.5t-65.5 63.5t-92.5 43.5t-106 33.5t-106 34t-92.5 44.5t-65.5 65.5t-25 97q0 49 22 93.5t62 79t95.5 55t122.5 20.5 q83 0 146 -22.5t122 -73.5l-4 -6q-3 -6 -10 -6q-8 0 -23.5 13.5t-45 30t-74.5 30.5t-111 14q-62 0 -113.5 -19t-88.5 -50.5t-57.5 -72.5t-20.5 -86q0 -53 25 -88.5t65.5 -60t92.5 -41.5t106 -33.5t106 -35t92.5 -46.5t65.5 -68.5t25 -100.5t-21.5 -113t-62.5 -92t-100.5 -62 t-135.5 -23h-2z" />
<glyph unicode="&#x160;" horiz-adv-x="1058" d="M880 1272q-3 -6 -10 -6t-17 9.5t-26 24t-39.5 31.5t-56.5 31.5t-76 24t-99 9.5q-86 0 -152.5 -26.5t-111.5 -70.5t-68.5 -102t-23.5 -121q0 -81 31.5 -135t82.5 -91t117 -61.5t134 -47t134 -47.5t117 -63.5t82.5 -95t31.5 -141.5q0 -86 -29 -160.5t-84 -130t-135 -87.5 t-182 -32q-71 0 -127 12.5t-102.5 36t-85.5 57t-75 76.5l4 4q3 3 5 4.5t7 1.5q6 0 17.5 -12.5t31.5 -32t48 -41.5t68 -41.5t91.5 -32t117.5 -12.5q97 0 172.5 31t128 83.5t80 122.5t27.5 149q0 66 -20.5 114t-55.5 82.5t-81.5 59t-99.5 44t-108 36t-108 36.5t-99.5 45.5 t-81.5 62t-55.5 87t-20.5 119.5q0 67 25 128.5t73 108.5t118.5 75t161.5 28q102 0 180.5 -33t147.5 -105zM817 1802l-232 -264h-16l-232 264h20q5 0 10 -1.5t10 -6.5l196 -234l4 -6l4 6l196 234q5 5 10 6.5t10 1.5h20z" />
<glyph unicode="&#x161;" horiz-adv-x="837" d="M693 894q-3 -6 -10 -6q-8 0 -23.5 13.5t-45 30t-74.5 30.5t-111 14q-62 0 -113.5 -19t-88.5 -50.5t-57.5 -72.5t-20.5 -86q0 -53 25 -88.5t65.5 -60t92.5 -41.5t106 -33.5t106 -35t92.5 -46.5t65.5 -68.5t25 -100.5t-21.5 -113t-62.5 -92t-100.5 -62t-135.5 -23 q-53 0 -95 8.5t-77 23.5t-66 37t-61 49l6 6q3 3 5 4.5t7 1.5q8 0 26 -17t50.5 -38t82.5 -38t122 -17t127.5 21t93.5 57.5t57.5 85t19.5 104.5q0 57 -25 94.5t-65.5 63.5t-92.5 43.5t-106 33.5t-106 34t-92.5 44.5t-65.5 65.5t-25 97q0 49 22 93.5t62 79t95.5 55t122.5 20.5 q83 0 146 -22.5t122 -73.5zM652 1400l-212 -230h-16l-212 230h18q8 0 16 -8l180 -196q4 -4 6 -7q2 3 6 7l180 196q8 8 16 8h18z" />
<glyph unicode="&#x162;" horiz-adv-x="1138" d="M583 1378v-1378h4l-35 -110q43 -7 78 -16t60 -23.5t39 -36t14 -52.5q0 -29 -11.5 -51t-32.5 -37.5t-49.5 -23.5t-62.5 -8q-41 0 -81 14.5t-63 37.5l4 4q6 6 10 6t13 -7t25 -15t39.5 -15t58.5 -7q60 0 94 26.5t34 73.5q0 31 -15 51t-41 32.5t-61 19t-75 11.5l40 126h-10 v1378h-530v22h1080v-22h-526z" />
<glyph unicode="&#x163;" horiz-adv-x="657" d="M617 78q-29 -38 -78.5 -64t-103.5 -29l-30 -95q43 -7 78 -16t60 -23.5t39 -36t14 -52.5q0 -29 -11.5 -51t-32.5 -37.5t-49.5 -23.5t-62.5 -8q-41 0 -81 14.5t-63 37.5l4 4q6 6 10 6t13 -7t25 -15t39.5 -15t58.5 -7q60 0 94 26.5t34 73.5q0 31 -15 51t-41 32.5t-61 19 t-75 11.5l35 110q-42 1 -75 12.5t-56 36t-35 62.5t-12 91v732h-162q-14 0 -14 10v6l176 4l8 394q0 5 2.5 9.5t7.5 4.5h6v-408h334v-20h-334v-732q0 -50 12.5 -84.5t34.5 -56t51 -31.5t62 -10q42 0 73.5 13t53.5 28t35.5 28t19.5 13q4 0 8 -4l4 -4v0z" />
<glyph unicode="&#x164;" horiz-adv-x="1138" d="M1109 1378h-526v-1378h-24v1378h-530v22h1080v-22zM811 1802l-232 -264h-16l-232 264h20q5 0 10 -1.5t10 -6.5l196 -234l4 -6l4 6l196 234q5 5 10 6.5t10 1.5h20z" />
<glyph unicode="&#x165;" horiz-adv-x="653" d="M419 -16q-86 0 -135 47t-49 155v732h-162q-14 0 -14 10v6l176 4l8 394q0 5 2.5 9.5t7.5 4.5h6v-408h334v-20h-334v-732q0 -50 12.5 -84.5t34.5 -56t51 -31.5t62 -10q42 0 73.5 13t53.5 28t35.5 28t19.5 13q4 0 8 -4l4 -4q-15 -20 -36.5 -37.5t-47 -30t-54 -19.5t-56.5 -7 zM645 1442q16 0 16 -22q0 -11 -3.5 -30t-10 -48.5t-16 -70t-22.5 -95.5q-2 -6 -4 -10t-10 -4h-6l46 280h10z" />
<glyph unicode="&#x166;" horiz-adv-x="1178" d="M603 1378v-530h356v-20h-356v-828h-24v828h-360v20h360v530h-530v22h1080v-22h-526z" />
<glyph unicode="&#x167;" horiz-adv-x="663" d="M76 688h167v230h-162q-14 0 -14 10v6l176 4l8 394q0 5 2.5 9.5t7.5 4.5h6v-408h334v-20h-334v-230h327v-20h-327v-482q0 -50 12.5 -84.5t34.5 -56t51 -31.5t62 -10q42 0 73.5 13t53.5 28t35.5 28t19.5 13q4 0 8 -4l4 -4q-15 -20 -36.5 -37.5t-47 -30t-54 -19.5t-56.5 -7 q-86 0 -135 47t-49 155v482h-167v20z" />
<glyph unicode="&#x168;" horiz-adv-x="1440" d="M720 4q113 0 202.5 40.5t151.5 110.5t95 164t33 201v880h24v-880q0 -111 -35 -209t-101 -171t-159.5 -115.5t-210.5 -42.5t-210.5 42.5t-159.5 115.5t-101 171t-35 209v880h24v-878q0 -107 33 -201.5t95 -165t151.5 -111t202.5 -40.5zM848 1576q50 0 79 33t31 81h16 q0 -27 -8.5 -51.5t-24.5 -42.5t-39.5 -29t-53.5 -11q-32 0 -63.5 18t-61.5 40t-60 40t-59 18q-24 0 -44 -9t-34.5 -24.5t-22.5 -36.5t-9 -44h-18q0 27 9 51.5t25.5 42.5t40.5 29t53 11q33 0 64.5 -18t61.5 -40t59.5 -40t58.5 -18z" />
<glyph unicode="&#x169;" horiz-adv-x="1085" d="M903 980v-980h-6q-14 0 -14 16l-4 188q-35 -50 -77 -91t-91 -69.5t-103 -44t-111 -15.5q-164 0 -244 97t-80 271v628h24v-628q0 -82 18 -146.5t55.5 -109.5t93.5 -68.5t133 -23.5q115 0 212 61t170 169v746h24zM663 1242q50 0 74 33t26 81h16q0 -27 -7 -51.5t-21 -42.5 t-36 -29t-52 -11q-32 0 -60 18t-55 40t-53.5 40t-55.5 18q-24 0 -42.5 -9t-31 -24.5t-19 -36.5t-7.5 -44h-18q0 27 7.5 51.5t22.5 42.5t37 29t51 11q33 0 61 -18t54.5 -40t53 -40t55.5 -18z" />
<glyph unicode="&#x16a;" horiz-adv-x="1440" d="M720 4q113 0 202.5 40.5t151.5 110.5t95 164t33 201v880h24v-880q0 -111 -35 -209t-101 -171t-159.5 -115.5t-210.5 -42.5t-210.5 42.5t-159.5 115.5t-101 171t-35 209v880h24v-878q0 -107 33 -201.5t95 -165t151.5 -111t202.5 -40.5zM490 1652h460v-20h-460v20z" />
<glyph unicode="&#x16b;" horiz-adv-x="1085" d="M903 980v-980h-6q-14 0 -14 16l-4 188q-35 -50 -77 -91t-91 -69.5t-103 -44t-111 -15.5q-164 0 -244 97t-80 271v628h24v-628q0 -82 18 -146.5t55.5 -109.5t93.5 -68.5t133 -23.5q115 0 212 61t170 169v746h24zM285 1290h520v-20h-520v20z" />
<glyph unicode="&#x16c;" horiz-adv-x="1440" d="M720 4q113 0 202.5 40.5t151.5 110.5t95 164t33 201v880h24v-880q0 -111 -35 -209t-101 -171t-159.5 -115.5t-210.5 -42.5t-210.5 42.5t-159.5 115.5t-101 171t-35 209v880h24v-878q0 -107 33 -201.5t95 -165t151.5 -111t202.5 -40.5zM719 1541q-123 0 -176.5 60 t-53.5 182h22q0 -53 11 -94t35.5 -69.5t64.5 -43.5t97 -15t97 15t64.5 43.5t35.5 69.5t11 94h22q0 -122 -53.5 -182t-176.5 -60z" />
<glyph unicode="&#x16d;" horiz-adv-x="1085" d="M903 980v-980h-6q-14 0 -14 16l-4 188q-35 -50 -77 -91t-91 -69.5t-103 -44t-111 -15.5q-164 0 -244 97t-80 271v628h24v-628q0 -82 18 -146.5t55.5 -109.5t93.5 -68.5t133 -23.5q115 0 212 61t170 169v746h24zM545 1172q-56 0 -96 18t-65.5 49.5t-37 72.5t-11.5 88h20 q0 -41 10 -78.5t32.5 -66t58.5 -46t89 -17.5q52 0 88.5 17.5t59 46t32.5 66t10 78.5h20q0 -47 -11.5 -88t-37 -72.5t-65.5 -49.5t-96 -18z" />
<glyph unicode="&#x16e;" horiz-adv-x="1440" d="M720 4q113 0 202.5 40.5t151.5 110.5t95 164t33 201v880h24v-880q0 -111 -35 -209t-101 -171t-159.5 -115.5t-210.5 -42.5t-210.5 42.5t-159.5 115.5t-101 171t-35 209v880h24v-878q0 -107 33 -201.5t95 -165t151.5 -111t202.5 -40.5zM572 1674q0 31 11.5 57t31.5 45.5 t47 30.5t58 11t58 -11t47 -30.5t31.5 -45.5t11.5 -57t-11.5 -57t-31.5 -45.5t-47 -30.5t-58 -11t-58 11t-47 30.5t-31.5 45.5t-11.5 57zM594 1674q0 -27 9.5 -50t26.5 -40t40 -26.5t50 -9.5t50 9.5t40 26.5t26.5 40t9.5 50t-9.5 50t-26.5 40t-40 26.5t-50 9.5t-50 -9.5 t-40 -26.5t-26.5 -40t-9.5 -50z" />
<glyph unicode="&#x16f;" horiz-adv-x="1085" d="M903 980v-980h-6q-14 0 -14 16l-4 188q-35 -50 -77 -91t-91 -69.5t-103 -44t-111 -15.5q-164 0 -244 97t-80 271v628h24v-628q0 -82 18 -146.5t55.5 -109.5t93.5 -68.5t133 -23.5q115 0 212 61t170 169v746h24zM397 1290q0 31 11.5 57t31.5 45.5t47 30.5t58 11t58 -11 t47 -30.5t31.5 -45.5t11.5 -57t-11.5 -57t-31.5 -45.5t-47 -30.5t-58 -11t-58 11t-47 30.5t-31.5 45.5t-11.5 57zM419 1290q0 -27 9.5 -50t26.5 -40t40 -26.5t50 -9.5t50 9.5t40 26.5t26.5 40t9.5 50t-9.5 50t-26.5 40t-40 26.5t-50 9.5t-50 -9.5t-40 -26.5t-26.5 -40 t-9.5 -50z" />
<glyph unicode="&#x170;" horiz-adv-x="1440" d="M720 4q113 0 202.5 40.5t151.5 110.5t95 164t33 201v880h24v-880q0 -111 -35 -209t-101 -171t-159.5 -115.5t-210.5 -42.5t-210.5 42.5t-159.5 115.5t-101 171t-35 209v880h24v-878q0 -107 33 -201.5t95 -165t151.5 -111t202.5 -40.5zM784 1803l-204 -257q-5 -8 -16 -8 h-14l170 243q9 13 18 17.5t26 4.5h20zM1100 1803l-228 -257q-8 -8 -16 -8h-14l190 243q11 14 19 18t25 4h24z" />
<glyph unicode="&#x171;" horiz-adv-x="1085" d="M903 980v-980h-6q-14 0 -14 16l-4 188q-35 -50 -77 -91t-91 -69.5t-103 -44t-111 -15.5q-164 0 -244 97t-80 271v628h24v-628q0 -82 18 -146.5t55.5 -109.5t93.5 -68.5t133 -23.5q115 0 212 61t170 169v746h24zM643 1416l-198 -250q-5 -8 -16 -8h-14l164 236q9 14 17 18 t25 4h22zM879 1416l-222 -250q-5 -8 -16 -8h-14l184 236q11 14 18 18t24 4h26z" />
<glyph unicode="&#x172;" horiz-adv-x="1440" d="M1226 1400v-880q0 -106 -32 -200t-92 -166t-145.5 -117t-193.5 -53q-21 -12 -44.5 -31t-43.5 -43t-33.5 -53t-13.5 -63q0 -56 38.5 -87t95.5 -31q32 0 54.5 7t37.5 15t24 15t14 7q4 0 8 -4l6 -6q-26 -26 -65 -40t-81 -14q-66 0 -110 35t-44 103q0 30 11 57t28.5 51t39 44 t43.5 36h-8q-117 0 -210.5 42.5t-159.5 115.5t-101 171t-35 209v880h24v-878q0 -107 33 -201.5t95 -165t151.5 -111t202.5 -40.5t202.5 40.5t151.5 110.5t95 164t33 201v880h24z" />
<glyph unicode="&#x173;" horiz-adv-x="1085" d="M1035 -280q-26 -26 -65 -40t-81 -14q-66 0 -110 35t-44 103q0 34 14.5 65t36 57.5t48 47t50.5 35.5q-1 2 -1 7l-4 188q-35 -50 -77 -91t-91 -69.5t-103 -44t-111 -15.5q-164 0 -244 97t-80 271v628h24v-628q0 -82 18 -146.5t55.5 -109.5t93.5 -68.5t133 -23.5 q115 0 212 61t170 169v746h24v-980q-20 -11 -45.5 -29.5t-48 -43.5t-37.5 -56t-15 -67q0 -56 38.5 -87t95.5 -31q32 0 54.5 7t37.5 15t24 15t14 7q4 0 8 -4z" />
<glyph unicode="&#x174;" horiz-adv-x="2002" d="M1940 1400l-444 -1400h-20l-466 1344q-3 10 -5 17.5t-4 14.5q-3 -13 -9 -32l-466 -1344h-20l-444 1400h18q9 0 12 -10l409 -1307q7 -24 15 -54q7 30 15 54l455 1307q3 10 14 10h4q9 0 12 -10l455 -1307q7 -24 15 -54q7 30 15 54l409 1307q3 10 14 10h16zM1240 1538h-20 q-5 0 -10 1.5t-10 6.5l-196 224q-2 2 -4 6q-2 -4 -4 -6l-196 -224q-5 -5 -10 -6.5t-10 -1.5h-20l232 264h16z" />
<glyph unicode="&#x175;" horiz-adv-x="1494" d="M1429 980l-336 -980h-10q-9 0 -12 10l-314 912q-6 16 -9 29q-3 -13 -9 -29l-318 -912q-3 -10 -10 -10h-10l-336 980h14q8 0 12 -4.5t6 -9.5l300 -898q4 -11 7.5 -21.5t5.5 -21.5q2 11 5.5 21.5t7.5 21.5l312 908q3 10 10 10h6q7 0 10 -10l310 -908q8 -22 12 -40 q3 10 6.5 19.5t7.5 20.5l300 898q7 14 18 14h14zM971 1170h-18q-8 0 -16 8l-180 196q-4 4 -6 7q-2 -3 -6 -7l-180 -196q-3 -3 -7 -5.5t-9 -2.5h-18l212 230h16z" />
<glyph unicode="&#x176;" horiz-adv-x="1140" d="M582 595v-595h-24v595l-522 805h20q9 0 14 -8l471 -730q8 -13 16 -24.5t13 -23.5q6 12 13.5 23.5t15.5 24.5l471 730q5 8 14 8h20zM810 1538h-20q-5 0 -10 1.5t-10 6.5l-196 224q-2 2 -4 6q-2 -4 -4 -6l-196 -224q-5 -5 -10 -6.5t-10 -1.5h-20l232 264h16z" />
<glyph unicode="&#x177;" horiz-adv-x="979" d="M927 980l-578 -1318q-3 -8 -9 -15t-15 -7h-14l168 377l-424 963h14q8 0 13 -4.5t7 -9.5l390 -890q8 -17 13 -37q2 9 5.5 18.5t7.5 18.5l390 890q7 14 18 14h14zM739 1170h-18q-8 0 -16 8l-180 196q-4 4 -6 7q-2 -3 -6 -7l-180 -196q-3 -3 -7 -5.5t-9 -2.5h-18l212 230h16 z" />
<glyph unicode="&#x178;" horiz-adv-x="1140" d="M582 595v-595h-24v595l-522 805h20q9 0 14 -8l471 -730q8 -13 16 -24.5t13 -23.5q6 12 13.5 23.5t15.5 24.5l471 730q5 8 14 8h20zM442 1664q0 -21 -17.5 -37.5t-38.5 -16.5q-23 0 -39.5 16.5t-16.5 37.5q0 23 16.5 39.5t39.5 16.5q21 0 38.5 -16.5t17.5 -39.5zM810 1664 q0 -21 -17.5 -37.5t-38.5 -16.5q-23 0 -39.5 16.5t-16.5 37.5q0 23 16.5 39.5t39.5 16.5q21 0 38.5 -16.5t17.5 -39.5z" />
<glyph unicode="&#x179;" horiz-adv-x="1188" d="M1099 1396q0 -9 -8 -20l-974 -1354h980v-22h-1014v4q0 6 1.5 9.5t4.5 8.5l976 1356h-966v22h1000v-4zM888 1832l-329 -288q-4 -4 -8.5 -5t-9.5 -1h-12l281 280q8 8 16.5 11t25.5 3h36z" />
<glyph unicode="&#x17a;" horiz-adv-x="874" d="M800 980v-10q0 -3 -1.5 -5t-4.5 -7l-686 -938h662v-20h-696v6q0 5 1.5 7t4.5 7l688 940h-660v20h692zM626 1416l-202 -250q-5 -8 -16 -8h-14l164 236q9 14 17 18t25 4h26z" />
<glyph unicode="&#x17b;" horiz-adv-x="1188" d="M1099 1396q0 -9 -8 -20l-974 -1354h980v-22h-1014v4q0 6 1.5 9.5t4.5 8.5l976 1356h-966v22h1000v-4zM659 1668q0 -21 -17.5 -37.5t-38.5 -16.5q-23 0 -39.5 16.5t-16.5 37.5q0 23 16.5 39.5t39.5 16.5q21 0 38.5 -16.5t17.5 -39.5z" />
<glyph unicode="&#x17c;" horiz-adv-x="872" d="M798 980v-10q0 -3 -1.5 -5t-4.5 -7l-686 -938h662v-20h-696v6q0 5 1.5 7t4.5 7l688 940h-660v20h692zM512 1360q0 -21 -17.5 -37.5t-38.5 -16.5q-23 0 -39.5 16.5t-16.5 37.5q0 23 16.5 39.5t39.5 16.5q21 0 38.5 -16.5t17.5 -39.5z" />
<glyph unicode="&#x17d;" horiz-adv-x="1188" d="M1099 1396q0 -9 -8 -20l-974 -1354h980v-22h-1014v4q0 6 1.5 9.5t4.5 8.5l976 1356h-966v22h1000v-4zM845 1802l-232 -264h-16l-232 264h20q5 0 10 -1.5t10 -6.5l196 -234l4 -6l4 6l196 234q5 5 10 6.5t10 1.5h20z" />
<glyph unicode="&#x17e;" horiz-adv-x="872" d="M798 980v-10q0 -3 -1.5 -5t-4.5 -7l-686 -938h662v-20h-696v6q0 5 1.5 7t4.5 7l688 940h-660v20h692zM676 1400l-212 -230h-16l-212 230h18q8 0 16 -8l180 -196q4 -4 6 -7q2 3 6 7l180 196q8 8 16 8h18z" />
<glyph unicode="&#x17f;" horiz-adv-x="488" d="M240 1088q0 84 20 145.5t55.5 101.5t84.5 59.5t108 19.5q29 0 60 -5.5t52 -16.5l-2 -8q-2 -7 -9.5 -6t-21 4.5t-33.5 7.5t-46 4q-52 0 -96.5 -16.5t-77.5 -53t-51.5 -95t-18.5 -141.5v-1088h-24v918l-164 4q-12 0 -12 8v8h176v150z" />
<glyph unicode="&#x180;" horiz-adv-x="1087" d="M208 195q64 -103 143 -145t183 -42q103 0 179 37.5t126.5 103.5t75.5 155t25 192q0 244 -93.5 362t-274.5 118q-109 0 -202.5 -61t-161.5 -168v-552zM208 779q66 100 159.5 158.5t204.5 58.5q190 0 291 -122.5t101 -377.5q0 -107 -27.5 -199.5t-81.5 -161t-134.5 -108 t-186.5 -39.5q-109 0 -189.5 43t-136.5 133l-4 -150q0 -5 -2 -9.5t-10 -4.5h-8v1170h-158v20h158v250h24v-250h258v-20h-258v-391z" />
<glyph unicode="&#x181;" horiz-adv-x="1478" d="M889 20q101 0 181 22t135.5 65.5t84.5 109t29 151.5q0 76 -30.5 137.5t-86 105t-135 66.5t-176.5 23h-396v-680h394zM495 1380v-660h350q112 0 190 31t127 79.5t71 107t22 114.5q0 156 -103.5 242t-316.5 86h-340zM835 1400q223 0 332.5 -89.5t109.5 -258.5 q0 -62 -24.5 -120t-67.5 -104t-102 -76.5t-128 -37.5q90 -6 161.5 -32.5t122 -71t77.5 -105.5t27 -137q0 -89 -30.5 -158t-89 -115.5t-143 -70.5t-191.5 -24h-418v1380h-56q-159 0 -239 -65.5t-80 -178.5q0 -26 5 -55t14 -57q2 -8 2.5 -13.5t-7.5 -7.5l-9 -2 q-13 36 -19.5 69t-6.5 66q0 61 22 109.5t65.5 83t106.5 53t146 18.5h420z" />
<glyph unicode="&#x182;" horiz-adv-x="1197" d="M630 20q204 0 312 92t108 266q0 172 -108 257t-310 85h-376v-700h374zM632 740q214 0 328 -92t114 -270q0 -89 -29 -159.5t-85.5 -119t-139.5 -74t-190 -25.5h-398v1400h802v-20h-778v-640h376z" />
<glyph unicode="&#x183;" horiz-adv-x="1087" d="M208 195q64 -103 143 -145t183 -42q103 0 179 37.5t126.5 103.5t75.5 155t25 192q0 244 -93.5 362t-274.5 118q-109 0 -202.5 -61t-161.5 -168v-552zM208 779q66 100 159.5 158.5t204.5 58.5q190 0 291 -122.5t101 -377.5q0 -107 -27.5 -199.5t-81.5 -161t-134.5 -108 t-186.5 -39.5q-109 0 -189.5 43t-136.5 133l-4 -150q0 -5 -2 -9.5t-10 -4.5h-8v1440h713v-20h-689v-641z" />
<glyph unicode="&#x184;" horiz-adv-x="1223" d="M651 20q116 0 202.5 30t143.5 83t85.5 126t28.5 159q0 76 -29.5 145.5t-87 122t-143.5 83.5t-198 31h-376v-780h374zM653 820q117 0 207 -32t151 -87t92.5 -128t31.5 -155q0 -89 -30 -165.5t-90 -132.5t-151 -88t-213 -32h-398v1098l-135 66l141 236h18v-580h376z" />
<glyph unicode="&#x185;" horiz-adv-x="1087" d="M208 195q64 -103 143 -145t183 -42q103 0 179 37.5t126.5 103.5t75.5 155t25 192q0 244 -93.5 362t-274.5 118q-109 0 -202.5 -61t-161.5 -168v-552zM208 779q66 100 159.5 158.5t204.5 58.5q190 0 291 -122.5t101 -377.5q0 -107 -27.5 -199.5t-81.5 -161t-134.5 -108 t-186.5 -39.5q-109 0 -189.5 43t-136.5 133l-4 -150q0 -5 -2 -9.5t-10 -4.5h-8v1138l-135 66l141 236h18v-661z" />
<glyph unicode="&#x186;" horiz-adv-x="1385" d="M119 189q3 0 8 -5q46 -43 93.5 -76.5t103 -56.5t122.5 -35t153 -12q134 0 248.5 47.5t198.5 137.5t131.5 219t47.5 292q0 160 -48 289t-133.5 219.5t-204 139t-260.5 48.5q-107 0 -185.5 -24t-131.5 -53t-81.5 -53t-35.5 -24q-8 0 -10 4l-4 6q48 40 97.5 70.5t104.5 51.5 t116 31.5t130 10.5q149 0 272.5 -51.5t212 -146t137 -226.5t48.5 -292q0 -166 -48.5 -298.5t-135.5 -225.5t-206 -142.5t-260 -49.5q-87 0 -159 14.5t-132 40t-110.5 61t-94.5 78.5l9 8q3 3 7 3z" />
<glyph unicode="&#x187;" horiz-adv-x="1369" d="M1283 178q-44 -43 -94.5 -78.5t-110.5 -61t-132 -40t-159 -14.5q-141 0 -260 49.5t-206 142.5t-135.5 225.5t-48.5 298.5q0 160 48.5 292t137 226.5t212 146t272.5 51.5q66 0 124.5 -9.5t111.5 -28.5t101 -47t94 -65q-2 30 -2.5 56t-0.5 52q0 70 14 125.5t41 94.5 t67 59.5t92 20.5q33 0 66 -6.5t69 -19.5l-2 -8q-2 -8 -7.5 -7.5t-13.5 2.5q-29 10 -57.5 14.5t-54.5 4.5q-98 0 -146 -75t-48 -205v-122l-4 -6q-2 -4 -10 -4q-7 0 -35.5 24t-81.5 53t-131.5 53t-185.5 24q-142 0 -260.5 -48.5t-204 -139t-133.5 -219.5t-48 -289 q0 -163 47.5 -292t131.5 -219t198.5 -137.5t248.5 -47.5q85 0 152 12t122.5 35t103 56.5t94.5 76.5q5 5 8 5q4 0 7 -3z" />
<glyph unicode="&#x188;" horiz-adv-x="934" d="M829 894l-6 -6q-4 -4 -8 -4q-6 0 -22.5 14.5t-48 31.5t-79 31.5t-114.5 14.5q-95 0 -170 -34t-127 -97t-79.5 -153t-27.5 -202q0 -116 27.5 -205.5t78.5 -151t122.5 -93.5t159.5 -32q78 0 132 18t89 40t53 40t24 18q4 0 8 -4l4 -4q-15 -22 -44 -44.5t-69 -41t-90 -30.5 t-107 -12q-95 0 -171 34t-129.5 98.5t-82.5 157.5t-29 212q0 114 29 207.5t84 159.5t134.5 102.5t180.5 36.5q80 0 144.5 -23.5t113.5 -61.5v121q0 58 9.5 106t32 82.5t58.5 53t89 18.5q31 0 61.5 -6.5t62.5 -19.5l-2 -7q-2 -6 -5 -7t-5 -1q-3 0 -13 3.5t-24.5 8t-33.5 8 t-41 3.5q-48 0 -80 -17.5t-52 -49.5t-28.5 -76.5t-8.5 -98.5v-138z" />
<glyph unicode="&#x189;" horiz-adv-x="1530" d="M743 20q138 0 252.5 45t196.5 132t127.5 213.5t45.5 289.5t-45.5 289.5t-127.5 213.5t-196.5 132t-252.5 45h-476v-658h344v-20h-344v-682h476zM743 1400q144 0 263 -47t204.5 -137t133 -220t47.5 -296t-47.5 -296t-133 -220t-204.5 -137t-263 -47h-500v702h-232v20h232 v678h500z" />
<glyph unicode="&#x18a;" horiz-adv-x="1758" d="M971 20q138 0 252.5 45t196.5 132t127.5 213.5t45.5 289.5t-45.5 289.5t-127.5 213.5t-196.5 132t-252.5 45h-476v-1360h476zM971 1400q144 0 263 -47t204.5 -137t133 -220t47.5 -296t-47.5 -296t-133 -220t-204.5 -137t-263 -47h-500v1380h-56q-159 0 -239 -65.5 t-80 -178.5q0 -26 5 -55t14 -57q2 -8 2.5 -13.5t-7.5 -7.5l-9 -2q-13 36 -19.5 69t-6.5 66q0 61 22 109.5t65.5 83t106.5 53t146 18.5h556z" />
<glyph unicode="&#x18b;" horiz-adv-x="1197" d="M941 20v700h-376q-203 0 -310.5 -85t-107.5 -257q0 -174 108 -266t312 -92h374zM965 1400v-1400h-398q-107 0 -190 25.5t-139.5 74t-85.5 119t-29 159.5q0 178 113.5 270t328.5 92h376v640h-778v20h802z" />
<glyph unicode="&#x18c;" horiz-adv-x="1087" d="M879 789q-32 51 -67.5 87t-75.5 58t-85.5 32t-97.5 10q-103 0 -179 -37.5t-126.5 -103.5t-75.5 -155t-25 -192q0 -244 93.5 -362t274.5 -118q109 0 202.5 61t161.5 168v552zM903 0h-6q-14 0 -14 16l-4 190q-66 -101 -159.5 -159.5t-204.5 -58.5q-191 0 -291.5 122.5 t-100.5 377.5q0 106 27 199t81 161.5t134.5 108t187.5 39.5q216 0 326 -175v599h-689v20h713v-1440z" />
<glyph unicode="&#x18d;" horiz-adv-x="981" d="M454 469q91 25 169.5 67t136 102t90 139t32.5 180q0 85 -25 163.5t-74.5 138.5t-123.5 95.5t-173 35.5q-86 0 -157 -28t-122.5 -81t-80 -128.5t-28.5 -171.5q0 -102 31.5 -180t82 -138.5t114 -107t128.5 -86.5zM205 22q0 8 4.5 9.5t12.5 1.5q3 0 26 -4t57.5 -8.5 t77.5 -8.5t87 -4q73 0 123 12t80.5 33t44 49t13.5 60q0 50 -28 90.5t-74.5 76.5t-105.5 71.5t-120.5 74.5t-120.5 86t-105.5 106.5t-74.5 134.5t-28 172q0 103 31.5 184t87 137t131 85.5t162.5 29.5q105 0 183.5 -37t131 -99.5t79 -145t26.5 -173.5q0 -95 -29.5 -173.5 t-85 -140.5t-136 -108t-183.5 -75q55 -34 106 -65.5t90 -66t62.5 -74t23.5 -87.5q0 -33 -13 -64.5t-45 -56.5t-86 -40.5t-136 -15.5q-26 0 -58.5 1.5t-68.5 5t-72.5 8.5t-69.5 12v7z" />
<glyph unicode="&#x18e;" horiz-adv-x="1165" d="M933 0h-818l-2 22h796v678h-674v22h674v656h-794v22h818v-1400z" />
<glyph unicode="&#x18f;" horiz-adv-x="1399" d="M148 580q0 -135 40 -241t108.5 -179t160.5 -111.5t196 -38.5q126 0 227.5 40.5t175 115.5t118 180t56.5 234h-1082zM166 1237q37 36 84 69t106.5 57.5t131.5 39.5t159 15q142 0 255.5 -50t193 -145.5t121.5 -232.5t42 -311q0 -153 -41 -280t-118.5 -217.5t-190 -141 t-256.5 -50.5q-110 0 -206 39.5t-167 115.5t-112.5 187.5t-41.5 255.5q0 6 5.5 10t11.5 4h1089q3 37 3 77q0 172 -43 306t-120.5 225.5t-185.5 139.5t-239 48q-83 0 -147.5 -12.5t-114 -31.5t-85.5 -41t-60 -41t-38 -31.5t-21 -12.5q-6 0 -10 4z" />
<glyph unicode="&#x190;" horiz-adv-x="1182" d="M1075 164q-21 -31 -61 -63t-95.5 -58t-125 -42.5t-148.5 -16.5q-117 0 -211 30t-159.5 83t-100.5 127t-35 163q0 64 24.5 128t75 117t127.5 91t183 51q-99 10 -169 38t-114.5 67.5t-64.5 88.5t-20 102q0 73 31.5 136t91 109.5t145 72.5t192.5 26q143 0 243 -39.5 t169 -103.5l-5 -5q-4 -4 -9 -4q-8 0 -32.5 20.5t-71 45.5t-119 45.5t-175.5 20.5q-107 0 -188.5 -26t-137 -70t-83.5 -103t-28 -125q0 -73 36.5 -126.5t98 -89t143.5 -53t172 -17.5h223v-20h-223q-119 0 -210.5 -30.5t-153.5 -82.5t-94.5 -120t-32.5 -144q0 -84 34.5 -154.5 t98 -121t152.5 -79t197 -28.5q104 0 180.5 26t126.5 57.5t74.5 57l24.5 25.5q5 5 8 5q4 0 7 -3z" />
<glyph unicode="&#x191;" horiz-adv-x="1128" d="M256 1378v-676h694v-22h-694v-756q0 -70 -14.5 -125.5t-42.5 -94.5t-68.5 -59.5t-92.5 -20.5q-33 0 -66 6.5t-69 19.5l2 8q2 8 7.5 7.5t13.5 -2.5q29 -10 57.5 -14.5t54.5 -4.5q97 0 145.5 75t48.5 205v1476h818v-22h-794z" />
<glyph unicode="&#x192;" horiz-adv-x="620" d="M211 1088q0 84 20 145.5t55 101.5t84 59.5t108 19.5q29 0 60 -5.5t52 -16.5l-2 -8q-2 -7 -8 -6t-18.5 4.5t-33 7.5t-50.5 4q-52 0 -96.5 -16.5t-77 -53t-51 -95t-18.5 -141.5v-150h349v-20h-349v-1024q0 -140 -62.5 -215t-180.5 -75q-35 0 -66.5 6.5t-63.5 19.5l2 7 q2 6 5 7t5 1q7 0 36.5 -10.5t80.5 -10.5q105 0 162.5 67.5t57.5 202.5v1024l-164 4q-12 0 -12 8v8h176v150z" />
<glyph unicode="&#x193;" horiz-adv-x="1483" d="M1293 1256l-4 -6q-3 -6 -10 -6q-5 0 -17.5 11.5t-35.5 28t-58 36.5t-84 36.5t-112.5 28t-144.5 11.5q-152 0 -275 -47.5t-210 -137.5t-134 -219t-47 -292t46.5 -292t131.5 -219t203.5 -137.5t262.5 -47.5q86 0 155.5 9.5t129.5 28t113.5 45t107.5 60.5v435h-314 q-5 0 -8.5 3.5t-3.5 6.5v10h348v-464q-52 -35 -107.5 -63.5t-119 -48.5t-138 -31t-163.5 -11q-151 0 -274 49.5t-210.5 142.5t-135.5 225.5t-48 298.5q0 165 48 297.5t138 225.5t217.5 143t286.5 50q74 0 136.5 -9t116.5 -27t102 -45.5t93 -64.5q-2 30 -2 54v50 q0 70 14 125.5t41 94.5t67 59.5t92 20.5q33 0 66 -6.5t69 -19.5l-2 -8q-2 -8 -7.5 -7.5t-13.5 2.5q-29 10 -57.5 14.5t-54.5 4.5q-98 0 -146 -75t-48 -205v-118z" />
<glyph unicode="&#x194;" horiz-adv-x="1240" d="M636 504l349 -504h-729l348 504l-607 897h22q8 0 12.5 -5t6.5 -9l583 -869l6 12l576 857q3 5 7.5 9.5t10.5 4.5h22zM946 20q-9 6 -16 16l-312 454q-2 -5 -6 -12l-305 -445q-5 -9 -14 -13h653z" />
<glyph unicode="&#x195;" horiz-adv-x="1720" d="M1548 980v-628q0 -174 -83 -271t-246 -97q-164 0 -246.5 97t-82.5 271v276q0 82 -18 146.5t-55.5 109.5t-94 68.5t-132.5 23.5q-115 0 -212 -61t-170 -169v-746h-24v1440h24v-664q34 50 76.5 91t91.5 69.5t103 44t111 15.5q163 0 243.5 -97t80.5 -271v-276 q0 -82 19 -146.5t57 -109.5t95 -68.5t134 -23.5q76 0 133.5 23.5t95.5 68.5t57 109.5t19 146.5v628h24z" />
<glyph unicode="&#x196;" horiz-adv-x="551" d="M223 1400h24v-1158q0 -117 55.5 -176t161.5 -59h59v-10q0 -2 -1.5 -3.5t-7.5 -3t-18 -2.5t-33 -1q-115 0 -177.5 66t-62.5 189v1158z" />
<glyph unicode="&#x197;" horiz-adv-x="516" d="M510 725h-240v-725h-24v725h-240v18h240v657h24v-657h240v-18z" />
<glyph unicode="&#x198;" horiz-adv-x="1261" d="M256 724h94q19 0 33 1t26.5 5t23.5 12.5t24 24.5l404 530q43 57 99 87t131 30q36 0 68.5 -7t60.5 -19l-2 -8q-2 -8 -8.5 -8t-19.5 5q-20 8 -45.5 12.5t-54.5 4.5q-64 0 -115.5 -26t-96.5 -83l-402 -526q-15 -19 -29 -28.5t-34 -14.5q25 -4 42.5 -13.5t37.5 -28.5 l695 -674h-10q-15 0 -21.5 3t-14.5 11l-662 640q-12 12 -22.5 21.5t-22.5 15.5t-28 9.5t-40 3.5h-111v-704h-24v1402h24v-678z" />
<glyph unicode="&#x199;" horiz-adv-x="897" d="M208 536h46q9 0 21 2t27 16l466 410q8 8 16 12t20 4h18l-496 -434q-13 -12 -25 -17q14 -4 24 -10.5t19 -14.5l518 -504h-18q-8 0 -14 2t-14 10l-492 478q-18 16 -32 22t-44 6h-40v-518h-24v1124q0 140 62.5 215t180.5 75q35 0 66.5 -6.5t63.5 -19.5l-2 -7q-2 -6 -5 -7 t-5 -1q-7 0 -36.5 10.5t-80.5 10.5q-105 0 -162.5 -67.5t-57.5 -202.5v-588z" />
<glyph unicode="&#x19a;" horiz-adv-x="486" d="M441 691h-179v-691h-24v691h-191v20h191v729h24v-729h179v-20z" />
<glyph unicode="&#x19b;" horiz-adv-x="1055" d="M1003 13v-10q0 -2 -1.5 -3.5t-7.5 -3t-18 -2.5t-33 -1q-25 0 -49.5 5.5t-47.5 21t-44 44t-39 75.5l-290 739q-4 10 -7.5 19.5t-5.5 19.5q-6 -19 -13 -35l-358 -868q-2 -5 -7 -9.5t-13 -4.5h-14l392 939l-69 174l-190 -78l-9 19l191 79l-57 144q-12 29 -26 51t-35 36.5 t-50 22t-69 7.5h-59v10q0 2 1.5 3.5t7.5 3t18 2.5t33 1q82 0 128 -30t71 -93l59 -149l194 79l9 -18l-195 -81l385 -971q31 -77 68 -107.5t91 -30.5h59z" />
<glyph unicode="&#x19c;" horiz-adv-x="2099" d="M1867 1400v-1400h-6q-11 0 -13.5 5t-2.5 18l-2 294q-32 -73 -77.5 -134t-101 -104.5t-118.5 -68t-128 -24.5q-78 0 -142.5 26t-112.5 76.5t-79.5 123.5t-43.5 167q-16 -100 -56.5 -174t-96.5 -122.5t-125 -72.5t-142 -24q-92 0 -167 34t-128 99.5t-81.5 162t-28.5 221.5 v897h24v-897q0 -118 26.5 -210.5t75.5 -156t119.5 -97t159.5 -33.5q78 0 152 32t131 94.5t91.5 155.5t34.5 215v897h24v-897q0 -115 26 -207t74 -156.5t116 -99t151 -34.5q68 0 131 27t118 74.5t99 113.5t75 144v1035h24z" />
<glyph unicode="&#x19d;" horiz-adv-x="1496" d="M1264 1400v-1400h-6q-6 0 -11 7l-996 1356q1 -7 1 -13v-12v-1434q0 -70 -14 -125.5t-41 -94.5t-67 -59.5t-92 -20.5q-33 0 -66 6.5t-69 19.5l2 8q2 8 7.5 7.5t13.5 -2.5q29 -10 57.5 -14.5t54.5 -4.5q97 0 145.5 75t48.5 205v1496h8q9 0 14 -8l991 -1349q-1 5 -1 10.5 v10.5v1336h20z" />
<glyph unicode="&#x19e;" horiz-adv-x="1148" d="M975 -360h-24v988q0 82 -18 146.5t-55.5 109.5t-94 68.5t-132.5 23.5q-115 0 -212 -61.5t-170 -169.5v-745h-24v773q0 103 -41.5 149t-131.5 46h-28v10q0 10 28 10q92 0 143.5 -50t51.5 -165q34 51 77 92t91.5 70t103 45t112.5 16q163 0 243.5 -97t80.5 -271v-988z" />
<glyph unicode="&#x19f;" horiz-adv-x="1568" d="M161 700q0 -163 46.5 -291.5t129 -218t196.5 -137t250 -47.5q138 0 252.5 47.5t196.5 137t127.5 218t45.5 291.5v9h-1244v-9zM1405 731q-5 156 -52 279t-129 209t-194 131.5t-247 45.5q-132 0 -244 -45.5t-194.5 -131.5t-130.5 -209t-53 -279h1244zM783 1416 q144 0 263 -49.5t204.5 -142.5t133 -225.5t47.5 -298.5t-47.5 -298t-133 -224.5t-204.5 -142t-263 -49.5q-143 0 -261.5 49.5t-204 142t-133 224.5t-47.5 298q0 165 47.5 297.5t133 225.5t204 143t261.5 50z" />
<glyph unicode="&#x1a0;" horiz-adv-x="1640" d="M783 6q138 0 252.5 47.5t196.5 137t127.5 218t45.5 291.5t-45.5 292t-127.5 219t-196.5 137.5t-252.5 47.5q-136 0 -250 -47.5t-196.5 -137.5t-129 -219t-46.5 -292t46.5 -291.5t129 -218t196.5 -137t250 -47.5zM1555 1530q8 -23 12 -48t4 -50q0 -66 -24.5 -112.5 t-64.5 -76.5t-91 -44.5t-105 -16.5q70 -91 107.5 -212t37.5 -270q0 -166 -47.5 -298t-133 -224.5t-204.5 -142t-263 -49.5q-143 0 -261.5 49.5t-204 142t-133 224.5t-47.5 298q0 165 47.5 297.5t133 225.5t204 143t261.5 50q154 0 278.5 -56t210.5 -161q56 1 104.5 14 t84 35.5t56 54t20.5 70.5q0 27 -9 41t-19.5 24t-19 20t-8.5 29q0 21 12 32t32 11h30z" />
<glyph unicode="&#x1a1;" horiz-adv-x="1162" d="M550 8q100 0 176 35t126.5 98t76 152t25.5 197t-25.5 197.5t-76 153.5t-126.5 99.5t-176 35.5q-101 0 -176.5 -35.5t-126 -99.5t-76 -153.5t-25.5 -197.5t25.5 -197t76 -152t126 -98t176.5 -35zM1132 1127q8 -21 11 -43t3 -43q0 -59 -21 -100.5t-56 -68.5t-80 -40 t-92 -16q40 -64 60.5 -146t20.5 -180q0 -114 -28 -206.5t-82.5 -158.5t-134.5 -101.5t-183 -35.5q-104 0 -183.5 35.5t-134 101.5t-82.5 158.5t-28 206.5t28 207.5t82.5 159.5t134 102.5t183.5 36.5q114 0 198.5 -43t138.5 -122q49 2 90.5 14t72 33.5t48 52t17.5 69.5 q0 19 -7.5 29t-17 17.5t-17 16t-7.5 25.5q0 19 11 29t28 10h27z" />
<glyph unicode="&#x1a2;" horiz-adv-x="1865" d="M726 8q119 0 222 47t178.5 136t119 217.5t43.5 291.5t-43.5 292t-119 219t-178.5 137.5t-222 47.5t-222 -47.5t-179 -137.5t-119 -219t-43 -292t43 -291.5t119 -217.5t179 -136t222 -47zM1618 1138q0 54 -11.5 100.5t-36 81t-62.5 54t-92 19.5q-38 0 -75 -13t-72.5 -34.5 t-68 -51t-60.5 -62.5q82 -94 127.5 -228t45.5 -304q0 -166 -43.5 -298t-121.5 -224t-186 -141t-236 -49t-236 49t-186 141t-121.5 224t-43.5 298q0 165 43.5 297.5t121.5 225.5t186 143t236 50q121 0 222.5 -43.5t178.5 -126.5q30 34 64 64.5t70.5 53t75.5 36t79 13.5 q58 0 101 -20t70.5 -56.5t41 -87t13.5 -111.5v-1499h-24v1499z" />
<glyph unicode="&#x1a3;" horiz-adv-x="1466" d="M862 259q0 -18 -4 -45.5t-15.5 -57.5t-33 -60t-56 -54t-84.5 -39t-119 -15q-104 0 -183.5 35.5t-134 101.5t-82.5 158.5t-28 206.5t28 207.5t82.5 159.5t134 102.5t183.5 36.5q57 0 104 -11t84 -28t64.5 -38t46.5 -41q57 58 109 87.5t117 29.5q54 0 94.5 -20t67.5 -56.5 t40 -87t13 -111.5v-1080h-24v1080q0 54 -11.5 100.5t-35 81t-59.5 54t-86 19.5q-59 0 -108 -28t-104 -83v-605zM838 859q-19 20 -44.5 40.5t-60 37.5t-80 28t-103.5 11q-101 0 -176.5 -35.5t-126 -99.5t-76 -153.5t-25.5 -197.5t25.5 -197t76 -152t126 -98t176.5 -35 q67 0 114.5 14.5t79.5 37.5t50.5 51.5t28.5 56t12.5 51t2.5 37.5v603z" />
<glyph unicode="&#x1a4;" horiz-adv-x="1357" d="M787 620q103 0 186 29.5t141.5 81t90.5 120.5t32 149q0 187 -112.5 283.5t-337.5 96.5h-292v-760h292zM787 1400q229 0 351.5 -99t122.5 -301q0 -87 -34.5 -160.5t-97.5 -126.5t-150 -83t-192 -30h-292v-600h-24v1380h-56q-159 0 -239 -65.5t-80 -178.5q0 -26 5 -55 t14 -57q2 -8 2.5 -13.5t-7.5 -7.5l-9 -2q-13 36 -19.5 69t-6.5 66q0 61 22 109.5t65.5 83t106.5 53t146 18.5h372z" />
<glyph unicode="&#x1a5;" horiz-adv-x="1087" d="M208 195q64 -103 143 -145t183 -42q103 0 179 37.5t126.5 103.5t75.5 155t25 192q0 244 -93.5 362t-274.5 118q-109 0 -202.5 -61t-161.5 -168v-552zM208 779q66 100 159.5 158.5t204.5 58.5q190 0 291 -122.5t101 -377.5q0 -107 -27.5 -199.5t-81.5 -161t-134.5 -108 t-186.5 -39.5q-216 0 -326 175v-523h-24v1484q0 140 62.5 215t180.5 75q35 0 66.5 -6.5t63.5 -19.5l-2 -7q-2 -6 -5 -7t-5 -1q-7 0 -36.5 10.5t-80.5 10.5q-105 0 -162.5 -67.5t-57.5 -202.5v-345z" />
<glyph unicode="&#x1a6;" horiz-adv-x="1118" d="M256 455h282q103 0 185.5 24.5t141 70t90 111t31.5 148.5q0 171 -111 250.5t-319 79.5h-300v-684zM1136 -241h-16q-8 0 -13 1.5t-13 10.5l-524 628q-8 10 -16.5 17t-19 11.5t-25 6t-35.5 1.5h-218v-435h-24v1414h24v-255h300q219 0 336.5 -85t117.5 -265 q0 -85 -33 -153.5t-93 -116.5t-143.5 -75t-184.5 -29q10 -4 18 -10.5t16 -15.5z" />
<glyph unicode="&#x1a7;" horiz-adv-x="1048" d="M175 1278q69 72 147.5 105t180.5 33q91 0 161.5 -28t118.5 -75t73 -108.5t25 -128.5q0 -87 -32 -145.5t-84 -99t-118.5 -68.5t-135.5 -52.5t-135.5 -51.5t-118.5 -65.5t-84 -94.5t-32 -139q0 -79 27.5 -144.5t80 -112.5t128 -73t172.5 -26q66 0 117.5 12.5t91.5 32 t68 41.5t48 41.5t31.5 32t17.5 12.5q5 0 7 -1.5t5 -4.5l4 -4q-36 -43 -75 -76.5t-85.5 -57t-103 -36t-126.5 -12.5q-102 0 -182 27t-135 76.5t-84 119t-29 153.5q0 85 32 143.5t84 99.5t118.5 69.5t135.5 54t135.5 52.5t118.5 66t84 94.5t32 136.5q0 63 -23.5 121t-68.5 102 t-111.5 70.5t-152.5 26.5q-56 0 -99 -9.5t-76 -24t-56.5 -31.5t-39.5 -31.5t-26.5 -24t-16.5 -9.5q-7 0 -10 6z" />
<glyph unicode="&#x1a8;" horiz-adv-x="839" d="M725 102q-30 -27 -61.5 -49t-67.5 -37t-77.5 -23.5t-90.5 -8.5q-79 0 -139.5 20.5t-101 56t-61 83t-20.5 100.5q0 61 25.5 104.5t66.5 75t94 54.5t108 43t108 40.5t94 47t66.5 62.5t25.5 87q0 45 -20.5 84.5t-58.5 69.5t-91.5 47t-119.5 17q-62 0 -105 -14t-71.5 -30.5 t-44.5 -30t-24 -13.5q-6 0 -9 6l-4 6q59 51 122 73.5t138 22.5q71 0 128 -18t97.5 -50t62.5 -75.5t22 -93.5q0 -56 -25.5 -94.5t-66.5 -67t-94 -49.5t-108 -41t-108 -41.5t-94 -51.5t-66.5 -70.5t-25.5 -98.5q0 -49 19.5 -93t57.5 -77t94 -52t129 -19t123 17t82.5 38 t50.5 38t26 17q3 0 9 -6l6 -6v0z" />
<glyph unicode="&#x1a9;" horiz-adv-x="1197" d="M186 1378q-21 0 -40 1t-40 6q19 -19 32 -34.5t32 -41.5l456 -595q6 -8 6 -14q0 -7 -6 -15l-459 -594q-37 -49 -64 -74q20 2 40 3.5t43 1.5h913v-22h-1018v8q0 6 6 14l525 676l-526 682q-5 7 -5 12v8h1018v-22h-913z" />
<glyph unicode="&#x1aa;" horiz-adv-x="620" d="M166 966q55 0 100 15.5t76.5 47t49 78.5t17.5 109q0 122 -64.5 185.5t-174.5 63.5q-55 0 -100.5 -16t-78 -48t-50.5 -79.5t-18 -109.5q0 -61 17.5 -107t49.5 -77t76.5 -46.5t99.5 -15.5zM785 -350q-32 -13 -63.5 -19.5t-66.5 -6.5q-118 0 -180.5 75t-62.5 215v1194 q-26 -80 -90.5 -120.5t-155.5 -40.5q-60 0 -109 18t-84 51.5t-54 83t-19 112.5q0 65 20.5 116t56.5 86t85.5 53t108.5 18q58 0 107 -18t84 -52.5t54.5 -84.5t19.5 -114v-1302q0 -135 57.5 -202.5t162.5 -67.5q51 0 80.5 10.5t36.5 10.5q2 0 5 -1t5 -7z" />
<glyph unicode="&#x1ab;" horiz-adv-x="669" d="M597 58q-32 -33 -78 -53.5t-96 -20.5q-86 0 -135 47t-49 155v732h-162q-14 0 -14 10v6l176 4l8 394q0 5 2.5 9.5t7.5 4.5h6v-408h334v-20h-334v-732q0 -50 12.5 -84.5t34.5 -56.5t51 -32t62 -10q43 0 74 13t52.5 28.5t34.5 28.5t21 13h12v-202q0 -59 -9.5 -106.5t-32 -82 t-58.5 -53t-89 -18.5q-31 0 -61.5 6.5t-62.5 19.5l2 7q2 6 5 7t5 1q3 0 13 -3.5t24.5 -8t33.5 -8t41 -3.5q48 0 80 17.5t52 49.5t28.5 76.5t8.5 98.5v174z" />
<glyph unicode="&#x1ac;" horiz-adv-x="1267" d="M1238 1378h-526v-1378h-24v1378h-276q-159 0 -239 -64.5t-80 -177.5q0 -26 5 -55t14 -57q2 -8 2.5 -13.5t-7.5 -7.5l-9 -2q-13 36 -19.5 69t-6.5 66q0 61 22 109.5t65.5 83t106.5 53t146 18.5h826v-22z" />
<glyph unicode="&#x1ad;" horiz-adv-x="657" d="M423 -16q-86 0 -135 47t-49 155v732h-162q-14 0 -14 10v6l176 4l2 245q1 115 50.5 173.5t145.5 58.5q33 0 58 -6.5t57 -19.5l-2 -8q-2 -6 -5 -7t-5 -1q-7 0 -32 11t-71 11q-174 0 -174 -224v-233h334v-20h-334v-732q0 -50 12.5 -84.5t34.5 -56t51 -31.5t62 -10 q42 0 73.5 13t53.5 28t35.5 28t19.5 13q4 0 8 -4l4 -4q-15 -20 -36.5 -37.5t-47 -30t-54 -19.5t-56.5 -7z" />
<glyph unicode="&#x1ae;" horiz-adv-x="1138" d="M583 -106q0 -131 48 -200.5t154 -69.5q49 0 78.5 10.5t36.5 10.5q2 0 5 -1t5 -7l2 -7q-32 -13 -62 -19.5t-65 -6.5q-117 0 -171.5 75t-54.5 215v1484h-530v22h1080v-22h-526v-1484z" />
<glyph unicode="&#x1af;" horiz-adv-x="1548" d="M1517 1530q8 -23 12 -48t4 -50q0 -70 -27 -118t-70.5 -77.5t-98.5 -42.5t-111 -13v-661q0 -111 -35 -209t-101 -171t-159.5 -115.5t-210.5 -42.5t-210.5 42.5t-159.5 115.5t-101 171t-35 209v880h24v-878q0 -107 33 -201.5t95 -165t151.5 -111t202.5 -40.5t202.5 40.5 t151.5 110.5t95 164t33 201v880h24v-201q58 0 107.5 12.5t86.5 35t58 55t21 71.5q0 27 -9 41t-19.5 24t-19 20t-8.5 29q0 21 12 32t32 11h30z" />
<glyph unicode="&#x1b0;" horiz-adv-x="1165" d="M1143 1127q8 -21 11 -43t3 -43q0 -60 -21.5 -102t-57.5 -69t-81.5 -40t-93.5 -15v-815h-6q-14 0 -14 16l-4 188q-35 -50 -77 -91t-91 -69.5t-103 -44t-111 -15.5q-164 0 -244 97t-80 271v628h24v-628q0 -82 18 -146.5t55.5 -109.5t93.5 -68.5t133 -23.5q115 0 212 61 t170 169v746h24v-149q48 2 89 14.5t70.5 34t46.5 52t17 68.5q0 19 -7.5 29t-17 17.5t-17 16t-7.5 25.5q0 19 11 29t28 10h27z" />
<glyph unicode="&#x1b1;" horiz-adv-x="1582" d="M791 -16q-128 0 -245 44t-206.5 129.5t-143 212.5t-53.5 293q0 142 39.5 263.5t106.5 214.5t155.5 154.5t186.5 85.5q-19 -2 -36.5 -3.5t-32.5 -1.5h-413v12q0 12 12 12h498v-32q-109 -25 -199.5 -88.5t-155.5 -156.5t-101 -210.5t-36 -249.5q0 -162 52 -285t139 -206 t199.5 -125.5t233.5 -42.5t233.5 42.5t199.5 125.5t139 206t52 285q0 132 -36 249.5t-101 210.5t-155.5 156.5t-199.5 88.5v32h498q12 0 12 -12v-12h-413q-16 0 -33.5 1.5t-35.5 3.5q98 -24 186.5 -85.5t155.5 -154.5t106.5 -214.5t39.5 -263.5q0 -111 -24.5 -204 t-68 -168.5t-104 -133t-132.5 -96t-153 -58t-166 -19.5z" />
<glyph unicode="&#x1b2;" horiz-adv-x="1420" d="M928 1389q36 13 69 19.5t67 6.5q64 0 105.5 -23.5t66.5 -68.5t35 -110t10 -148q0 -172 -35 -319.5t-95 -268t-139 -213t-167.5 -155t-180.5 -95t-178 -32.5q-70 0 -120.5 23t-83 73t-48 129t-15.5 191v1002h24v-1002q0 -112 14 -187.5t44 -121.5t76 -65.5t111 -19.5 q88 0 179.5 33t177 96.5t160.5 155.5t131 210t88.5 260.5t32.5 306.5q0 75 -8.5 136t-30.5 104t-59 66t-95 23q-26 0 -55 -4.5t-58 -14.5q-8 -2 -13.5 -2.5t-7.5 7.5l-2 8v0z" />
<glyph unicode="&#x1b3;" horiz-adv-x="1372" d="M978 1269q42 66 91 105.5t116 39.5q33 0 60.5 -6.5t63.5 -19.5l-2 -8q-2 -8 -7.5 -7.5t-13.5 2.5q-28 9 -52 14t-50 5q-59 0 -104.5 -37.5t-83.5 -98.5l-414 -663v-595h-24v595l-522 805h20q9 0 14 -8l471 -730q8 -13 16 -24.5t13 -23.5q6 12 13.5 23.5t15.5 24.5z" />
<glyph unicode="&#x1b4;" horiz-adv-x="1202" d="M854 873q14 31 30 54.5t37 38.5t48.5 22.5t63.5 7.5q33 0 58 -6.5t57 -19.5l-2 -9q-2 -6 -5 -7t-5 -1q-7 0 -32 11t-71 11q-23 0 -44.5 -4.5t-41 -15.5t-36.5 -30.5t-30 -49.5l-532 -1213q-3 -8 -9 -15t-15 -7h-14l168 377l-424 963h14q8 0 13 -4.5t7 -9.5l390 -890 q8 -17 13 -37q2 9 5.5 18.5t7.5 18.5z" />
<glyph unicode="&#x1b5;" horiz-adv-x="1201" d="M1105 1396q0 -9 -8 -20l-463 -644h443v-22h-459l-495 -688h980v-22h-1014v4q0 6 1.5 9.5t4.5 8.5l495 688h-453v22h469l465 646h-966v22h1000v-4z" />
<glyph unicode="&#x1b6;" horiz-adv-x="888" d="M804 980v-10q0 -3 -1.5 -5t-4.5 -7l-318 -435h308v-20h-323l-353 -483h662v-20h-696v6q0 5 1.5 7t4.5 7l353 483h-322v20h337l320 437h-660v20h692z" />
<glyph unicode="&#x1b7;" horiz-adv-x="1152" d="M506 834q143 0 243 -30.5t162.5 -83.5t91 -123.5t28.5 -151.5q0 -94 -35 -177.5t-100.5 -146.5t-159 -100t-210.5 -37q-80 0 -149.5 16.5t-125 42.5t-95.5 58t-61 63l9 8q3 3 6 3q4 0 7 -3q16 -24 52.5 -53.5t89 -55t120 -42.5t146.5 -17q109 0 198 34.5t152 94 t97.5 139.5t34.5 170q0 77 -26.5 144.5t-86 118t-156 80t-235.5 29.5h-88v5q0 12 6 18l534 541h-845v22h885v-4q0 -5 -1.5 -10t-6.5 -10l-539 -542h58z" />
<glyph unicode="&#x1b8;" horiz-adv-x="1154" d="M1059 164q-21 -31 -61 -63t-95.5 -58t-125.5 -42.5t-149 -16.5q-117 0 -210.5 37t-159 100t-100.5 146.5t-35 177.5q0 81 28.5 151.5t91 123.5t162.5 83.5t243 30.5h58l-539 542q-5 5 -6.5 10t-1.5 10v4h885v-22h-845l534 -541q6 -6 6 -18v-5h-88q-140 0 -236 -29.5 t-155.5 -80t-86 -118t-26.5 -144.5q0 -90 34.5 -170t97.5 -139.5t152 -94t198 -34.5q79 0 146.5 17t120 42.5t88.5 55t53 53.5q3 3 7 3q3 0 6 -3z" />
<glyph unicode="&#x1b9;" horiz-adv-x="846" d="M162 980h632v-20h-599l439 -553q6 -6 6 -14v-8h-159q-94 0 -163.5 -25t-115.5 -70.5t-68.5 -109t-22.5 -141.5q0 -91 29 -163.5t81.5 -123.5t125.5 -78.5t161 -27.5q75 0 127 17t85.5 38t52.5 38t28 17q3 0 9 -6l6 -6q-30 -27 -62.5 -49t-69.5 -37t-80.5 -23.5 t-94.5 -8.5q-98 0 -176 29.5t-132.5 83.5t-84 130.5t-29.5 169.5q0 80 23.5 147.5t72 116t123.5 75.5t177 27h129l-444 553q-6 7 -6 12v10z" />
<glyph unicode="&#x1ba;" horiz-adv-x="822" d="M678 970q0 -3 -1.5 -5t-4.5 -7l-415 -410h92q93 0 162.5 -19.5t115.5 -54t68.5 -83.5t22.5 -107t-23 -109.5t-72.5 -91t-126.5 -66t-185 -35.5q-78 -6 -130 -21t-83 -37t-44 -50.5t-13 -61.5q0 -35 13 -65t40.5 -52.5t70 -35.5t102.5 -13q32 0 55 3.5t38.5 7.5t24 7.5 t11.5 3.5q2 0 5 -1t5 -7l2 -9q-32 -13 -67 -19.5t-77 -6.5q-66 0 -113 15.5t-76 42t-42.5 60.5t-13.5 71q0 36 13.5 67t47 56t90 41.5t143.5 23.5q103 8 175 32t118 61t67 84t21 102q0 56 -21 101.5t-64 78t-108 50t-152 17.5h-124v8q0 8 6 14l413 410h-598v20h632v-10z" />
<glyph unicode="&#x1bb;" horiz-adv-x="1116" d="M747 666q-32 -36 -66 -71.5t-71 -72.5l-494 -504q21 2 48.5 3t61.5 1h724q10 0 10 -10v-12h-876v10q0 5 3 8.5t5 5.5l504 512q32 33 63 65.5t60 64.5h-589v22h608q35 42 64.5 84.5t50.5 87t33 91.5t12 99q0 91 -31 156.5t-82 107.5t-116 62t-133 20q-78 0 -143.5 -24 t-115.5 -67.5t-82.5 -103.5t-44.5 -133q-3 -16 -16 -16h-10q11 84 45.5 151.5t88.5 114.5t124.5 72.5t153.5 25.5q72 0 141.5 -21t123.5 -65.5t87.5 -113.5t33.5 -166q0 -53 -11.5 -101t-32 -92.5t-49.5 -86.5t-63 -82h255v-22h-274z" />
<glyph unicode="&#x1bc;" horiz-adv-x="1121" d="M960 1390q0 -5 -4 -8.5t-10 -3.5h-557l-149 -555q76 20 143.5 29t127.5 9q120 0 211.5 -30.5t153 -85t93 -130.5t31.5 -167q0 -89 -30.5 -173t-90.5 -149t-149 -105t-206 -40q-79 0 -148.5 16.5t-125 42.5t-95.5 58t-61 63l9 8q3 3 7 3q3 0 8 -5l24.5 -25.5t74.5 -57 t126.5 -57.5t180.5 -26q111 0 195.5 37t141.5 99.5t86 143t29 167.5q0 85 -28 157t-86 124.5t-145.5 82t-205.5 29.5q-60 0 -129.5 -9.5t-149.5 -29.5l-18 8l151 569q-29 -1 -58 -1h-57h-101q-8 0 -8 8v14h819v-10z" />
<glyph unicode="&#x1bd;" horiz-adv-x="854" d="M202 580q54 14 101 19.5t90 5.5q86 0 152 -21.5t110.5 -60t67.5 -91.5t23 -117q0 -63 -22.5 -122t-66.5 -105t-109.5 -73.5t-150.5 -27.5q-56 0 -105.5 11.5t-89 30t-69 41t-44.5 45.5l9 8q3 3 6 3q2 0 3 -1l3 -3q1 -1 19 -19.5t53 -40t88 -39.5t124 -18q82 0 143.5 26 t102.5 69t61.5 98.5t20.5 115.5q0 59 -20 108.5t-60.5 85.5t-102 56.5t-143.5 20.5q-93 0 -204 -28l-18 7l109 395q-20 -1 -40 -1h-40h-72q-8 0 -8 8v14h594v-11q0 -11 -14 -11h-396z" />
<glyph unicode="&#x1be;" horiz-adv-x="857" d="M359 879q0 -67 16.5 -113t44 -79.5t62.5 -57t71 -44.5t71 -43.5t62.5 -52.5t44 -72t16.5 -103q0 -73 -25 -133.5t-70 -104t-108.5 -67.5t-140.5 -24q-56 0 -106.5 12t-92 31t-72.5 41.5t-47 43.5l4 4q4 4 8 4t26 -18t60.5 -40t93 -40t123.5 -18q67 0 126 20.5t103 59.5 t69 95.5t25 128.5q0 60 -16.5 101.5t-44 71t-62.5 51.5t-71 43t-71 45.5t-62.5 58.5t-44 81.5t-16.5 116.5v40h-162q-14 0 -14 10v6l176 4l8 394q0 5 2.5 9.5t7.5 4.5h6v-408h334v-20h-334v-39z" />
<glyph unicode="&#x1bf;" horiz-adv-x="1071" d="M208 -30q88 29 176 69t169.5 90t152 109.5t122.5 127.5t82 143.5t30 158.5q0 70 -22 127t-63.5 97.5t-99.5 62t-130 21.5q-63 0 -123.5 -16t-114.5 -45.5t-99.5 -72t-79.5 -95.5v-777zM208 778q34 50 79 90.5t98.5 69t114 43.5t124.5 15q72 0 134 -21t107.5 -62.5 t72 -103t26.5 -141.5q0 -86 -30 -164t-83.5 -147.5t-125.5 -130t-156 -111.5t-176 -92.5t-185 -72.5v-310h-24v1340h6q14 0 14 -16z" />
<glyph unicode="&#x1c0;" horiz-adv-x="388" d="M184 1502h20v-1863h-20v1863z" />
<glyph unicode="&#x1c1;" horiz-adv-x="988" d="M184 1502h20v-1863h-20v1863zM784 1502h20v-1863h-20v1863z" />
<glyph unicode="&#x1c2;" horiz-adv-x="1036" d="M530 734v-324h380v-20h-380v-780h-24v780h-380v20h380v324h-380v20h380v686h24v-686h380v-20h-380z" />
<glyph unicode="&#x1c3;" horiz-adv-x="346" d="M188 1400v-572q0 -44 -0.5 -82.5t-1 -78.5t-2 -86t-2.5 -105h-16q-2 59 -3 105t-1.5 86t-1 78.5t-0.5 82.5v572h28zM106 48q0 27 18.5 46.5t45.5 19.5t46.5 -19.5t19.5 -46.5t-19.5 -45.5t-46.5 -18.5t-45.5 18.5t-18.5 45.5z" />
<glyph unicode="&#x1c4;" horiz-adv-x="2769" d="M1380 700q0 -166 -47.5 -296t-133 -220t-204.5 -137t-263 -47h-500v1400h500q144 0 263 -47t204.5 -137t133 -220t47.5 -296zM1354 700q0 163 -45.5 289.5t-127.5 213.5t-196.5 132t-252.5 45h-476v-1360h476q138 0 252.5 45t196.5 132t127.5 213.5t45.5 289.5z M2680 1396q0 -9 -8 -20l-974 -1354h980v-22h-1014v4q0 6 1.5 9.5t4.5 8.5l976 1356h-966v22h1000v-4zM2426 1802l-232 -264h-16l-232 264h20q5 0 10 -1.5t10 -6.5l196 -234l4 -6l4 6l196 234q5 5 10 6.5t10 1.5h20z" />
<glyph unicode="&#x1c5;" horiz-adv-x="2402" d="M1380 700q0 -166 -47.5 -296t-133 -220t-204.5 -137t-263 -47h-500v1400h500q144 0 263 -47t204.5 -137t133 -220t47.5 -296zM1354 700q0 163 -45.5 289.5t-127.5 213.5t-196.5 132t-252.5 45h-476v-1360h476q138 0 252.5 45t196.5 132t127.5 213.5t45.5 289.5zM2328 980 v-10q0 -3 -1.5 -5t-4.5 -7l-686 -938h662v-20h-696v6q0 5 1.5 7t4.5 7l688 940h-660v20h692zM2206 1400l-212 -230h-16l-212 230h18q5 0 9 -2.5t7 -5.5l180 -196q4 -4 6 -7q2 3 6 7l180 196q8 8 16 8h18z" />
<glyph unicode="&#x1c6;" horiz-adv-x="1971" d="M879 789q-32 51 -67.5 87t-75.5 58t-85.5 32t-97.5 10q-103 0 -179 -37.5t-126.5 -103.5t-75.5 -155t-25 -192q0 -244 93.5 -362t274.5 -118q109 0 202.5 61t161.5 168v552zM903 1440v-1440h-6q-14 0 -14 16l-4 190q-66 -101 -159.5 -159.5t-204.5 -58.5 q-191 0 -291.5 122.5t-100.5 377.5q0 106 27 199t81 161.5t134.5 108t187.5 39.5q216 0 326 -175v619h24zM1897 980v-10q0 -3 -1.5 -5t-4.5 -7l-686 -938h662v-20h-696v6q0 5 1.5 7t4.5 7l688 940h-660v20h692zM1775 1400l-212 -230h-16l-212 230h18q5 0 9 -2.5t7 -5.5 l180 -196q4 -4 6 -7q2 3 6 7l180 196q8 8 16 8h18z" />
<glyph unicode="&#x1c7;" horiz-adv-x="1911" d="M970 22v-22h-738v1400h24v-1378h714zM1694 452q0 -118 -29 -205.5t-81.5 -146t-126 -87.5t-161.5 -29q-82 0 -172 30q0 2 1 3t1 3q2 3 3 6.5t9 3.5q10 0 23 -4t31.5 -9t43.5 -9t60 -4q85 0 154.5 28t118 84t75 140t26.5 196v948h24v-948z" />
</font>
</defs>
</svg>
