<!-- Generated by IcoMoon.io -->
<svg version="1.1" xmlns="http://www.w3.org/2000/svg" width="1024" height="1024" viewBox="0 0 1024 1024">
<title></title>
<g id="icomoon-ignore">
</g>
<path fill="#000" d="M611.375 853.355c-2.859 0-5.803-0.128-8.747-0.427-37.547-3.712-66.987-30.208-75.093-67.541l-114.475-528.725-117.888 272.299c-6.784 15.616-22.187 25.728-39.168 25.728h-128c-23.595 0-42.667-19.115-42.667-42.667 0-23.595 19.072-42.667 42.667-42.667h100.011l106.923-246.997c15.147-34.816 48.512-55.083 86.443-51.285 37.547 3.712 66.987 30.208 75.093 67.541l114.475 528.725 117.888-272.299c6.784-15.616 22.144-25.685 39.168-25.685h128c23.595 0 42.667 19.072 42.667 42.667 0 23.552-19.072 42.667-42.667 42.667h-100.011l-106.923 246.955c-13.952 32.128-43.861 51.712-77.696 51.712z"></path>
</svg>
