<!-- Generated by IcoMoon.io -->
<svg version="1.1" xmlns="http://www.w3.org/2000/svg" width="1024" height="1024" viewBox="0 0 1024 1024">
<title></title>
<g id="icomoon-ignore">
</g>
<path fill="#000" d="M512 640c23.552 0 42.667 19.115 42.667 42.667s-19.115 42.667-42.667 42.667c-23.552 0-42.667-19.115-42.667-42.667s19.115-42.667 42.667-42.667zM512 341.333c23.552 0 42.667 19.115 42.667 42.667v0 170.667c0 23.552-19.115 42.667-42.667 42.667s-42.667-19.115-42.667-42.667v0-170.667c0-23.552 19.115-42.667 42.667-42.667zM890.227 783.061c-9.771 17.28-28.8 27.605-50.901 27.605h-654.677c-22.101 0-41.131-10.325-50.859-27.605-4.608-8.107-10.667-24.619 0.725-43.392l327.296-542.635c19.925-33.024 80.427-33.024 100.352 0l327.339 542.635c11.349 18.773 5.333 35.285 0.725 43.392zM962.59 695.595l-327.339-542.677c-25.557-42.325-71.637-67.584-123.264-67.584s-97.707 25.259-123.221 67.584l-327.339 542.677c-24.277 40.235-25.003 88.619-1.963 129.408 24.704 43.819 72.704 70.997 125.184 70.997h654.677c52.523 0 100.48-27.179 125.227-70.997 23.040-40.789 22.315-89.173-1.963-129.408z"></path>
</svg>
