<svg xmlns="http://www.w3.org/2000/svg" width="24" height="24" viewBox="0 0 24 24">
    <path fill="#667181" d="M18.337 15.672l-.357.358-.562-.562c2.836-3.785 2.528-9.178-.92-12.63-3.78-3.784-9.909-3.784-13.663 0-3.78 3.784-3.78 9.92 0 13.678 3.448 3.452 8.811 3.758 12.616.921l.562.562-.358.358 5.082 5.087c.74.741 1.942.741 2.708 0 .74-.74.74-1.943 0-2.71l-5.108-5.062zm-3.703-1.022c-2.733 2.735-7.202 2.735-9.934 0-2.733-2.736-2.733-7.185 0-9.945 2.732-2.736 7.177-2.736 9.934 0 2.758 2.76 2.758 7.21 0 9.945zm-.792-5.779c-.102-.562-.332-1.074-.639-1.534l.562-.562c.128-.128.128-.358 0-.486l-.663-.665c-.128-.128-.358-.128-.485 0l-.562.563c-.46-.307-.97-.512-1.532-.64v-.793c0-.204-.154-.357-.357-.357H9.22c-.205 0-.357.154-.357.357v.793c-.562.102-1.073.333-1.533.64l-.537-.563c-.128-.128-.358-.128-.485 0l-.665.665c-.127.128-.127.358 0 .486l.562.562c-.306.46-.51.972-.638 1.534h-.793c-.204 0-.357.154-.357.358v.945c0 .205.154.358.357.358h.793c.101.562.332 1.073.638 1.534l-.562.562c-.127.128-.127.358 0 .486l.665.665c.127.127.357.127.485 0l.561-.563c.46.307.971.512 1.533.64v.793c0 .204.153.357.357.357h.944c.205 0 .358-.154.358-.357v-.793c.561-.102 1.072-.333 1.532-.64l.562.563c.127.127.357.127.484 0l.665-.665c.128-.128.128-.358 0-.486l-.562-.562c.307-.46.511-.972.639-1.534h.792c.204 0 .357-.154.357-.358l.001-.97c0-.205-.154-.358-.357-.358h-.818v.025zm-4.674-1.38c.128-.256.383-.384.664-.307.256.051.434.307.41.588 0 .18-.027.358-.027.538-.026.665-.076 1.355-.101 1.994 0 .23-.179.41-.41.41-.229 0-.408-.18-.408-.41 0-.128-.026-.281-.026-.41L9.193 8.59c-.026-.281-.026-.562-.051-.843 0-.077 0-.18.026-.256zm.537 4.73c-.307 0-.562-.256-.562-.563 0-.306.255-.562.562-.562.306 0 .561.256.561.562 0 .307-.255.563-.561.563z"/>
</svg>
