<!-- Generated by IcoMoon.io -->
<svg version="1.1" xmlns="http://www.w3.org/2000/svg" width="1024" height="1024" viewBox="0 0 1024 1024">
<title></title>
<g id="icomoon-ignore">
</g>
<path fill="#000" d="M554.667 554.667c0 23.552-19.115 42.667-42.667 42.667s-42.667-19.115-42.667-42.667v-170.667c0-23.552 19.115-42.667 42.667-42.667s42.667 19.115 42.667 42.667v170.667zM512 725.333c-23.552 0-42.667-19.115-42.667-42.667s19.115-42.667 42.667-42.667c23.552 0 42.667 19.115 42.667 42.667s-19.115 42.667-42.667 42.667v0zM962.603 695.595l-327.339-542.677c-25.557-42.325-71.637-67.584-123.264-67.584s-97.707 25.259-123.264 67.584l-327.339 542.677c-24.235 40.235-24.96 88.619-1.92 129.408 24.704 43.819 72.704 70.997 125.184 70.997h654.677c52.48 0 100.48-27.179 125.184-70.997 23.040-40.789 22.315-89.173-1.92-129.408v0z"></path>
</svg>
