<!-- Generated by IcoMoon.io -->
<svg version="1.1" xmlns="http://www.w3.org/2000/svg" width="1024" height="1024" viewBox="0 0 1024 1024">
<title></title>
<g id="icomoon-ignore">
</g>
<path fill="#000" d="M649.097 272.38c14.549-18.56 41.344-21.888 59.861-7.296 18.603 14.507 21.845 41.344 7.296 59.861v0l-334.123 426.667c-8.021 10.283-20.309 16.299-33.28 16.384v0c-13.227 0-25.429-5.845-33.579-15.915v0l-177.877-220.928c-14.72-18.304-11.861-45.184 6.528-59.989 18.347-14.805 45.141-11.819 59.989 6.485v0l144.171 179.072zM862.43 272.38c14.549-18.56 41.301-21.888 59.861-7.296 18.603 14.507 21.845 41.344 7.296 59.861v0l-334.123 426.667c-8.021 10.283-20.309 16.299-33.28 16.384v0c-13.227 0-25.429-5.845-33.579-15.915v0l-46.933-58.325 53.973-68.992 25.771 31.957zM357.244 471.147c18.389-14.763 45.227-11.819 59.989 6.528v0l8.576 10.624-54.059 68.949-20.992-26.069c-14.763-18.347-11.904-45.227 6.485-60.032z"></path>
</svg>
