<!-- Generated by IcoMoon.io -->
<svg version="1.1" xmlns="http://www.w3.org/2000/svg" width="1024" height="1024" viewBox="0 0 1024 1024">
<title></title>
<g id="icomoon-ignore">
</g>
<path fill="#000" d="M420.958 597.333h182.101c20.309 0 36.949-16.64 36.949-36.949v-11.435c0-20.309-16.64-36.949-36.949-36.949h-182.101c-20.352 0-36.949 16.64-36.949 36.949v11.435c0 20.309 16.597 36.949 36.949 36.949zM768 768c0 23.509-19.115 42.667-42.667 42.667h-426.667c-23.509 0-42.667-19.157-42.667-42.667v-384h512v384zM256 213.333h512c23.552 0 42.667 19.157 42.667 42.667s-19.115 42.667-42.667 42.667h-512c-23.509 0-42.667-19.157-42.667-42.667s19.157-42.667 42.667-42.667v0zM896 256c0-70.571-57.429-128-128-128h-512c-70.571 0-128 57.429-128 128 0 37.675 16.683 71.253 42.667 94.72v417.28c0 70.571 57.429 128 128 128h426.667c70.571 0 128-57.429 128-128v-417.28c25.984-23.467 42.667-57.045 42.667-94.72v0z"></path>
</svg>
