<!-- Generated by IcoMoon.io -->
<svg version="1.1" xmlns="http://www.w3.org/2000/svg" width="1024" height="1024" viewBox="0 0 1024 1024">
<title></title>
<g id="icomoon-ignore">
</g>
<path fill="#000" d="M485.252 521.425c15.829-12.757 38.443-12.587 54.059 0.469v0l256 213.333c18.091 15.104 20.523 41.984 5.461 60.075-8.448 10.155-20.565 15.36-32.811 15.36-9.6 0-19.285-3.243-27.264-9.899v0l-229.163-190.933-228.779 184.064c-18.347 14.805-45.184 11.904-59.989-6.485-14.805-18.347-11.861-45.184 6.485-59.989v0zM485.248 222.737c15.829-12.715 38.443-12.587 54.059 0.512v0l256 213.333c18.133 15.061 20.565 41.941 5.461 60.075-8.448 10.112-20.565 15.36-32.768 15.36-9.643 0-19.328-3.285-27.307-9.899v0l-229.163-190.976-228.779 184.107c-18.347 14.763-45.184 11.861-59.989-6.485-14.763-18.389-11.861-45.227 6.485-60.032v0z"></path>
</svg>
