<!-- Generated by IcoMoon.io -->
<svg version="1.1" xmlns="http://www.w3.org/2000/svg" width="1024" height="1024" viewBox="0 0 1024 1024">
<title></title>
<g id="icomoon-ignore">
</g>
<path fill="#000" d="M591.415 354.543l122.112 128c1.835 1.92 2.731 4.309 4.139 6.443 1.536 2.304 3.371 4.352 4.437 6.912 2.091 5.163 3.243 10.624 3.243 16.085 0 5.589-1.152 11.136-3.285 16.341-2.176 5.205-5.291 9.941-9.259 13.867l-127.957 127.957c-16.683 16.683-43.691 16.683-60.331 0-16.683-16.64-16.683-43.648 0-60.331l55.168-55.168h-238.336c-23.595 0-42.667-19.072-42.667-42.667 0-23.552 19.072-42.667 42.667-42.667h241.621l-53.291-55.851c-16.256-17.067-15.659-44.032 1.408-60.331s44.075-15.616 60.331 1.408zM85.346 511.983c0 235.307 191.403 426.667 426.667 426.667s426.667-191.36 426.667-426.667c0-235.264-191.403-426.667-426.667-426.667s-426.667 191.403-426.667 426.667z"></path>
</svg>
