<!-- Generated by IcoMoon.io -->
<svg version="1.1" xmlns="http://www.w3.org/2000/svg" width="1024" height="1024" viewBox="0 0 1024 1024">
<title></title>
<g id="icomoon-ignore">
</g>
<path fill="#000" d="M436.57 228.689c15.061-18.091 41.941-20.523 60.075-5.461 18.091 15.104 20.523 41.984 5.461 60.075v0l-190.976 229.163 184.107 228.779c14.763 18.347 11.861 45.227-6.485 59.989-7.893 6.357-17.323 9.429-26.752 9.429-12.459 0-24.832-5.419-33.237-15.915v0l-205.995-256c-12.757-15.829-12.544-38.443 0.469-54.059v0zM735.211 228.702c15.104-18.133 41.984-20.523 60.117-5.461 18.091 15.061 20.523 41.984 5.461 60.075v0l-190.976 229.163 184.107 228.779c14.763 18.347 11.861 45.184-6.485 59.989-7.893 6.357-17.365 9.429-26.752 9.429-12.459 0-24.832-5.461-33.28-15.915v0l-205.995-256c-12.715-15.829-12.544-38.485 0.469-54.059v0z"></path>
</svg>
