<!-- Generated by IcoMoon.io -->
<svg version="1.1" xmlns="http://www.w3.org/2000/svg" width="1024" height="1024" viewBox="0 0 1024 1024">
<title></title>
<g id="icomoon-ignore">
</g>
<path fill="#000" d="M810.667 469.333h-506.24l155.008-186.027c15.104-18.091 12.629-45.013-5.461-60.075-18.133-15.104-45.013-12.629-60.075 5.461l-213.333 256c-1.664 2.005-2.517 4.352-3.755 6.571-1.024 1.792-2.261 3.328-3.029 5.291-1.92 4.907-3.072 10.069-3.072 15.275 0 0.043-0.043 0.128-0.043 0.171s0.043 0.128 0.043 0.171c0 5.205 1.152 10.368 3.072 15.275 0.768 1.963 2.005 3.499 3.029 5.291 1.237 2.219 2.091 4.565 3.755 6.571l213.333 256c8.448 10.112 20.565 15.36 32.768 15.36 9.643 0 19.328-3.243 27.307-9.899 18.091-15.061 20.565-41.984 5.461-60.075l-155.008-186.027h506.24c23.552 0 42.667-19.115 42.667-42.667s-19.115-42.667-42.667-42.667z"></path>
</svg>
