<!-- Generated by IcoMoon.io -->
<svg version="1.1" xmlns="http://www.w3.org/2000/svg" width="1024" height="1024" viewBox="0 0 1024 1024">
<title></title>
<g id="icomoon-ignore">
</g>
<path fill="#000" d="M535.266 222.763c18.347-14.805 45.184-11.861 59.989 6.485v0l205.995 256c12.757 15.829 12.544 38.443-0.469 54.059v0l-213.333 256c-8.448 10.112-20.565 15.36-32.811 15.36-9.6 0-19.285-3.243-27.264-9.899-18.133-15.061-20.565-41.984-5.461-60.075v0l190.976-229.163-184.149-228.779c-14.763-18.347-11.861-45.227 6.528-59.989zM236.595 222.763c18.347-14.763 45.184-11.861 59.989 6.485v0l205.995 256c12.715 15.829 12.544 38.443-0.469 54.059v0l-213.333 256c-8.448 10.112-20.565 15.36-32.811 15.36-9.6 0-19.285-3.243-27.264-9.899-18.133-15.061-20.565-41.984-5.461-60.075v0l190.933-229.163-184.107-228.779c-14.763-18.347-11.819-45.227 6.528-59.989z"></path>
</svg>
