<!-- Generated by IcoMoon.io -->
<svg version="1.1" xmlns="http://www.w3.org/2000/svg" width="1024" height="1024" viewBox="0 0 1024 1024">
<title></title>
<g id="icomoon-ignore">
</g>
<path fill="#000" d="M341.333 341.956v336.811l205.696-166.869-205.696-169.941zM395.051 275.61l217.557 179.797c17.451 14.336 27.392 34.987 27.392 56.576s-9.941 42.283-27.392 56.619l-217.557 179.712c-15.701 13.013-35.499 19.712-55.595 19.712-13.099 0-26.325-2.816-38.656-8.619-27.648-13.013-44.8-38.955-44.8-67.669v-359.509c0-28.672 17.152-54.613 44.8-67.627 31.232-14.72 68.267-10.453 94.251 11.008zM746.667 256c23.595 0 42.667 14.336 42.667 32v448c0 17.696-19.072 32-42.667 32s-42.667-14.304-42.667-32v-448c0-17.664 19.072-32 42.667-32z"></path>
</svg>
