<!-- Generated by IcoMoon.io -->
<svg version="1.1" xmlns="http://www.w3.org/2000/svg" width="1024" height="1024" viewBox="0 0 1024 1024">
<title></title>
<g id="icomoon-ignore">
</g>
<path fill="#000" d="M354.543 432.585l128-122.112c1.92-1.835 4.309-2.731 6.443-4.139 2.304-1.536 4.352-3.371 6.912-4.437 5.163-2.091 10.624-3.243 16.085-3.243 5.589 0 11.136 1.152 16.341 3.285 5.205 2.176 9.941 5.291 13.867 9.259l127.957 127.957c16.683 16.683 16.683 43.691 0 60.331-16.64 16.683-43.648 16.683-60.331 0l-55.168-55.168v238.336c0 23.595-19.072 42.667-42.667 42.667-23.552 0-42.667-19.072-42.667-42.667v-241.621l-55.851 53.291c-17.067 16.256-44.032 15.659-60.331-1.408s-15.616-44.075 1.408-60.331zM511.983 938.654c235.307 0 426.667-191.403 426.667-426.667s-191.36-426.667-426.667-426.667c-235.264 0-426.667 191.403-426.667 426.667s191.403 426.667 426.667 426.667z"></path>
</svg>
