<!-- Generated by IcoMoon.io -->
<svg version="1.1" xmlns="http://www.w3.org/2000/svg" width="1024" height="1024" viewBox="0 0 1024 1024">
<title></title>
<g id="icomoon-ignore">
</g>
<path fill="#000" d="M542.187 311.189c-3.883-3.925-8.576-7.040-13.739-9.173-5.163-2.176-10.667-3.285-16.213-3.285-0.085 0-0.171-0.043-0.256-0.043-1.536 0-2.816 0.683-4.352 0.853-3.925 0.427-7.851 0.853-11.563 2.347-2.944 1.195-5.333 3.2-7.936 4.992-1.835 1.28-3.925 2.005-5.589 3.584l-128 122.112c-17.024 16.299-17.664 43.264-1.408 60.331 16.299 17.067 43.264 17.664 60.331 1.408l55.851-53.291v241.664c0 23.552 19.115 42.667 42.667 42.667 23.595 0 42.667-19.115 42.667-42.667v-238.336l55.168 55.168c8.363 8.32 19.285 12.501 30.165 12.501 10.923 0 21.845-4.181 30.208-12.501 16.64-16.683 16.64-43.691 0-60.331l-128-128zM512 853.333c-188.203 0-341.333-153.131-341.333-341.333s153.131-341.333 341.333-341.333c188.203 0 341.333 153.131 341.333 341.333s-153.131 341.333-341.333 341.333zM512 85.333c-235.264 0-426.667 191.403-426.667 426.667s191.403 426.667 426.667 426.667c235.264 0 426.667-191.403 426.667-426.667s-191.403-426.667-426.667-426.667z"></path>
</svg>
