<!-- Generated by IcoMoon.io -->
<svg version="1.1" xmlns="http://www.w3.org/2000/svg" width="1024" height="1024" viewBox="0 0 1024 1024">
<title></title>
<g id="icomoon-ignore">
</g>
<path fill="#000" d="M223.232 527.343c15.061-18.091 41.941-20.565 60.075-5.461v0l229.163 190.976 228.779-184.107c18.347-14.72 45.269-11.819 59.989 6.485 14.763 18.389 11.861 45.227-6.485 60.032v0l-256 205.995c-7.808 6.272-17.28 9.387-26.752 9.387-9.728 0-19.413-3.285-27.307-9.899v0l-256-213.333c-18.133-15.061-20.565-41.941-5.461-60.075zM223.228 228.698c15.104-18.133 41.941-20.523 60.075-5.461v0l229.163 190.933 228.779-184.064c18.347-14.763 45.269-11.861 59.989 6.485 14.805 18.347 11.861 45.184-6.485 59.989v0l-256 205.995c-7.808 6.272-17.28 9.429-26.752 9.429-9.685 0-19.413-3.285-27.307-9.899v0l-256-213.333c-18.091-15.104-20.523-41.984-5.461-60.075z"></path>
</svg>
