<!-- Generated by IcoMoon.io -->
<svg version="1.1" xmlns="http://www.w3.org/2000/svg" width="1024" height="1024" viewBox="0 0 1024 1024">
<title></title>
<g id="icomoon-ignore">
</g>
<path fill="#000" d="M610.543 529.668l-55.893 53.333v-241.664c0-23.552-19.072-42.667-42.667-42.667-23.552 0-42.667 19.115-42.667 42.667v238.336l-55.168-55.168c-16.64-16.683-43.648-16.683-60.331 0-16.64 16.683-16.64 43.648 0 60.331l128 127.957c3.925 3.968 8.661 7.083 13.867 9.259s10.752 3.285 16.299 3.285c5.504 0 10.965-1.152 16.085-3.243 2.603-1.067 4.651-2.901 6.912-4.437 2.176-1.408 4.565-2.261 6.485-4.096l128-122.155c17.024-16.256 17.664-43.264 1.408-60.331-16.299-17.067-43.264-17.664-60.331-1.408zM512 853.333c-188.203 0-341.333-153.131-341.333-341.333s153.131-341.333 341.333-341.333c188.203 0 341.333 153.131 341.333 341.333s-153.131 341.333-341.333 341.333zM512 85.333c-235.264 0-426.667 191.403-426.667 426.667s191.403 426.667 426.667 426.667c235.264 0 426.667-191.403 426.667-426.667s-191.403-426.667-426.667-426.667z"></path>
</svg>
