<!-- Generated by IcoMoon.io -->
<svg version="1.1" xmlns="http://www.w3.org/2000/svg" width="1024" height="1024" viewBox="0 0 1024 1024">
<title></title>
<g id="icomoon-ignore">
</g>
<path fill="#000" d="M682.667 469.333h-241.664l53.333-55.893c16.256-17.024 15.616-44.032-1.408-60.331-17.067-16.213-44.032-15.616-60.331 1.451l-122.155 128c-1.621 1.707-2.347 3.84-3.669 5.76-1.749 2.517-3.712 4.821-4.864 7.723-1.579 3.883-2.091 7.936-2.432 12.075-0.128 1.323-0.811 2.517-0.811 3.883 0 0.085 0.043 0.128 0.043 0.213 0.043 5.547 1.109 11.051 3.285 16.256 2.133 5.163 5.291 9.813 9.173 13.739l128 127.957c8.32 8.32 19.243 12.501 30.165 12.501s21.845-4.181 30.165-12.501c16.683-16.683 16.683-43.648 0-60.331l-55.168-55.168h238.336c23.552 0 42.667-19.115 42.667-42.667s-19.115-42.667-42.667-42.667zM512 853.333c-188.203 0-341.333-153.131-341.333-341.333s153.131-341.333 341.333-341.333c188.203 0 341.333 153.131 341.333 341.333s-153.131 341.333-341.333 341.333zM512 85.333c-235.264 0-426.667 191.403-426.667 426.667s191.403 426.667 426.667 426.667c235.264 0 426.667-191.403 426.667-426.667s-191.403-426.667-426.667-426.667z"></path>
</svg>
