<!-- Generated by IcoMoon.io -->
<svg version="1.1" xmlns="http://www.w3.org/2000/svg" width="1024" height="1024" viewBox="0 0 1024 1024">
<title></title>
<g id="icomoon-ignore">
</g>
<path fill="#000" d="M477.082 643.874c-72.704 0-131.883-59.179-131.883-131.883s59.179-131.883 131.883-131.883c72.704 0 131.883 59.179 131.883 131.883s-59.179 131.883-131.883 131.883zM552.73 87.202c-128.043-12.032-253.269 33.323-343.424 124.117-90.197 90.752-134.613 216.32-121.813 344.448 15.275 152.405 111.317 285.099 250.709 346.24 55.765 24.448 114.901 36.437 173.611 36.437 92.501 0 184.021-29.824 259.584-87.68 18.731-14.336 22.272-41.131 7.936-59.861-14.336-18.645-41.088-22.187-59.819-7.893-98.901 75.733-231.851 91.264-347.051 40.832-109.568-48.043-188.032-156.587-200.064-276.608-10.24-102.613 25.259-203.136 97.451-275.797 72.107-72.619 172.459-108.971 274.987-99.243 173.013 16.085 308.48 169.557 308.48 349.397v28.8c0 19.968-7.936 38.571-22.4 52.395-14.421 13.824-33.536 20.907-53.461 20.053-38.144-1.664-69.205-37.547-69.205-79.957v-184.491c0-23.595-19.072-42.667-42.667-42.667-21.717 0-38.869 16.341-41.6 37.333-38.741-35.84-90.112-58.283-146.901-58.283-119.765 0-217.216 97.493-217.216 217.216 0 119.765 97.451 217.216 217.216 217.216 72.533 0 136.491-36.096 175.957-90.88 27.52 40.107 71.168 67.584 120.661 69.76 43.221 2.304 84.779-13.568 116.224-43.648s48.725-70.571 48.725-114.048v-28.8c0-223.445-169.472-414.208-385.92-434.389z"></path>
</svg>
