<!-- Generated by IcoMoon.io -->
<svg version="1.1" xmlns="http://www.w3.org/2000/svg" width="1024" height="1024" viewBox="0 0 1024 1024">
<title></title>
<g id="icomoon-ignore">
</g>
<path fill="#000" d="M396.523 896v0c-70.656 0-137.813-28.416-189.099-80-101.888-102.528-106.069-265.088-9.344-362.411l315.136-317.013c32.811-33.024 77.099-51.243 124.672-51.243 50.901 0 99.285 20.437 136.192 57.557 73.429 73.856 76.245 191.232 6.229 261.632l-315.52 316.971c-20.437 20.608-47.957 31.915-77.483 31.915v0c-31.189 0-60.757-12.459-83.2-35.029-44.928-45.269-46.336-117.419-3.115-160.939l291.2-292.48c16.64-16.725 43.605-16.811 60.331-0.171 16.683 16.64 16.768 43.648 0.128 60.331l-291.157 292.523c-10.24 10.325-8.832 28.544 3.157 40.576 6.229 6.272 14.507 9.856 22.656 9.856v0c4.693 0 11.435-1.152 16.981-6.741l315.52-316.971c36.992-37.248 34.219-100.608-6.229-141.312-38.699-38.912-104.363-41.984-139.861-6.315l-315.136 317.013c-63.744 64.128-59.563 172.757 9.387 242.091 35.115 35.371 80.768 54.827 128.555 54.827 42.709 0 82.304-16.128 111.403-45.397l315.179-317.013c16.597-16.683 43.605-16.811 60.331-0.171 16.683 16.64 16.768 43.605 0.171 60.331l-315.179 317.013c-45.227 45.483-106.283 70.571-171.904 70.571z"></path>
</svg>
