<!-- Generated by IcoMoon.io -->
<svg version="1.1" xmlns="http://www.w3.org/2000/svg" width="1024" height="1024" viewBox="0 0 1024 1024">
<title></title>
<g id="icomoon-ignore">
</g>
<path fill="#000" d="M512 938.667c-141.184 0-256-109.099-256-243.115v-433.92c0-97.195 82.944-176.299 184.875-176.299 101.973 0 184.917 79.104 184.917 176.299l-0.256 434.219c0 60.331-51.072 109.44-113.792 109.44s-113.749-49.109-113.749-109.483l0.213-400.683c0.043-23.552 19.157-42.624 42.667-42.624h0.043c23.552 0 42.667 19.115 42.624 42.709l-0.213 400.64c0 13.269 12.715 24.107 28.416 24.107s28.459-10.837 28.459-24.149l0.256-434.219c0-50.133-44.672-90.923-99.584-90.923-54.869 0-99.541 40.789-99.541 90.965v433.92c0 86.997 76.544 157.781 170.667 157.781s170.667-70.784 170.667-157.781v-433.92c0-23.595 19.115-42.667 42.667-42.667s42.667 19.072 42.667 42.667v433.92c0 134.016-114.816 243.115-256 243.115z"></path>
</svg>
