<!-- Generated by IcoMoon.io -->
<svg version="1.1" xmlns="http://www.w3.org/2000/svg" width="1024" height="1024" viewBox="0 0 1024 1024">
<title></title>
<g id="icomoon-ignore">
</g>
<path fill="#000" d="M512 170.662c94.123 0 170.667 76.544 170.667 170.667s-76.544 170.667-170.667 170.667c-94.123 0-170.667-76.544-170.667-170.667s76.544-170.667 170.667-170.667zM809.344 885.372l-98.517-383.104c35.669-44.032 57.173-99.968 57.173-160.939 0-141.184-114.816-256-256-256s-256 114.816-256 256c0 60.971 21.504 116.907 57.173 160.939l-98.517 383.104c-4.267 16.725 1.877 34.347 15.659 44.715s32.427 11.307 47.275 2.688l227.413-133.504 242.347 134.059c6.443 3.584 13.568 5.333 20.651 5.333 9.259 0 18.475-2.987 26.112-8.917 13.483-10.411 19.456-27.861 15.232-44.373z"></path>
</svg>
