<!-- Generated by IcoMoon.io -->
<svg version="1.1" xmlns="http://www.w3.org/2000/svg" width="1024" height="1024" viewBox="0 0 1024 1024">
<title></title>
<g id="icomoon-ignore">
</g>
<path fill="#000" d="M525.043 712.832c-13.269-7.296-29.312-7.168-42.24 0.555l-159.915 93.867 62.635-243.627c37.333 21.333 80.469 33.707 126.464 33.707s89.131-12.373 126.507-33.707l63.531 247.125-176.981-97.92zM511.987 170.667c94.123 0 170.667 76.544 170.667 170.667s-76.544 170.667-170.667 170.667c-94.123 0-170.667-76.544-170.667-170.667s76.544-170.667 170.667-170.667v0zM809.331 885.376l-98.517-383.104c35.669-44.032 57.173-99.968 57.173-160.939 0-141.184-114.816-256-256-256-141.141 0-256 114.816-256 256 0 60.971 21.504 116.907 57.173 160.939l-98.475 383.104c-4.309 16.725 1.877 34.347 15.659 44.715 13.739 10.368 32.427 11.307 47.232 2.688l227.413-133.504 242.347 134.059c6.443 3.584 13.568 5.333 20.651 5.333 9.259 0 18.475-2.987 26.155-8.917 13.44-10.411 19.456-27.861 15.189-44.373v0z"></path>
</svg>
