<!-- Generated by IcoMoon.io -->
<svg version="1.1" xmlns="http://www.w3.org/2000/svg" width="1024" height="1024" viewBox="0 0 1024 1024">
<title></title>
<g id="icomoon-ignore">
</g>
<path fill="#000" d="M712.832 567.168c16.683 16.683 16.683 43.648 0 60.331-8.32 8.32-19.243 12.501-30.165 12.501s-21.845-4.181-30.165-12.501l-55.168-55.168-55.168 55.168c-8.32 8.32-19.243 12.501-30.165 12.501s-21.845-4.181-30.165-12.501c-16.683-16.683-16.683-43.648 0-60.331l55.168-55.168-55.168-55.168c-16.683-16.683-16.683-43.648 0-60.331s43.648-16.683 60.331 0l55.168 55.168 55.168-55.168c16.683-16.683 43.648-16.683 60.331 0s16.683 43.648 0 60.331l-55.168 55.168 55.168 55.168zM859.349 170.667h-416.896c-31.915 0-62.507 11.819-86.101 33.323-1.664 1.451-3.157 3.115-4.523 4.821l-257.024 319.104c-14.165 17.579-12.203 43.136 4.48 58.325l257.067 233.771c23.595 21.504 54.187 33.323 86.101 33.323h416.896c43.733 0 79.317-34.773 79.317-77.568v-527.531c0-42.795-35.584-77.568-79.317-77.568v0z"></path>
</svg>
