<!-- Generated by IcoMoon.io -->
<svg version="1.1" xmlns="http://www.w3.org/2000/svg" width="1024" height="1024" viewBox="0 0 1024 1024">
<title></title>
<g id="icomoon-ignore">
</g>
<path fill="#000" d="M512 341.333c23.467 0 42.667 19.2 42.667 42.667v0 469.333c0 23.467-19.2 42.667-42.667 42.667s-42.667-19.2-42.667-42.667v0-469.333c0-23.467 19.2-42.667 42.667-42.667zM810.667 170.667c23.467 0 42.667 19.2 42.667 42.667v0 640c0 23.467-19.2 42.667-42.667 42.667s-42.667-19.2-42.667-42.667v0-640c0-23.467 19.2-42.667 42.667-42.667zM213.333 512c23.467 0 42.667 19.2 42.667 42.667v0 298.667c0 23.467-19.2 42.667-42.667 42.667s-42.667-19.2-42.667-42.667v0-298.667c0-23.467 19.2-42.667 42.667-42.667z"></path>
</svg>
