<!-- Generated by IcoMoon.io -->
<svg version="1.1" xmlns="http://www.w3.org/2000/svg" width="1024" height="1024" viewBox="0 0 1024 1024">
<title></title>
<g id="icomoon-ignore">
</g>
<path fill="#000" d="M938.667 426.667v170.667c0 23.552-19.115 42.667-42.667 42.667s-42.667-19.115-42.667-42.667v-170.667c0-23.552 19.115-42.667 42.667-42.667s42.667 19.115 42.667 42.667v0zM682.667 664.363c0 10.795-5.163 17.323-7.339 18.304l-497.152 0.043c-2.133-0.768-7.509-7.296-7.509-18.347v-304.725c0-11.051 5.376-17.579 7.125-18.304l497.365-0.043c2.133 0.768 7.509 7.296 7.509 18.347v304.725zM675.541 256h-497.749c-50.987 0-92.459 46.464-92.459 103.637v304.725c0 57.173 41.472 103.637 92.459 103.637h497.749c50.987 0 92.459-46.464 92.459-103.637v-304.725c0-57.173-41.472-103.637-92.459-103.637v0z"></path>
</svg>
