<!-- Generated by IcoMoon.io -->
<svg version="1.1" xmlns="http://www.w3.org/2000/svg" width="1024" height="1024" viewBox="0 0 1024 1024">
<title></title>
<g id="icomoon-ignore">
</g>
<path fill="#000" d="M675.563 256c50.987 0 92.459 46.464 92.459 103.637v0 304.725c0 57.173-41.472 103.637-92.459 103.637v0h-497.792c-50.987 0-92.416-46.464-92.416-103.637v0-304.725c0-57.173 41.429-103.637 92.416-103.637v0zM896 384c23.552 0 42.667 19.115 42.667 42.667v0 170.667c0 23.552-19.115 42.667-42.667 42.667s-42.667-19.115-42.667-42.667v0-170.667c0-23.552 19.115-42.667 42.667-42.667z"></path>
</svg>
