<!-- Generated by IcoMoon.io -->
<svg version="1.1" xmlns="http://www.w3.org/2000/svg" width="1024" height="1024" viewBox="0 0 1024 1024">
<title></title>
<g id="icomoon-ignore">
</g>
<path fill="#000" d="M395.814 256l-134.187 234.837c-7.552 13.184-7.509 29.44 0.128 42.581s21.717 21.248 36.907 21.248v0h182.485l-121.899 213.333h-181.461c-50.987 0-92.459-46.464-92.459-103.637v0-304.725c0-57.173 41.472-103.637 92.459-103.637v0h218.027zM675.563 256c50.987 0 92.459 46.464 92.459 103.637v0 304.725c0 57.173-41.472 103.637-92.459 103.637v0h-218.027l134.187-234.837c7.509-13.184 7.467-29.44-0.171-42.581-7.595-13.141-21.675-21.248-36.864-21.248v0h-182.485l121.899-213.333zM896 384c23.552 0 42.667 19.115 42.667 42.667v0 170.667c0 23.552-19.115 42.667-42.667 42.667s-42.667-19.115-42.667-42.667v0-170.667c0-23.552 19.115-42.667 42.667-42.667z"></path>
</svg>
