<!-- Generated by IcoMoon.io -->
<svg version="1.1" xmlns="http://www.w3.org/2000/svg" width="1024" height="1024" viewBox="0 0 1024 1024">
<title></title>
<g id="icomoon-ignore">
</g>
<path fill="#000" d="M490.496 176.299c20.48 11.691 27.563 37.76 15.872 58.197l-134.187 234.837h182.485c15.19 0 29.27 8.107 36.907 21.248s7.68 29.397 0.128 42.581l-170.667 298.667c-7.851 13.781-22.272 21.504-37.077 21.504-7.168 0-14.464-1.792-21.12-5.632-20.48-11.691-27.563-37.76-15.872-58.197l134.187-234.837h-182.486c-15.189 0-29.269-8.107-36.906-21.248s-7.68-29.397-0.128-42.581l170.667-298.667c11.691-20.437 37.803-27.52 58.197-15.872zM675.563 256c50.987 0 92.459 46.464 92.459 103.637v0 304.725c0 57.173-41.472 103.637-92.459 103.637v0h-168.875l48.725-85.333h119.893c2.219-0.981 7.381-7.509 7.381-18.304v0-304.725c0-11.051-5.376-17.579-7.509-18.347v0h-180.693l48.725-85.291zM346.667 256.013l-48.768 85.291-120.107 0.043c-1.749 0.683-7.125 7.253-7.125 18.261v0 304.768c0 11.008 5.376 17.579 7.509 18.347v0h180.651l-48.725 85.291h-132.309c-50.987 0-92.459-46.507-92.459-103.637v0-304.768c0-57.131 41.472-103.595 92.459-103.595v0h168.875zM896 384c23.552 0 42.667 19.115 42.667 42.667v0 170.667c0 23.552-19.115 42.667-42.667 42.667s-42.667-19.115-42.667-42.667v0-170.667c0-23.552 19.115-42.667 42.667-42.667z"></path>
</svg>
