<!-- Generated by IcoMoon.io -->
<svg version="1.1" xmlns="http://www.w3.org/2000/svg" width="1024" height="1024" viewBox="0 0 1024 1024">
<title></title>
<g id="icomoon-ignore">
</g>
<path fill="#000" d="M565.333 413.995h128v-21.333h-128v21.333zM673.621 524.544h-87.936v-0.427c0-26.368 17.579-46.763 44.288-46.763 26.453 0 43.648 20.181 43.648 46.763v0.427zM629.547 439.339c-57.771 0-97.28 35.712-97.28 96.085v18.816c0 63.104 39.296 98.432 99.541 98.432 58.795 0 87.339-32.853 92.544-65.835h-50.517c-4.565 16.725-19.883 26.795-41.6 26.795-27.733 0-46.549-19.797-46.549-51.029v-5.632h140.715v-20.224c0-59.221-37.035-97.408-96.853-97.408v0zM393.344 607.445h-40.917v-82.475h52.352c32.299 0 49.92 16.043 49.92 42.24 0 26.411-17.792 40.235-61.355 40.235v0zM352.427 412.587h48.853c25.813 0 40.917 13.824 40.917 36.352 0 24.192-16.341 37.803-53.376 37.803h-36.395v-74.155zM448.768 502.784v-2.389c27.605-6.741 47.872-27.051 47.872-60.757 0-42.453-32.725-68.309-82.645-68.309h-116.395v277.333h116.181c56.661 0 97.152-28.629 97.152-78.208 0-41.6-28.629-64.427-62.165-67.669v0zM512 853.333c-188.203 0-341.333-153.131-341.333-341.333s153.131-341.333 341.333-341.333c188.203 0 341.333 153.131 341.333 341.333s-153.131 341.333-341.333 341.333v0zM512 85.333c-235.264 0-426.667 191.403-426.667 426.667s191.403 426.667 426.667 426.667c235.264 0 426.667-191.403 426.667-426.667s-191.403-426.667-426.667-426.667v0z"></path>
</svg>
