<!-- Generated by IcoMoon.io -->
<svg version="1.1" xmlns="http://www.w3.org/2000/svg" width="1024" height="1024" viewBox="0 0 1024 1024">
<title></title>
<g id="icomoon-ignore">
</g>
<path fill="#000" d="M404.77 524.958c32.299 0 49.92 16.043 49.92 42.24 0 26.411-17.792 40.277-61.355 40.277v0h-40.917v-82.517zM629.956 477.376c26.496 0 43.648 20.181 43.648 46.763v0 0.384h-87.936c0-26.752 17.579-47.147 44.288-47.147zM401.293 412.565c25.813 0 40.917 13.867 40.917 36.395 0 24.149-16.341 37.803-53.376 37.803v0h-36.395v-74.197zM726.396 556.958h-140.715v5.632c0 31.232 18.816 51.029 46.549 51.029 21.717 0 37.035-10.069 41.6-26.795h50.517c-5.163 33.024-33.749 65.835-92.544 65.835-60.203 0-99.541-35.328-99.541-98.389v-18.859c0-60.373 39.509-96.085 97.28-96.085 59.819 0 96.853 38.229 96.853 97.408v20.224zM565.329 413.982h128v-21.333h-128v21.333zM413.777 648.649h-116.181v-277.333h116.395c49.92 0 82.645 25.856 82.645 68.309 0 33.707-20.267 54.059-47.872 60.757v2.389c33.536 3.285 62.165 26.069 62.165 67.669 0 49.621-40.491 78.208-97.152 78.208v0zM511.996 85.321c-235.648 0-426.667 191.061-426.667 426.667 0 235.648 191.019 426.667 426.667 426.667s426.667-191.019 426.667-426.667c0-235.605-191.019-426.667-426.667-426.667v0z"></path>
</svg>
