<!-- Generated by IcoMoon.io -->
<svg version="1.1" xmlns="http://www.w3.org/2000/svg" width="1024" height="1024" viewBox="0 0 1024 1024">
<title></title>
<g id="icomoon-ignore">
</g>
<path fill="#000" d="M235.29 682.667l50.347-50.432c16.128-16.128 25.003-37.547 25.003-60.331v-199.552c0-57.899 25.173-113.237 69.12-151.723 44.288-38.827 100.693-55.893 159.445-48.171 99.285 13.184 174.165 102.955 174.165 208.853v190.592c0 22.784 8.875 44.203 24.96 60.288l50.389 50.475h-553.429zM597.316 782.549c0 38.357-39.083 70.784-85.333 70.784s-85.333-32.427-85.333-70.784v-14.549h170.667v14.549zM875.546 648.875l-76.843-76.971v-190.592c0-148.523-106.752-274.688-248.32-293.419-82.005-10.923-164.779 14.123-226.859 68.565-62.464 54.699-98.219 133.376-98.219 215.893l-0.043 199.552-76.843 76.971c-20.011 20.053-25.941 49.877-15.104 76.032 10.88 26.197 36.181 43.093 64.512 43.093h143.488v14.549c0 86.101 76.544 156.117 170.667 156.117s170.667-70.016 170.667-156.117v-14.549h143.488c28.331 0 53.589-16.896 64.427-43.051 10.88-26.197 4.992-56.064-15.019-76.075v0z"></path>
</svg>
