<!-- Generated by IcoMoon.io -->
<svg version="1.1" xmlns="http://www.w3.org/2000/svg" width="1024" height="1024" viewBox="0 0 1024 1024">
<title></title>
<g id="icomoon-ignore">
</g>
<path fill="#000" d="M883.516 823.13l-682.667-682.667c-16.683-16.683-43.648-16.683-60.331 0s-16.683 43.648 0 60.331l682.667 682.667c8.32 8.32 19.243 12.501 30.165 12.501s21.845-4.181 30.165-12.501c16.683-16.683 16.683-43.648 0-60.331v0zM597.35 782.511v-14.549h-170.667v14.549c0 38.357 39.083 70.784 85.333 70.784s85.333-32.427 85.333-70.784v0zM647.356 767.962l33.237 33.28c-10.197 77.184-81.451 137.387-168.576 137.387-94.123 0-170.667-70.016-170.667-156.117v-14.549h-143.488c-28.331 0-53.632-16.896-64.512-43.093-10.837-26.155-4.907-55.979 15.061-76.032l76.843-76.971 0.043-199.552c0-8.405 0.64-16.725 1.323-25.045l84.011 83.968v140.629c0 22.784-8.875 44.203-25.003 60.331l-50.304 50.432h326.699l85.333 85.333zM361.318 240.602l-61.141-61.141c7.339-8.064 15.104-15.787 23.381-23.040 62.123-54.443 144.768-79.488 226.816-68.565 141.611 18.731 248.363 144.896 248.363 293.419v190.592l76.8 76.971c20.011 20.011 25.941 49.877 15.061 76.075-4.309 10.325-11.264 18.645-19.328 25.6l-153.813-153.771c-2.389-7.979-4.053-16.256-4.053-24.875v-190.592c0-105.899-74.88-195.669-174.165-208.853-58.709-7.723-115.2 9.344-159.488 48.171-6.912 6.059-12.501 13.184-18.432 20.011v0z"></path>
</svg>
