<!-- Generated by IcoMoon.io -->
<svg version="1.1" xmlns="http://www.w3.org/2000/svg" width="1024" height="1024" viewBox="0 0 1024 1024">
<title></title>
<g id="icomoon-ignore">
</g>
<path fill="#000" d="M597.333 782.562c0 38.357-39.083 70.784-85.333 70.784s-85.333-32.427-85.333-70.784v-14.549h170.667v14.549zM875.563 648.845l-76.843-76.928v-190.635c0-148.523-106.752-274.645-248.363-293.419-81.963-10.88-164.736 14.123-226.816 68.565-62.464 54.699-98.261 133.419-98.261 215.936l-0.043 199.552-76.8 76.971c-20.011 20.011-25.941 49.877-15.104 76.032 10.88 26.155 36.181 43.093 64.512 43.093h143.488v14.549c0 86.101 76.544 156.117 170.667 156.117s170.667-70.016 170.667-156.117v-14.549h143.445c28.331 0 53.632-16.896 64.469-43.093 10.88-26.155 4.949-56.021-15.019-76.075v0z"></path>
</svg>
