<!-- Generated by IcoMoon.io -->
<svg version="1.1" xmlns="http://www.w3.org/2000/svg" width="1024" height="1024" viewBox="0 0 1024 1024">
<title></title>
<g id="icomoon-ignore">
</g>
<path fill="#000" d="M883.516 883.46c-8.32 8.32-19.243 12.501-30.165 12.501s-21.845-4.181-30.165-12.501l-682.667-682.667c-16.683-16.683-16.683-43.648 0-60.331s43.648-16.683 60.331 0l682.667 682.667c16.683 16.683 16.683 43.648 0 60.331v0zM300.177 179.46c7.339-8.064 15.104-15.787 23.381-23.083 62.080-54.4 144.853-79.445 226.816-68.523 141.611 18.731 248.363 144.896 248.363 293.376v190.635l76.8 76.928c20.011 20.053 25.941 49.92 15.061 76.117-4.309 10.325-11.264 18.645-19.328 25.6l-13.056-13.013-558.037-558.037zM597.35 782.511c0 38.357-39.083 70.784-85.333 70.784s-85.333-32.427-85.333-70.784v-14.549h170.667v14.549zM677.521 798.127l-450.901-450.859c-0.683 8.32-1.323 16.64-1.323 25.045l-0.043 199.552-76.843 76.971c-19.968 20.053-25.899 49.877-15.061 76.032 10.88 26.155 36.181 43.093 64.512 43.093h143.488v14.549c0 86.101 76.544 156.117 170.667 156.117 87.125 0 158.379-60.203 168.576-137.387l-3.072-3.115z"></path>
</svg>
