<!-- Generated by IcoMoon.io -->
<svg version="1.1" xmlns="http://www.w3.org/2000/svg" width="1024" height="1024" viewBox="0 0 1024 1024">
<title></title>
<g id="icomoon-ignore">
</g>
<path fill="#000" d="M554.667 778.645v-173.696l105.259 101.504-105.259 72.192zM554.667 245.781l106.539 73.941-106.539 100.565v-174.507zM581.504 512.277l171.307-161.707c10.709-10.155 16.171-24.32 15.061-38.912-1.152-14.635-8.747-27.861-20.907-36.267l-199.424-138.411c-15.317-10.752-35.2-11.947-51.84-3.285-16.256 8.491-26.368 25.045-26.368 43.179v264.789l-136.235-169.685c-14.805-18.432-41.6-21.333-59.989-6.571-18.389 14.72-21.333 41.6-6.571 59.947l148.224 184.619-149.547 188.885c-14.635 18.475-11.52 45.269 6.955 59.947 7.851 6.187 17.195 9.173 26.496 9.173 12.544 0 25.003-5.504 33.451-16.171l137.216-173.269v268.544c0 18.091 10.027 34.603 26.155 43.136 7.424 3.883 15.445 5.803 23.467 5.803 9.899 0 19.755-2.944 28.331-8.789l198.059-135.936c12.16-8.363 19.84-21.547 20.992-36.139 1.195-14.549-4.181-28.715-14.72-38.827l-170.112-164.053z"></path>
</svg>
