<!-- Generated by IcoMoon.io -->
<svg version="1.1" xmlns="http://www.w3.org/2000/svg" width="1024" height="1024" viewBox="0 0 1024 1024">
<title></title>
<g id="icomoon-ignore">
</g>
<path fill="#000" d="M298.667 810.667c-23.509 0-42.667-19.157-42.667-42.667s19.157-42.667 42.667-42.667h469.333v85.333h-469.333zM298.667 213.333h469.333v426.667h-469.333c-15.061 0-29.269 3.072-42.667 7.851v-391.851c0-23.509 19.157-42.667 42.667-42.667v0zM810.667 128h-512c-70.571 0-128 57.429-128 128v512c0 70.571 57.429 128 128 128h512c23.552 0 42.667-19.115 42.667-42.667v-682.667c0-23.552-19.115-42.667-42.667-42.667v0z"></path>
</svg>
