<!-- Generated by IcoMoon.io -->
<svg version="1.1" xmlns="http://www.w3.org/2000/svg" width="1024" height="1024" viewBox="0 0 1024 1024">
<title></title>
<g id="icomoon-ignore">
</g>
<path fill="#000" d="M810.667 699.831l-256 57.515v-433.195l256-57.472v433.152zM213.333 266.679l256 57.472v433.195l-256-57.515v-433.152zM880 179.981c-10.155-8.064-23.381-11.136-36.053-8.277l-331.947 74.581-331.947-74.581c-12.715-2.901-25.899 0.213-36.053 8.277-10.112 8.149-16 20.395-16 33.365v520.619c0 19.968 13.824 37.248 33.28 41.6l341.333 76.715c3.157 0.725 6.272 1.067 9.387 1.067s6.229-0.341 9.387-1.067l341.333-76.715c19.456-4.352 33.28-21.632 33.28-41.6v-520.619c0-12.971-5.888-25.216-16-33.365v0z"></path>
</svg>
