<!-- Generated by IcoMoon.io -->
<svg version="1.1" xmlns="http://www.w3.org/2000/svg" width="1024" height="1024" viewBox="0 0 1024 1024">
<title></title>
<g id="icomoon-ignore">
</g>
<path fill="#000" d="M504.375 661.585c7.211 0 14.464 1.835 20.992 5.504l199.979 113.109v-552.619c0-8.576-5.163-14.251-8.533-14.251h-409.6c-3.413 0-8.533 5.675-8.533 14.251v550.4l183.723-110.293c6.784-4.053 14.379-6.101 21.973-6.101zM256.013 895.996c-7.253 0-14.507-1.835-21.035-5.547-13.355-7.552-21.632-21.76-21.632-37.12v-625.749c0-54.912 42.112-99.584 93.867-99.584h409.6c51.755 0 93.867 44.672 93.867 99.584v625.749c0 15.189-8.064 29.227-21.163 36.864-13.141 7.68-29.269 7.808-42.496 0.299l-242.005-136.875-227.072 136.32c-6.741 4.011-14.336 6.059-21.931 6.059z"></path>
</svg>
