<svg xmlns="http://www.w3.org/2000/svg" width="24" height="27" viewBox="0 0 24 27">
    <path fill="#667181" d="M20.099 18.927v2.254L12 27l-8.099-5.819v-2.254l3.388 2.4.883.655.809-.655L12 19.217l3.019 2.11.809.655.883-.655 3.388-2.4zm0-7.346L24 14.345l-8.172 5.818L12 17.4l8.099-5.819zm-16.198 0L12 17.4l-3.828 2.763L0 14.345l3.901-2.764zM16 5.333c1.105 0 2 .796 2 1.778v3.977l-4 2.874v-6.85c0-.983.895-1.779 2-1.779zM8.172 3L12 5.763 3.901 11.58 0 8.817 8.172 3zM16 0c.53 0 1.04.21 1.415.585S18 1.47 18 2c0 .81-.488 1.538-1.235 1.848-.748.31-1.608.137-2.18-.433-.57-.572-.743-1.432-.433-2.18C14.462.488 15.19 0 16 0z"/>
</svg>
