<!-- Generated by IcoMoon.io -->
<svg version="1.1" xmlns="http://www.w3.org/2000/svg" width="1024" height="1024" viewBox="0 0 1024 1024">
<title></title>
<g id="icomoon-ignore">
</g>
<path fill="#000" d="M426.667 234.667c0-11.776 9.557-21.333 21.333-21.333h128c11.776 0 21.333 9.557 21.333 21.333v64h-170.667v-64zM640 384v426.667h-256v-426.667h256zM810.667 384c23.509 0 42.667 19.157 42.667 42.667v341.333c0 23.509-19.157 42.667-42.667 42.667h-85.333v-426.667h85.333zM298.667 384v426.667h-85.333c-23.509 0-42.667-19.157-42.667-42.667v-341.333c0-23.509 19.157-42.667 42.667-42.667h85.333zM810.667 298.667h-128v-64c0-58.795-47.872-106.667-106.667-106.667h-128c-58.795 0-106.667 47.872-106.667 106.667v64h-128c-70.571 0-128 57.429-128 128v341.333c0 70.571 57.429 128 128 128h597.333c70.571 0 128-57.429 128-128v-341.333c0-70.571-57.429-128-128-128v0z"></path>
</svg>
