<!-- Generated by IcoMoon.io -->
<svg version="1.1" xmlns="http://www.w3.org/2000/svg" width="1024" height="1024" viewBox="0 0 1024 1024">
<title></title>
<g id="icomoon-ignore">
</g>
<path fill="#000" d="M426.667 234.667c0-11.776 9.557-21.333 21.333-21.333h128c11.776 0 21.333 9.557 21.333 21.333v64h-170.667v-64zM576 128c58.795 0 106.667 47.872 106.667 106.667v0 64h42.667v597.333h-426.667v-597.333h42.667v-64c0-58.795 47.872-106.667 106.667-106.667v0zM810.667 298.667c70.571 0 128 57.429 128 128v0 341.333c0 70.571-57.429 128-128 128v0zM213.333 298.667v597.333c-70.571 0-128-57.429-128-128v0-341.333c0-70.571 57.429-128 128-128v0z"></path>
</svg>
