<!-- Generated by IcoMoon.io -->
<svg version="1.1" xmlns="http://www.w3.org/2000/svg" width="1024" height="1024" viewBox="0 0 1024 1024">
<title></title>
<g id="icomoon-ignore">
</g>
<path fill="#000" d="M810.667 769.476c0 23.552-19.157 42.667-42.667 42.667h-512c-23.509 0-42.667-19.115-42.667-42.667v-298.667h597.333v298.667zM341.333 257.476c23.552 0 42.667 19.072 42.667 42.667s-19.115 42.667-42.667 42.667c-23.552 0-42.667-19.072-42.667-42.667s19.115-42.667 42.667-42.667v0zM512 257.476c23.552 0 42.667 19.072 42.667 42.667s-19.115 42.667-42.667 42.667c-23.552 0-42.667-19.072-42.667-42.667s19.115-42.667 42.667-42.667v0zM768 129.476h-512c-70.571 0-128 57.429-128 128v512c0 70.571 57.429 128 128 128h512c70.571 0 128-57.429 128-128v-512c0-70.571-57.429-128-128-128v0z"></path>
</svg>
