<!-- Generated by IcoMoon.io -->
<svg version="1.1" xmlns="http://www.w3.org/2000/svg" width="1024" height="1024" viewBox="0 0 1024 1024">
<title></title>
<g id="icomoon-ignore">
</g>
<path fill="#000" d="M341.333 256c23.552 0 42.667 19.072 42.667 42.667s-19.115 42.667-42.667 42.667c-23.552 0-42.667-19.072-42.667-42.667s19.115-42.667 42.667-42.667zM512 256c23.552 0 42.667 19.072 42.667 42.667s-19.115 42.667-42.667 42.667c-23.552 0-42.667-19.072-42.667-42.667s19.115-42.667 42.667-42.667zM213.333 384v-128c0-23.552 19.157-42.667 42.667-42.667h512c23.509 0 42.667 19.115 42.667 42.667v128h-597.333zM810.667 768c0 23.552-19.157 42.667-42.667 42.667h-512c-23.509 0-42.667-19.115-42.667-42.667v-298.667h597.333v298.667zM768 128h-512c-70.571 0-128 57.429-128 128v512c0 70.571 57.429 128 128 128h512c70.571 0 128-57.429 128-128v-512c0-70.571-57.429-128-128-128v0z"></path>
</svg>
