<!-- Generated by IcoMoon.io -->
<svg version="1.1" xmlns="http://www.w3.org/2000/svg" width="1024" height="1024" viewBox="0 0 1024 1024">
<title></title>
<g id="icomoon-ignore">
</g>
<path fill="#000" d="M757.999 315.418l-250.325 250.24c-6.443-9.643-13.824-18.773-22.229-27.136-8.405-8.405-17.536-15.744-27.179-22.059l250.411-250.325c13.056-13.099 36.181-13.141 49.365 0.043 6.528 6.528 10.069 15.061 9.941 25.131 0.128 9.003-3.456 17.536-9.984 24.107zM351.812 765.466l-95.061 1.749 1.664-95.189c0.896-54.016 45.653-98.816 99.797-99.755 0.597 0 1.109-0.043 1.707-0.043 24.917 0 48 9.387 65.195 26.624 17.621 17.579 27.051 41.301 26.624 66.816-0.896 54.101-45.739 98.859-99.925 99.797zM853.316 291.311c0.427-32.256-12.032-62.635-34.944-85.504-45.312-45.269-124.8-45.397-170.027 0l-282.155 282.027c-3.2-0.171-6.272-0.853-9.472-0.896-99.584 1.792-181.973 84.181-183.637 183.637l-2.432 139.349c-0.213 11.563 4.352 22.741 12.501 30.891 8.021 8.021 18.901 12.501 30.165 12.501h0.811l139.349-2.517c99.499-1.749 181.845-84.139 183.595-183.68 0.043-3.2-0.64-6.229-0.725-9.472l281.984-281.899c22.955-22.955 35.413-53.333 34.987-84.437z"></path>
</svg>
