<!-- Generated by IcoMoon.io -->
<svg version="1.1" xmlns="http://www.w3.org/2000/svg" width="1024" height="1024" viewBox="0 0 1024 1024">
<title></title>
<g id="icomoon-ignore">
</g>
<path fill="#000" d="M303.957 535.377c124.715-25.728 227.755 93.611 172.501 221.44-24.917 57.6-84.096 92.885-146.773 93.995v0h-0.085l-138.496 2.517c-11.349 0.213-20.651-9.088-20.437-20.437v0l2.304-132.565c1.365-78.336 54.4-149.163 130.987-164.949zM698.697 199.164c33.152-33.152 87.339-39.040 123.136-8.832 21.035 17.792 31.829 42.752 31.488 68.096 0.299 22.912-8.448 45.483-25.685 62.72v0l-276.693 276.949c-7.808 7.851-20.523 7.851-28.373 0v0l-96.981-97.067c-7.851-7.851-7.851-20.608 0-28.459v0z"></path>
</svg>
