<!-- Generated by IcoMoon.io -->
<svg version="1.1" xmlns="http://www.w3.org/2000/svg" width="1024" height="1024" viewBox="0 0 1024 1024">
<title></title>
<g id="icomoon-ignore">
</g>
<path fill="#000" d="M817.835 275.917l-61.355 59.307c-8.277 7.979-18.987 11.989-29.653 11.989-11.179 0-22.315-4.395-30.677-13.056-16.341-16.896-15.915-43.947 1.067-60.288l61.355-59.264c16.939-16.341 44.075-15.915 60.288 1.024 16.384 16.896 15.915 43.947-1.024 60.288zM327.851 334.157c-8.363 8.661-19.499 13.056-30.677 13.056-10.667 0-21.376-3.968-29.653-11.947l-61.397-59.307c-16.939-16.384-17.408-43.435-1.024-60.331 16.384-16.939 43.349-17.451 60.331-1.067l61.397 59.264c16.939 16.384 17.408 43.435 1.024 60.331zM256 511.991c0 23.595-19.115 42.667-42.667 42.667h-85.333c-23.552 0-42.667-19.072-42.667-42.667s19.115-42.667 42.667-42.667h85.333c23.552 0 42.667 19.072 42.667 42.667zM938.667 511.991c0 23.595-19.072 42.667-42.667 42.667h-85.333c-23.595 0-42.667-19.072-42.667-42.667s19.072-42.667 42.667-42.667h85.333c23.595 0 42.667 19.072 42.667 42.667zM469.333 213.325v-85.333c0-23.595 19.115-42.667 42.667-42.667s42.667 19.072 42.667 42.667v85.333c0 23.595-19.115 42.667-42.667 42.667s-42.667-19.072-42.667-42.667zM576.043 622.626c-13.227 7.637-21.376 21.76-21.376 36.992v193.707h-85.333v-193.707c0-15.232-8.149-29.355-21.376-36.992-39.467-22.656-63.957-65.067-63.957-110.635 0-70.571 57.429-128 128-128s128 57.429 128 128c0 45.568-24.491 87.979-63.957 110.635zM512 298.658c-117.632 0-213.333 95.701-213.333 213.333 0 67.371 32.128 130.645 85.333 170.496v170.837c0 47.061 38.272 85.333 85.333 85.333h85.333c47.061 0 85.333-38.272 85.333-85.333v-170.837c53.163-39.851 85.333-103.125 85.333-170.496 0-117.632-95.701-213.333-213.333-213.333z"></path>
</svg>
