<!-- Generated by IcoMoon.io -->
<svg version="1.1" xmlns="http://www.w3.org/2000/svg" width="1024" height="1024" viewBox="0 0 1024 1024">
<title></title>
<g id="icomoon-ignore">
</g>
<path fill="#000" d="M512 298.667c117.632 0 213.333 95.701 213.333 213.333 0 67.371-32.171 130.645-85.333 170.496v0 170.837c0 47.061-38.272 85.333-85.333 85.333v0h-85.333c-47.061 0-85.333-38.272-85.333-85.333v0-170.837c-53.205-39.851-85.333-103.125-85.333-170.496 0-117.632 95.701-213.333 213.333-213.333zM896 469.333c23.595 0 42.667 19.072 42.667 42.667s-19.072 42.667-42.667 42.667v0h-85.333c-23.595 0-42.667-19.072-42.667-42.667s19.072-42.667 42.667-42.667v0zM213.333 469.333c23.552 0 42.667 19.072 42.667 42.667s-19.115 42.667-42.667 42.667v0h-85.333c-23.552 0-42.667-19.072-42.667-42.667s19.115-42.667 42.667-42.667v0zM205.086 215.637c16.427-16.939 43.392-17.451 60.331-1.109v0l61.397 59.307c16.939 16.384 17.408 43.435 1.024 60.331-8.363 8.661-19.499 13.056-30.677 13.056-10.667 0-21.333-3.968-29.653-11.989v0l-61.397-59.264c-16.939-16.384-17.408-43.435-1.024-60.331zM758.588 214.601c16.896-16.341 44.032-15.872 60.288 1.024 16.384 16.896 15.915 43.947-1.024 60.288v0l-61.397 59.307c-8.235 7.979-18.944 11.989-29.611 11.989-11.179 0-22.357-4.395-30.677-13.056-16.384-16.896-15.915-43.947 1.024-60.288v0zM512 85.333c23.552 0 42.667 19.072 42.667 42.667v0 85.333c0 23.595-19.115 42.667-42.667 42.667s-42.667-19.072-42.667-42.667v0-85.333c0-23.595 19.115-42.667 42.667-42.667z"></path>
</svg>
