<!-- Generated by IcoMoon.io -->
<svg version="1.1" xmlns="http://www.w3.org/2000/svg" width="1024" height="1024" viewBox="0 0 1024 1024">
<title></title>
<g id="icomoon-ignore">
</g>
<path fill="#000" d="M810.667 469.333h-597.333v-170.667c0-23.509 19.157-42.667 42.667-42.667h42.667v42.667c0 23.467 19.2 42.667 42.667 42.667s42.667-19.2 42.667-42.667v-42.667h256v42.667c0 23.467 19.2 42.667 42.667 42.667s42.667-19.2 42.667-42.667v-42.667h42.667c23.509 0 42.667 19.157 42.667 42.667v170.667zM682.667 725.333h-170.667c-23.467 0-42.667-19.2-42.667-42.667s19.2-42.667 42.667-42.667h170.667c23.467 0 42.667 19.2 42.667 42.667s-19.2 42.667-42.667 42.667v0zM341.333 725.333c-23.467 0-42.667-19.2-42.667-42.667s19.2-42.667 42.667-42.667c23.467 0 42.667 19.2 42.667 42.667s-19.2 42.667-42.667 42.667v0zM768 170.667h-42.667v-42.667c0-23.467-19.2-42.667-42.667-42.667s-42.667 19.2-42.667 42.667v42.667h-256v-42.667c0-23.467-19.2-42.667-42.667-42.667s-42.667 19.2-42.667 42.667v42.667h-42.667c-70.571 0-128 57.429-128 128v512c0 70.571 57.429 128 128 128h512c70.571 0 128-57.429 128-128v-512c0-70.571-57.429-128-128-128v0z"></path>
</svg>
