<!-- Generated by IcoMoon.io -->
<svg version="1.1" xmlns="http://www.w3.org/2000/svg" width="1024" height="1024" viewBox="0 0 1024 1024">
<title></title>
<g id="icomoon-ignore">
</g>
<path fill="#000" d="M512 661.333c-35.285 0-64-28.715-64-64s28.715-64 64-64c35.285 0 64 28.715 64 64s-28.715 64-64 64zM512 448c-82.347 0-149.333 66.987-149.333 149.333s66.987 149.333 149.333 149.333c82.347 0 149.333-66.987 149.333-149.333s-66.987-149.333-149.333-149.333zM853.333 768c0 23.509-19.115 42.667-42.667 42.667h-597.333c-23.552 0-42.667-19.157-42.667-42.667v-341.333c0-23.509 19.115-42.667 42.667-42.667h597.333c23.552 0 42.667 19.157 42.667 42.667v341.333zM426.667 234.667c0-11.776 9.6-21.333 21.333-21.333h128c11.733 0 21.333 9.557 21.333 21.333v64h-170.667v-64zM810.667 298.667h-128v-64c0-58.795-47.829-106.667-106.667-106.667h-128c-58.837 0-106.667 47.872-106.667 106.667v64h-128c-70.571 0-128 57.429-128 128v341.333c0 70.571 57.429 128 128 128h597.333c70.571 0 128-57.429 128-128v-341.333c0-70.571-57.429-128-128-128v0z"></path>
</svg>
