<!-- Generated by IcoMoon.io -->
<svg version="1.1" xmlns="http://www.w3.org/2000/svg" width="1024" height="1024" viewBox="0 0 1024 1024">
<title></title>
<g id="icomoon-ignore">
</g>
<path fill="#000" d="M810.667 768c0 23.552-19.115 42.667-42.667 42.667s-42.667-19.115-42.667-42.667c0-23.552 19.115-42.667 42.667-42.667s42.667 19.115 42.667 42.667v0zM512 640h-341.333l0.683-426.667h468.651l-0.683 426.667h-127.317zM298.667 768c0 23.552-19.115 42.667-42.667 42.667s-42.667-19.115-42.667-42.667c0-23.552 19.115-42.667 42.667-42.667s42.667 19.115 42.667 42.667v0zM853.333 532.48v107.52h-128v-209.877l128 102.357zM922.667 478.677l-197.333-157.867v-107.477c0-47.061-34.688-85.333-77.355-85.333h-485.333c-42.624 0-77.312 38.272-77.312 85.333v426.667c0 37.248 21.888 68.651 52.096 80.299-5.973 14.763-9.429 30.805-9.429 47.701 0 70.571 57.429 128 128 128s128-57.429 128-128c0-15.061-3.072-29.269-7.893-42.667h271.787c-4.821 13.397-7.893 27.605-7.893 42.667 0 70.571 57.429 128 128 128s128-57.429 128-128c0-15.061-3.072-29.269-7.893-42.667h7.893c23.595 0 42.667-19.072 42.667-42.667v-170.667c0-12.971-5.888-25.216-16-33.323v0z"></path>
</svg>
