<!-- Generated by IcoMoon.io -->
<svg version="1.1" xmlns="http://www.w3.org/2000/svg" width="1024" height="1024" viewBox="0 0 1024 1024">
<title></title>
<g id="icomoon-ignore">
</g>
<path fill="#000" d="M785.084 128c61.184 0 110.933 53.163 110.933 118.485v0 531.029c0 65.323-49.749 118.485-110.933 118.485v0h-59.733c-23.595 0-42.667-19.072-42.667-42.667s19.072-42.667 42.667-42.667v0h59.733c13.867 0 25.6-15.189 25.6-33.152v0-531.029c0-17.963-11.733-33.152-25.6-33.152v0h-546.176c-13.867 0-25.557 15.189-25.557 33.152v0 52.181c0 23.595-19.115 42.667-42.667 42.667-23.595 0-42.667-19.072-42.667-42.667v0-52.181c0-65.323 49.749-118.485 110.891-118.485v0zM164.834 599.168c60.587-8.277 119.723 11.563 162.731 54.528 57.045 57.131 72.533 144.597 38.443 217.685-7.253 15.488-22.613 24.619-38.699 24.619-6.059 0-12.203-1.28-18.005-4.011-21.333-9.941-30.592-35.328-20.651-56.704 18.987-40.661 10.411-89.429-21.419-121.216-23.979-23.936-57.003-34.901-90.752-30.421-23.595 3.371-44.885-13.056-48.085-36.395-3.243-23.339 13.099-44.885 36.437-48.085zM164.791 429.956c107.605-14.976 212.949 20.437 289.536 97.024 88.405 88.491 121.643 218.112 86.656 338.261-5.419 18.688-22.443 30.763-40.96 30.763-3.883 0-7.893-0.555-11.904-1.707-22.613-6.571-35.627-30.251-29.056-52.864 26.283-90.325 1.323-187.691-65.067-254.123-57.557-57.515-136.789-83.883-217.472-72.875-23.424 3.285-44.885-13.056-48.128-36.352-3.243-23.339 13.056-44.885 36.395-48.128zM170.667 768c23.595 0 42.667 19.072 42.667 42.667s-19.072 42.667-42.667 42.667c-23.595 0-42.667-19.072-42.667-42.667s19.072-42.667 42.667-42.667z"></path>
</svg>
