<svg xmlns="http://www.w3.org/2000/svg" width="24" height="25" viewBox="0 0 24 25">
    <path fill="#667181" stroke="#667181" stroke-width=".7" d="M21.316 9C22.244 9 23 9.767 23 10.705V24h-3.369V10.705c0-.94.757-1.705 1.685-1.705zm-6.202 4c.928 0 1.684.78 1.684 1.736L16.8 24h-3.37v-9.264c0-.957.758-1.736 1.685-1.736zm-6.227 3c.928 0 1.685.738 1.685 1.642V24h-3.37v-6.358c0-.904.758-1.642 1.685-1.642zm-6.202 3c.928 0 1.684.751 1.684 1.671V24H1v-3.329C1 19.751 1.757 19 2.685 19zM22.28 1c.028 0 .056.028.084.028.03 0 .057.028.085.028 0 0 .028.028.057.028.028.026.056.026.084.054h.03s0 .028.028.028.056.027.085.055c.027 0 .027.027.056.055.027.028.027.054.056.082.028.028.056.055.056.083l.015.041h0l.014.041c0 .028.029.055.029.083.028.028.028.055.028.083h0v.082s.03.027 0 .137h0V5.86c0 .495-.424.906-.932.906s-.932-.411-.932-.906h0V4.379C13.475 12.314 2.497 12.972 1.99 13h0-.056c-.48 0-.903-.357-.932-.852-.027-.494.367-.933.876-.96.14 0 11.006-.687 18.174-8.375h0-2.06c-.509 0-.932-.412-.932-.907 0-.494.423-.906.931-.906h0z"/>
</svg>
