<!-- Generated by IcoMoon.io -->
<svg version="1.1" xmlns="http://www.w3.org/2000/svg" width="1024" height="1024" viewBox="0 0 1024 1024">
<title></title>
<g id="icomoon-ignore">
</g>
<path fill="#000" d="M627.396 358.165l-161.451 212.011-69.675-89.003c-14.507-18.603-41.387-21.845-59.904-7.296-18.56 14.507-21.845 41.344-7.296 59.861l103.723 132.565c8.107 10.325 20.48 16.341 33.621 16.341h0.299c13.184-0.043 25.643-6.272 33.621-16.811l194.944-256c14.293-18.773 10.667-45.483-8.107-59.776-18.816-14.293-45.525-10.624-59.776 8.107zM512 853.333c-188.203 0-341.333-153.131-341.333-341.333s153.131-341.333 341.333-341.333c188.203 0 341.333 153.131 341.333 341.333s-153.131 341.333-341.333 341.333zM512 85.333c-235.648 0-426.667 191.061-426.667 426.667s191.019 426.667 426.667 426.667c235.648 0 426.667-191.061 426.667-426.667s-191.019-426.667-426.667-426.667z"></path>
</svg>
