<!-- Generated by IcoMoon.io -->
<svg version="1.1" xmlns="http://www.w3.org/2000/svg" width="1024" height="1024" viewBox="0 0 1024 1024">
<title></title>
<g id="icomoon-ignore">
</g>
<path fill="#000" d="M627.396 358.165l-161.451 212.011-69.675-89.003c-14.549-18.603-41.344-21.845-59.904-7.296-18.56 14.507-21.845 41.344-7.296 59.861l103.723 132.565c8.107 10.325 20.48 16.341 33.621 16.341h0.299c13.184-0.043 25.643-6.272 33.621-16.811l194.944-256c14.293-18.773 10.667-45.483-8.107-59.776s-45.568-10.624-59.776 8.107zM810.667 768c0 23.552-19.157 42.667-42.667 42.667h-512c-23.509 0-42.667-19.115-42.667-42.667v-512c0-23.552 19.157-42.667 42.667-42.667h512c23.509 0 42.667 19.115 42.667 42.667v512zM768 128h-512c-70.571 0-128 57.429-128 128v512c0 70.571 57.429 128 128 128h512c70.571 0 128-57.429 128-128v-512c0-70.571-57.429-128-128-128v0z"></path>
</svg>
