<!-- Generated by IcoMoon.io -->
<svg version="1.1" xmlns="http://www.w3.org/2000/svg" width="1024" height="1024" viewBox="0 0 1024 1024">
<title></title>
<g id="icomoon-ignore">
</g>
<path fill="#000" d="M695.27 409.835l-194.901 256c-8.021 10.539-20.437 16.768-33.664 16.853h-0.299c-13.099 0-25.472-6.059-33.579-16.384l-103.765-132.565c-14.507-18.517-11.264-45.355 7.296-59.861 18.56-14.549 45.355-11.307 59.904 7.296l69.675 89.003 161.451-212.011c14.251-18.731 41.045-22.4 59.819-8.107 18.731 14.293 22.357 41.045 8.064 59.776zM768.017 128.021h-512c-70.613 0-128 57.387-128 128v512c0 70.571 57.387 128 128 128h512c70.571 0 128-57.429 128-128v-512c0-70.613-57.429-128-128-128z"></path>
</svg>
