<!-- Generated by IcoMoon.io -->
<svg version="1.1" xmlns="http://www.w3.org/2000/svg" width="1024" height="1024" viewBox="0 0 1024 1024">
<title></title>
<g id="icomoon-ignore">
</g>
<path fill="#000" d="M510.763 85.338c33.92 0.512 68.48 3.925 101.589 11.861 22.869 5.547 36.992 28.587 31.445 51.499-5.504 22.869-28.672 36.949-51.456 31.488-26.496-6.4-54.613-9.088-81.323-9.515-91.179 0.256-176.811 36.011-241.067 100.651-64.299 64.64-99.541 150.485-99.285 241.664s36.011 176.768 100.651 241.067c64.427 64.043 149.845 99.285 240.683 99.285v0h0.981c91.179-0.256 176.811-36.011 241.067-100.651 64.299-64.683 99.541-150.485 99.285-241.664-0.043-23.552 18.987-42.752 42.539-42.795v0c23.637 0 42.752 19.029 42.797 42.539 0.339 113.963-43.735 221.269-124.119 302.080-80.341 80.811-187.349 125.483-301.312 125.824v0h-1.237c-113.536 0-220.331-44.032-300.843-124.117-80.811-80.341-125.483-187.349-125.826-301.312-0.339-114.005 43.735-221.269 124.119-302.080 80.341-80.811 187.349-125.483 301.312-125.824zM778.581 270.549c15.531-17.621 42.453-19.499 60.203-3.968 17.707 15.488 19.499 42.453 3.968 60.203v0l-298.667 341.333c-7.765 8.875-18.859 14.123-30.677 14.549v0h-1.408c-11.307 0-22.144-4.48-30.165-12.501v0l-128-128c-16.683-16.683-16.683-43.648 0-60.331s43.648-16.683 60.331 0v0l95.744 95.744z"></path>
</svg>
