<!-- Generated by IcoMoon.io -->
<svg version="1.1" xmlns="http://www.w3.org/2000/svg" width="1024" height="1024" viewBox="0 0 1024 1024">
<title></title>
<g id="icomoon-ignore">
</g>
<path fill="#000" d="M647.125 128.021c23.552 0 42.667 19.072 42.667 42.667 0 23.552-19.115 42.667-42.667 42.667v0h-408.192c-14.123 0-25.6 11.477-25.6 25.6v0 546.091c0 14.123 11.477 25.643 25.6 25.643v0h546.133c14.123 0 25.6-11.52 25.6-25.643v0-237.483c0-23.552 19.115-42.667 42.667-42.667s42.667 19.115 42.667 42.667v0 237.483c0 61.184-49.792 110.976-110.933 110.976v0h-546.133c-61.141 0-110.933-49.792-110.933-110.976v0-546.091c0-61.184 49.792-110.933 110.933-110.933v0zM780.015 268.992c16.341-16.896 43.349-17.408 60.331-0.981 16.939 16.384 17.365 43.392 0.981 60.331v0l-289.152 298.667c-8.021 8.32-19.072 13.013-30.635 13.013v0c-11.776-0.043-22.869-4.821-30.891-13.227v0l-94.848-99.413c-16.299-17.067-15.616-44.075 1.408-60.331 17.067-16.299 44.032-15.616 60.331 1.408v0l64.213 67.328z"></path>
</svg>
