<!-- Generated by IcoMoon.io -->
<svg version="1.1" xmlns="http://www.w3.org/2000/svg" width="1024" height="1024" viewBox="0 0 1024 1024">
<title></title>
<g id="icomoon-ignore">
</g>
<path fill="#000" d="M768 170.667c70.571 0 128 57.429 128 128v0 512c0 70.571-57.429 128-128 128v0h-512c-70.571 0-128-57.429-128-128v0-512c0-70.571 57.429-128 128-128v0 128c0 47.061 38.272 85.333 85.333 85.333v0h341.333c47.061 0 85.333-38.272 85.333-85.333v0zM682.667 85.333c23.552 0 42.667 19.072 42.667 42.667v170.667c0 23.595-19.115 42.667-42.667 42.667h-341.333c-23.552 0-42.667-19.072-42.667-42.667v-170.667c0-23.595 19.115-42.667 42.667-42.667h341.333z"></path>
</svg>
