<!-- Generated by IcoMoon.io -->
<svg version="1.1" xmlns="http://www.w3.org/2000/svg" width="1024" height="1024" viewBox="0 0 1024 1024">
<title></title>
<g id="icomoon-ignore">
</g>
<path fill="#000" d="M810.667 810.667c0 23.552-19.157 42.667-42.667 42.667h-512c-23.509 0-42.667-19.115-42.667-42.667v-469.333c0-23.552 19.157-42.667 42.667-42.667v42.667c0 47.061 38.272 85.333 85.333 85.333h341.333c47.061 0 85.333-38.272 85.333-85.333v-42.667c23.509 0 42.667 19.115 42.667 42.667v469.333zM341.333 170.667l341.333 0.128v170.539h-341.333v-170.667zM768 213.333v-42.667c0-47.061-38.272-85.333-85.333-85.333h-341.333c-47.061 0-85.333 38.272-85.333 85.333v42.667c-70.571 0-128 57.429-128 128v469.333c0 70.571 57.429 128 128 128h512c70.571 0 128-57.429 128-128v-469.333c0-70.571-57.429-128-128-128v0z"></path>
</svg>
