<!-- Generated by IcoMoon.io -->
<svg version="1.1" xmlns="http://www.w3.org/2000/svg" width="1024" height="1024" viewBox="0 0 1024 1024">
<title></title>
<g id="icomoon-ignore">
</g>
<path fill="#000" d="M627.499 396.501c-16.683-16.683-43.648-16.683-60.331 0l-55.168 55.168-55.168-55.168c-16.683-16.683-43.648-16.683-60.331 0s-16.683 43.648 0 60.331l55.168 55.168-55.168 55.168c-16.683 16.683-16.683 43.648 0 60.331 8.32 8.32 19.243 12.501 30.165 12.501s21.845-4.181 30.165-12.501l55.168-55.168 55.168 55.168c8.32 8.32 19.243 12.501 30.165 12.501s21.845-4.181 30.165-12.501c16.683-16.683 16.683-43.648 0-60.331l-55.168-55.168 55.168-55.168c16.683-16.683 16.683-43.648 0-60.331zM810.667 768c0 23.552-19.115 42.667-42.667 42.667h-512c-23.552 0-42.667-19.115-42.667-42.667v-512c0-23.552 19.115-42.667 42.667-42.667h512c23.552 0 42.667 19.115 42.667 42.667v512zM768 128h-512c-70.571 0-128 57.429-128 128v512c0 70.571 57.429 128 128 128h512c70.571 0 128-57.429 128-128v-512c0-70.571-57.429-128-128-128v0z"></path>
</svg>
