<!-- Generated by IcoMoon.io -->
<svg version="1.1" xmlns="http://www.w3.org/2000/svg" width="1024" height="1024" viewBox="0 0 1024 1024">
<title></title>
<g id="icomoon-ignore">
</g>
<path fill="#000" d="M627.499 567.164c16.683 16.683 16.683 43.648 0 60.331-8.32 8.32-19.243 12.501-30.165 12.501s-21.845-4.181-30.165-12.501l-55.168-55.168-55.168 55.168c-8.32 8.32-19.243 12.501-30.165 12.501s-21.845-4.181-30.165-12.501c-16.683-16.683-16.683-43.648 0-60.331l55.168-55.168-55.168-55.168c-16.683-16.683-16.683-43.648 0-60.331s43.648-16.683 60.331 0l55.168 55.168 55.168-55.168c16.683-16.683 43.648-16.683 60.331 0s16.683 43.648 0 60.331l-55.168 55.168 55.168 55.168zM512 85.329c-235.264 0-426.667 191.403-426.667 426.667s191.403 426.667 426.667 426.667c235.264 0 426.667-191.403 426.667-426.667s-191.403-426.667-426.667-426.667v0z"></path>
</svg>
