<!-- Generated by IcoMoon.io -->
<svg version="1.1" xmlns="http://www.w3.org/2000/svg" width="1024" height="1024" viewBox="0 0 1024 1024">
<title></title>
<g id="icomoon-ignore">
</g>
<path fill="#000" d="M482.347 481.28c16.811-16.043 43.392-15.915 59.819 0.555v0l128 128c16.683 16.683 16.683 43.648 0 60.331-8.32 8.32-19.243 12.501-30.165 12.501s-21.845-4.181-30.165-12.501v0l-55.168-55.168v238.336c0 23.595-19.115 42.667-42.667 42.667s-42.667-19.072-42.667-42.667v0-240.811l-55.68 53.76c-16.939 16.427-43.947 15.872-60.331-1.067-16.384-16.981-15.915-43.947 1.024-60.331v0zM511.991 170.675c110.123 0 207.147 70.869 242.133 172.587 2.603 0.341 5.035 1.28 7.595 1.749 5.931 0.981 11.605 2.475 17.323 4.011 7.253 1.877 14.379 3.968 21.291 6.613 5.803 2.176 11.392 4.608 16.896 7.296 6.315 3.029 12.416 6.315 18.389 9.984 5.419 3.243 10.667 6.656 15.744 10.411 5.419 4.011 10.539 8.363 15.573 12.885 4.779 4.267 9.429 8.448 13.824 13.141 4.651 4.992 8.789 10.325 12.928 15.701 3.84 4.949 7.723 9.771 11.136 15.104 3.883 6.101 7.040 12.544 10.325 19.072 2.645 5.291 5.589 10.325 7.808 15.872 3.157 7.723 5.291 15.915 7.509 24.064 1.28 4.779 3.072 9.387 4.053 14.293 2.645 13.355 4.139 27.093 4.139 41.216 0 13.141-1.536 26.069-3.925 38.827-0.768 4.224-1.92 8.192-2.901 12.288-2.133 8.491-4.651 16.811-7.765 24.96-1.621 4.224-3.285 8.363-5.163 12.459-3.712 8.107-8.021 15.872-12.757 23.509-1.963 3.157-3.669 6.443-5.803 9.515-0.811 1.152-1.365 2.389-2.176 3.499-0.597 0.853-1.621 1.152-2.261 1.877-38.912 52.139-100.523 86.4-170.581 86.4v0h-128v-54.059c12.843 7.424 27.435 11.392 42.667 11.392 22.784 0 44.203-8.875 60.331-25.003 33.28-33.237 33.28-87.424 0-120.661v0l-128-128c-16.043-16.085-37.461-24.96-60.245-24.96-22.144 0-43.179 8.405-59.221 23.723v0l-128.128 123.733c-33.835 32.683-34.773 86.827-2.091 120.661 16.043 16.597 38.4 26.112 61.44 26.112 15.147 0 29.739-3.968 42.581-11.392v0 58.453h-128c-70.059 0-131.669-34.261-170.539-86.4-0.683-0.725-1.707-1.024-2.304-1.877v0l-2.133-3.499c-2.133-3.072-3.883-6.357-5.845-9.515-4.693-7.637-9.045-15.403-12.757-23.509-1.877-4.096-3.499-8.235-5.163-12.459-3.072-8.149-5.632-16.469-7.723-24.96-1.024-4.096-2.176-8.064-2.944-12.288-2.347-12.757-3.925-25.685-3.925-38.827 0-14.123 1.536-27.861 4.139-41.216 0.981-4.907 2.773-9.515 4.096-14.293 2.219-8.149 4.352-16.341 7.467-24.064 2.219-5.547 5.163-10.581 7.808-15.872 3.285-6.528 6.443-12.971 10.368-19.072 3.371-5.333 7.296-10.155 11.093-15.104 4.181-5.376 8.32-10.709 12.971-15.701 4.352-4.693 9.045-8.875 13.781-13.141 5.035-4.523 10.155-8.875 15.616-12.885 5.077-3.755 10.283-7.168 15.701-10.411 5.973-3.669 12.075-6.955 18.389-9.984 5.547-2.688 11.093-5.12 16.896-7.296 6.912-2.645 14.037-4.736 21.291-6.613 5.76-1.536 11.392-3.029 17.365-4.011 2.56-0.469 4.949-1.408 7.552-1.749 35.029-101.717 132.053-172.587 242.133-172.587z"></path>
</svg>
