<!-- Generated by IcoMoon.io -->
<svg version="1.1" xmlns="http://www.w3.org/2000/svg" width="1024" height="1024" viewBox="0 0 1024 1024">
<title></title>
<g id="icomoon-ignore">
</g>
<path fill="#000" d="M482.347 481.28c16.811-16.043 43.392-15.915 59.819 0.555v0l128 128c16.683 16.683 16.683 43.648 0 60.331-8.32 8.32-19.243 12.501-30.165 12.501s-21.845-4.181-30.165-12.501v0l-55.168-55.168v238.336c0 23.595-19.115 42.667-42.667 42.667s-42.667-19.072-42.667-42.667v0-240.811l-55.68 53.76c-16.939 16.427-43.947 15.872-60.331-1.067-16.384-16.981-15.915-43.947 1.024-60.331v0zM511.991 127.996c110.123 0 207.147 70.869 242.133 172.587 104.064 14.123 184.533 103.552 184.533 211.413 0 52.096-18.944 102.229-53.333 141.184-8.448 9.515-20.181 14.427-32 14.427-10.027 0-20.096-3.504-28.245-10.672-17.621-15.659-19.328-42.581-3.712-60.288 20.608-23.296 31.957-53.419 31.957-84.651 0-70.571-57.429-128-128-128v0h-4.267c-20.309 0-37.803-14.336-41.813-34.261-15.957-79.019-86.272-136.405-167.253-136.405-80.939 0-151.296 57.387-167.211 136.405-4.011 19.925-21.547 34.261-41.856 34.261v0h-4.267c-70.571 0-128 57.429-128 128 0 31.232 11.349 61.355 32 84.651 15.573 17.707 13.909 44.629-3.755 60.288-17.664 15.616-44.629 13.867-60.203-3.755-34.432-38.955-53.376-89.088-53.376-141.184 0-107.861 80.469-197.291 184.533-211.413 35.029-101.717 132.053-172.587 242.133-172.587z"></path>
</svg>
