<!-- Generated by IcoMoon.io -->
<svg version="1.1" xmlns="http://www.w3.org/2000/svg" width="1024" height="1024" viewBox="0 0 1024 1024">
<title></title>
<g id="icomoon-ignore">
</g>
<path fill="#000" d="M512.009 469.325c23.552 0 42.667 19.072 42.667 42.667v0 240.811l55.68-53.76c16.981-16.341 43.989-15.872 60.331 1.067 16.384 16.981 15.915 43.989-1.024 60.331v0l-128 123.605c-8.32 7.936-18.987 11.947-29.653 11.947-10.923 0-21.845-4.139-30.165-12.501v0l-128-128c-16.683-16.64-16.683-43.648 0-60.331 16.64-16.64 43.648-16.64 60.331 0v0l55.168 55.168v-238.336c0-23.595 19.115-42.667 42.667-42.667zM511.991 128.009c110.123 0 207.147 70.869 242.133 172.587 2.603 0.341 5.035 1.28 7.595 1.749 5.931 0.981 11.605 2.475 17.323 4.011 7.253 1.877 14.379 3.968 21.291 6.613 5.803 2.176 11.392 4.608 16.896 7.296 6.315 3.029 12.416 6.315 18.389 9.984 5.419 3.243 10.667 6.656 15.744 10.411 5.419 4.011 10.539 8.363 15.573 12.885 4.779 4.267 9.429 8.448 13.824 13.141 4.651 4.992 8.789 10.325 12.928 15.701 3.84 4.949 7.723 9.771 11.136 15.104 3.883 6.101 7.040 12.544 10.325 19.072 2.645 5.291 5.589 10.325 7.808 15.872 3.157 7.723 5.291 15.915 7.509 24.064 1.28 4.779 3.072 9.387 4.053 14.293 2.645 13.355 4.139 27.093 4.139 41.216 0 13.141-1.536 26.069-3.925 38.827-0.768 4.224-1.92 8.192-2.901 12.288-2.133 8.491-4.651 16.811-7.765 24.96-1.621 4.224-3.285 8.363-5.163 12.459-3.712 8.107-8.021 15.872-12.757 23.509-1.963 3.157-3.669 6.443-5.803 9.515-0.811 1.152-1.365 2.389-2.176 3.499-0.597 0.853-1.621 1.152-2.261 1.877-38.912 52.139-100.523 86.4-170.581 86.4v0h-0.512c-1.024-19.883-8.576-39.467-23.424-54.827-15.957-16.597-38.357-26.112-61.397-26.112-15.189 0-29.824 3.968-42.667 11.435v0-143.829c0-47.061-38.272-85.333-85.333-85.333-47.019 0-85.333 38.272-85.333 85.333v0 139.349c-12.843-7.381-27.435-11.349-42.667-11.349-22.784 0-44.203 8.875-60.331 25.003-16.64 16.597-24.96 38.485-24.96 60.331v0l-11.032-0.282c-65.491-3.374-122.725-36.723-159.549-86.118-0.683-0.725-1.707-1.024-2.304-1.877v0l-2.133-3.499c-2.133-3.072-3.883-6.357-5.845-9.515-4.693-7.637-9.045-15.403-12.757-23.509-1.877-4.096-3.499-8.235-5.163-12.459-3.072-8.149-5.632-16.469-7.723-24.96-1.024-4.096-2.176-8.064-2.944-12.288-2.347-12.757-3.925-25.685-3.925-38.827 0-14.123 1.536-27.861 4.139-41.216 0.981-4.907 2.773-9.515 4.096-14.293 2.219-8.149 4.352-16.341 7.467-24.064 2.219-5.547 5.163-10.581 7.808-15.872 3.285-6.528 6.443-12.971 10.368-19.072 3.371-5.333 7.296-10.155 11.093-15.104 4.181-5.376 8.32-10.709 12.971-15.701 4.352-4.693 9.045-8.875 13.781-13.141 5.035-4.523 10.155-8.875 15.616-12.885 5.077-3.755 10.283-7.168 15.701-10.411 5.973-3.669 12.075-6.955 18.389-9.984 5.547-2.688 11.093-5.12 16.896-7.296 6.912-2.645 14.037-4.736 21.291-6.613 5.76-1.536 11.392-3.029 17.365-4.011 2.56-0.469 4.949-1.408 7.552-1.749 35.029-101.717 132.053-172.587 242.133-172.587z"></path>
</svg>
