<!-- Generated by IcoMoon.io -->
<svg version="1.1" xmlns="http://www.w3.org/2000/svg" width="1024" height="1024" viewBox="0 0 1024 1024">
<title></title>
<g id="icomoon-ignore">
</g>
<path fill="#000" d="M308.523 228.681c15.147-18.091 41.984-20.523 60.16-5.461 18.048 15.061 20.523 41.984 5.461 60.117v0l-191.019 229.12 184.107 228.779c14.763 18.389 11.904 45.227-6.485 60.032-7.851 6.315-17.323 9.387-26.709 9.387-12.501 0-24.832-5.461-33.28-15.915v0l-205.995-256c-12.757-15.829-12.544-38.443 0.427-54.059v0zM663.266 222.763c18.304-14.848 45.141-11.861 59.989 6.485v0l205.995 256c12.757 15.829 12.544 38.443-0.469 54.101v0l-213.333 256c-8.448 10.112-20.565 15.317-32.811 15.317-9.643 0-19.285-3.243-27.307-9.856-18.091-15.104-20.523-42.027-5.461-60.16v0l191.019-229.12-184.149-228.779c-14.72-18.389-11.861-45.227 6.528-59.989zM511.987 298.675c23.595 0 42.667 19.072 42.667 42.667v0 198.144l55.723-53.76c16.896-16.384 43.989-15.829 60.331 1.067 16.341 16.939 15.872 43.947-1.067 60.331v0l-128 123.605c-8.277 7.936-18.987 11.947-29.653 11.947-10.923 0-21.803-4.181-30.165-12.501v0l-128-128c-16.64-16.683-16.64-43.691 0-60.331 16.683-16.683 43.691-16.683 60.331 0v0l55.168 55.125v-195.627c0-23.595 19.115-42.667 42.667-42.667z"></path>
</svg>
