<!-- Generated by IcoMoon.io -->
<svg version="1.1" xmlns="http://www.w3.org/2000/svg" width="1024" height="1024" viewBox="0 0 1024 1024">
<title></title>
<g id="icomoon-ignore">
</g>
<path fill="#000" d="M308.548 228.668c15.061-18.091 41.899-20.523 60.117-5.461 18.091 15.104 20.523 41.984 5.461 60.117v0l-191.019 229.12 184.149 228.821c14.72 18.347 11.861 45.184-6.528 59.989-7.851 6.315-17.323 9.429-26.709 9.429-12.459 0-24.832-5.461-33.28-15.915v0l-205.995-256c-12.757-15.872-12.544-38.485 0.469-54.101v0zM663.266 222.763c18.347-14.848 45.184-11.861 59.989 6.485v0l205.995 256c12.757 15.829 12.544 38.443-0.469 54.101v0l-213.333 256c-8.448 10.112-20.565 15.317-32.811 15.317-9.643 0-19.285-3.243-27.307-9.856-18.091-15.104-20.523-42.027-5.461-60.16v0l191.019-229.12-184.149-228.779c-14.72-18.389-11.861-45.227 6.528-59.989z"></path>
</svg>
