<!-- Generated by IcoMoon.io -->
<svg version="1.1" xmlns="http://www.w3.org/2000/svg" width="1024" height="1024" viewBox="0 0 1024 1024">
<title></title>
<g id="icomoon-ignore">
</g>
<path fill="#000" d="M262.874 480.29c29.312-19.797 69.077-12.032 88.832 17.237 19.797 29.312 12.032 69.077-17.237 88.832-29.312 19.797-69.077 12.075-88.832-17.237-19.797-29.269-12.075-69.077 17.237-88.832zM650.667 307.251c30.635-17.664 69.76-7.168 87.424 23.424 17.664 30.635 7.168 69.76-23.424 87.424-30.635 17.664-69.76 7.211-87.424-23.424-17.664-30.592-7.168-69.76 23.424-87.424zM285.909 330.675c17.664-30.592 56.832-41.088 87.424-23.424 30.635 17.664 41.088 56.832 23.424 87.424-17.664 30.635-56.789 41.088-87.424 23.424-30.592-17.664-41.088-56.789-23.424-87.424zM512 213.333c35.328 0 64 28.672 64 64s-28.672 64-64 64c-35.328 0-64-28.672-64-64s28.672-64 64-64zM677.585 640.043h-70.4c-58.837 0-106.667 47.829-106.667 106.667 0 25.856 9.557 50.901 26.923 70.528 5.291 5.973 7.040 13.013 5.163 20.821-2.091 8.747-12.16 14.421-25.344 15.275-97.408-1.323-189.867-44.459-253.696-118.315-64.64-74.88-92.971-170.837-79.744-270.165 21.803-163.541 168.875-292.779 334.891-294.187h3.2c100.565 0 195.328 38.4 260.565 105.728 54.955 56.704 83.627 129.024 80.64 203.605-3.371 85.248-85.419 160.043-175.531 160.043zM833.702 216.96c-82.048-84.651-201.6-131.925-325.717-131.628h-0.043c-210.944 1.793-390.997 160.087-418.688 368.257-16.299 122.027 20.096 244.949 99.755 337.195 79.701 92.331 195.285 146.219 317.056 147.883h1.621c51.2 0 96.341-33.579 107.819-80.469 8.491-35.072-0.341-70.656-24.192-97.621-3.499-3.883-5.461-8.96-5.461-13.867 0-11.733 9.557-21.333 21.333-21.333h70.4c136.192 0 255.616-110.848 260.779-242.005 3.925-98.133-33.237-192.725-104.661-266.411z"></path>
</svg>
