<!-- Generated by IcoMoon.io -->
<svg version="1.1" xmlns="http://www.w3.org/2000/svg" width="1024" height="1024" viewBox="0 0 1024 1024">
<title></title>
<g id="icomoon-ignore">
</g>
<path fill="#000" d="M714.667 332.749c-30.635 17.664-69.76 7.168-87.424-23.424-17.664-30.635-7.168-69.76 23.424-87.424 30.635-17.664 69.76-7.168 87.424 23.424 17.664 30.635 7.168 69.76-23.424 87.424zM469.333 298.658c-35.328 0-64-28.672-64-64s28.672-64 64-64c35.328 0 64 28.672 64 64s-28.672 64-64 64zM354.091 394.658c-17.664 30.592-56.789 41.088-87.424 23.424-30.592-17.664-41.088-56.789-23.424-87.424 17.664-30.592 56.789-41.088 87.424-23.424 30.592 17.664 41.088 56.789 23.424 87.424zM291.797 629.026c-29.312 19.797-69.077 12.075-88.832-17.237-19.797-29.269-12.032-69.077 17.237-88.832 29.312-19.797 69.077-12.032 88.832 17.237 19.797 29.312 12.032 69.077-17.237 88.832zM833.707 216.951c-82.048-84.651-201.643-131.925-325.717-131.628h-0.043c-210.944 1.793-390.997 160.087-418.688 368.257-16.299 122.027 20.053 244.949 99.755 337.195 79.701 92.331 195.285 146.219 317.056 147.883h1.579c51.243 0 96.384-33.579 107.861-80.469 8.491-35.072-0.341-70.656-24.235-97.621-3.456-3.84-5.461-8.96-5.461-13.867 0-11.733 9.6-21.333 21.333-21.333h70.443c136.192 0 255.616-110.848 260.779-242.005 3.925-98.133-33.237-192.725-104.661-266.411z"></path>
</svg>
