<!-- Generated by IcoMoon.io -->
<svg version="1.1" xmlns="http://www.w3.org/2000/svg" width="1024" height="1024" viewBox="0 0 1024 1024">
<title></title>
<g id="icomoon-ignore">
</g>
<path fill="#000" d="M685.043 454.042l-115.029-115.029 81.579-81.536 114.944 114.944-81.493 81.621zM387.358 751.983l-126.976 11.563 11.264-126.123 238.037-238.080 115.029 115.029-237.355 237.611zM827.849 313.028l-116.907-116.864c-32.725-32.768-84.736-33.963-115.797-2.901l-85.461 85.419-52.864-52.864c-16.64-16.64-43.648-16.64-60.331 0-16.64 16.683-16.64 43.691 0 60.331l52.864 52.864-238.080 238.080c-13.867 13.867-22.485 32.299-24.277 51.797l-16.171 177.92c-1.109 12.587 3.371 25.045 12.331 34.005 8.064 8.064 18.944 12.501 30.165 12.501 1.323 0 2.603-0.043 3.883-0.171l177.92-16.128c19.499-1.792 37.931-10.453 51.797-24.32l238.080-238.037 52.821 52.821c8.363 8.363 19.243 12.501 30.165 12.501s21.845-4.139 30.165-12.501c16.683-16.64 16.683-43.648 0-60.331l-52.821-52.821 85.419-85.461c31.147-31.104 29.824-83.072-2.901-115.84v0z"></path>
</svg>
