<!-- Generated by IcoMoon.io -->
<svg version="1.1" xmlns="http://www.w3.org/2000/svg" width="1024" height="1024" viewBox="0 0 1024 1024">
<title></title>
<g id="icomoon-ignore">
</g>
<path fill="#000" d="M271.625 637.419l238.037-238.080 115.029 115.029-119.040 119.296zM827.827 313.024l-116.864-116.864c-32.768-32.768-84.736-33.963-115.84-2.901l-85.461 85.419-52.821-52.821c-16.683-16.683-43.691-16.683-60.331 0-16.683 16.64-16.683 43.648 0 60.331l52.821 52.821-238.037 238.080c-13.867 13.867-22.485 32.299-24.277 51.797l-16.171 177.92c-1.152 12.629 3.371 25.088 12.331 34.048 8.021 8.021 18.901 12.501 30.165 12.501 1.28 0 2.56-0.043 3.883-0.171l177.92-16.171c19.499-1.792 37.888-10.411 51.755-24.32l238.080-238.037 52.864 52.864c8.32 8.32 19.243 12.501 30.165 12.501s21.845-4.181 30.165-12.501c16.64-16.683 16.64-43.691 0-60.331l-52.821-52.864 85.376-85.461c31.147-31.104 29.867-83.072-2.901-115.84z"></path>
</svg>
