<!-- Generated by IcoMoon.io -->
<svg version="1.1" xmlns="http://www.w3.org/2000/svg" width="1024" height="1024" viewBox="0 0 1024 1024">
<title></title>
<g id="icomoon-ignore">
</g>
<path fill="#000" d="M460.668 563.75l30.464-74.325 72.192-29.184-30.464 74.325-72.192 29.184zM669.137 354.897c-11.691-12.373-30.037-17.152-46.891-10.496l-179.755 72.619c-10.667 4.309-19.157 12.715-23.509 23.381l-74.453 181.675c-6.315 15.403-2.603 32.043 7.595 43.861 0.341 0.427 0.597 0.981 0.981 1.451 0.683 0.725 1.493 1.323 2.261 2.048 8.021 8.235 18.901 13.227 30.421 13.227 5.333 0 10.752-0.981 15.957-3.072l179.755-72.576c10.667-4.352 19.157-12.757 23.509-23.424l74.453-181.675c6.912-16.811 2.133-35.243-10.325-47.019v0zM512 853.333c-188.203 0-341.333-153.131-341.333-341.333s153.131-341.333 341.333-341.333c188.203 0 341.333 153.131 341.333 341.333s-153.131 341.333-341.333 341.333zM512 85.333c-235.264 0-426.667 191.403-426.667 426.667s191.403 426.667 426.667 426.667c235.264 0 426.667-191.403 426.667-426.667s-191.403-426.667-426.667-426.667z"></path>
</svg>
