<!-- Generated by IcoMoon.io -->
<svg version="1.1" xmlns="http://www.w3.org/2000/svg" width="1024" height="1024" viewBox="0 0 1024 1024">
<title></title>
<g id="icomoon-ignore">
</g>
<path fill="#000" d="M460.668 563.75l72.192-29.184 30.464-74.325-72.192 29.184-30.464 74.325zM679.479 401.916l-74.496 181.675c-4.352 10.667-12.8 19.072-23.467 23.424l-179.755 72.576c-5.248 2.091-10.667 3.072-15.957 3.072-11.563 0-22.4-4.992-30.421-13.227-0.768-0.725-1.579-1.323-2.304-2.048-0.384-0.469-0.64-1.024-0.981-1.493-10.155-11.776-13.909-28.416-7.595-43.819l74.496-181.675c4.352-10.667 12.843-19.072 23.509-23.381l179.755-72.619c16.811-6.656 35.2-1.877 46.891 10.496 12.416 11.776 17.195 30.208 10.325 47.019zM512.013 85.329c-235.264 0-426.667 191.403-426.667 426.667s191.403 426.667 426.667 426.667c235.264 0 426.667-191.403 426.667-426.667s-191.403-426.667-426.667-426.667z"></path>
</svg>
