<!-- Generated by IcoMoon.io -->
<svg version="1.1" xmlns="http://www.w3.org/2000/svg" width="1024" height="1024" viewBox="0 0 1024 1024">
<title></title>
<g id="icomoon-ignore">
</g>
<path fill="#000" d="M384 512v42.667h-142.208c-15.701 0-28.459-12.757-28.459-28.459v-284.416c0-15.701 12.757-28.459 28.459-28.459h284.416c15.701 0 28.459 12.757 28.459 28.459v142.208h-42.667c-70.571 0-128 57.429-128 128zM768 384h-128v-142.208c0-62.763-51.029-113.792-113.792-113.792h-284.416c-62.763 0-113.792 51.029-113.792 113.792v284.416c0 62.763 51.029 113.792 113.792 113.792h142.208v128c0 70.571 57.429 128 128 128h256c70.571 0 128-57.429 128-128v-256c0-70.571-57.429-128-128-128z"></path>
</svg>
