<!-- Generated by IcoMoon.io -->
<svg version="1.1" xmlns="http://www.w3.org/2000/svg" width="1024" height="1024" viewBox="0 0 1024 1024">
<title></title>
<g id="icomoon-ignore">
</g>
<path fill="#000" d="M512 469.333c-23.509 0-42.667 19.157-42.667 42.667v256c0 23.509 19.157 42.667 42.667 42.667h256c23.552 0 42.667-19.157 42.667-42.667v-256c0-23.509-19.115-42.667-42.667-42.667h-256zM526.208 128c62.763 0 113.792 51.029 113.792 113.792v142.208h128c70.571 0 128 57.429 128 128v256c0 70.571-57.429 128-128 128h-256c-70.571 0-128-57.429-128-128v-128h-142.208c-62.763 0-113.792-51.029-113.792-113.792v-284.416c0-62.763 51.029-113.792 113.792-113.792h284.416zM526.208 213.333h-284.416c-15.701 0-28.459 12.757-28.459 28.459v284.416c0 15.701 12.757 28.459 28.459 28.459h142.208v-42.667c0-70.571 57.429-128 128-128h42.667v-142.208c0-15.701-12.757-28.459-28.459-28.459z"></path>
</svg>
