<!-- Generated by IcoMoon.io -->
<svg version="1.1" xmlns="http://www.w3.org/2000/svg" width="1024" height="1024" viewBox="0 0 1024 1024">
<title></title>
<g id="icomoon-ignore">
</g>
<path fill="#000" d="M768 725.333h-213.333c-23.509 0-42.667-19.157-42.667-42.667v-380.544l144 115.2c7.893 6.272 17.28 9.344 26.667 9.344 12.459 0 24.875-5.461 33.323-16 14.72-18.432 11.733-45.269-6.656-59.989l-213.333-170.667c-15.616-12.459-37.717-12.459-53.333 0l-213.333 170.667c-18.389 14.72-21.376 41.557-6.656 59.989 14.677 18.389 41.6 21.333 59.989 6.656l144-115.2v380.544c0 70.571 57.429 128 128 128h213.333c23.552 0 42.667-19.115 42.667-42.667s-19.115-42.667-42.667-42.667z"></path>
</svg>
