<!-- Generated by IcoMoon.io -->
<svg version="1.1" xmlns="http://www.w3.org/2000/svg" width="1024" height="1024" viewBox="0 0 1024 1024">
<title></title>
<g id="icomoon-ignore">
</g>
<path fill="#000" d="M768 213.333h-213.331c-70.57 0-127.999 57.429-127.999 128v380.544l-143.998-115.2c-18.389-14.677-45.312-11.733-59.989 6.656-14.72 18.432-11.733 45.269 6.656 59.989l213.331 170.667c7.808 6.229 17.237 9.344 26.666 9.344s18.858-3.115 26.666-9.344l213.331-170.667c18.389-14.72 21.376-41.557 6.656-59.989-14.677-18.389-41.557-21.376-59.989-6.656l-143.998 115.2v-380.544c0-23.509 19.157-42.667 42.666-42.667h213.331c23.552 0 42.666-19.115 42.666-42.667s-19.114-42.667-42.666-42.667z"></path>
</svg>
