<!-- Generated by IcoMoon.io -->
<svg version="1.1" xmlns="http://www.w3.org/2000/svg" width="1024" height="1024" viewBox="0 0 1024 1024">
<title></title>
<g id="icomoon-ignore">
</g>
<path fill="#000" d="M843.998 442.688l-170.667-213.333c-14.805-18.389-41.6-21.419-59.989-6.656-18.389 14.677-21.376 41.557-6.656 59.947l115.243 144.043h-380.587c-70.613 0-128 57.387-128 128v213.333c0 23.552 19.115 42.667 42.667 42.667s42.667-19.115 42.667-42.667v-213.333c0-23.552 19.115-42.667 42.667-42.667h380.587l-115.243 144c-14.72 18.389-11.733 45.269 6.656 59.947 7.851 6.315 17.28 9.387 26.624 9.387 12.544 0 24.917-5.504 33.365-16.043l170.667-213.333c12.459-15.573 12.459-37.717 0-53.291z"></path>
</svg>
