<!-- Generated by IcoMoon.io -->
<svg version="1.1" xmlns="http://www.w3.org/2000/svg" width="1024" height="1024" viewBox="0 0 1024 1024">
<title></title>
<g id="icomoon-ignore">
</g>
<path fill="#000" d="M843.981 528.021l-170.667-213.333c-14.72-18.432-41.6-21.376-59.947-6.656-18.432 14.677-21.419 41.557-6.699 59.947l115.243 144.043h-380.587c-23.509 0-42.667-19.157-42.667-42.667v-213.333c0-23.595-19.115-42.667-42.667-42.667s-42.667 19.072-42.667 42.667v213.333c0 70.571 57.429 128 128 128h380.587l-115.243 144c-14.72 18.389-11.733 45.269 6.699 59.947 7.851 6.315 17.28 9.387 26.624 9.387 12.501 0 24.917-5.504 33.323-16.043l170.667-213.333c12.459-15.573 12.459-37.717 0-53.291z"></path>
</svg>
