<!-- Generated by IcoMoon.io -->
<svg version="1.1" xmlns="http://www.w3.org/2000/svg" width="1024" height="1024" viewBox="0 0 1024 1024">
<title></title>
<g id="icomoon-ignore">
</g>
<path fill="#000" d="M852.075 255.829c-0.085-23.509-19.2-42.496-42.667-42.496h-0.171c-23.552 0.085-42.581 19.285-42.496 42.837l0.896 213.333c0 11.392-4.352 22.144-12.373 30.208-8.064 8.107-18.731 12.587-30.123 12.629l-380.544 1.579 114.603-144.469c14.635-18.475 11.52-45.312-6.912-59.947s-45.269-11.477-59.947 6.912l-169.771 214.016c-12.416 15.659-12.288 37.76 0.213 53.333l171.52 212.608c8.448 10.453 20.779 15.872 33.237 15.872 9.429 0 18.901-3.115 26.795-9.472 18.304-14.763 21.205-41.643 6.4-59.989l-115.797-143.531 380.544-1.579c34.176-0.128 66.261-13.568 90.368-37.845 24.064-24.277 37.248-56.491 37.121-90.667l-0.897-213.333z"></path>
</svg>
