<!-- Generated by IcoMoon.io -->
<svg version="1.1" xmlns="http://www.w3.org/2000/svg" width="1024" height="1024" viewBox="0 0 1024 1024">
<title></title>
<g id="icomoon-ignore">
</g>
<path fill="#000" d="M801.314 613.355c-14.72-18.432-41.6-21.376-59.947-6.656l-144.043 115.2v-380.544c0-70.613-57.387-128-128-128h-213.333c-23.552 0-42.667 19.072-42.667 42.667 0 23.552 19.115 42.667 42.667 42.667h213.333c23.552 0 42.667 19.115 42.667 42.667v380.544l-144-115.2c-18.347-14.72-45.227-11.776-59.989 6.656-14.72 18.389-11.733 45.269 6.699 59.947l213.333 170.667c7.765 6.229 17.195 9.387 26.624 9.387s18.859-3.157 26.667-9.387l213.333-170.667c18.389-14.677 21.376-41.557 6.656-59.947z"></path>
</svg>
