<!-- Generated by IcoMoon.io -->
<svg version="1.1" xmlns="http://www.w3.org/2000/svg" width="1024" height="1024" viewBox="0 0 1024 1024">
<title></title>
<g id="icomoon-ignore">
</g>
<path fill="#000" d="M794.645 350.686l-213.333-170.667c-15.573-12.459-37.717-12.459-53.291 0l-213.333 170.667c-18.432 14.72-21.376 41.557-6.656 59.947 14.677 18.389 41.557 21.376 59.947 6.699l144-115.243v380.587c0 23.509-19.115 42.667-42.667 42.667h-213.333c-23.552 0-42.667 19.115-42.667 42.667s19.115 42.667 42.667 42.667h213.333c70.613 0 128-57.429 128-128v-380.587l144.043 115.243c7.851 6.272 17.28 9.344 26.624 9.344 12.501 0 24.917-5.504 33.323-16.043 14.72-18.389 11.776-45.227-6.656-59.947z"></path>
</svg>
