<!-- Generated by IcoMoon.io -->
<svg version="1.1" xmlns="http://www.w3.org/2000/svg" width="1024" height="1024" viewBox="0 0 1024 1024">
<title></title>
<g id="icomoon-ignore">
</g>
<path fill="#000" d="M682.667 426.667h-380.544l115.2-144c14.72-18.432 11.733-45.269-6.656-59.989-18.389-14.677-45.269-11.776-59.989 6.656l-170.667 213.333c-12.459 15.616-12.459 37.717 0 53.333l170.667 213.333c8.448 10.539 20.821 16 33.323 16 9.387 0 18.773-3.072 26.667-9.344 18.389-14.72 21.376-41.557 6.656-59.989l-115.2-144h380.544c23.509 0 42.667 19.157 42.667 42.667v213.333c0 23.552 19.115 42.667 42.667 42.667s42.667-19.115 42.667-42.667v-213.333c0-70.571-57.429-128-128-128z"></path>
</svg>
