<!-- Generated by IcoMoon.io -->
<svg version="1.1" xmlns="http://www.w3.org/2000/svg" width="1024" height="1024" viewBox="0 0 1024 1024">
<title></title>
<g id="icomoon-ignore">
</g>
<path fill="#000" d="M365.043 682.667c-13.056 0-23.723-10.624-23.723-23.723v-317.611h317.653c13.056 0 23.68 10.624 23.68 23.723v317.611h-317.611zM895.987 682.667h-128v-317.611c0-60.16-48.896-109.056-109.013-109.056h-317.653v-128c0-23.595-19.072-42.667-42.667-42.667-23.552 0-42.667 19.072-42.667 42.667v128h-128c-23.552 0-42.667 19.072-42.667 42.667s19.115 42.667 42.667 42.667h128v317.611c0 60.16 48.939 109.056 109.056 109.056h317.611v128c0 23.595 19.115 42.667 42.667 42.667 23.595 0 42.667-19.072 42.667-42.667v-128h128c23.595 0 42.667-19.072 42.667-42.667s-19.072-42.667-42.667-42.667v0z"></path>
</svg>
