<!-- Generated by IcoMoon.io -->
<svg version="1.1" xmlns="http://www.w3.org/2000/svg" width="1024" height="1024" viewBox="0 0 1024 1024">
<title></title>
<g id="icomoon-ignore">
</g>
<path fill="#000" d="M127.998 356.655l352.002 147.968v391.381c-0.853-0.384-1.749-0.512-2.56-0.896v0l-307.2-143.915c-26.069-12.331-42.453-37.419-42.242-64.768v0-329.771zM896 356.655v330.155c0 27.264-16.512 52.224-42.624 64.384v0l-307.2 143.915c-0.683 0.341-1.451 0.469-2.176 0.768v0-391.253l352-147.968zM477.824 135.505c21.547-10.027 46.805-10.027 68.352 0v0l307.2 143.957c8.533 3.968 15.573 9.643 21.803 16v0l-363.179 152.661-363.179-152.661c6.229-6.357 13.269-12.032 21.803-16v0z"></path>
</svg>
