<!-- Generated by IcoMoon.io -->
<svg version="1.1" xmlns="http://www.w3.org/2000/svg" width="1024" height="1024" viewBox="0 0 1024 1024">
<title></title>
<g id="icomoon-ignore">
</g>
<path fill="#000" d="M797.457 681.084l-242.773 112.811v-286.549l256-118.912v274.56c0 7.424-5.035 14.336-13.227 18.091v0zM226.278 681.126c-8.064-3.755-13.013-10.667-12.929-18.432v-274.261l256.001 118.912v286.635l-243.072-112.853zM499.516 216.060c3.883-1.835 8.192-2.731 12.501-2.731 4.267 0 8.576 0.896 12.459 2.731l227.371 105.557-239.829 111.445-239.872-111.445 227.371-105.557zM881.34 309.713c-0.128-0.341-0.085-0.725-0.256-1.067-0.128-0.341-0.469-0.555-0.683-0.896-1.963-3.243-4.352-6.101-6.613-9.088-1.323-1.451-2.389-3.072-3.84-4.309-10.027-11.776-21.845-22.144-36.523-28.928l-273.067-126.848c-0.043 0-0.085 0-0.085-0.043-30.677-14.165-65.877-14.123-96.64 0.043l-272.939 126.805c-14.677 6.784-26.539 17.109-36.565 28.885-1.579 1.323-2.731 3.115-4.139 4.693-2.219 2.859-4.48 5.632-6.357 8.704-0.213 0.384-0.555 0.64-0.725 0.981-0.171 0.384-0.128 0.768-0.299 1.152-9.003 15.445-14.596 32.811-14.596 51.072v301.525c-0.338 40.533 24.068 78.251 62.212 96.085l273.024 126.805c15.445 7.211 32 10.795 48.597 10.795 16.555 0 33.109-3.584 48.512-10.752l272.939-126.805c38.059-17.579 62.677-55.040 62.72-95.488v-302.208c-0.043-18.261-5.632-35.627-14.677-51.115v0z"></path>
</svg>
