<!-- Generated by IcoMoon.io -->
<svg version="1.1" xmlns="http://www.w3.org/2000/svg" width="1024" height="1024" viewBox="0 0 1024 1024">
<title></title>
<g id="icomoon-ignore">
</g>
<path fill="#000" d="M767.71 300.749c0-23.424-18.944-42.496-42.411-42.624l-341.291-2.133c-23.467 0-42.496 18.944-42.667 42.411-0.171 23.552 18.816 42.795 42.411 42.923l237.141 1.493-352.384 352.341c-16.683 16.683-16.683 43.691 0 60.331 8.32 8.363 19.243 12.501 30.165 12.501s21.845-4.139 30.165-12.501l353.621-353.621 0.213 238.165c0 23.552 19.115 42.624 42.667 42.624h0.043c23.552 0 42.624-19.157 42.624-42.709l-0.299-339.2z"></path>
</svg>
