<!-- Generated by IcoMoon.io -->
<svg version="1.1" xmlns="http://www.w3.org/2000/svg" width="1024" height="1024" viewBox="0 0 1024 1024">
<title></title>
<g id="icomoon-ignore">
</g>
<path fill="#000" d="M755.499 695.168l-353.664-353.664 238.208-0.171c23.552 0 42.624-19.157 42.624-42.709s-19.115-42.624-42.667-42.624l-339.243 0.256c-23.467 0.043-42.453 18.987-42.624 42.411l-2.134 341.077c-0.17 23.552 18.817 42.795 42.412 42.923h0.256c23.467 0 42.496-18.944 42.667-42.411l1.493-237.099 352.341 352.341c8.32 8.32 19.243 12.501 30.165 12.501s21.845-4.181 30.165-12.501c16.683-16.683 16.683-43.648 0-60.331z"></path>
</svg>
