<!-- Generated by IcoMoon.io -->
<svg version="1.1" xmlns="http://www.w3.org/2000/svg" width="1024" height="1024" viewBox="0 0 1024 1024">
<title></title>
<g id="icomoon-ignore">
</g>
<path fill="#000" d="M810.667 682.667c23.467 0 42.667 19.2 42.667 42.667v85.333c0 21.79-16.555 39.902-37.709 42.378l-4.958 0.288h-597.333c-23.467 0-42.667-19.2-42.667-42.667v-85.333c0-23.467 19.2-42.667 42.667-42.667s42.667 19.2 42.667 42.667v42.667h512v-42.667c0-23.467 19.2-42.667 42.667-42.667zM512 128c23.595 0 42.667 19.115 42.667 42.667v341.333l102.4-76.8c18.859-14.208 45.611-10.325 59.733 8.533 14.165 18.859 10.325 45.611-8.533 59.733l-170.667 128c-7.552 5.675-16.597 8.533-25.6 8.533-8.576 0-17.152-2.603-24.533-7.765l-170.667-120.064c-19.285-13.568-23.936-40.192-10.368-59.435 13.568-19.285 40.149-23.936 59.435-10.368l103.594 72.951c-0.084-1.095-0.127-2.202-0.127-3.319v-341.333c0-23.552 19.072-42.667 42.667-42.667z"></path>
</svg>
