<!-- Generated by IcoMoon.io -->
<svg version="1.1" xmlns="http://www.w3.org/2000/svg" width="1024" height="1024" viewBox="0 0 1024 1024">
<title></title>
<g id="icomoon-ignore">
</g>
<path fill="#000" d="M255.479 376.166l451.627 451.627c-56.533 44.672-125.525 68.779-198.229 68.224v0c-85.717-0.768-165.845-35.371-225.792-97.493-111.829-115.797-120.448-296.021-27.605-422.357v0zM140.501 140.501c16.683-16.683 43.648-16.683 60.331 0v0l682.667 682.667c16.683 16.683 16.683 43.648 0 60.331-8.32 8.32-19.243 12.501-30.165 12.501s-21.845-4.181-30.165-12.501v0l-682.667-682.667c-16.683-16.683-16.683-43.648 0-60.331zM515.063 127.982l5.681 0.443c9.354 1.361 18.041 5.787 24.655 12.614v0l194.517 201.685c90.709 93.952 113.493 230.357 69.419 345.941v0l-436.267-436.267 111.403-111.829c8.107-8.107 19.115-12.672 30.592-12.588v0z"></path>
</svg>
