<!-- Generated by IcoMoon.io -->
<svg version="1.1" xmlns="http://www.w3.org/2000/svg" width="1024" height="1024" viewBox="0 0 1024 1024">
<title></title>
<g id="icomoon-ignore">
</g>
<path fill="#000" d="M255.718 376.405l61.099 61.099c-60.971 93.483-51.115 221.013 29.568 303.189 44.288 45.141 103.125 69.973 165.632 69.973v0c48.853-0.043 95.147-15.573 134.272-43.691v0l61.056 61.013c-55.723 43.947-123.563 67.968-195.243 68.011v0c-85.717 0-166.144-33.92-226.603-95.531-113.365-115.456-123.051-296.832-29.781-424.064v0zM140.501 140.501c16.683-16.683 43.648-16.683 60.331 0v0l682.667 682.667c16.683 16.683 16.683 43.648 0 60.331-8.32 8.32-19.243 12.501-30.165 12.501s-21.845-4.181-30.165-12.501v0l-682.667-682.667c-16.683-16.683-16.683-43.648 0-60.331zM511.855 127.987c11.435 0 22.4 4.651 30.421 12.8v0l196.224 200.021c92.245 93.995 115.968 231.723 71.296 348.331v0l-68.608-68.651c15.915-76.928-5.077-160.341-63.616-219.947v0l-165.717-168.917-78.976 80.64-60.331-60.373 108.8-111.061c8.021-8.192 18.987-12.843 30.464-12.843v0z"></path>
</svg>
