<!-- Generated by IcoMoon.io -->
<svg version="1.1" xmlns="http://www.w3.org/2000/svg" width="1024" height="1024" viewBox="0 0 1024 1024">
<title></title>
<g id="icomoon-ignore">
</g>
<path fill="#000" d="M535.83 231.639l-166.827 167.509c-92.843 93.141-94.080 245.717-2.901 340.139 43.904 45.525 102.528 70.869 164.992 71.381h0.085c62.507 0.469 121.557-23.893 166.187-68.693 92.757-92.971 93.995-245.504 2.773-340.011l-164.309-170.325zM530.411 896.001c-85.632-0.725-165.76-35.328-225.707-97.451-123.264-127.659-121.6-333.781 3.712-459.52l197.675-198.443c8.107-8.107 19.115-12.672 30.592-12.588v0c11.477 0.129 22.4 4.865 30.336 13.057l194.56 201.685c123.221 127.701 121.557 333.867-3.755 459.477-60.971 61.184-141.696 94.464-227.328 93.781h-0.085z"></path>
</svg>
