<!-- Generated by IcoMoon.io -->
<svg version="1.1" xmlns="http://www.w3.org/2000/svg" width="1024" height="1024" viewBox="0 0 1024 1024">
<title></title>
<g id="icomoon-ignore">
</g>
<path fill="#000" d="M651.584 172.147l114.944 114.944-83.072 83.2-114.987-114.987 83.115-83.157zM810.667 853.333c23.467 0 42.667 19.2 42.667 42.667s-19.2 42.667-42.667 42.667v0h-597.333c-23.467 0-42.667-19.2-42.667-42.667s19.2-42.667 42.667-42.667v0zM595.136 107.934c29.952-30.080 84.267-28.587 115.883 2.944v0l116.864 116.864c32.64 32.683 33.963 84.651 2.901 115.797v0l-383.872 383.872c-13.867 13.867-32.256 22.485-51.797 24.277v0l-177.92 16.128c-1.28 0.128-2.56 0.171-3.84 0.171-11.264 0-22.144-4.437-30.208-12.501-8.917-8.96-13.44-21.419-12.331-34.005v0l16.171-177.92c1.792-19.499 10.411-37.931 24.32-51.797v0z"></path>
</svg>
