<!-- Generated by IcoMoon.io -->
<svg version="1.1" xmlns="http://www.w3.org/2000/svg" width="1024" height="1024" viewBox="0 0 1024 1024">
<title></title>
<g id="icomoon-ignore">
</g>
<path fill="#000" d="M683.46 455.625l-114.987-114.987 83.115-83.157 114.944 114.944-83.072 83.2zM387.396 751.987l-127.019 11.563 11.264-126.123 239.659-239.659 115.029 115.029-238.933 239.189zM827.887 313.075l-116.864-116.864c-31.616-31.531-85.931-33.024-115.883-2.944l-383.829 383.829c-13.909 13.867-22.528 32.299-24.32 51.797l-16.171 177.92c-1.109 12.587 3.371 25.045 12.331 34.005 8.064 8.064 18.944 12.501 30.165 12.501 1.323 0 2.603-0.043 3.883-0.171l177.92-16.171c19.541-1.792 37.931-10.368 51.797-24.235l383.872-383.872c31.061-31.147 29.739-83.115-2.901-115.797v0z"></path>
</svg>
