<!-- Generated by IcoMoon.io -->
<svg version="1.1" xmlns="http://www.w3.org/2000/svg" width="1024" height="1024" viewBox="0 0 1024 1024">
<title></title>
<g id="icomoon-ignore">
</g>
<path fill="#000" d="M260.378 677.269l127.019-11.563 238.933-239.147-115.029-115.072-239.659 239.659-11.264 126.123zM568.474 254.357l114.987 114.987 83.072-83.2-114.944-114.944-83.115 83.157zM183.151 754.581c-8.96-8.96-13.44-21.419-12.331-34.048l16.171-177.92c1.792-19.499 10.411-37.888 24.32-51.797l383.829-383.829c29.952-30.080 84.267-28.587 115.883 2.944l116.864 116.864c32.64 32.683 33.963 84.651 2.901 115.797l-383.872 383.872c-13.867 13.867-32.256 22.485-51.797 24.277l-177.92 16.171c-1.28 0.085-2.56 0.128-3.883 0.128-11.221 0-22.101-4.437-30.165-12.459v0zM853.316 895.040c0 23.467-19.2 42.667-42.667 42.667h-597.333c-23.424 0-42.667-19.2-42.667-42.667 0-23.424 19.243-42.667 42.667-42.667h597.333c23.467 0 42.667 19.243 42.667 42.667v0z"></path>
</svg>
