<!-- Generated by IcoMoon.io -->
<svg version="1.1" xmlns="http://www.w3.org/2000/svg" width="1024" height="1024" viewBox="0 0 1024 1024">
<title></title>
<g id="icomoon-ignore">
</g>
<path fill="#000" d="M810.667 768h-597.333c-23.509 0-42.667-19.115-42.667-42.667v-416l315.733 236.8c7.595 5.717 16.597 8.533 25.6 8.533s18.005-2.816 25.6-8.533l315.733-236.8v416c0 23.552-19.157 42.667-42.667 42.667v0zM782.208 256l-270.208 202.667-270.208-202.667h540.416zM810.667 170.667h-597.333c-70.571 0-128 57.429-128 128v426.667c0 70.571 57.429 128 128 128h597.333c70.571 0 128-57.429 128-128v-426.667c0-70.571-57.429-128-128-128v0z"></path>
</svg>
