<!-- Generated by IcoMoon.io -->
<svg version="1.1" xmlns="http://www.w3.org/2000/svg" width="1024" height="1024" viewBox="0 0 1024 1024">
<title></title>
<g id="icomoon-ignore">
</g>
<path fill="#000" d="M213.333 554.667c23.467 0 42.539 18.944 42.667 42.453v0l0.555 109.995 139.947-139.947c16.683-16.683 43.648-16.683 60.331 0s16.683 43.648 0 60.331v0l-140.459 140.459 110.293 0.043c23.595 0 42.667 19.115 42.667 42.709-0.043 23.552-19.115 42.624-42.667 42.624v0l-212.309-0.128c-23.467 0-42.496-18.987-42.624-42.453v0l-1.067-213.205c-0.127-23.552 18.902-42.752 42.454-42.88v0zM597.53 170.684l213.205 1.067c23.467 0.128 42.453 19.157 42.453 42.624v0l0.128 212.267c0.043 23.552-19.072 42.709-42.624 42.709v0c-23.595 0-42.667-19.115-42.709-42.624v0l-0.085-110.293-140.416 140.416c-8.32 8.32-19.243 12.501-30.165 12.501-10.88 0-21.803-4.181-30.165-12.501-16.64-16.683-16.64-43.691 0-60.331v0l139.947-139.947-109.952-0.555c-23.595-0.128-42.624-19.371-42.497-42.88 0.129-23.509 19.243-42.453 42.667-42.453v0h0.213z"></path>
</svg>
