<!-- Generated by IcoMoon.io -->
<svg version="1.1" xmlns="http://www.w3.org/2000/svg" width="1024" height="1024" viewBox="0 0 1024 1024">
<title></title>
<g id="icomoon-ignore">
</g>
<path fill="#000" d="M512 128c23.595 0 42.667 19.115 42.667 42.667s-19.072 42.667-42.667 42.667v0h-256c-23.552 0-42.667 19.157-42.667 42.667v0 512c0 23.509 19.115 42.667 42.667 42.667v0h512c23.552 0 42.667-19.157 42.667-42.667v0-256c0-23.552 19.072-42.667 42.667-42.667s42.667 19.115 42.667 42.667v0 256c0 70.571-57.429 128-128 128v0h-512c-70.571 0-128-57.429-128-128v0-512c0-70.571 57.429-128 128-128v0zM682.884 128l170.539 0.853c23.467 0.128 42.453 19.157 42.453 42.624v0l0.128 169.813c0 23.595-19.072 42.709-42.624 42.709v0c-23.595 0-42.709-19.072-42.709-42.624v0l-0.043-67.669-268.459 268.459c-8.32 8.32-19.243 12.501-30.165 12.501s-21.845-4.181-30.165-12.501c-16.683-16.683-16.683-43.648 0-60.331v0l268.16-268.16-67.541-0.341c-23.595-0.128-42.581-19.328-42.453-42.88 0.128-23.509 19.2-42.453 42.667-42.453v0h0.213z"></path>
</svg>
