<!-- Generated by IcoMoon.io -->
<svg version="1.1" xmlns="http://www.w3.org/2000/svg" width="1024" height="1024" viewBox="0 0 1024 1024">
<title></title>
<g id="icomoon-ignore">
</g>
<path fill="#000" d="M759.855 571.52c72.747-60.459 123.307-146.859 135.808-246.229 2.944-23.339-13.611-44.672-37.035-47.616-23.040-3.157-44.715 13.611-47.616 36.992-18.731 148.992-147.285 261.333-299.008 261.333s-280.277-112.341-299.008-261.333c-2.901-23.381-24.661-39.979-47.659-36.992-23.381 2.944-39.936 24.277-36.992 47.616 12.501 99.371 63.061 185.771 135.808 246.229l-98.645 98.645c-16.597 16.597-16.597 43.733 0 60.331 16.555 16.597 43.733 16.597 60.331 0l111.061-111.061c40.704 20.565 85.376 34.133 132.437 39.296v151.936c0 23.467 19.2 42.667 42.667 42.667s42.667-19.2 42.667-42.667v-151.936c47.019-5.163 91.733-18.731 132.395-39.296l111.104 111.061c16.597 16.597 43.733 16.597 60.331 0s16.597-43.733 0-60.331l-98.645-98.645z"></path>
</svg>
