<!-- Generated by IcoMoon.io -->
<svg version="1.1" xmlns="http://www.w3.org/2000/svg" width="1024" height="1024" viewBox="0 0 1024 1024">
<title></title>
<g id="icomoon-ignore">
</g>
<path fill="#000" d="M933.018 533.231c-17.707 30.848-59.349 95.616-124.288 154.837l-60.203-60.203c45.227-40.576 77.952-85.205 97.408-115.669-39.765-60.544-160.213-218.069-343.296-213.419-25.6 0.64-49.621 4.651-72.491 10.709l-67.413-67.413c41.472-16.384 87.168-27.307 137.728-28.587 254.933-7.979 405.333 229.845 432.555 277.291 7.509 13.141 7.509 29.312 0 42.453v0zM593.818 714.522l67.413 67.413c-41.429 16.384-87.168 27.307-137.685 28.587-3.499 0.085-6.997 0.128-10.496 0.128-250.155 0-395.221-230.613-422.059-277.419-7.552-13.141-7.552-29.312 0-42.453 17.664-30.848 59.307-95.616 124.245-154.88l60.203 60.245c-45.227 40.576-77.909 85.205-97.408 115.669 39.765 60.544 159.659 217.685 343.339 213.419 25.6-0.64 49.621-4.651 72.448-10.709v0zM511.983 575.983c-35.285 0-64-28.672-64-64 0-1.067 0.469-2.048 0.512-3.157l66.688 66.688c-1.109 0.043-2.091 0.469-3.2 0.469v0zM200.815 140.484c-16.64-16.64-43.648-16.64-60.331 0-16.64 16.683-16.64 43.691 0 60.331l240.256 240.256c-11.819 21.675-18.091 45.781-18.091 70.912 0 82.347 67.029 149.333 149.333 149.333 25.173 0 49.28-6.272 70.955-18.048l240.213 240.213c8.363 8.363 19.243 12.501 30.165 12.501s21.845-4.139 30.165-12.501c16.683-16.64 16.683-43.648 0-60.331l-682.667-682.667z"></path>
</svg>
