<!-- Generated by IcoMoon.io -->
<svg version="1.1" xmlns="http://www.w3.org/2000/svg" width="1024" height="1024" viewBox="0 0 1024 1024">
<title></title>
<g id="icomoon-ignore">
</g>
<path fill="#000" d="M512 448c-35.285 0-64 28.715-64 64s28.715 64 64 64c35.285 0 64-28.715 64-64s-28.715-64-64-64zM512 661.333c-82.347 0-149.333-66.987-149.333-149.333s66.987-149.333 149.333-149.333c82.347 0 149.333 66.987 149.333 149.333s-66.987 149.333-149.333 149.333zM933.035 490.752c-27.264-47.445-177.579-285.269-432.597-277.291-235.819 6.016-373.035 213.803-409.472 277.291-7.509 13.184-7.509 29.312 0 42.496 26.88 46.805 171.947 277.419 422.101 277.419 3.456 0 6.955-0.043 10.496-0.128 235.819-6.016 373.035-213.803 409.472-277.291 7.509-13.184 7.509-29.312 0-42.496z"></path>
</svg>
