<!-- Generated by IcoMoon.io -->
<svg version="1.1" xmlns="http://www.w3.org/2000/svg" width="1024" height="1024" viewBox="0 0 1024 1024">
<title></title>
<g id="icomoon-ignore">
</g>
<path fill="#000" d="M140.501 140.501c16.683-16.683 43.648-16.683 60.331 0v0l307.627 307.659 3.541-0.16c33.21 0 60.599 25.436 63.706 57.846l0.294 6.154c0 1.196-0.033 2.385-0.098 3.566l307.597 307.602c16.683 16.683 16.683 43.648 0 60.331-8.32 8.32-19.243 12.501-30.165 12.501s-21.845-4.181-30.165-12.501v0l-307.712-307.68-3.456 0.181c-33.21 0-60.599-25.436-63.706-57.846l-0.294-6.154c0-1.182 0.032-2.357 0.096-3.523l-307.594-307.645c-16.683-16.683-16.683-43.648 0-60.331zM215.253 335.919l150.059 150.059c-1.536 8.491-2.645 17.109-2.645 26.027 0 82.347 66.987 149.333 149.333 149.333 8.917 0 17.536-1.109 26.027-2.645v0l123.221 123.221c-41.472 16.427-87.168 27.307-137.685 28.587-3.499 0.128-7.040 0.171-10.496 0.171-250.155 0-395.221-230.613-422.101-277.461-7.509-13.141-7.509-29.312 0-42.453 17.707-30.805 59.349-95.616 124.288-154.837v0zM500.471 213.47c254.976-7.979 405.333 229.845 432.555 277.291 7.509 13.141 7.509 29.312 0 42.453-17.707 30.848-59.349 95.659-124.288 154.88v0l-150.016-150.059c1.493-8.491 2.603-17.109 2.603-26.027 0-82.347-66.987-149.333-149.333-149.333-8.917 0-17.536 1.109-26.027 2.603v0l-123.221-123.179c41.472-16.427 87.211-27.307 137.728-28.629z"></path>
</svg>
