<!-- Generated by IcoMoon.io -->
<svg version="1.1" xmlns="http://www.w3.org/2000/svg" width="1024" height="1024" viewBox="0 0 1024 1024">
<title></title>
<g id="icomoon-ignore">
</g>
<path fill="#000" d="M512 576c-35.285 0-64-28.715-64-64s28.715-64 64-64c35.285 0 64 28.715 64 64s-28.715 64-64 64zM512 362.667c-82.347 0-149.333 66.987-149.333 149.333s66.987 149.333 149.333 149.333c82.347 0 149.333-66.987 149.333-149.333s-66.987-149.333-149.333-149.333zM521.374 725.231c-183.723 4.267-303.573-152.875-343.339-213.419 43.776-68.48 154.027-208.683 324.608-213.035 182.997-4.651 303.531 152.875 343.296 213.419-43.733 68.48-154.027 208.683-324.565 213.035zM933.022 490.778c-27.221-47.445-177.579-285.269-432.555-277.291-235.861 5.973-373.035 213.76-409.472 277.291-7.552 13.141-7.552 29.312 0 42.453 26.837 46.805 171.904 277.419 422.059 277.419 3.499 0 6.997-0.043 10.496-0.128 235.819-6.016 373.035-213.76 409.472-277.291 7.509-13.141 7.509-29.312 0-42.453z"></path>
</svg>
