<!-- Generated by IcoMoon.io -->
<svg version="1.1" xmlns="http://www.w3.org/2000/svg" width="1024" height="1024" viewBox="0 0 1024 1024">
<title></title>
<g id="icomoon-ignore">
</g>
<path fill="#000" d="M426.667 853.333h85.333v-264.533c0-23.595 19.072-42.667 42.667-42.667h95.573l18.987-68.267h-114.56c-23.595 0-42.667-19.072-42.667-42.667v-115.2c0-44.715 38.272-81.067 85.333-81.067h85.333v-68.267h-85.333c-94.123 0-170.667 66.987-170.667 149.333v115.2c0 23.595-19.072 42.667-42.667 42.667h-85.333v68.267h85.333c23.595 0 42.667 19.072 42.667 42.667v264.533zM554.667 938.667h-170.667c-23.595 0-42.667-19.072-42.667-42.667v-264.533h-85.333c-23.595 0-42.667-19.072-42.667-42.667v-153.6c0-23.595 19.072-42.667 42.667-42.667h85.333v-72.533c0-129.365 114.816-234.667 256-234.667h128c23.595 0 42.669 19.072 42.669 42.667v153.6c0 23.552-19.075 42.667-42.669 42.667h-128v68.267h128c13.312 0 25.899 6.272 33.963 16.853 8.064 10.624 10.709 24.405 7.168 37.248l-42.667 153.557c-5.12 18.475-21.973 31.275-41.131 31.275h-85.333v264.533c0 23.595-19.072 42.667-42.667 42.667v0z"></path>
</svg>
