<!-- Generated by IcoMoon.io -->
<svg version="1.1" xmlns="http://www.w3.org/2000/svg" width="1024" height="1024" viewBox="0 0 1024 1024">
<title></title>
<g id="icomoon-ignore">
</g>
<path fill="#000" d="M725.333 149.333c0-11.776-9.6-21.333-21.333-21.333h-106.667c-117.845 0-213.333 85.973-213.333 192v115.2h-106.667c-11.776 0-21.333 9.557-21.333 21.333v110.933c0 11.776 9.557 21.333 21.333 21.333h106.667v285.867c0 11.776 9.557 21.333 21.333 21.333h128c11.733 0 21.333-9.557 21.333-21.333v-285.867h111.744c9.6 0 18.005-6.4 20.608-15.616l30.763-110.933c3.797-13.568-6.443-27.051-20.523-27.051h-142.592v-115.2c0-21.205 19.072-38.4 42.667-38.4h106.667c11.733 0 21.333-9.557 21.333-21.333v-110.933z"></path>
</svg>
