<!-- Generated by IcoMoon.io -->
<svg version="1.1" xmlns="http://www.w3.org/2000/svg" width="1024" height="1024" viewBox="0 0 1024 1024">
<title></title>
<g id="icomoon-ignore">
</g>
<path fill="#000" d="M627.793 341.333c-16.811 0-30.464-16.256-30.464-36.267v-135.339l159.659 171.605h-129.195zM597.329 640h-42.667v42.667c0 23.552-19.072 42.667-42.667 42.667s-42.667-19.115-42.667-42.667v-42.667h-42.667c-23.595 0-42.667-19.115-42.667-42.667s19.072-42.667 42.667-42.667h42.667v-42.667c0-23.552 19.072-42.667 42.667-42.667s42.667 19.115 42.667 42.667v42.667h42.667c23.595 0 42.667 19.115 42.667 42.667s-19.072 42.667-42.667 42.667v0zM842.236 312.661l-189.611-213.333c-8.064-8.917-19.541-13.995-31.573-13.995h-341.333c-60.117 0-109.056 47.872-109.056 106.667v640c0 58.795 48.939 106.667 109.056 106.667h464.555c60.16 0 109.056-47.872 109.056-106.667v-490.667c0-10.624-3.968-20.821-11.093-28.672v0z"></path>
</svg>
