<svg xmlns="http://www.w3.org/2000/svg" width="20" height="24" viewBox="0 0 20 24">
    <path fill="#667181" d="M20 7.57c-.005-.096-.024-.19-.055-.283V7.19c-.051-.117-.123-.224-.212-.316L13.067.327C12.972.24 12.864.17 12.745.12h-.1c-.112-.06-.231-.1-.356-.12H2.222C.995 0 0 .977 0 2.182v19.636c0 .58.234 1.134.651 1.543.417.41.982.639 1.57.639h15.557c.589 0 1.154-.23 1.571-.64.417-.408.651-.963.651-1.542V7.57zM6.667 19.637H4.445V6.546h2.222v13.09zm4.444 0H8.89V13.09h2.221l.001 6.546zm4.445 0h-2.223v-4.364h2.222l.001 4.364zM13.333 6.546V3.72l2.878 2.826h-2.878z"/>
</svg>
