<svg xmlns="http://www.w3.org/2000/svg" width="20" height="24" viewBox="0 0 20 24">
    <path fill="#667181" d="M12.289 0c.083.013.164.035.242.067l.114.053h.1c.079.033.153.076.222.126l.1.081 6.666 6.546c.06.061.11.13.154.203l.058.113v.098c.02.061.036.124.045.188l.01.095v14.248c0 .58-.234 1.134-.651 1.543-.37.364-.858.586-1.376.63l-.195.009H2.222c-.589 0-1.154-.23-1.571-.64-.37-.363-.597-.841-.642-1.35L0 21.818V2.182C0 1.029.91.085 2.063.005L2.222 0h10.067zM6.5 12c-.829 0-1.5.597-1.5 1.333v5.334C5 19.403 5.671 20 6.5 20S8 19.403 8 18.667v-5.334C8 12.597 7.329 12 6.5 12zm0-4c-.608 0-1.153.366-1.386.926-.232.561-.103 1.206.325 1.635.429.428 1.074.557 1.635.325.56-.233.926-.778.926-1.386 0-.397-.158-.78-.439-1.061C7.28 8.158 6.897 8 6.5 8zm6.833-4.28v2.826h2.878L13.333 3.72z"/>
</svg>
