<svg xmlns="http://www.w3.org/2000/svg" width="20" height="24" viewBox="0 0 20 24">
    <path fill="#667181" d="M12.289 0c.083.013.164.035.242.067l.114.053h.1c.079.033.153.076.222.126l.1.081 6.666 6.546c.06.061.11.13.154.203l.058.113v.098c.02.061.036.124.045.188l.01.095v14.248c0 .58-.234 1.134-.651 1.543-.37.364-.858.586-1.376.63l-.195.009H2.222c-.589 0-1.154-.23-1.571-.64-.37-.363-.597-.841-.642-1.35L0 21.818V2.182C0 1.029.91.085 2.063.005L2.222 0h10.067zM7.077 14.37c-.157-.003-.309.054-.422.158L4.71 16.252l-.688-.638H4.02l-.074-.058c-.104-.07-.23-.106-.358-.103-.16.004-.312.07-.423.182-.11.113-.17.264-.166.42.005.155.072.302.19.409l1.102 1.008.08.062c.227.146.532.128.74-.054l2.357-2.09.064-.065c.136-.159.177-.378.101-.576-.086-.226-.308-.377-.557-.38zm8.307 1.046H9.27l-.096.005c-.127.017-.246.073-.34.161-.115.11-.18.26-.18.418 0 .157.065.308.18.417.117.11.274.17.436.167h6.114l.096-.006c.127-.017.246-.073.338-.16.116-.11.182-.261.182-.418 0-.157-.066-.308-.182-.418-.115-.11-.272-.17-.434-.166zM7.074 10c-.019 0-.037 0-.055.002-.136.01-.265.065-.364.155L4.71 11.881l-.688-.634H4.02l-.085-.065c-.238-.152-.563-.122-.767.085-.23.233-.22.603.02.826L4.292 13.1l.08.062c.226.146.531.129.739-.054l2.358-2.09.064-.064c.135-.16.175-.38.099-.577-.088-.225-.31-.376-.558-.378zm8.31 1.045l-6.114.001-.096.005c-.127.017-.246.073-.34.16-.115.11-.18.261-.18.418 0 .158.065.308.18.418.117.11.274.17.436.166h6.114l.096-.005c.127-.017.246-.073.338-.16.116-.11.182-.261.182-.419 0-.157-.066-.307-.182-.417-.115-.11-.272-.17-.434-.167zm-2.05-7.325v2.826h2.877L13.333 3.72z"/>
</svg>
