<!-- Generated by IcoMoon.io -->
<svg version="1.1" xmlns="http://www.w3.org/2000/svg" width="1024" height="1024" viewBox="0 0 1024 1024">
<title></title>
<g id="icomoon-ignore">
</g>
<path fill="#000" d="M640 682.667c23.595 0 42.667 19.115 42.667 42.667s-19.072 42.667-42.667 42.667v0h-256c-23.552 0-42.667-19.115-42.667-42.667s19.115-42.667 42.667-42.667v0zM512 512c23.552 0 42.667 19.115 42.667 42.667s-19.115 42.667-42.667 42.667v0h-128c-23.552 0-42.667-19.115-42.667-42.667s19.115-42.667 42.667-42.667v0zM744.29 853.333h-464.597c-13.056 0-23.68-9.557-23.68-21.333v-640c0-11.776 10.624-21.333 23.68-21.333h232.32v134.4c0 67.072 51.925 121.6 115.797 121.6h140.203v405.333c0 11.776-10.624 21.333-23.723 21.333v0zM597.346 212.395l116.992 128.939h-86.528c-16.811 0-30.464-16.256-30.464-36.267v-92.672zM842.253 355.328l-232.277-256c-8.107-8.917-19.541-13.995-31.616-13.995h-298.667c-60.117 0-109.013 47.872-109.013 106.667v640c0 58.795 48.896 106.667 109.013 106.667h464.597c60.117 0 109.056-47.872 109.056-106.667v-448c0-10.624-3.968-20.821-11.093-28.672v0z"></path>
</svg>
