<!-- Generated by IcoMoon.io -->
<svg version="1.1" xmlns="http://www.w3.org/2000/svg" width="1024" height="1024" viewBox="0 0 1024 1024">
<title></title>
<g id="icomoon-ignore">
</g>
<path fill="#000" d="M744.29 853.333h-464.597c-13.056 0-23.68-9.557-23.68-21.333v-640c0-11.776 10.624-21.333 23.68-21.333h189.653v177.067c0 67.072 51.925 121.6 115.797 121.6h182.869v362.667c0 11.776-10.667 21.333-23.723 21.333v0zM753.037 384h-167.893c-16.811 0-30.464-16.256-30.464-36.267v-177.067h4.779l193.579 213.333zM842.253 355.328l-232.277-256c-8.064-8.917-19.541-13.995-31.616-13.995h-298.667c-60.117 0-109.013 47.872-109.013 106.667v640c0 58.795 48.896 106.667 109.013 106.667h464.597c60.117 0 109.056-47.872 109.056-106.667v-448c0-10.624-3.968-20.821-11.093-28.672v0z"></path>
</svg>
