<!-- Generated by IcoMoon.io -->
<svg version="1.1" xmlns="http://www.w3.org/2000/svg" width="1024" height="1024" viewBox="0 0 1024 1024">
<title></title>
<g id="icomoon-ignore">
</g>
<path fill="#000" d="M810.667 778.918c0 17.493-14.251 31.744-31.744 31.744h-53.589v-85.333h85.333v53.589zM213.333 778.918v-53.589h85.333v85.333h-53.589c-17.493 0-31.744-14.251-31.744-31.744v0zM245.077 213.329h53.589v85.333h-85.333v-53.589c0-17.493 14.251-31.744 31.744-31.744v0zM810.667 554.662v85.333h-85.333v-85.333h85.333zM778.923 213.329c17.493 0 31.744 14.251 31.744 31.744v53.589h-85.333v-85.333h53.589zM640 213.329v597.333h-256v-597.333h256zM810.667 383.996v85.333h-85.333v-85.333h85.333zM298.667 554.662v85.333h-85.333v-85.333h85.333zM298.667 383.996v85.333h-85.333v-85.333h85.333zM778.923 127.996h-533.845c-64.555 0-117.077 52.565-117.077 117.077v533.845c0 64.555 52.523 117.077 117.077 117.077h533.845c64.555 0 117.077-52.523 117.077-117.077v-533.845c0-64.512-52.523-117.077-117.077-117.077v0z"></path>
</svg>
