<!-- Generated by IcoMoon.io -->
<svg version="1.1" xmlns="http://www.w3.org/2000/svg" width="1024" height="1024" viewBox="0 0 1024 1024">
<title></title>
<g id="icomoon-ignore">
</g>
<path fill="#000" d="M595.584 768.998c-28.459 27.179-66.133 41.941-106.155 41.689h-0.043c-39.979-0.345-77.397-15.747-105.386-43.353-57.558-56.704-56.79-148.352 1.749-204.203l92.288-88.235c3.797-3.627 8.917-5.589 14.293-5.547v0c5.333 0.043 10.453 2.091 14.165 5.761l90.838 89.643c57.557 56.747 56.789 148.352-1.75 204.245zM717.056 340.753l-195.968-200.149c-16.299-16.683-43.477-16.683-60.373-0.64-9.131 8.704-13.995 21.035-13.184 33.621 0.384 5.973 0.384 11.861 0.384 18.176 0 109.099-27.435 173.611-42.581 189.568-6.443-7.083-18.133-25.685-27.989-63.701-3.84-14.848-15.36-26.496-30.165-30.507-14.891-3.925-30.677 0.299-41.472 11.179l-41.984 42.368c-124.203 126.592-124.032 332.843 0.341 459.605 60.288 61.696 140.629 95.659 226.261 95.744h0.341c85.717 0 166.229-33.963 226.773-95.701 124.459-126.805 124.245-333.056-0.384-459.563z"></path>
</svg>
