<!-- Generated by IcoMoon.io -->
<svg version="1.1" xmlns="http://www.w3.org/2000/svg" width="1024" height="1024" viewBox="0 0 1024 1024">
<title></title>
<g id="icomoon-ignore">
</g>
<path fill="#000" d="M319.791 406.037c-86.699 93.824-84.864 242.56 5.504 334.677 44.117 45.099 102.741 69.973 165.205 70.016h0.213c62.592 0 121.429-24.875 165.76-70.016 91.989-93.781 91.819-246.315-0.384-339.968l-127.403-130.176c-12.885 105.899-52.608 198.827-123.349 198.827-21.675 0-57.003-9.643-85.547-63.36v0zM490.714 896.064h-0.299c-85.589-0.085-165.888-34.005-226.091-95.659-124.331-126.72-124.501-332.928-0.384-459.435l41.941-42.411c10.837-10.837 26.581-15.019 41.472-11.136 14.805 4.011 26.325 15.659 30.165 30.507 9.813 37.931 21.504 56.576 27.947 63.659 15.147-15.957 42.539-80.427 42.539-189.525 0-6.272 0-12.203-0.341-18.133-0.811-12.587 4.011-24.917 13.141-33.621 16.939-16.085 44.075-16.085 60.331 0.64l195.84 200.064c124.587 126.464 124.8 332.672 0.427 459.435-60.544 61.696-141.013 95.616-226.688 95.616v0z"></path>
</svg>
