<!-- Generated by IcoMoon.io -->
<svg version="1.1" xmlns="http://www.w3.org/2000/svg" width="1024" height="1024" viewBox="0 0 1024 1024">
<title></title>
<g id="icomoon-ignore">
</g>
<path fill="#000" d="M822.084 199.667c-19.712-14.251-45.227-18.304-68.224-10.795-24.576 8.021-56.576 12.245-92.544 12.245-47.957 0-89.6-16.341-133.717-33.621-49.579-19.413-100.907-39.509-164.949-39.509-123.136 0-170.837 40.619-179.2 48.811-8.149 7.979-12.8 18.987-12.8 30.464v646.059c0 23.595 19.115 42.667 42.667 42.667 23.595 0 42.667-19.072 42.667-42.667v-183.381c16.853-7.467 50.048-17.749 106.667-17.749 47.957 0 89.643 16.341 133.76 33.664 49.579 19.413 100.864 39.467 164.907 39.467 77.184 0 124.715-16.128 151.083-29.653 25.259-13.099 40.917-38.485 40.917-66.389v-368.768c0-23.893-11.648-46.635-31.232-60.843z"></path>
</svg>
