<!-- Generated by IcoMoon.io -->
<svg version="1.1" xmlns="http://www.w3.org/2000/svg" width="1024" height="1024" viewBox="0 0 1024 1024">
<title></title>
<g id="icomoon-ignore">
</g>
<path fill="#000" d="M768 622.332c-16.896 7.552-50.133 17.664-106.667 17.664-47.957 0-89.643-16.341-133.76-33.621-49.579-19.413-100.864-39.509-164.907-39.509-45.099 0-80.043 5.419-106.667 12.715v-348.501c16.896-7.552 50.219-17.749 106.667-17.749 47.957 0 89.643 16.341 133.76 33.621 49.579 19.413 100.864 39.509 164.907 39.509 40.021 0 75.776-4.309 106.667-12.8v348.672zM822.101 199.676c-19.712-14.251-45.227-18.304-68.224-10.795-24.576 7.979-56.576 12.245-92.544 12.245-47.957 0-89.643-16.341-133.76-33.621-49.579-19.413-100.864-39.509-164.907-39.509-123.179 0-170.88 40.619-179.2 48.811-8.192 7.979-12.8 18.987-12.8 30.421v646.101c0 23.595 19.072 42.667 42.667 42.667s42.667-19.072 42.667-42.667v-183.381c16.853-7.509 50.048-17.749 106.667-17.749 47.957 0 89.643 16.341 133.76 33.621 49.579 19.413 100.864 39.509 164.907 39.509 77.184 0 124.715-16.128 151.083-29.653 25.259-13.099 40.917-38.528 40.917-66.389v-368.768c0-23.893-11.648-46.635-31.232-60.843v0z"></path>
</svg>
