<!-- Generated by IcoMoon.io -->
<svg version="1.1" xmlns="http://www.w3.org/2000/svg" width="1024" height="1024" viewBox="0 0 1024 1024">
<title></title>
<g id="icomoon-ignore">
</g>
<path fill="#000" d="M474.082 981.338c-4.864 0-9.771-0.853-14.592-2.603-18.432-6.699-29.952-25.131-27.819-44.629l32.768-302.635h-251.093c-15.744 0-30.208-8.661-37.632-22.571s-6.571-30.72 2.176-43.819l336.555-503.467c10.923-16.341 31.573-23.125 50.048-16.341 18.475 6.699 29.952 25.131 27.819 44.629l-32.768 302.635h251.136c15.744 0 30.208 8.661 37.632 22.571 7.381 13.909 6.571 30.72-2.176 43.819l-336.597 503.467c-8.064 12.117-21.547 18.944-35.456 18.944z"></path>
</svg>
