<!-- Generated by IcoMoon.io -->
<svg version="1.1" xmlns="http://www.w3.org/2000/svg" width="1024" height="1024" viewBox="0 0 1024 1024">
<title></title>
<g id="icomoon-ignore">
</g>
<path fill="#000" d="M284.668 405.316l61.483 61.525-52.992 79.275h132.309l120.96 121.003-11.179 103.296 45.867-68.608 61.525 61.483-133.12 199.083c-8.064 12.117-21.504 18.944-35.456 18.944-4.864 0-9.771-0.811-14.549-2.56-18.475-6.699-29.995-25.173-27.861-44.672v0l32.811-302.635h-251.136c-15.744 0-30.208-8.661-37.632-22.528-7.424-13.909-6.571-30.763 2.176-43.819v0l106.795-159.787zM140.501 140.501c16.683-16.683 43.648-16.683 60.331 0v0l682.667 682.667c16.683 16.683 16.683 43.648 0 60.331-8.32 8.32-19.243 12.501-30.165 12.501s-21.845-4.181-30.165-12.501v0l-682.667-682.667c-16.683-16.683-16.683-43.648 0-60.331zM514.479 61.628c10.88-16.384 31.573-23.125 50.005-16.384 18.475 6.699 29.995 25.173 27.861 44.672v0l-32.811 302.635h251.136c15.744 0 30.208 8.661 37.632 22.528 7.424 13.909 6.571 30.763-2.176 43.819v0l-106.795 159.787-61.483-61.525 52.992-79.275h-132.309l-120.96-121.003 11.179-103.296-45.867 68.608-61.525-61.483z"></path>
</svg>
