<!-- Generated by IcoMoon.io -->
<svg version="1.1" xmlns="http://www.w3.org/2000/svg" width="1024" height="1024" viewBox="0 0 1024 1024">
<title></title>
<g id="icomoon-ignore">
</g>
<path fill="#000" d="M284.668 405.338l357.973 357.973-133.077 199.083c-8.107 12.117-21.547 18.944-35.499 18.944-4.864 0-9.771-0.853-14.549-2.603-18.475-6.699-29.952-25.131-27.861-44.629v0l32.811-302.635h-251.136c-15.744 0-30.208-8.661-37.632-22.571s-6.571-30.72 2.176-43.819v0l106.795-159.744zM140.501 140.501c16.683-16.683 43.648-16.683 60.331 0v0l682.667 682.667c16.683 16.683 16.683 43.648 0 60.331-8.32 8.32-19.243 12.501-30.165 12.501s-21.845-4.181-30.165-12.501v0l-682.667-682.667c-16.683-16.683-16.683-43.648 0-60.331zM514.436 61.615c10.923-16.341 31.573-23.125 50.048-16.341 18.475 6.699 29.952 25.131 27.861 44.629v0l-32.811 302.635h251.136c15.744 0 30.208 8.661 37.632 22.571s6.571 30.72-2.176 43.819v0l-106.795 159.744-357.973-357.973z"></path>
</svg>
