<!-- Generated by IcoMoon.io -->
<svg version="1.1" xmlns="http://www.w3.org/2000/svg" width="1024" height="1024" viewBox="0 0 1024 1024">
<title></title>
<g id="icomoon-ignore">
</g>
<path fill="#000" d="M293.167 546.125h218.837c12.117 0 23.68 5.163 31.744 14.165s11.947 21.035 10.667 33.067l-19.157 177.067 195.584-292.565h-218.837c-12.117 0-23.68-5.163-31.744-14.165-8.107-9.003-11.989-21.035-10.667-33.067l19.157-177.024-195.584 292.523zM474.074 981.325c-4.864 0-9.771-0.811-14.592-2.56-18.432-6.741-29.952-25.173-27.819-44.672l32.811-302.635h-251.136c-15.744 0-30.208-8.661-37.632-22.528-7.424-13.909-6.571-30.763 2.176-43.861l336.597-503.424c10.88-16.384 31.531-23.125 50.005-16.384 18.475 6.699 29.995 25.173 27.861 44.672l-32.811 302.592h251.136c15.744 0 30.208 8.704 37.632 22.571 7.424 13.909 6.571 30.72-2.176 43.819l-336.597 503.467c-8.064 12.117-21.547 18.944-35.456 18.944v0z"></path>
</svg>
