<!-- Generated by IcoMoon.io -->
<svg version="1.1" xmlns="http://www.w3.org/2000/svg" width="1024" height="1024" viewBox="0 0 1024 1024">
<title></title>
<g id="icomoon-ignore">
</g>
<path fill="#000" d="M737.835 119.168c16.683-16.683 43.648-16.683 60.331 0v0l128 128c8.32 8.32 12.501 19.243 12.501 30.165s-4.181 21.845-12.501 30.165c-16.683 16.683-43.648 16.683-60.331 0v0l-55.168-55.168v511.829c0 84.48-67.541 153.173-150.571 153.173v0h-105.429c-23.595 0-42.667-19.072-42.667-42.667s19.072-42.667 42.667-42.667v0h105.429c35.968 0 65.237-30.421 65.237-67.84v0-511.829l-55.168 55.168c-16.683 16.683-43.648 16.683-60.331 0s-16.683-43.648 0-60.331v0zM469.333 106.658c23.595 0 42.667 19.072 42.667 42.667s-19.072 42.667-42.667 42.667v0h-105.429c-35.925 0-65.237 30.421-65.237 67.84v0 511.829l55.168-55.168c16.683-16.64 43.648-16.64 60.331 0 8.32 8.32 12.501 19.243 12.501 30.165s-4.181 21.845-12.501 30.165v0l-128 128c-16.683 16.683-43.648 16.683-60.331 0v0l-128-128c-16.683-16.64-16.683-43.648 0-60.331 16.683-16.64 43.648-16.64 60.331 0v0l55.168 55.168v-511.829c0-84.437 67.541-153.173 150.571-153.173v0z"></path>
</svg>
