<!-- Generated by IcoMoon.io -->
<svg version="1.1" xmlns="http://www.w3.org/2000/svg" width="1024" height="1024" viewBox="0 0 1024 1024">
<title></title>
<g id="icomoon-ignore">
</g>
<path fill="#000" d="M170.667 586.897v184.021c0 10.155 9.557 18.432 21.333 18.432h640c11.776 0 21.333-8.277 21.333-18.432v-366.507c0-10.197-9.557-18.432-21.333-18.432h-320c-12.8 0-24.917-5.76-33.024-15.701l-110.933-135.595h-176.043c-11.776 0-21.333 8.235-21.333 18.389v333.824zM832 874.684h-640c-58.795 0-106.667-46.549-106.667-103.765v-517.845c0-57.216 47.872-103.723 106.667-103.723h196.309c12.757 0 24.917 5.717 33.024 15.659l110.891 135.637h299.776c58.795 0 106.667 46.507 106.667 103.765v366.507c0 57.216-47.872 103.765-106.667 103.765v0z"></path>
</svg>
