<!-- Generated by IcoMoon.io -->
<svg version="1.1" xmlns="http://www.w3.org/2000/svg" width="1024" height="1024" viewBox="0 0 1024 1024">
<title></title>
<g id="icomoon-ignore">
</g>
<path fill="#000" d="M597.333 554.667h-170.667c-23.467 0-42.667 19.2-42.667 42.667s19.2 42.667 42.667 42.667h170.667c23.467 0 42.667-19.2 42.667-42.667s-19.2-42.667-42.667-42.667zM853.333 770.918c0 10.155-9.557 18.432-21.333 18.432h-640c-11.776 0-21.333-8.277-21.333-18.432v-517.845c0-10.155 9.557-18.389 21.333-18.389h176.043l110.933 135.595c8.107 9.941 20.224 15.701 33.024 15.701h320c11.776 0 21.333 8.235 21.333 18.432v366.507zM832 300.646h-299.776l-110.891-135.637c-8.107-9.941-20.267-15.659-33.024-15.659h-196.309c-58.795 0-106.667 46.507-106.667 103.723v517.845c0 57.216 47.872 103.765 106.667 103.765h640c58.795 0 106.667-46.549 106.667-103.765v-366.507c0-57.259-47.872-103.765-106.667-103.765v0z"></path>
</svg>
