<!-- Generated by IcoMoon.io -->
<svg version="1.1" xmlns="http://www.w3.org/2000/svg" width="1024" height="1024" viewBox="0 0 1024 1024">
<title></title>
<g id="icomoon-ignore">
</g>
<path fill="#000" d="M597.333 640h-42.667v42.667c0 23.467-19.2 42.667-42.667 42.667s-42.667-19.2-42.667-42.667v-42.667h-42.667c-23.467 0-42.667-19.2-42.667-42.667s19.2-42.667 42.667-42.667h42.667v-42.667c0-23.467 19.2-42.667 42.667-42.667s42.667 19.2 42.667 42.667v42.667h42.667c23.467 0 42.667 19.2 42.667 42.667s-19.2 42.667-42.667 42.667zM832 300.629h-299.776l-110.891-135.637c-8.107-9.899-20.267-15.659-33.024-15.659h-196.309c-58.795 0-106.667 46.549-106.667 103.765v517.803c0 57.216 47.872 103.765 106.667 103.765h640c58.795 0 106.667-46.549 106.667-103.765v-366.507c0-57.216-47.872-103.765-106.667-103.765z"></path>
</svg>
