<!-- Generated by IcoMoon.io -->
<svg version="1.1" xmlns="http://www.w3.org/2000/svg" width="1024" height="1024" viewBox="0 0 1024 1024">
<title></title>
<g id="icomoon-ignore">
</g>
<path fill="#000" d="M593.207 938.667c-9.131 0-18.176-2.901-25.728-8.661l-171.776-129.92c-10.667-8.064-16.939-20.651-16.939-34.005v-139.691l-203.349-393.472c-6.827-13.227-6.272-29.056 1.493-41.771 7.723-12.715 21.547-20.48 36.437-20.48h597.333c15.019 0 28.928 7.893 36.651 20.821 7.68 12.885 8.021 28.928 0.896 42.112l-212.352 393.173v269.227c0 16.171-9.173 30.976-23.68 38.229-6.016 2.944-12.501 4.437-18.987 4.437z"></path>
</svg>
