<!-- Generated by IcoMoon.io -->
<svg version="1.1" xmlns="http://www.w3.org/2000/svg" width="1024" height="1024" viewBox="0 0 1024 1024">
<title></title>
<g id="icomoon-ignore">
</g>
<path fill="#000" d="M464.085 744.832l86.443 65.408v-194.261c0-7.083 1.792-14.037 5.12-20.267l183.467-339.712h-455.68l175.872 340.395c3.157 6.059 4.779 12.8 4.779 19.584v128.853zM593.195 938.667c-9.088 0-18.176-2.901-25.728-8.661l-171.776-129.92c-10.667-8.064-16.939-20.651-16.939-34.005v-139.691l-203.307-393.472c-6.869-13.227-6.315-29.056 1.451-41.771 7.723-12.715 21.547-20.48 36.437-20.48h597.333c15.019 0 28.928 7.893 36.651 20.821 7.68 12.885 8.021 28.885 0.896 42.112l-212.352 393.173v269.227c0 16.171-9.131 30.976-23.637 38.187-6.016 2.987-12.544 4.48-19.029 4.48v0z"></path>
</svg>
