<!-- Generated by IcoMoon.io -->
<svg version="1.1" xmlns="http://www.w3.org/2000/svg" width="1024" height="1024" viewBox="0 0 1024 1024">
<title></title>
<g id="icomoon-ignore">
</g>
<path fill="#000" d="M477.086 651.627v244.395h-240c-21.675 0-39.253-17.408-39.253-38.827v0-205.568h279.253zM826.172 651.605v205.611c0 21.419-17.579 38.784-39.253 38.784v0h-240v-244.395h279.253zM857.583 302.541h-78.592c7.637-15.915 12.288-33.536 12.288-52.395 0-67.328-54.827-122.155-122.197-122.155-80.256 0-128.896 56.32-157.099 109.611-28.203-53.291-76.8-109.611-157.056-109.611-67.371 0-122.24 54.827-122.24 122.155 0 18.859 4.693 36.48 12.331 52.395h-78.592c-21.205 0-38.443 25.003-38.443 55.893v167.509c0 30.848 17.237 55.893 38.443 55.893h310.656v-279.296h69.845v279.296h310.656c21.205 0 38.4-25.045 38.4-55.893v-167.509c0-30.891-17.195-55.893-38.4-55.893v0zM669.082 302.541h-110.123c16.469-43.349 50.347-104.704 110.123-104.704 28.885 0 52.395 23.467 52.395 52.309 0 28.885-23.509 52.395-52.395 52.395v0zM354.927 302.541c-28.885 0-52.395-23.509-52.395-52.395 0-28.843 23.509-52.309 52.395-52.309 59.776 0 93.653 61.355 110.123 104.704h-110.123z"></path>
</svg>
