<!-- Generated by IcoMoon.io -->
<svg version="1.1" xmlns="http://www.w3.org/2000/svg" width="1024" height="1024" viewBox="0 0 1024 1024">
<title></title>
<g id="icomoon-ignore">
</g>
<path fill="#000" d="M746.667 640v170.667h-192v-170.667h192zM469.333 640v170.667h-192v-170.667h192zM213.333 392.533c0-3.541 0.555-6.4 1.109-8.533h254.891v170.667h-254.891c-0.555-2.133-1.109-4.992-1.109-8.533v-153.6zM298.667 256c0-23.552 21.888-42.667 48.768-42.667 53.632 0 86.485 46.507 104.576 85.333h-104.576c-26.88 0-48.768-19.115-48.768-42.667v0zM676.565 213.333c26.88 0 48.768 19.115 48.768 42.667s-21.888 42.667-48.768 42.667h-104.832c17.92-38.827 50.688-85.333 104.832-85.333v0zM810.667 392.533v153.6c0 3.541-0.555 6.4-1.109 8.533h-254.891v-170.667h254.891c0.555 2.133 1.109 4.992 1.109 8.533v0zM819.2 298.667h-16.768c5.035-13.397 8.235-27.605 8.235-42.667 0-70.571-60.16-128-134.101-128-82.005 0-133.461 51.157-164.565 102.272-31.104-51.115-82.56-102.272-164.565-102.272-73.941 0-134.101 57.429-134.101 128 0 15.061 3.243 29.269 8.235 42.667h-16.768c-43.051 0-76.8 41.259-76.8 93.867v153.6c0 47.232 27.307 85.035 64 92.331v186.411c0 39.211 34.688 71.125 77.312 71.125h485.333c42.667 0 77.355-31.915 77.355-71.125v-186.411c36.693-7.296 64-45.099 64-92.331v-153.6c0-52.608-33.749-93.867-76.8-93.867v0z"></path>
</svg>
