<!-- Generated by IcoMoon.io -->
<svg version="1.1" xmlns="http://www.w3.org/2000/svg" width="1024" height="1024" viewBox="0 0 1024 1024">
<title></title>
<g id="icomoon-ignore">
</g>
<path fill="#000" d="M692.915 938.667c-23.552 0-42.667-19.072-42.667-42.667v-110.891c2.005-28.288-6.485-52.907-23.168-70.784-11.051-11.776-14.464-28.757-8.917-43.861 5.547-15.147 19.115-25.856 35.157-27.691 103.851-12.032 200.021-47.701 200.021-225.749 0-34.133-9.899-67.029-28.629-95.019-17.109-25.515-23.339-56.619-17.621-87.595 3.755-20.181 3.541-40.704-0.512-60.544-17.237 5.12-46.763 17.28-89.301 46.891-10.453 7.253-23.723 9.429-35.925 6.016-76.971-21.632-158.336-21.632-235.349 0-12.245 3.413-25.429 1.237-35.883-6.016-42.112-29.312-71.467-41.515-89.387-46.549-4.011 19.669-4.181 40.021-0.469 60.075 5.675 30.805-0.768 62.251-18.176 88.619-18.517 28.117-28.203 60.971-28.032 95.104 0 166.144 80.171 210.475 200.533 225.963 15.872 2.048 29.269 12.8 34.731 27.861 5.419 15.061 1.963 31.872-8.96 43.563-16.512 17.707-25.003 42.069-23.339 66.859l0.043 33.621c0.085 1.707 0.085 3.413 0 5.12l0.043 75.008c0 23.595-19.072 42.667-42.667 42.667-23.552 0-42.667-19.072-42.667-42.667v-24.363c-114.56 14.933-179.84-46.464-225.109-89.131-18.773-17.621-36.437-34.304-49.365-37.675-22.827-5.931-36.523-29.227-30.592-52.011s29.227-36.693 52.011-30.592c34.091 8.875 59.52 32.811 86.443 58.155 43.605 41.088 84.992 80 166.613 64.853v-0.128c-1.579-22.571 1.792-45.696 9.6-67.584-87.637-21.845-212.651-85.547-212.651-299.307-0.256-50.859 14.336-100.096 42.112-142.293 5.205-7.893 7.168-17.152 5.504-26.155-8.533-46.208-3.627-93.653 14.293-137.003 4.864-11.776 14.72-20.779 26.88-24.533 14.123-4.352 66.176-12.672 164.779 51.328 79.829-19.157 162.987-19.157 242.773 0 98.645-64 150.656-55.723 164.779-51.328 12.16 3.755 22.016 12.757 26.88 24.533 17.963 43.435 22.869 90.837 14.293 137.173-1.664 8.917 0 17.664 4.608 24.619 28.16 42.112 43.051 91.349 43.051 142.464 0 216.064-124.715 278.997-212.48 300.075 7.851 22.571 11.136 46.848 9.259 71.296l0.128 107.605c0 23.595-19.115 42.667-42.667 42.667z"></path>
</svg>
