<!-- Generated by IcoMoon.io -->
<svg version="1.1" xmlns="http://www.w3.org/2000/svg" width="1024" height="1024" viewBox="0 0 1024 1024">
<title></title>
<g id="icomoon-ignore">
</g>
<path fill="#000" d="M511.979 42.667c-259.157 0-469.333 205.653-469.333 459.392 0 202.88 134.485 375.083 320.981 435.797 23.509 4.224 32.043-9.941 32.043-22.144 0-10.88-0.384-39.808-0.597-78.080-130.56 27.733-158.080-61.611-158.080-61.611-21.376-53.077-52.139-67.2-52.139-67.2-42.624-28.501 3.243-27.904 3.243-27.904 47.104 3.243 71.851 47.317 71.851 47.317 41.856 70.229 109.824 49.92 136.619 38.187 4.267-29.653 16.341-49.92 29.781-61.44-104.235-11.563-213.803-50.987-213.803-226.987 0-50.133 18.304-91.136 48.341-123.264-4.864-11.605-20.949-58.325 4.565-121.557 0 0 39.424-12.331 129.109 47.061 37.419-10.197 77.568-15.232 117.461-15.445 39.851 0.213 80 5.248 117.504 15.445 89.6-59.392 128.939-47.061 128.939-47.061 25.6 63.232 9.515 109.952 4.651 121.557 30.080 32.128 48.256 73.131 48.256 123.264 0 176.469-109.739 215.296-214.272 226.688 16.853 14.165 31.829 42.197 31.829 85.035 0 61.397-0.555 110.933-0.555 125.995 0 12.288 8.448 26.581 32.256 22.101 186.325-60.843 320.683-232.917 320.683-435.755 0-253.739-210.133-459.392-469.333-459.392z"></path>
</svg>
