<!-- Generated by IcoMoon.io -->
<svg version="1.1" xmlns="http://www.w3.org/2000/svg" width="1024" height="1024" viewBox="0 0 1024 1024">
<title></title>
<g id="icomoon-ignore">
</g>
<path fill="#000" d="M623.659 834.219c44.757-63.915 91.307-157.909 100.608-279.552h126.080c-16.341 130.219-106.197 237.653-226.688 279.552v0zM173.611 554.667h127.659c8.789 122.112 54.741 215.723 100.096 279.936-121.045-41.685-211.328-149.333-227.755-279.936v0zM402.688 188.971c-44.885 63.915-91.861 158.208-101.248 280.363h-127.829c16.469-131.072 107.392-239.061 229.077-280.363v0zM387.371 469.333c13.056-139.605 84.48-236.8 125.739-281.728 42.667 45.696 112.981 141.995 125.141 281.728h-250.88zM387.413 554.667h250.965c-13.056 139.819-84.651 237.013-125.867 281.941-44.672-47.36-113.195-142.336-125.099-281.941v0zM850.347 469.333h-125.952c-8.747-121.557-54.187-214.869-99.328-278.997 119.808 42.24 209.024 149.291 225.28 278.997v0zM938.667 512c0-234.837-190.763-425.899-425.472-426.581-0.171 0-0.341-0.043-0.555-0.043-0.171 0-0.427-0.043-0.64-0.043-235.264 0-426.667 191.445-426.667 426.667 0 235.264 191.403 426.667 426.667 426.667 0.256 0 0.469-0.043 0.64-0.043 0.085 0 0.128 0.043 0.213 0.043 0.128 0 0.256-0.085 0.341-0.085 234.709-0.64 425.472-191.744 425.472-426.581v0z"></path>
</svg>
