<!-- Generated by IcoMoon.io -->
<svg version="1.1" xmlns="http://www.w3.org/2000/svg" width="1024" height="1024" viewBox="0 0 1024 1024">
<title></title>
<g id="icomoon-ignore">
</g>
<path fill="#000" d="M211.708 674.129c27.136 6.869 56.533 11.648 86.443 11.648 46.080 0 93.141-11.221 133.845-43.093 73.216-57.259 73.216-130.517 73.216-189.397 0-38.016 0-70.869 15.872-100.011 8.533-15.616 26.709-26.453 47.744-39.040 12.885-7.68 26.197-15.659 39.040-25.685 27.435-21.461 47.829-49.109 60.459-79.616 59.733 30.891 109.227 78.805 141.867 137.472-60.885 8.491-147.413 28.416-164.821 108.117-4.608 21.077-5.333 40.917-5.931 58.453-0.853 24.875-1.579 44.544-12.245 62.507l-4.224 7.168c-27.605 46.208-58.837 98.645-16.725 171.904 5.077 8.875 10.752 17.408 16.341 25.856 14.677 22.059 21.888 34.219 21.931 46.123-40.789 17.28-85.547 26.795-132.523 26.795-129.579 0-242.517-72.576-300.288-179.2zM511.996 85.329c-235.264 0-426.667 191.445-426.667 426.667 0 235.264 191.403 426.667 426.667 426.667s426.667-191.403 426.667-426.667c0-235.221-191.403-426.667-426.667-426.667z"></path>
</svg>
