<!-- Generated by IcoMoon.io -->
<svg version="1.1" xmlns="http://www.w3.org/2000/svg" width="1024" height="1024" viewBox="0 0 1024 1024">
<title></title>
<g id="icomoon-ignore">
</g>
<path fill="#000" d="M720.585 781.585c-7.339-18.475-17.749-34.603-26.88-48.384-4.608-6.912-9.344-13.952-13.483-21.205-16.597-28.843-10.88-40.533 16.043-85.632l4.352-7.381c21.803-36.736 22.997-71.979 24.107-103.040 0.512-15.275 1.024-29.653 3.968-43.179 6.869-31.232 72.875-39.552 113.792-44.459 6.869 26.837 10.837 54.784 10.837 83.712 0 109.611-52.139 207.061-132.736 269.568zM211.699 674.108c27.136 6.912 56.533 11.691 86.443 11.691 46.080 0 93.141-11.264 133.845-43.136 73.216-57.259 73.216-130.475 73.216-189.355 0-38.059 0-70.869 15.872-100.011 8.533-15.616 26.709-26.453 47.744-39.040 12.885-7.723 26.24-15.659 39.040-25.728 27.435-21.461 47.829-49.067 60.459-79.616 59.733 30.933 109.227 78.848 141.909 137.515-60.928 8.448-147.413 28.416-164.864 108.075-4.608 21.077-5.333 40.917-5.888 58.453-0.896 24.875-1.579 44.544-12.245 62.549l-4.267 7.168c-27.605 46.208-58.837 98.603-16.725 171.861 5.077 8.875 10.752 17.408 16.341 25.899 14.677 22.016 21.888 34.176 21.931 46.123-40.747 17.237-85.547 26.795-132.523 26.795-129.579 0-242.475-72.619-300.288-179.243zM511.987 170.684c26.283 0 51.669 3.243 76.245 8.875-7.211 15.872-18.347 30.336-33.024 41.813-9.301 7.339-19.755 13.44-30.123 19.627-27.776 16.555-59.221 35.328-78.933 71.424-26.283 48.213-26.283 97.451-26.283 140.885 0 57.813-1.877 91.989-40.448 122.155-58.411 45.781-147.797 20.224-203.093-3.029-3.499-19.669-5.675-39.808-5.675-60.416 0-188.203 153.131-341.333 341.333-341.333zM511.987 85.35c-235.264 0-426.667 191.403-426.667 426.667 0 235.221 191.403 426.667 426.667 426.667s426.667-191.445 426.667-426.667c0-235.264-191.403-426.667-426.667-426.667z"></path>
</svg>
