<!-- Generated by IcoMoon.io -->
<svg version="1.1" xmlns="http://www.w3.org/2000/svg" width="1024" height="1024" viewBox="0 0 1024 1024">
<title></title>
<g id="icomoon-ignore">
</g>
<path fill="#000" d="M512.124 170.667c-93.099 0-180.053 36.736-244.907 103.509-64.853 66.688-99.072 154.709-96.384 247.851 4.992 175.104 151.424 323.541 326.357 330.965 186.965 7.381 346.411-137.045 355.925-323.115 0.299-5.461 0.256-29.568 0.171-52.011h-298.752v67.499h226.517l-17.28 55.381c-30.763 98.731-108.757 166.485-208.64 181.248-74.496 10.795-152.107-10.496-212.821-59.008-59.605-47.488-96.981-116.523-102.613-189.44-5.888-77.099 19.584-150.571 71.893-207.019 71.083-76.8 185.984-106.368 284.459-74.411l32.981-60.971c-37.333-13.611-76.544-20.48-116.907-20.48zM511.825 938.624c-6.016 0-12.117-0.128-18.219-0.384-218.795-9.259-401.835-194.859-408.107-413.781-3.285-116.395 39.467-226.389 120.491-309.76 81.109-83.413 189.781-129.365 306.133-129.365 61.184 0 120.32 12.715 175.744 37.76 15.403 6.955 27.392 20.181 32.811 36.309 5.504 16.341 3.968 34.432-4.224 49.579l-55.125 101.717c-14.976 27.819-48.768 39.765-78.293 27.435-70.528-28.715-156.715-9.941-208.853 46.379-35.925 38.784-53.461 89.387-49.408 142.464 3.84 49.408 29.611 96.512 70.741 129.323 42.411 33.835 96.256 48.896 147.115 41.301 46.933-6.955 85.845-30.507 112.299-66.901h-123.861c-34.091 0-61.867-27.733-61.867-61.867v-114.432c0-34.091 27.776-61.867 61.867-61.867h345.6c33.835 0 61.611 27.52 61.867 61.355 0.128 26.923 0.213 72.448-0.171 80.299-11.648 226.645-201.216 404.437-426.539 404.437z"></path>
</svg>
