<!-- Generated by IcoMoon.io -->
<svg version="1.1" xmlns="http://www.w3.org/2000/svg" width="1024" height="1024" viewBox="0 0 1024 1024">
<title></title>
<g id="icomoon-ignore">
</g>
<path fill="#000" d="M746.458 596.501c-28.416 91.392-99.243 154.667-193.493 168.619-143.829 21.291-285.056-87.765-296.235-232.832-11.605-150.528 107.136-276.267 255.317-276.267 34.261 0 66.944 6.741 96.811 18.944 10.368 4.224 22.101 0.597 27.392-9.216l61.227-112.939c5.803-10.795 1.621-24.704-9.557-29.739-53.632-24.235-113.109-37.717-175.744-37.717-239.872 0-433.536 197.803-426.667 439.168 6.272 220.203 188.032 404.437 408.064 413.781 236.629 9.984 432.896-172.629 444.8-404.011 0.469-8.448 0.304-57.643 0.128-86.485-0.043-11.776-9.6-21.12-21.333-21.12h-383.957c-11.776 0-21.333 9.515-21.333 21.333v127.147c0 11.733 9.557 21.333 21.333 21.333h213.248z"></path>
</svg>
