<!-- Generated by IcoMoon.io -->
<svg version="1.1" xmlns="http://www.w3.org/2000/svg" width="1024" height="1024" viewBox="0 0 1024 1024">
<title></title>
<g id="icomoon-ignore">
</g>
<path fill="#000" d="M384 554.667c47.061 0 85.333 38.272 85.333 85.333v0 170.667c0 47.061-38.272 85.333-85.333 85.333v0h-170.667c-47.061 0-85.333-38.272-85.333-85.333v0-170.667c0-47.061 38.272-85.333 85.333-85.333v0zM810.667 554.667c47.061 0 85.333 38.272 85.333 85.333v0 170.667c0 47.061-38.272 85.333-85.333 85.333v0h-170.667c-47.061 0-85.333-38.272-85.333-85.333v0-170.667c0-47.061 38.272-85.333 85.333-85.333v0zM384 128c47.061 0 85.333 38.272 85.333 85.333v0 170.667c0 47.061-38.272 85.333-85.333 85.333v0h-170.667c-47.061 0-85.333-38.272-85.333-85.333v0-170.667c0-47.061 38.272-85.333 85.333-85.333v0zM810.667 128c47.061 0 85.333 38.272 85.333 85.333v0 170.667c0 47.061-38.272 85.333-85.333 85.333v0h-170.667c-47.061 0-85.333-38.272-85.333-85.333v0-170.667c0-47.061 38.272-85.333 85.333-85.333v0z"></path>
</svg>
