<!-- Generated by IcoMoon.io -->
<svg version="1.1" xmlns="http://www.w3.org/2000/svg" width="1024" height="1024" viewBox="0 0 1024 1024">
<title></title>
<g id="icomoon-ignore">
</g>
<path fill="#000" d="M640 810.667v-170.667h170.667l0.043 170.667h-170.709zM810.667 554.667h-170.667c-47.061 0-85.333 38.272-85.333 85.333v170.667c0 47.061 38.272 85.333 85.333 85.333h170.667c47.061 0 85.333-38.272 85.333-85.333v-170.667c0-47.061-38.272-85.333-85.333-85.333v0zM213.333 810.667v-170.667h170.667l0.043 170.667h-170.709zM384 554.667h-170.667c-47.061 0-85.333 38.272-85.333 85.333v170.667c0 47.061 38.272 85.333 85.333 85.333h170.667c47.061 0 85.333-38.272 85.333-85.333v-170.667c0-47.061-38.272-85.333-85.333-85.333v0zM640 384v-170.667h170.667l0.043 170.667h-170.709zM810.667 128h-170.667c-47.061 0-85.333 38.272-85.333 85.333v170.667c0 47.061 38.272 85.333 85.333 85.333h170.667c47.061 0 85.333-38.272 85.333-85.333v-170.667c0-47.061-38.272-85.333-85.333-85.333v0zM213.333 384v-170.667h170.667l0.043 170.667h-170.709zM384 128h-170.667c-47.061 0-85.333 38.272-85.333 85.333v170.667c0 47.061 38.272 85.333 85.333 85.333h170.667c47.061 0 85.333-38.272 85.333-85.333v-170.667c0-47.061-38.272-85.333-85.333-85.333v0z"></path>
</svg>
