<!-- Generated by IcoMoon.io -->
<svg version="1.1" xmlns="http://www.w3.org/2000/svg" width="1024" height="1024" viewBox="0 0 1024 1024">
<title></title>
<g id="icomoon-ignore">
</g>
<path fill="#000" d="M682.667 640c23.467 0 42.667 19.2 42.667 42.667s-19.2 42.667-42.667 42.667v0h-170.667c-23.467 0-42.667-19.2-42.667-42.667s19.2-42.667 42.667-42.667v0zM341.333 640c23.467 0 42.667 19.2 42.667 42.667s-19.2 42.667-42.667 42.667c-23.467 0-42.667-19.2-42.667-42.667s19.2-42.667 42.667-42.667zM768 810.667h-512c-23.509 0-42.667-19.115-42.667-42.667v-213.333h597.333v213.333c0 23.552-19.157 42.667-42.667 42.667v0zM355.925 236.928c7.253-14.549 21.888-23.595 38.144-23.595h235.861c16.256 0 30.891 9.045 38.144 23.595l116.224 232.405h-544.597l116.224-232.405zM886.997 483.925l-142.592-285.184c-21.803-43.605-65.664-70.741-114.475-70.741h-235.861c-48.811 0-92.672 27.136-114.475 70.741l-142.592 285.184c-5.888 11.776-9.003 25.003-9.003 38.144v245.931c0 70.571 57.429 128 128 128h512c70.571 0 128-57.429 128-128v-245.931c0-13.141-3.115-26.368-9.003-38.144v0z"></path>
</svg>
