<!-- Generated by IcoMoon.io -->
<svg version="1.1" xmlns="http://www.w3.org/2000/svg" width="1024" height="1024" viewBox="0 0 1024 1024">
<title></title>
<g id="icomoon-ignore">
</g>
<path fill="#000" d="M413.79 597.333l31.104-170.667h165.333l-31.104 170.667h-165.333zM853.342 597.333h-183.552l31.104-170.667h152.448c23.467 0 42.667-19.2 42.667-42.667s-19.2-42.667-42.667-42.667h-136.96l29.611-162.603c4.267-23.381-12.032-45.952-36.224-50.048-24.192-4.139-47.445 11.648-51.712 35.072l-32.341 177.579h-165.333l29.611-162.603c4.267-23.381-12.032-45.952-36.224-50.048-24.192-4.139-47.445 11.648-51.712 35.072l-32.341 177.579h-199.040c-23.467 0-42.667 19.2-42.667 42.667s19.2 42.667 42.667 42.667h183.552l-31.104 170.667h-152.448c-23.467 0-42.667 19.2-42.667 42.667s19.2 42.667 42.667 42.667h136.917l-29.611 162.603c-4.224 23.381 12.075 45.952 36.267 50.048 24.149 4.139 47.445-11.648 51.669-35.072l32.341-177.579h165.333l-29.611 162.603c-4.224 23.381 12.075 45.952 36.267 50.048 24.149 4.139 47.445-11.648 51.669-35.072l32.341-177.579h199.083c23.467 0 42.667-19.2 42.667-42.667s-19.2-42.667-42.667-42.667v0z"></path>
</svg>
