<!-- Generated by IcoMoon.io -->
<svg version="1.1" xmlns="http://www.w3.org/2000/svg" width="1024" height="1024" viewBox="0 0 1024 1024">
<title></title>
<g id="icomoon-ignore">
</g>
<path fill="#000" d="M512 85.333c-235.264 0-426.667 198.4-426.667 442.283v197.717c0 94.123 76.544 170.667 170.667 170.667s170.667-76.544 170.667-170.667c0-94.123-76.544-170.667-170.667-170.667-31.232 0-60.117 9.045-85.333 23.765v-50.816c0-196.821 153.131-356.949 341.333-356.949s341.333 160.128 341.333 356.949v50.816c-25.216-14.72-54.101-23.765-85.333-23.765-94.123 0-170.667 76.544-170.667 170.667s76.544 170.667 170.667 170.667c94.123 0 170.667-76.544 170.667-170.667v-197.717c0-243.883-191.403-442.283-426.667-442.283z"></path>
</svg>
