<!-- Generated by IcoMoon.io -->
<svg version="1.1" xmlns="http://www.w3.org/2000/svg" width="1024" height="1024" viewBox="0 0 1024 1024">
<title></title>
<g id="icomoon-ignore">
</g>
<path fill="#000" d="M308.041 256c-36.864 0-71.424 14.251-97.28 40.149-53.675 53.76-53.675 141.269 0.043 195.115l301.184 301.696 301.227-301.696c53.717-53.845 53.717-141.355 0-195.115-51.712-51.84-142.848-51.755-194.56 0l-76.459 76.587c-16.043 16.085-44.373 16.085-60.416 0l-76.459-76.629c-25.856-25.856-60.373-40.107-97.28-40.107zM511.987 896v0c-11.307 0-22.187-4.48-30.165-12.544l-331.435-331.947c-86.869-87.040-86.869-228.651 0-315.691 41.984-41.984 97.963-65.152 157.653-65.152s115.712 23.168 157.653 65.152l46.293 46.379 46.293-46.336c41.984-42.027 97.963-65.195 157.696-65.195 59.648 0 115.669 23.168 157.611 65.152 86.912 87.040 86.912 228.651 0.043 315.691l-331.435 331.989c-8.021 8.021-18.859 12.501-30.208 12.501z"></path>
</svg>
