<!-- Generated by IcoMoon.io -->
<svg version="1.1" xmlns="http://www.w3.org/2000/svg" width="1024" height="1024" viewBox="0 0 1024 1024">
<title></title>
<g id="icomoon-ignore">
</g>
<path fill="#000" d="M426.667 768c23.467 0 42.667 19.2 42.667 42.667s-19.2 42.667-42.667 42.667v0h-85.333c-23.467 0-42.667-19.2-42.667-42.667s19.2-42.667 42.667-42.667v0zM738.355 182.605c16.811-16.043 43.392-15.957 59.819 0.555v0l128 128c16.64 16.683 16.64 43.691 0 60.331-8.32 8.363-19.243 12.501-30.165 12.501s-21.845-4.139-30.165-12.501v0l-55.168-55.168v393.813l55.68-53.76c16.981-16.341 43.989-15.872 60.331 1.067 16.384 16.981 15.915 43.989-1.024 60.331v0l-128 123.605c-8.32 7.936-18.987 11.947-29.653 11.947-10.923 0-21.845-4.139-30.165-12.501v0l-128-128c-16.683-16.64-16.683-43.648 0-60.331 16.64-16.64 43.648-16.64 60.331 0v0l55.168 55.168v-393.771l-55.68 53.717c-16.939 16.384-43.947 15.872-60.331-1.067s-15.915-43.947 1.024-60.331v0zM426.667 469.333c23.467 0 42.667 19.2 42.667 42.667s-19.2 42.667-42.667 42.667v0h-170.667c-23.467 0-42.667-19.2-42.667-42.667s19.2-42.667 42.667-42.667v0zM426.667 170.667c23.467 0 42.667 19.2 42.667 42.667s-19.2 42.667-42.667 42.667v0h-298.667c-23.467 0-42.667-19.2-42.667-42.667s19.2-42.667 42.667-42.667v0z"></path>
</svg>
