<!-- Generated by IcoMoon.io -->
<svg version="1.1" xmlns="http://www.w3.org/2000/svg" width="1024" height="1024" viewBox="0 0 1024 1024">
<title></title>
<g id="icomoon-ignore">
</g>
<path fill="#000" d="M481.485 98.159c16.085-16.427 44.928-16.427 61.013 0v0l328.917 336.384c15.616 16.043 24.576 38.4 24.576 61.397v0 357.376c0 47.061-36.139 85.333-80.555 85.333v0h-132.779v-384c0-23.552-19.072-42.667-42.667-42.667v0h-256c-23.595 0-42.667 19.115-42.667 42.667v0 384h-132.736c-44.416 0-80.597-38.272-80.597-85.333v0-357.376c0-22.997 8.96-45.355 24.533-61.355v0zM597.333 597.333v298.667h-170.667v-298.667h170.667z"></path>
</svg>
