<!-- Generated by IcoMoon.io -->
<svg version="1.1" xmlns="http://www.w3.org/2000/svg" width="1024" height="1024" viewBox="0 0 1024 1024">
<title></title>
<g id="icomoon-ignore">
</g>
<path fill="#000" d="M511.923 188.578l298.752 306.859-0.427 357.376h-127.573v-298.667c0-23.595-19.115-42.667-42.667-42.667h-256c-23.595 0-42.667 19.072-42.667 42.667v298.667h-128l0.256-359.125 298.325-305.109zM597.342 596.813v256h-170.667v-256h170.667zM871.433 434.039l-328.917-336.384c-16.085-16.427-44.928-16.427-61.013 0l-328.96 336.427c-15.573 16-24.533 38.357-24.533 61.355v357.376c0 47.061 36.139 85.333 80.555 85.333h606.848c44.416 0 80.597-38.272 80.597-85.333v-357.376c0-22.997-8.96-45.355-24.576-61.397v0z"></path>
</svg>
