<!-- Generated by IcoMoon.io -->
<svg version="1.1" xmlns="http://www.w3.org/2000/svg" width="1024" height="1024" viewBox="0 0 1024 1024">
<title></title>
<g id="icomoon-ignore">
</g>
<path fill="#000" d="M341.333 426.667c35.328 0 64-28.672 64-64s-28.672-64-64-64c-35.328 0-64 28.672-64 64s28.672 64 64 64zM768 810.667h-488.064l298.88-249.387c10.496-8.917 29.525-8.875 39.808-0.043l192.043 163.84v42.923c0 23.552-19.115 42.667-42.667 42.667zM256 213.333h512c23.552 0 42.667 19.115 42.667 42.667v356.864l-136.661-116.565c-42.24-35.925-108.331-35.925-150.187-0.256l-310.485 259.072v-499.115c0-23.552 19.115-42.667 42.667-42.667zM768 128h-512c-70.571 0-128 57.429-128 128v512c0 70.571 57.429 128 128 128h512c70.571 0 128-57.429 128-128v-512c0-70.571-57.429-128-128-128z"></path>
</svg>
