<!-- Generated by IcoMoon.io -->
<svg version="1.1" xmlns="http://www.w3.org/2000/svg" width="1024" height="1024" viewBox="0 0 1024 1024">
<title></title>
<g id="icomoon-ignore">
</g>
<path fill="#000" d="M810.667 760.917c0 27.477-19.115 49.749-42.667 49.749h-512l322.816-290.859c10.496-10.453 29.525-10.411 39.808-0.043l192.043 191.061v50.091zM341.333 298.667c35.328 0 64 28.672 64 64s-28.672 64-64 64c-35.328 0-64-28.672-64-64s28.672-64 64-64v0zM768 128h-512c-70.571 0-128 57.429-128 128v512c0 70.571 57.429 128 128 128h512c70.571 0 128-57.429 128-128v-512c0-70.571-57.429-128-128-128v0z"></path>
</svg>
