<!-- Generated by IcoMoon.io -->
<svg version="1.1" xmlns="http://www.w3.org/2000/svg" width="1024" height="1024" viewBox="0 0 1024 1024">
<title></title>
<g id="icomoon-ignore">
</g>
<path d="M566.118 127.488c158.72 0 287.232 131.84 287.232 294.554 0 93.901-43.008 177.664-109.824 231.526v285.082h-331.571v-70.451h135.27v-739.482c8.243-0.819 10.547-1.229 18.893-1.229zM520.806 85.35v756.019l-156.774 0.205c-69.171 0-125.235-57.498-125.235-128.512v-91.034h-42.547c-14.182 0-25.6-11.776-25.6-26.214 0-3.584 0.614-7.168 1.946-10.24l66.253-171.366s6.963-70.963 13.056-98.15c25.344-111.974 139.162-214.323 268.902-230.707zM311.706 415.59c-17.152 0.201-30.979 14.152-30.979 31.332 0 0.145 0.001 0.289 0.003 0.434v-0.022c0 17.562 13.824 31.744 30.976 31.744 17.158-0.23 30.978-14.192 30.978-31.383 0-0.127-0.001-0.254-0.002-0.38v0.019c0.001-0.107 0.002-0.234 0.002-0.361 0-17.19-13.82-31.153-30.956-31.383h-0.022z"></path>
</svg>
