<!-- Generated by IcoMoon.io -->
<svg version="1.1" xmlns="http://www.w3.org/2000/svg" width="1024" height="1024" viewBox="0 0 1024 1024">
<title></title>
<g id="icomoon-ignore">
</g>
<path fill="#000" d="M355.917 236.915c7.211-14.464 22.016-23.595 38.187-23.595h235.819c16.171 0 30.933 9.131 38.144 23.595l116.224 232.405h-101.632c-23.552 0-42.667 19.115-42.667 42.667v85.333c0 23.595-19.115 42.667-42.667 42.667h-170.667c-23.552 0-42.667-19.072-42.667-42.667v-85.333c0-23.552-19.115-42.667-42.667-42.667h-101.632l116.224-232.405zM886.989 483.913l-142.592-285.184c-21.803-43.605-65.664-70.741-114.475-70.741h-235.861c-48.811 0-92.629 27.136-114.475 70.741l-142.592 285.184c-5.888 11.776-9.003 25.003-9.003 38.187v245.888c0 70.613 57.429 128 128 128h512c70.613 0 128-57.387 128-128v-245.888c0-13.184-3.115-26.411-9.003-38.187v0z"></path>
</svg>
