<!-- Generated by IcoMoon.io -->
<svg version="1.1" xmlns="http://www.w3.org/2000/svg" width="1024" height="1024" viewBox="0 0 1024 1024">
<title></title>
<g id="icomoon-ignore">
</g>
<path fill="#000" d="M512 384c-23.552 0-42.667-19.115-42.667-42.667s19.115-42.667 42.667-42.667c23.552 0 42.667 19.115 42.667 42.667s-19.115 42.667-42.667 42.667v0zM554.667 682.667c0 23.552-19.115 42.667-42.667 42.667s-42.667-19.115-42.667-42.667v-213.333c0-23.552 19.115-42.667 42.667-42.667s42.667 19.115 42.667 42.667v213.333zM512 85.333c-235.648 0-426.667 191.019-426.667 426.667s191.019 426.667 426.667 426.667c235.605 0 426.667-191.019 426.667-426.667s-191.061-426.667-426.667-426.667v0z"></path>
</svg>
