<!-- Generated by IcoMoon.io -->
<svg version="1.1" xmlns="http://www.w3.org/2000/svg" width="1024" height="1024" viewBox="0 0 1024 1024">
<title></title>
<g id="icomoon-ignore">
</g>
<path fill="#000" d="M213.333 682.662c70.571 0 128 57.429 128 128s-57.429 128-128 128c-70.571 0-128-57.429-128-128s57.429-128 128-128zM512 682.662c70.571 0 128 57.429 128 128s-57.429 128-128 128c-70.571 0-128-57.429-128-128s57.429-128 128-128zM810.667 682.662c70.571 0 128 57.429 128 128s-57.429 128-128 128c-70.571 0-128-57.429-128-128s57.429-128 128-128zM213.333 383.996c70.571 0 128 57.429 128 128s-57.429 128-128 128c-70.571 0-128-57.429-128-128s57.429-128 128-128zM512 383.996c70.571 0 128 57.429 128 128s-57.429 128-128 128c-70.571 0-128-57.429-128-128s57.429-128 128-128zM810.667 383.996c70.571 0 128 57.429 128 128s-57.429 128-128 128c-70.571 0-128-57.429-128-128s57.429-128 128-128zM213.333 85.329c70.571 0 128 57.429 128 128s-57.429 128-128 128c-70.571 0-128-57.429-128-128s57.429-128 128-128zM512 85.329c70.571 0 128 57.429 128 128s-57.429 128-128 128c-70.571 0-128-57.429-128-128s57.429-128 128-128zM810.667 85.329c70.571 0 128 57.429 128 128s-57.429 128-128 128c-70.571 0-128-57.429-128-128s57.429-128 128-128z"></path>
</svg>
