<!-- Generated by IcoMoon.io -->
<svg version="1.1" xmlns="http://www.w3.org/2000/svg" width="1024" height="1024" viewBox="0 0 1024 1024">
<title></title>
<g id="icomoon-ignore">
</g>
<path fill="#000" d="M810.667 853.333c-23.595 0-42.667-19.072-42.667-42.667s19.072-42.667 42.667-42.667c23.595 0 42.667 19.072 42.667 42.667s-19.072 42.667-42.667 42.667zM810.667 682.667c-70.571 0-128 57.429-128 128s57.429 128 128 128c70.571 0 128-57.429 128-128s-57.429-128-128-128zM512 853.333c-23.595 0-42.667-19.072-42.667-42.667s19.072-42.667 42.667-42.667c23.595 0 42.667 19.072 42.667 42.667s-19.072 42.667-42.667 42.667zM512 682.667c-70.571 0-128 57.429-128 128s57.429 128 128 128c70.571 0 128-57.429 128-128s-57.429-128-128-128zM213.333 853.333c-23.595 0-42.667-19.072-42.667-42.667s19.072-42.667 42.667-42.667c23.595 0 42.667 19.072 42.667 42.667s-19.072 42.667-42.667 42.667zM213.333 682.667c-70.571 0-128 57.429-128 128s57.429 128 128 128c70.571 0 128-57.429 128-128s-57.429-128-128-128zM810.667 554.667c-23.595 0-42.667-19.072-42.667-42.667s19.072-42.667 42.667-42.667c23.595 0 42.667 19.072 42.667 42.667s-19.072 42.667-42.667 42.667zM810.667 384c-70.571 0-128 57.429-128 128s57.429 128 128 128c70.571 0 128-57.429 128-128s-57.429-128-128-128zM512 554.667c-23.595 0-42.667-19.072-42.667-42.667s19.072-42.667 42.667-42.667c23.595 0 42.667 19.072 42.667 42.667s-19.072 42.667-42.667 42.667zM512 384c-70.571 0-128 57.429-128 128s57.429 128 128 128c70.571 0 128-57.429 128-128s-57.429-128-128-128zM213.333 554.667c-23.595 0-42.667-19.072-42.667-42.667s19.072-42.667 42.667-42.667c23.595 0 42.667 19.072 42.667 42.667s-19.072 42.667-42.667 42.667zM213.333 384c-70.571 0-128 57.429-128 128s57.429 128 128 128c70.571 0 128-57.429 128-128s-57.429-128-128-128zM810.667 170.667c23.595 0 42.667 19.072 42.667 42.667s-19.072 42.667-42.667 42.667c-23.595 0-42.667-19.072-42.667-42.667s19.072-42.667 42.667-42.667zM810.667 341.333c70.571 0 128-57.429 128-128s-57.429-128-128-128c-70.571 0-128 57.429-128 128s57.429 128 128 128zM512 256c-23.595 0-42.667-19.115-42.667-42.667 0-23.595 19.072-42.667 42.667-42.667s42.667 19.072 42.667 42.667c0 23.552-19.072 42.667-42.667 42.667zM512 85.333c-70.571 0-128 57.429-128 128s57.429 128 128 128c70.571 0 128-57.429 128-128s-57.429-128-128-128zM213.333 256c-23.595 0-42.667-19.072-42.667-42.667s19.072-42.667 42.667-42.667c23.595 0 42.667 19.072 42.667 42.667s-19.072 42.667-42.667 42.667zM213.333 85.333c-70.571 0-128 57.429-128 128s57.429 128 128 128c70.571 0 128-57.429 128-128s-57.429-128-128-128z"></path>
</svg>
