<!-- Generated by IcoMoon.io -->
<svg version="1.1" xmlns="http://www.w3.org/2000/svg" width="1024" height="1024" viewBox="0 0 1024 1024">
<title></title>
<g id="icomoon-ignore">
</g>
<path fill="#000" d="M757.773 663.040l-245.76 141.099-245.76-141.099 72.277-30.763 152.235 87.381c6.571 3.797 13.909 5.675 21.248 5.675s14.635-1.877 21.248-5.675l152.235-87.424 72.277 30.805zM490.765 548.992c6.571 3.797 13.909 5.675 21.248 5.675s14.635-1.877 21.248-5.675l152.235-87.424 72.277 30.805-245.76 141.099-245.76-141.099 72.277-30.805 152.235 87.424zM512.013 217.045l245.76 104.661-245.76 141.099-245.76-141.099 245.76-104.661zM895.927 484.181c-0.981-16.171-11.008-30.379-25.899-36.736l-91.819-39.083 96.384-55.339c14.037-8.021 22.272-23.339 21.333-39.509-0.981-16.128-11.008-30.379-25.899-36.736l-341.333-145.365c-10.667-4.565-22.741-4.565-33.408 0l-341.333 145.365c-14.891 6.357-24.917 20.608-25.856 36.736-0.981 16.171 7.296 31.488 21.333 39.509l96.341 55.339-91.819 39.083c-14.891 6.357-24.917 20.565-25.856 36.736-0.981 16.171 7.296 31.488 21.333 39.509l96.341 55.339-91.819 39.083c-14.891 6.357-24.917 20.565-25.856 36.736-0.981 16.171 7.296 31.488 21.333 39.509l341.333 195.968c6.571 3.797 13.909 5.675 21.248 5.675s14.635-1.877 21.248-5.675l341.333-195.968c14.037-8.021 22.272-23.339 21.333-39.509-0.981-16.128-11.008-30.379-25.856-36.736l-91.819-39.125 96.341-55.296c14.037-8.021 22.272-23.339 21.333-39.509v0z"></path>
</svg>
