<!-- Generated by IcoMoon.io -->
<svg version="1.1" xmlns="http://www.w3.org/2000/svg" width="1024" height="1024" viewBox="0 0 1024 1024">
<title></title>
<g id="icomoon-ignore">
</g>
<path fill="#000" d="M817.109 615.369l66.432 28.757c15.573 6.741 16.853 28.629 2.176 37.163v0l-363.52 211.968c-6.315 3.669-14.080 3.669-20.395 0v0l-363.52-211.968c-14.677-8.533-13.397-30.421 2.176-37.163v0l66.432-28.757 294.912 160.469c6.315 3.413 14.080 3.413 20.395 0v0l294.912-160.469zM805.461 421.389l78.080 33.28c15.573 6.613 16.853 28.203 2.176 36.608v0l-363.52 208.939c-6.315 3.627-14.080 3.627-20.395 0v0l-363.52-208.939c-14.677-8.405-13.397-29.995 2.176-36.608v0l78.080-33.28 283.264 154.112c6.315 3.413 14.080 3.413 20.395 0v0l283.264-154.112zM503.966 129.54c5.12-2.048 10.923-2.048 16.043 0v0l363.52 146.731c15.573 6.272 16.853 26.667 2.219 34.645v0l-363.563 197.803c-6.315 3.413-14.080 3.413-20.352 0v0l-363.563-197.803c-14.635-7.979-13.355-28.373 2.176-34.645v0z"></path>
</svg>
