<!-- Generated by IcoMoon.io -->
<svg version="1.1" xmlns="http://www.w3.org/2000/svg" width="1024" height="1024" viewBox="0 0 1024 1024">
<title></title>
<g id="icomoon-ignore">
</g>
<path fill="#000" d="M768 810.667h-213.333v-384h256v341.333c0 23.552-19.157 42.667-42.667 42.667zM213.333 768v-341.333h256v384h-213.333c-23.509 0-42.667-19.115-42.667-42.667zM256 213.333h512c23.509 0 42.667 19.115 42.667 42.667v85.333h-597.333v-85.333c0-23.552 19.157-42.667 42.667-42.667zM768 128h-512c-70.571 0-128 57.429-128 128v512c0 70.571 57.429 128 128 128h512c70.571 0 128-57.429 128-128v-512c0-70.571-57.429-128-128-128z"></path>
</svg>
