<!-- Generated by IcoMoon.io -->
<svg version="1.1" xmlns="http://www.w3.org/2000/svg" width="1024" height="1024" viewBox="0 0 1024 1024">
<title></title>
<g id="icomoon-ignore">
</g>
<path fill="#000" d="M220.045 439.189c16.811-16.683 44.032-16.683 60.8 0 16.768 16.768 16.768 43.904 0 60.629v0l-60.8 60.587c-70.699 70.528-66.816 187.691 11.648 253.056 69.461 57.899 173.867 46.891 237.909-16.981v0l54.357-54.229c16.811-16.768 43.989-16.768 60.8 0 16.768 16.768 16.768 43.861 0 60.629v0l-60.8 60.587c-108.459 108.117-290.219 99.669-387.115-25.472-80.128-103.424-63.872-252.075 28.8-344.491v0zM567.168 396.501c16.683-16.683 43.648-16.683 60.331 0s16.683 43.648 0 60.331v0l-170.667 170.667c-8.32 8.32-19.243 12.501-30.165 12.501s-21.845-4.181-30.165-12.501c-16.683-16.683-16.683-43.648 0-60.331v0zM491.823 166.387c93.099-93.312 243.328-110.165 347.093-29.013 124.288 97.195 132.437 278.315 24.448 386.56v0l-60.715 60.8c-16.768 16.811-43.904 16.811-60.672 0-16.768-16.768-16.768-44.032 0-60.8v0l60.672-60.843c70.613-70.699 66.773-188.245-11.605-253.867-69.419-58.155-173.611-47.061-237.568 17.024v0l-54.315 54.4c-16.725 16.811-43.947 16.811-60.672 0-16.768-16.768-16.939-43.861 7.552-68.395v0z"></path>
</svg>
