<!-- Generated by IcoMoon.io -->
<svg version="1.1" xmlns="http://www.w3.org/2000/svg" width="1024" height="1024" viewBox="0 0 1024 1024">
<title></title>
<g id="icomoon-ignore">
</g>
<path fill="#000" d="M384 256c23.552 0 42.667 19.072 42.667 42.667s-19.115 42.667-42.667 42.667v0h-85.333c-99.285 0-179.029 85.163-169.941 186.283 7.979 89.557 89.045 155.051 178.901 155.051v0h76.373c23.552 0 42.667 19.072 42.667 42.667s-19.115 42.667-42.667 42.667v0h-85.333c-152.235 0-273.835-133.589-253.824-289.664 16.555-129.024 132.651-222.336 262.741-222.336v0zM715.055 256.009c130.859 0 248.277 93.739 264.277 223.659 19.157 155.563-102.187 288.341-253.995 288.341v0h-85.333c-23.552 0-42.667-19.072-42.667-42.667s19.115-42.667 42.667-42.667v0h85.333c99.285 0 179.029-85.163 169.941-186.283-7.979-89.557-89.045-155.051-178.944-155.051v0h-76.331c-23.552 0-42.667-19.072-42.667-42.667s18.901-42.667 53.291-42.667v0zM640 469.333c23.552 0 42.667 19.072 42.667 42.667s-19.115 42.667-42.667 42.667v0h-256c-23.552 0-42.667-19.072-42.667-42.667s19.115-42.667 42.667-42.667v0z"></path>
</svg>
