<!-- Generated by IcoMoon.io -->
<svg version="1.1" xmlns="http://www.w3.org/2000/svg" width="1024" height="1024" viewBox="0 0 1024 1024">
<title></title>
<g id="icomoon-ignore">
</g>
<path fill="#000" d="M170.667 426.667h-0.085l0.085 426.667h85.333v-426.667h-85.333zM256 938.667h-85.333c-47.061 0-85.333-38.272-85.333-85.333v-426.667c0-47.061 38.272-85.333 85.333-85.333h85.333c47.061 0 85.333 38.272 85.333 85.333v426.667c0 47.061-38.272 85.333-85.333 85.333v0zM661.542 498.876c6.528 0 13.141 0.555 19.669 1.579 57.6 9.429 100.992 62.592 100.992 123.733v229.163h71.125v-233.045c0-106.752-86.101-193.621-192-193.621-105.856 0-192 86.869-192 193.621v233.045h71.125v-233.045c0-35.797 15.573-69.589 42.795-92.715 22.016-18.688 49.707-28.715 78.293-28.715zM853.329 938.684h-71.125c-47.019 0-85.333-38.315-85.333-85.333v-229.163c0-19.499-12.928-36.821-29.355-39.467-14.336-2.475-24.32 3.925-28.971 7.851-8.107 6.912-12.757 17.024-12.757 27.733v233.045c0 47.019-38.272 85.333-85.333 85.333h-71.125c-47.019 0-85.333-38.315-85.333-85.333v-233.045c0-153.856 124.416-278.955 277.333-278.955s277.333 125.099 277.333 278.955v233.045c0 47.019-38.272 85.333-85.333 85.333zM213.333 128c-23.552 0-42.667 19.115-42.667 42.667s19.115 42.667 42.667 42.667c23.552 0 42.667-19.115 42.667-42.667s-19.115-42.667-42.667-42.667zM213.333 298.667c-70.571 0-128-57.429-128-128s57.429-128 128-128c70.571 0 128 57.429 128 128s-57.429 128-128 128z"></path>
</svg>
