<!-- Generated by IcoMoon.io -->
<svg version="1.1" xmlns="http://www.w3.org/2000/svg" width="1024" height="1024" viewBox="0 0 1024 1024">
<title></title>
<g id="icomoon-ignore">
</g>
<path fill="#000" d="M646.417 358.417c137.813 0 249.6 111.104 249.6 248.064v0 251.093c0 21.205-17.237 38.443-38.443 38.443v0h-89.557c-21.205 0-38.443-17.237-38.443-38.443v0-245.973c0-43.477-31.275-83.029-74.539-87.339-49.835-4.992-91.819 33.749-91.819 82.219v0 251.093c0 21.205-17.237 38.443-38.443 38.443v0h-89.557c-21.205 0-38.443-17.237-38.443-38.443v0-251.093c0-136.96 111.787-248.064 249.643-248.064zM281.583 396.791c21.205 0 38.4 17.195 38.4 38.4v0 422.4c0 21.205-17.195 38.4-38.4 38.4v0h-115.157c-21.205 0-38.443-17.195-38.443-38.4v0-422.4c0-21.205 17.237-38.4 38.443-38.4v0zM224 128c52.992 0 96 43.008 96 96s-43.008 96-96 96c-52.992 0-96-43.008-96-96s43.008-96 96-96z"></path>
</svg>
