<!-- Generated by IcoMoon.io -->
<svg version="1.1" xmlns="http://www.w3.org/2000/svg" width="1024" height="1024" viewBox="0 0 1024 1024">
<title></title>
<g id="icomoon-ignore">
</g>
<path fill="#000" d="M512 768c23.552 0 42.667 19.072 42.667 42.667v0 85.333c0 23.595-19.115 42.667-42.667 42.667s-42.667-19.072-42.667-42.667v0-85.333c0-23.595 19.115-42.667 42.667-42.667zM696.149 689.818c16.384-16.896 43.392-17.408 60.331-1.067v0l61.397 59.307c16.939 16.341 17.408 43.392 1.024 60.331-8.363 8.661-19.499 13.013-30.677 13.013-10.667 0-21.333-3.925-29.653-11.947v0l-61.397-59.307c-16.939-16.341-17.408-43.392-1.024-60.331zM267.52 688.751c16.981-16.341 43.989-15.829 60.331 1.067 16.384 16.939 15.915 43.989-1.024 60.331v0l-61.397 59.307c-8.32 8.021-18.987 11.947-29.653 11.947-11.179 0-22.315-4.352-30.677-13.013-16.384-16.939-15.915-43.989 1.024-60.331v0zM896 469.333c23.552 0 42.667 19.072 42.667 42.667s-19.115 42.667-42.667 42.667v0h-85.333c-23.552 0-42.667-19.072-42.667-42.667s19.115-42.667 42.667-42.667v0zM213.333 469.333c23.552 0 42.667 19.072 42.667 42.667s-19.115 42.667-42.667 42.667v0h-85.333c-23.552 0-42.667-19.072-42.667-42.667s19.115-42.667 42.667-42.667v0zM205.086 215.607c16.427-16.896 43.392-17.451 60.331-1.067v0l61.397 59.307c16.939 16.341 17.408 43.392 1.024 60.331-8.363 8.661-19.499 13.013-30.677 13.013-10.667 0-21.333-3.925-29.653-11.947v0l-61.397-59.307c-16.939-16.341-17.408-43.392-1.024-60.331zM758.579 214.558c17.024-16.384 43.989-15.829 60.331 1.067 16.384 16.896 15.915 43.947-1.024 60.331v0l-61.397 59.307c-8.32 7.979-18.987 11.947-29.653 11.947-11.179 0-22.315-4.395-30.677-13.056-16.384-16.896-15.915-43.947 1.024-60.331v0zM512 85.333c23.552 0 42.667 19.072 42.667 42.667v0 85.333c0 23.595-19.115 42.667-42.667 42.667s-42.667-19.072-42.667-42.667v0-85.333c0-23.595 19.115-42.667 42.667-42.667z"></path>
</svg>
