<!-- Generated by IcoMoon.io -->
<svg version="1.1" xmlns="http://www.w3.org/2000/svg" width="1024" height="1024" viewBox="0 0 1024 1024">
<title></title>
<g id="icomoon-ignore">
</g>
<path fill="#000" d="M512 682.667c-23.552 0-42.667-19.115-42.667-42.667s19.115-42.667 42.667-42.667c23.552 0 42.667 19.115 42.667 42.667s-19.115 42.667-42.667 42.667zM512 512c-70.571 0-128 57.429-128 128s57.429 128 128 128c70.571 0 128-57.429 128-128s-57.429-128-128-128zM768 810.667c0 23.552-19.115 42.667-42.667 42.667h-426.667c-23.552 0-42.667-19.115-42.667-42.667v-341.333c0-23.552 19.115-42.667 42.667-42.667h426.667c23.552 0 42.667 19.115 42.667 42.667v341.333zM426.667 260.736c0-49.664 38.272-90.069 85.333-90.069s85.333 40.405 85.333 90.069v80.597h-170.667v-80.597zM725.333 341.333h-42.667v-80.597c0-96.683-76.544-175.403-170.667-175.403s-170.667 78.72-170.667 175.403v80.597h-42.667c-70.571 0-128 57.429-128 128v341.333c0 70.571 57.429 128 128 128h426.667c70.571 0 128-57.429 128-128v-341.333c0-70.571-57.429-128-128-128v0z"></path>
</svg>
