<!-- Generated by IcoMoon.io -->
<svg version="1.1" xmlns="http://www.w3.org/2000/svg" width="1024" height="1024" viewBox="0 0 1024 1024">
<title></title>
<g id="icomoon-ignore">
</g>
<path fill="#000" d="M298.667 170.667c23.467 0 42.667 19.2 42.667 42.667s-19.2 42.667-42.667 42.667v0h-42.667v512h42.667c23.467 0 42.667 19.2 42.667 42.667s-19.2 42.667-42.667 42.667v0h-85.333c-23.467 0-42.667-19.2-42.667-42.667v0-597.333c0-23.467 19.2-42.667 42.667-42.667v0zM708.732 306.423c19.243-13.611 45.867-8.917 59.435 10.368v0l120.064 170.667c10.667 15.104 10.325 35.371-0.768 50.133v0l-128 170.667c-8.363 11.179-21.205 17.067-34.176 17.067-8.875 0-17.877-2.773-25.557-8.533-18.859-14.123-22.656-40.875-8.533-59.691v0l76.843-102.443h-341.376c-23.552 0-42.667-19.072-42.667-42.667s19.115-42.667 42.667-42.667v0h341.333c1.28 0 2.389 0.64 3.669 0.768v0l-73.301-104.235c-13.568-19.243-8.917-45.867 10.368-59.435z"></path>
</svg>
