<!-- Generated by IcoMoon.io -->
<svg version="1.1" xmlns="http://www.w3.org/2000/svg" width="1024" height="1024" viewBox="0 0 1024 1024">
<title></title>
<g id="icomoon-ignore">
</g>
<path fill="#000" d="M810.667 170.667c23.467 0 42.667 19.2 42.667 42.667v0 597.333c0 23.467-19.2 42.667-42.667 42.667v0h-85.333c-23.467 0-42.667-19.2-42.667-42.667s19.2-42.667 42.667-42.667v0h42.667v-512h-42.667c-23.467 0-42.667-19.2-42.667-42.667s19.2-42.667 42.667-42.667v0zM443.725 307.217c18.944-14.123 45.611-10.283 59.733 8.533v0l128 170.667c11.093 14.763 11.435 34.987 0.768 50.133v0l-120.064 170.667c-8.32 11.819-21.504 18.133-34.944 18.133-8.448 0-17.024-2.517-24.491-7.765-19.285-13.568-23.936-40.192-10.368-59.477v0l73.301-104.192c-1.28 0.128-2.389 0.768-3.669 0.768v0h-341.333c-23.552 0-42.667-19.115-42.667-42.667 0-23.595 19.115-42.667 42.667-42.667v0h341.333l-76.8-102.443c-14.123-18.816-10.325-45.568 8.533-59.691z"></path>
</svg>
