<!-- Generated by IcoMoon.io -->
<svg version="1.1" xmlns="http://www.w3.org/2000/svg" width="1024" height="1024" viewBox="0 0 1024 1024">
<title></title>
<g id="icomoon-ignore">
</g>
<path fill="#000" d="M810.667 744.708l-85.333-38.315v-427.093l85.333 38.315v427.093zM554.667 317.615l85.333-38.315v427.093l-85.333 38.315v-427.093zM384 279.3l85.333 38.315v427.093l-85.333-38.315v-427.093zM213.333 317.615l85.333-38.315v427.093l-85.333 38.315v-427.093zM870.827 251.14l-170.667-76.715c-0.64-0.299-1.323-0.341-1.963-0.597-1.749-0.683-3.499-1.152-5.291-1.621-1.664-0.427-3.328-0.811-5.035-0.981-1.664-0.213-3.328-0.256-5.035-0.256-1.877 0-3.712 0.043-5.589 0.256-1.579 0.171-3.072 0.555-4.608 0.939-1.877 0.469-3.712 0.981-5.547 1.664-0.597 0.256-1.323 0.299-1.92 0.597l-153.173 68.821-153.173-68.821c-0.64-0.299-1.323-0.341-1.963-0.597-1.749-0.683-3.499-1.152-5.291-1.621-1.664-0.427-3.328-0.811-5.035-0.981-1.664-0.213-3.328-0.256-5.035-0.256-1.877 0-3.712 0.043-5.589 0.256-1.579 0.171-3.072 0.555-4.608 0.939-1.877 0.469-3.712 0.981-5.547 1.664-0.597 0.256-1.323 0.299-1.92 0.597l-170.667 76.715c-15.317 6.869-25.173 22.101-25.173 38.912v520.619c0 14.464 7.339 27.947 19.499 35.84 6.997 4.523 15.061 6.827 23.168 6.827 5.931 0 11.904-1.237 17.493-3.755l153.173-68.821 153.173 68.821c0.64 0.299 1.323 0.171 2.005 0.427 4.992 2.005 10.155 3.328 15.488 3.328s10.496-1.323 15.488-3.328c0.64-0.256 1.408-0.128 2.005-0.427l153.173-68.821 153.173 68.821c5.589 2.517 11.563 3.755 17.493 3.755 8.107 0 16.171-2.304 23.168-6.827 12.16-7.893 19.499-21.376 19.499-35.84v-520.619c0-16.811-9.856-32.043-25.173-38.912v0z"></path>
</svg>
