<!-- Generated by IcoMoon.io -->
<svg version="1.1" xmlns="http://www.w3.org/2000/svg" width="1024" height="1024" viewBox="0 0 1024 1024">
<title></title>
<g id="icomoon-ignore">
</g>
<path fill="#000" d="M855.522 682.667c22.272 0 40.491 18.219 40.491 40.491v0 4.352c0 22.272-18.219 40.491-40.491 40.491v0h-687.061c-22.272 0-40.448-18.219-40.448-40.491v0-4.352c0-22.272 18.176-40.491 40.448-40.491v0zM855.522 469.333c22.272 0 40.491 18.219 40.491 40.491v0 4.352c0 22.272-18.219 40.491-40.491 40.491v0h-687.061c-22.272 0-40.448-18.219-40.448-40.491v0-4.352c0-22.272 18.176-40.491 40.448-40.491v0zM855.522 256c22.272 0 40.491 18.219 40.491 40.491v0 4.352c0 22.272-18.219 40.491-40.491 40.491v0h-687.061c-22.272 0-40.448-18.219-40.448-40.491v0-4.352c0-22.272 18.176-40.491 40.448-40.491v0z"></path>
</svg>
