<!-- Generated by IcoMoon.io -->
<svg version="1.1" xmlns="http://www.w3.org/2000/svg" width="1024" height="1024" viewBox="0 0 1024 1024">
<title></title>
<g id="icomoon-ignore">
</g>
<path fill="#000" d="M855.543 725.333c22.229 0 40.448 18.219 40.448 40.448v0 4.437c0 22.229-18.219 40.448-40.448 40.448v0h-687.104c-22.229 0-40.448-18.219-40.448-40.448v0-4.437c0-22.229 18.219-40.448 40.448-40.448v0zM247.159 353.835c16.683-16.683 43.691-16.683 60.331 0 16.683 16.683 16.683 43.648 0 60.331v0l-55.168 55.168h603.221c22.229 0 40.448 18.219 40.448 40.448v0 4.437c0 22.229-18.219 40.448-40.448 40.448v0h-603.221l55.168 55.168c16.683 16.683 16.683 43.648 0 60.331-8.32 8.32-19.243 12.501-30.165 12.501s-21.803-4.181-30.165-12.501v0l-128-128c-16.64-16.683-16.64-43.648 0-60.331v0zM855.543 213.333c22.229 0 40.448 18.219 40.448 40.448v0 4.437c0 22.229-18.219 40.448-40.448 40.448v0h-687.104c-22.229 0-40.448-18.219-40.448-40.448v0-4.437c0-22.229 18.219-40.448 40.448-40.448v0z"></path>
</svg>
