<!-- Generated by IcoMoon.io -->
<svg version="1.1" xmlns="http://www.w3.org/2000/svg" width="1024" height="1024" viewBox="0 0 1024 1024">
<title></title>
<g id="icomoon-ignore">
</g>
<path fill="#000" d="M856.085 682.667c21.973 0 39.936 17.963 39.936 39.936v0 5.461c0 21.973-17.963 39.936-39.936 39.936v0h-688.171c-21.973 0-39.893-17.963-39.893-39.936v0-5.461c0-21.973 17.92-39.936 39.893-39.936v0zM170.667 469.333c23.552 0 42.667 19.072 42.667 42.667s-19.115 42.667-42.667 42.667c-23.552 0-42.667-19.072-42.667-42.667s19.115-42.667 42.667-42.667zM856.085 469.333c21.973 0 39.936 17.963 39.936 39.936v0 5.461c0 21.973-17.963 39.936-39.936 39.936v0h-517.504c-21.973 0-39.893-17.963-39.893-39.936v0-5.461c0-21.973 17.92-39.936 39.893-39.936v0zM856.085 256c21.973 0 39.936 17.963 39.936 39.936v0 5.461c0 21.973-17.963 39.936-39.936 39.936v0h-688.171c-21.973 0-39.893-17.963-39.893-39.936v0-5.461c0-21.973 17.92-39.936 39.893-39.936v0z"></path>
</svg>
