<!-- Generated by IcoMoon.io -->
<svg version="1.1" xmlns="http://www.w3.org/2000/svg" width="1024" height="1024" viewBox="0 0 1024 1024">
<title></title>
<g id="icomoon-ignore">
</g>
<path fill="#000" d="M512 384c23.552 0 42.667 19.115 42.667 42.667s-19.115 42.667-42.667 42.667c-23.552 0-42.667-19.115-42.667-42.667s19.115-42.667 42.667-42.667zM682.667 384c23.552 0 42.667 19.115 42.667 42.667s-19.115 42.667-42.667 42.667c-23.552 0-42.667-19.115-42.667-42.667s19.115-42.667 42.667-42.667zM341.333 384c23.552 0 42.667 19.115 42.667 42.667s-19.115 42.667-42.667 42.667c-23.552 0-42.667-19.115-42.667-42.667s19.115-42.667 42.667-42.667zM853.333 640c0 23.509-19.157 42.667-42.667 42.667h-445.696c-23.168 0-45.952 6.315-65.877 18.261l-128.427 77.056v-564.651c0-23.509 19.157-42.667 42.667-42.667h597.333c23.509 0 42.667 19.157 42.667 42.667v426.667zM810.667 85.333h-597.333c-70.571 0-128 57.429-128 128v640c0 15.36 8.277 29.568 21.632 37.12 6.528 3.712 13.781 5.547 21.035 5.547 7.595 0 15.189-2.005 21.973-6.101l193.024-115.797c6.656-4.011 14.251-6.101 21.973-6.101h445.696c70.571 0 128-57.429 128-128v-426.667c0-70.571-57.429-128-128-128v0z"></path>
</svg>
