<!-- Generated by IcoMoon.io -->
<svg version="1.1" xmlns="http://www.w3.org/2000/svg" width="1024" height="1024" viewBox="0 0 1024 1024">
<title></title>
<g id="icomoon-ignore">
</g>
<path fill="#000" d="M682.65 554.631c-23.552 0-42.667-19.115-42.667-42.667s19.115-42.667 42.667-42.667c23.552 0 42.667 19.115 42.667 42.667s-19.115 42.667-42.667 42.667zM511.983 554.631c-23.552 0-42.667-19.115-42.667-42.667s19.115-42.667 42.667-42.667c23.552 0 42.667 19.115 42.667 42.667s-19.115 42.667-42.667 42.667zM341.317 554.631c-23.552 0-42.667-19.115-42.667-42.667s19.115-42.667 42.667-42.667c23.552 0 42.667 19.115 42.667 42.667s-19.115 42.667-42.667 42.667zM813.679 210.269c-97.451-97.451-232.32-140.928-370.091-119.637-173.952 27.136-318.165 167.253-350.72 340.779-15.659 83.541-6.656 168.619 26.069 245.973 4.181 9.813 5.461 19.029 3.797 27.264l-36.565 182.955c-2.816 13.995 1.579 28.459 11.648 38.528 8.064 8.064 18.944 12.501 30.165 12.501 2.773 0 5.589-0.256 8.363-0.853l182.741-36.523c10.496-2.005 20.693 0.939 27.477 3.755 77.397 32.725 162.475 41.685 245.973 26.069 173.525-32.555 313.643-176.768 340.779-350.72 21.461-137.728-22.144-272.597-119.637-370.091z"></path>
</svg>
