<!-- Generated by IcoMoon.io -->
<svg version="1.1" xmlns="http://www.w3.org/2000/svg" width="1024" height="1024" viewBox="0 0 1024 1024">
<title></title>
<g id="icomoon-ignore">
</g>
<path fill="#000" d="M512.009 426.636c23.552 0 42.667 19.115 42.667 42.667s-19.115 42.667-42.667 42.667c-23.552 0-42.667-19.115-42.667-42.667s19.115-42.667 42.667-42.667zM682.675 426.636c23.552 0 42.667 19.115 42.667 42.667s-19.115 42.667-42.667 42.667c-23.552 0-42.667-19.115-42.667-42.667s19.115-42.667 42.667-42.667zM341.342 426.636c23.552 0 42.667 19.115 42.667 42.667s-19.115 42.667-42.667 42.667c-23.552 0-42.667-19.115-42.667-42.667s19.115-42.667 42.667-42.667zM849.007 524.551c-21.632 138.837-133.547 253.995-272.171 279.979-66.944 12.629-135.125 5.419-196.992-20.779-17.536-7.424-35.669-11.179-53.461-11.179-8.107 0-16.128 0.768-24.021 2.347l-119.979 23.979 24.021-120.192c5.035-24.96 1.963-51.669-8.832-77.227-26.197-61.867-33.365-130.005-20.779-196.992 25.984-138.624 141.099-250.539 279.979-272.171v0c110.507-17.195 218.581 17.621 296.576 95.616 78.037 78.037 112.896 186.155 95.659 296.619zM813.722 167.602c-97.493-97.451-232.32-140.928-370.091-119.637-173.952 27.136-318.165 167.253-350.72 340.779-15.701 83.541-6.656 168.619 26.069 245.973 4.139 9.856 5.419 19.029 3.797 27.264l-36.608 182.955c-2.816 13.995 1.579 28.459 11.691 38.528 8.064 8.107 18.944 12.501 30.165 12.501 2.773 0 5.547-0.256 8.363-0.811l182.741-36.565c10.496-2.005 20.651 0.939 27.435 3.755 77.44 32.725 162.517 41.728 245.973 26.069 173.568-32.555 313.685-176.768 340.821-350.72 21.419-137.685-22.144-272.597-119.637-370.091z"></path>
</svg>
