<!-- Generated by IcoMoon.io -->
<svg version="1.1" xmlns="http://www.w3.org/2000/svg" width="1024" height="1024" viewBox="0 0 1024 1024">
<title></title>
<g id="icomoon-ignore">
</g>
<path fill="#000" d="M768 426.667c23.595 0 42.667 19.115 42.667 42.667 0 150.187-111.488 274.432-256 295.253v0 88.747h89.813c21.035 0 38.187 17.152 38.187 38.187v0 8.96c0 21.035-17.152 38.187-38.187 38.187v0h-264.96c-21.035 0-38.187-17.152-38.187-38.187v0-8.96c0-21.035 17.152-38.187 38.187-38.187v0h89.813v-88.747c-144.512-20.821-256-145.067-256-295.253 0-23.552 19.072-42.667 42.667-42.667s42.667 19.115 42.667 42.667c0 117.632 95.701 213.333 213.333 213.333s213.333-95.701 213.333-213.333c0-23.552 19.072-42.667 42.667-42.667zM512 85.333c94.123 0 170.667 76.544 170.667 170.667v0 213.333c0 94.123-76.544 170.667-170.667 170.667s-170.667-76.544-170.667-170.667v0-213.333c0-94.123 76.544-170.667 170.667-170.667z"></path>
</svg>
