<!-- Generated by IcoMoon.io -->
<svg version="1.1" xmlns="http://www.w3.org/2000/svg" width="1024" height="1024" viewBox="0 0 1024 1024">
<title></title>
<g id="icomoon-ignore">
</g>
<path fill="#000" d="M256 426.667c23.595 0 42.667 19.115 42.667 42.667 0 117.632 95.701 213.333 213.333 213.333 15.445 0 30.464-1.835 45.013-4.992v0l67.968 67.968c-22.229 9.131-45.867 15.36-70.315 18.901v0 88.789h85.333c23.467 0 42.667 19.2 42.667 42.667s-19.2 42.667-42.667 42.667v0h-256c-23.467 0-42.667-19.2-42.667-42.667s19.2-42.667 42.667-42.667v0h85.333v-88.747c-144.512-20.821-256-145.067-256-295.253 0-23.552 19.072-42.667 42.667-42.667zM140.501 140.501c16.683-16.683 43.648-16.683 60.331 0v0l682.667 682.667c16.683 16.683 16.683 43.648 0 60.331-8.32 8.32-19.243 12.501-30.165 12.501s-21.845-4.181-30.165-12.501v0l-682.667-682.667c-16.683-16.683-16.683-43.648 0-60.331zM341.333 461.995l177.323 177.323c-2.219 0.085-4.352 0.683-6.656 0.683-94.123 0-170.667-76.544-170.667-170.667v0-7.339zM768 426.667c23.595 0 42.667 19.115 42.667 42.667 0 62.464-19.328 120.448-52.267 168.405v0l-62.421-62.421c18.176-31.317 29.355-67.2 29.355-105.984 0-23.552 19.072-42.667 42.667-42.667zM512.004 85.333c94.123 0 170.667 76.544 170.667 170.667v0 213.333c0 26.923-6.827 52.053-17.963 74.709l-320.128-320.128c15.104-78.805 84.309-138.581 167.424-138.581z"></path>
</svg>
