<!-- Generated by IcoMoon.io -->
<svg version="1.1" xmlns="http://www.w3.org/2000/svg" width="1024" height="1024" viewBox="0 0 1024 1024">
<title></title>
<g id="icomoon-ignore">
</g>
<path fill="#000" d="M938.667 554.667v42.667c0 70.571-57.429 128-128 128v0h-256v85.333h170.667c23.467 0 42.667 19.2 42.667 42.667s-19.2 42.667-42.667 42.667v0h-426.667c-23.467 0-42.667-19.2-42.667-42.667s19.2-42.667 42.667-42.667v0h170.667v-85.333h-256c-70.571 0-128-57.429-128-128v0-42.667h853.333zM810.667 128c70.571 0 128 57.429 128 128v0 213.333h-853.333v-213.333c0-70.571 57.429-128 128-128v0z"></path>
</svg>
