<!-- Generated by IcoMoon.io -->
<svg version="1.1" xmlns="http://www.w3.org/2000/svg" width="1024" height="1024" viewBox="0 0 1024 1024">
<title></title>
<g id="icomoon-ignore">
</g>
<path fill="#000" d="M853.333 597.333c0 23.509-19.115 42.667-42.667 42.667h-597.333c-23.552 0-42.667-19.157-42.667-42.667v-341.333c0-23.509 19.115-42.667 42.667-42.667h597.333c23.552 0 42.667 19.157 42.667 42.667v341.333zM810.667 128h-597.333c-70.571 0-128 57.429-128 128v341.333c0 70.571 57.429 128 128 128h256v85.333h-170.667c-23.467 0-42.667 19.2-42.667 42.667s19.2 42.667 42.667 42.667h426.667c23.467 0 42.667-19.2 42.667-42.667s-19.2-42.667-42.667-42.667h-170.667v-85.333h256c70.571 0 128-57.429 128-128v-341.333c0-70.571-57.429-128-128-128v0z"></path>
</svg>
