<!-- Generated by IcoMoon.io -->
<svg version="1.1" xmlns="http://www.w3.org/2000/svg" width="1024" height="1024" viewBox="0 0 1024 1024">
<title></title>
<g id="icomoon-ignore">
</g>
<path fill="#000" d="M524.625 938.667c-1.365 0-2.688 0-4.096-0.043-119.211-1.024-230.485-48.853-313.344-134.528-156.885-162.347-161.792-431.019-10.965-598.912 46.976-52.352 104.32-91.733 170.368-117.035 15.573-6.059 33.28-2.304 45.184 9.472 11.947 11.733 15.915 29.355 10.155 45.056-47.701 130.347-15.232 277.803 82.816 375.637 98.005 97.835 245.888 130.304 376.661 82.688 15.701-5.803 33.323-1.707 45.013 10.155 11.733 11.947 15.403 29.653 9.429 45.227-22.357 58.155-55.893 109.781-99.669 153.429-83.328 83.2-193.877 128.853-311.552 128.853z"></path>
</svg>
