<!-- Generated by IcoMoon.io -->
<svg version="1.1" xmlns="http://www.w3.org/2000/svg" width="1024" height="1024" viewBox="0 0 1024 1024">
<title></title>
<g id="icomoon-ignore">
</g>
<path fill="#000" d="M317.48 209.837c-21.333 15.104-40.917 32.597-58.667 52.395-121.557 135.296-117.589 351.787 8.832 482.56 66.816 69.163 156.587 107.733 252.757 108.544 1.067 0.043 2.176 0.043 3.285 0.043 94.933 0 184.064-36.821 251.307-103.936 13.995-13.952 26.709-28.928 38.101-44.885-134.229 16.725-271.829-28.245-369.579-125.781-97.707-97.536-142.933-234.837-126.037-368.939zM523.688 938.711c-1.365 0-2.688 0-4.053-0.043-119.211-1.024-230.528-48.811-313.344-134.528-156.885-162.347-161.792-431.019-11.008-598.912 46.976-52.352 104.32-91.733 170.411-117.035 15.573-6.059 33.28-2.304 45.184 9.472 11.904 11.733 15.872 29.355 10.112 45.056-47.701 130.347-15.189 277.803 82.816 375.637 98.048 97.835 245.888 130.304 376.661 82.688 15.701-5.803 33.365-1.707 45.056 10.155 11.691 11.989 15.403 29.653 9.387 45.227-22.357 58.155-55.893 109.781-99.669 153.429-83.328 83.2-193.835 128.853-311.552 128.853z"></path>
</svg>
