<!-- Generated by IcoMoon.io -->
<svg version="1.1" xmlns="http://www.w3.org/2000/svg" width="1024" height="1024" viewBox="0 0 1024 1024">
<title></title>
<g id="icomoon-ignore">
</g>
<path fill="#000" d="M512 426.667c47.104 0 85.333 38.229 85.333 85.333s-38.229 85.333-85.333 85.333c-47.104 0-85.333-38.229-85.333-85.333s38.229-85.333 85.333-85.333zM810.667 426.667c47.104 0 85.333 38.229 85.333 85.333s-38.229 85.333-85.333 85.333c-47.104 0-85.333-38.229-85.333-85.333s38.229-85.333 85.333-85.333zM213.333 426.667c47.104 0 85.333 38.229 85.333 85.333s-38.229 85.333-85.333 85.333c-47.104 0-85.333-38.229-85.333-85.333s38.229-85.333 85.333-85.333z"></path>
</svg>
