<!-- Generated by IcoMoon.io -->
<svg version="1.1" xmlns="http://www.w3.org/2000/svg" width="1024" height="1024" viewBox="0 0 1024 1024">
<title></title>
<g id="icomoon-ignore">
</g>
<path fill="#000" d="M926.251 482.458l-128-128.555c-16.64-16.683-43.691-16.811-60.331-0.128-16.725 16.64-16.811 43.605-0.171 60.331l54.997 55.211h-238.080v-238.549l55.083 55.339c8.32 8.363 19.285 12.544 30.25 12.544 10.88 0 21.803-4.139 30.123-12.416 16.683-16.64 16.768-43.648 0.128-60.331l-127.445-128c-8.064-8.064-17.365-12.203-30.251-12.587-11.307 0-22.144 4.48-30.123 12.459l-128.555 128c-16.683 16.64-16.768 43.648-0.128 60.331 16.597 16.683 43.605 16.768 60.373 0.128l55.21-54.997v238.080h-238.592l55.339-55.083c16.725-16.64 16.811-43.648 0.171-60.331s-43.691-16.811-60.331-0.128l-128 127.445c-8.064 7.979-12.544 18.816-12.587 30.123s4.48 22.187 12.416 30.208l128 128.555c8.32 8.363 19.285 12.544 30.25 12.544 10.88 0 21.803-4.139 30.080-12.416 16.725-16.64 16.811-43.648 0.171-60.331l-54.997-55.253h238.080v238.592l-55.082-55.339c-16.64-16.725-43.648-16.811-60.373-0.128-16.683 16.64-16.768 43.648-0.128 60.331l127.445 128c8.021 8.021 18.859 12.544 30.165 12.544h0.085c11.307 0 22.144-4.48 30.123-12.416l128.555-128c16.683-16.64 16.768-43.648 0.128-60.331-16.64-16.725-43.648-16.811-60.373-0.128l-55.211 54.955v-238.080h238.592l-55.339 55.125c-16.725 16.64-16.811 43.605-0.171 60.331 8.32 8.363 19.285 12.544 30.25 12.544 10.88 0 21.803-4.139 30.080-12.416l128-127.445c8.064-7.979 12.544-18.816 12.587-30.123 0.042-11.349-4.438-22.187-12.416-30.208z"></path>
</svg>
