<!-- Generated by IcoMoon.io -->
<svg version="1.1" xmlns="http://www.w3.org/2000/svg" width="1024" height="1024" viewBox="0 0 1024 1024">
<title></title>
<g id="icomoon-ignore">
</g>
<path fill="#000" d="M808.418 639.667v-468.992c0-12.928-5.888-25.216-15.957-33.28-10.112-8.107-23.424-11.179-35.968-8.363l-382.763 85.035c-19.541 4.352-33.451 21.675-33.451 41.643v355.883c-18.773-8.533-39.424-13.611-61.397-13.611-82.176 0-148.992 66.859-148.992 149.035 0 82.133 66.816 148.992 148.992 148.992s148.992-66.859 148.992-148.992c0-7.637-1.109-14.933-2.261-22.272v-434.773l297.472-66.133v302.72c-18.773-8.576-39.467-13.611-61.397-13.611-82.176 0-149.035 66.816-149.035 148.992s66.859 148.992 149.035 148.992c82.133 0 148.992-66.816 148.992-148.992 0-7.637-1.152-14.933-2.261-22.272z"></path>
</svg>
