<!-- Generated by IcoMoon.io -->
<svg version="1.1" xmlns="http://www.w3.org/2000/svg" width="1024" height="1024" viewBox="0 0 1024 1024">
<title></title>
<g id="icomoon-ignore">
</g>
<path fill="#000" d="M661.666 725.602c-35.115 0-63.659-28.544-63.659-63.659s28.544-63.659 63.659-63.659c30.763 0 56.405 21.845 62.379 50.816v0.043c0.811 4.139 1.28 8.405 1.28 12.8 0 35.115-28.544 63.659-63.659 63.659zM278.861 810.679c-35.115 0-63.659-28.587-63.659-63.701 0-35.072 28.544-63.659 63.659-63.659 30.72 0 56.405 21.845 62.379 50.816v0.128c0.853 4.096 1.323 8.363 1.323 12.715 0 35.115-28.544 63.701-63.701 63.701zM808.397 639.671v-468.992c0-12.971-5.845-25.216-15.957-33.323-10.112-8.064-23.381-11.136-35.925-8.32l-382.805 85.035c-19.541 4.352-33.408 21.675-33.408 41.643v355.883c-18.816-8.533-39.467-13.611-61.44-13.611-82.133 0-148.992 66.859-148.992 148.992 0 82.176 66.859 149.035 148.992 149.035 82.176 0 149.035-66.859 149.035-149.035 0-7.595-1.152-14.933-2.261-22.272v-434.731l297.429-66.133v302.677c-18.773-8.533-39.424-13.568-61.397-13.568-82.176 0-148.992 66.816-148.992 148.992s66.816 148.992 148.992 148.992c82.176 0 148.992-66.816 148.992-148.992 0-7.637-1.109-14.933-2.261-22.272z"></path>
</svg>
