<!-- Generated by IcoMoon.io -->
<svg version="1.1" xmlns="http://www.w3.org/2000/svg" width="1024" height="1024" viewBox="0 0 1024 1024">
<title></title>
<g id="icomoon-ignore">
</g>
<path fill="#000" d="M512 584.623c8.192 0 16.427 2.389 23.552 7.083l208.213 137.856-231.765-463.488-231.765 463.488 208.213-137.856c7.125-4.693 15.36-7.083 23.552-7.083zM853.333 896.004c-8.192 0-16.384-2.347-23.552-7.083l-317.781-210.475-317.781 210.475c-16.128 10.624-37.376 9.173-51.84-3.627-14.464-12.843-18.517-33.749-9.899-51.029l341.333-682.667c14.464-28.928 61.909-28.928 76.373 0l341.333 682.667c8.619 17.28 4.565 38.187-9.899 51.029-8.021 7.083-18.133 10.709-28.288 10.709z"></path>
</svg>
