<!-- Generated by IcoMoon.io -->
<svg version="1.1" xmlns="http://www.w3.org/2000/svg" width="1024" height="1024" viewBox="0 0 1024 1024">
<title></title>
<g id="icomoon-ignore">
</g>
<path fill="#000" d="M583.125 938.667c-0.896 0-1.749-0.043-2.603-0.085-19.285-1.152-35.371-15.147-39.211-34.091l-65.621-322.859c-3.413-16.811-16.512-29.909-33.323-33.323l-322.859-65.664c-18.944-3.797-32.939-19.883-34.091-39.168-1.152-19.328 10.752-36.992 29.099-43.051l682.667-227.541c15.317-5.205 32.213-1.195 43.648 10.283 11.435 11.435 15.403 28.331 10.325 43.648l-227.584 682.667c-5.803 17.536-22.187 29.184-40.448 29.184z"></path>
</svg>
