<!-- Generated by IcoMoon.io -->
<svg version="1.1" xmlns="http://www.w3.org/2000/svg" width="1024" height="1024" viewBox="0 0 1024 1024">
<title></title>
<g id="icomoon-ignore">
</g>
<path fill="#000" d="M335.625 388.207l221.781 45.099c16.811 3.371 29.909 16.469 33.323 33.28l45.056 221.781 150.101-450.261-450.261 150.101zM625.801 895.983c-0.896 0-1.749-0.043-2.603-0.085-19.285-1.152-35.371-15.147-39.253-34.048l-71.211-350.592-350.549-71.253c-18.944-3.84-32.939-19.925-34.091-39.211-1.195-19.285 10.752-36.949 29.056-43.051l682.667-227.541c15.36-5.205 32.256-1.152 43.691 10.283s15.403 28.331 10.325 43.691l-227.584 682.667c-5.845 17.493-22.187 29.141-40.448 29.141v0z"></path>
</svg>
