<!-- Generated by IcoMoon.io -->
<svg version="1.1" xmlns="http://www.w3.org/2000/svg" width="1024" height="1024" viewBox="0 0 1024 1024">
<title></title>
<g id="icomoon-ignore">
</g>
<path fill="#000" d="M512 810.667h170.667v-426.667h-170.667v426.667zM256 213.333c-23.509 0-42.667 19.157-42.667 42.667v512c0 23.509 19.157 42.667 42.667 42.667h512c23.509 0 42.667-19.157 42.667-42.667v-512c0-23.509-19.157-42.667-42.667-42.667h-512zM768 896h-512c-70.571 0-128-57.429-128-128v-512c0-70.571 57.429-128 128-128h512c70.571 0 128 57.429 128 128v512c0 70.571-57.429 128-128 128v0z"></path>
</svg>
