<!-- Generated by IcoMoon.io -->
<svg version="1.1" xmlns="http://www.w3.org/2000/svg" width="1024" height="1024" viewBox="0 0 1024 1024">
<title></title>
<g id="icomoon-ignore">
</g>
<path fill="#000" d="M469.333 640.004c55.552 0 102.443 35.797 120.107 85.333v0h306.56c23.595 0 42.667 19.072 42.667 42.667s-19.072 42.667-42.667 42.667v0h-306.56c-17.664 49.536-64.555 85.333-120.107 85.333s-102.443-35.797-120.107-85.333v0h-221.227c-23.595 0-42.667-19.072-42.667-42.667s19.072-42.667 42.667-42.667v0h221.227c17.664-49.536 64.555-85.333 120.107-85.333zM810.667 384.004c70.571 0 128 57.429 128 128s-57.429 128-128 128c-55.552 0-102.443-35.797-120.107-85.333v0h-562.56c-23.595 0-42.667-19.072-42.667-42.667s19.072-42.667 42.667-42.667v0h562.56c17.664-49.536 64.555-85.333 120.107-85.333zM298.667 128.004c55.552 0 102.443 35.797 120.107 85.333v0h477.227c23.595 0 42.667 19.072 42.667 42.667s-19.072 42.667-42.667 42.667v0h-477.227c-17.664 49.536-64.555 85.333-120.107 85.333s-102.443-35.797-120.107-85.333v0h-50.56c-23.595 0-42.667-19.072-42.667-42.667s19.072-42.667 42.667-42.667v0h50.56c17.664-49.536 64.555-85.333 120.107-85.333z"></path>
</svg>
