<!-- Generated by IcoMoon.io -->
<svg version="1.1" xmlns="http://www.w3.org/2000/svg" width="1024" height="1024" viewBox="0 0 1024 1024">
<title></title>
<g id="icomoon-ignore">
</g>
<path fill="#000" d="M512 256c-23.552 0-42.667-19.115-42.667-42.667s19.115-42.667 42.667-42.667c23.552 0 42.667 19.115 42.667 42.667s-19.115 42.667-42.667 42.667zM640 213.333c0-70.571-57.429-128-128-128s-128 57.429-128 128c0 55.552 35.797 102.443 85.333 120.107v562.56c0 23.595 19.072 42.667 42.667 42.667s42.667-19.072 42.667-42.667v-562.56c49.536-17.664 85.333-64.555 85.333-120.107zM256 768c-23.552 0-42.667-19.115-42.667-42.667s19.115-42.667 42.667-42.667c23.552 0 42.667 19.115 42.667 42.667s-19.115 42.667-42.667 42.667zM298.667 605.227v-477.227c0-23.595-19.072-42.667-42.667-42.667s-42.667 19.072-42.667 42.667v477.227c-49.536 17.664-85.333 64.555-85.333 120.107s35.797 102.443 85.333 120.107v50.56c0 23.595 19.072 42.667 42.667 42.667s42.667-19.072 42.667-42.667v-50.56c49.536-17.664 85.333-64.555 85.333-120.107s-35.797-102.443-85.333-120.107zM768 597.333c-23.552 0-42.667-19.115-42.667-42.667s19.115-42.667 42.667-42.667c23.552 0 42.667 19.115 42.667 42.667s-19.115 42.667-42.667 42.667zM896 554.667c0-55.552-35.797-102.443-85.333-120.107v-306.56c0-23.595-19.072-42.667-42.667-42.667s-42.667 19.072-42.667 42.667v306.56c-49.536 17.664-85.333 64.555-85.333 120.107s35.797 102.443 85.333 120.107v221.227c0 23.595 19.072 42.667 42.667 42.667s42.667-19.072 42.667-42.667v-221.227c49.536-17.664 85.333-64.555 85.333-120.107z"></path>
</svg>
