<!-- Generated by IcoMoon.io -->
<svg version="1.1" xmlns="http://www.w3.org/2000/svg" width="1024" height="1024" viewBox="0 0 1024 1024">
<title></title>
<g id="icomoon-ignore">
</g>
<path fill="#000" d="M256 85.316c23.595 0 42.667 19.115 42.667 42.667v0 477.227c49.536 17.664 85.333 64.597 85.333 120.107 0 55.552-35.797 102.485-85.333 120.149v0 50.517c0 23.595-19.072 42.667-42.667 42.667s-42.667-19.072-42.667-42.667v0-50.517c-49.536-17.664-85.333-64.597-85.333-120.149 0-55.509 35.797-102.443 85.333-120.107v0-477.227c0-23.552 19.072-42.667 42.667-42.667zM768 85.338c23.595 0 42.667 19.072 42.667 42.667v0 306.56c49.536 17.664 85.333 64.555 85.333 120.107s-35.797 102.443-85.333 120.107v0 221.227c0 23.595-19.072 42.667-42.667 42.667s-42.667-19.072-42.667-42.667v0-221.227c-49.536-17.664-85.333-64.555-85.333-120.107s35.797-102.443 85.333-120.107v0-306.56c0-23.595 19.072-42.667 42.667-42.667zM512 85.338c70.571 0 128 57.429 128 128 0 55.552-35.797 102.443-85.333 120.107v0 562.56c0 23.595-19.072 42.667-42.667 42.667s-42.667-19.072-42.667-42.667v0-562.56c-49.536-17.664-85.333-64.555-85.333-120.107 0-70.571 57.429-128 128-128z"></path>
</svg>
