<!-- Generated by IcoMoon.io -->
<svg version="1.1" xmlns="http://www.w3.org/2000/svg" width="1024" height="1024" viewBox="0 0 1024 1024">
<title></title>
<g id="icomoon-ignore">
</g>
<path fill="#000" d="M810.667 810.667h-362.069l151.851-162.901h210.219v162.901zM213.333 729.216v-89.216h162.901v89.216c0 44.928-36.523 81.451-81.451 81.451s-81.451-36.523-81.451-81.451v0zM376.235 426.667v128h-162.901v-128h162.901zM376.235 213.333v128h-162.901v-128h162.901zM572.672 323.755l114.048 106.368-225.152 241.451v-228.651l111.104-119.168zM853.333 562.432h-173.355l98.219-105.344c16.085-17.195 15.147-44.203-2.133-60.288l-176.427-164.565c-8.32-7.68-18.901-12.117-30.592-11.392-11.307 0.384-22.016 5.248-29.696 13.525l-77.781 83.413v-147.115c0-23.595-19.072-42.667-42.667-42.667h-248.235c-23.595 0-42.667 19.072-42.667 42.667v558.549c0 91.947 74.837 166.784 166.784 166.784h558.549c23.595 0 42.667-19.072 42.667-42.667v-248.235c0-23.595-19.072-42.667-42.667-42.667v0z"></path>
</svg>
