<!-- Generated by IcoMoon.io -->
<svg version="1.1" xmlns="http://www.w3.org/2000/svg" width="1024" height="1024" viewBox="0 0 1024 1024">
<title></title>
<g id="icomoon-ignore">
</g>
<path fill="#000" d="M213.333 341.333h162.901v-128h-162.901v128zM213.333 554.667h162.901v-128h-162.901v128zM376.235 640h-162.901v89.216c0 44.928 36.523 81.451 81.451 81.451s81.451-36.523 81.451-81.451v-89.216zM461.568 729.216c0 91.947-74.837 166.784-166.784 166.784s-166.784-74.837-166.784-166.784v-558.549c0-23.595 19.072-42.667 42.667-42.667h248.235c23.595 0 42.667 19.072 42.667 42.667v558.549zM776.064 396.8l-176.427-164.565c-8.277-7.68-18.944-12.373-30.592-11.392-11.307 0.384-22.016 5.248-29.696 13.525l-35.115 37.632v457.216c0 8.32-1.493 16.299-2.432 24.363l276.395-296.491c16.085-17.195 15.147-44.203-2.133-60.288v0zM896 605.099v248.235c0 23.595-19.072 42.667-42.667 42.667h-425.941l310.955-333.568h114.987c23.595 0 42.667 19.072 42.667 42.667v0z"></path>
</svg>
