<!-- Generated by IcoMoon.io -->
<svg version="1.1" xmlns="http://www.w3.org/2000/svg" width="1024" height="1024" viewBox="0 0 1024 1024">
<title></title>
<g id="icomoon-ignore">
</g>
<path fill="#000" d="M640 761.084l-79.189-237.525 237.568-237.611-158.379 475.136zM738.048 225.617l-237.568 237.568-237.568-79.189 475.136-158.379zM938.24 125.777c-0.213-3.968-0.939-7.808-2.261-11.52-0.427-1.323-0.896-2.603-1.493-3.883-2.048-4.565-4.651-8.875-8.32-12.544s-7.979-6.272-12.587-8.32c-1.237-0.597-2.475-1.067-3.797-1.493-3.797-1.323-7.68-2.091-11.733-2.304-0.939-0.043-1.792-0.256-2.773-0.256-4.267 0.085-8.576 0.683-12.757 2.048l-768 256c-17.451 5.845-29.184 22.101-29.184 40.491s11.733 34.688 29.184 40.491l363.733 121.259 121.301 363.776c5.803 17.408 22.059 29.141 40.448 29.141s34.645-11.733 40.448-29.141l256-768c1.365-4.224 2.005-8.491 2.053-12.757 0.038-1.024-0.218-1.963-0.261-2.987v0z"></path>
</svg>
