<!-- Generated by IcoMoon.io -->
<svg version="1.1" xmlns="http://www.w3.org/2000/svg" width="1024" height="1024" viewBox="0 0 1024 1024">
<title></title>
<g id="icomoon-ignore">
</g>
<path fill="#000" d="M639.979 341.333c23.467 0 42.667 19.2 42.667 42.667v0 256c0 23.467-19.2 42.667-42.667 42.667s-42.667-19.2-42.667-42.667v0-256c0-23.467 19.2-42.667 42.667-42.667zM384 341.333c23.467 0 42.667 19.2 42.667 42.667v0 256c0 23.467-19.2 42.667-42.667 42.667s-42.667-19.2-42.667-42.667v0-256c0-23.467 19.2-42.667 42.667-42.667zM512 853.333c-188.203 0-341.333-153.131-341.333-341.333s153.131-341.333 341.333-341.333c188.203 0 341.333 153.131 341.333 341.333s-153.131 341.333-341.333 341.333zM512 85.333c-235.264 0-426.667 191.403-426.667 426.667s191.403 426.667 426.667 426.667c235.264 0 426.667-191.403 426.667-426.667s-191.403-426.667-426.667-426.667z"></path>
</svg>
