<!-- Generated by IcoMoon.io -->
<svg version="1.1" xmlns="http://www.w3.org/2000/svg" width="1024" height="1024" viewBox="0 0 1024 1024">
<title></title>
<g id="icomoon-ignore">
</g>
<path fill="#000" d="M682.645 640c0 23.467-19.2 42.667-42.667 42.667s-42.667-19.2-42.667-42.667v-256c0-23.467 19.2-42.667 42.667-42.667s42.667 19.2 42.667 42.667v256zM426.645 640c0 23.467-19.2 42.667-42.667 42.667s-42.667-19.2-42.667-42.667v-256c0-23.467 19.2-42.667 42.667-42.667s42.667 19.2 42.667 42.667v256zM511.979 85.333c-235.264 0-426.667 191.403-426.667 426.667s191.403 426.667 426.667 426.667c235.307 0 426.667-191.403 426.667-426.667s-191.36-426.667-426.667-426.667v0z"></path>
</svg>
