<!-- Generated by IcoMoon.io -->
<svg version="1.1" xmlns="http://www.w3.org/2000/svg" width="1024" height="1024" viewBox="0 0 1024 1024">
<title></title>
<g id="icomoon-ignore">
</g>
<path fill="#000" d="M938.667 810.667c0 23.552-19.072 42.667-42.667 42.667s-42.667-19.115-42.667-42.667c0-70.571-57.429-128-128-128-29.141 0-56.832 9.984-79.189 27.691 23.211 42.496 36.523 91.221 36.523 142.976 0 23.552-19.072 42.667-42.667 42.667s-42.667-19.115-42.667-42.667c0-117.632-95.701-213.333-213.333-213.333s-213.333 95.701-213.333 213.333c0 23.552-19.072 42.667-42.667 42.667s-42.667-19.115-42.667-42.667c0-164.693 134.016-298.667 298.667-298.667 82.219 0 156.715 33.408 210.773 87.296 37.077-28.672 82.731-44.629 130.56-44.629 117.632 0 213.333 95.701 213.333 213.333zM725.333 384c23.552 0 42.667 19.157 42.667 42.667s-19.115 42.667-42.667 42.667c-23.552 0-42.667-19.157-42.667-42.667s19.115-42.667 42.667-42.667zM725.333 554.667c70.571 0 128-57.429 128-128s-57.429-128-128-128c-70.571 0-128 57.429-128 128s57.429 128 128 128zM384 213.333c47.061 0 85.333 38.272 85.333 85.333s-38.272 85.333-85.333 85.333c-47.061 0-85.333-38.272-85.333-85.333s38.272-85.333 85.333-85.333zM384 469.333c94.123 0 170.667-76.544 170.667-170.667s-76.544-170.667-170.667-170.667c-94.123 0-170.667 76.544-170.667 170.667s76.544 170.667 170.667 170.667z"></path>
</svg>
