<svg xmlns="http://www.w3.org/2000/svg" width="24" height="17" viewBox="0 0 24 17">
    <path fill="#667181" d="M13.446 9.673c3.059 0 5.54 2.347 5.54 5.243l.014.62c0 .808-.693 1.464-1.548 1.464H6.592c-.855 0-1.548-.656-1.548-1.465l-.014-.62c0-2.895 2.48-5.242 5.54-5.242zm-6.66-.941c.325 0 .64.034.945.096-2.385 1-4.074 3.216-4.187 5.814H1.258c-.69 0-1.248-.53-1.248-1.182l-.01-.5c0-2.334 2-4.228 4.468-4.228zm13.425-5.14c.418 0 .757.32.757.717l.001.465c.177.05.346.115.505.196l.345-.327c.296-.28.776-.28 1.072 0 .296.28.296.735 0 1.016l-.345.327c.085.151.155.311.207.478h.49c.418 0 .757.322.757.72 0 .396-.34.717-.757.717h-.493c-.051.167-.12.327-.207.478l.346.327c.296.281.296.736 0 1.016s-.776.28-1.072 0l-.346-.327c-.159.08-.328.147-.504.196v.464c0 .397-.34.718-.758.718s-.757-.321-.757-.718V9.59c-.176-.05-.345-.115-.505-.196l-.345.327c-.296.28-.776.28-1.072 0-.296-.28-.296-.735 0-1.016l.345-.327c-.085-.151-.155-.311-.207-.478h-.49c-.418 0-.757-.322-.757-.718 0-.396.34-.718.758-.718h.49c.052-.167.121-.327.208-.478l-.346-.327c-.296-.28-.296-.735 0-1.016.296-.28.776-.28 1.072 0l.346.327c.159-.08.328-.147.504-.196v-.464c0-.396.34-.718.758-.718zm0 2.538c-.614 0-1.11.471-1.11 1.052 0 .581.496 1.052 1.11 1.052.613 0 1.11-.47 1.11-1.052 0-.58-.497-1.052-1.11-1.052zM11.994 0c2.135 0 3.867 1.656 3.867 3.698 0 2.044-1.712 4.338-3.847 4.338-2.136 0-3.886-2.293-3.886-4.336 0-2.044 1.73-3.7 3.866-3.7zM5.618.933c.59 0 1.138.16 1.608.431-.379.701-.594 1.495-.594 2.337 0 .992.308 2.027.848 2.94-.515.468-1.153.772-1.848.772-1.722 0-3.134-1.85-3.133-3.497C2.5 2.269 3.896.933 5.618.933z"/>
</svg>
