<!-- Generated by IcoMoon.io -->
<svg version="1.1" xmlns="http://www.w3.org/2000/svg" width="1024" height="1024" viewBox="0 0 1024 1024">
<title></title>
<g id="icomoon-ignore">
</g>
<path fill="#000" d="M842.227 181.79c-14.805-14.848-38.827-14.848-53.632 0l-606.805 606.805c-7.424 7.424-11.136 17.109-11.136 26.837 0 9.685 3.712 19.413 11.136 26.795 14.805 14.805 38.784 14.805 53.632 0l606.805-606.805c14.805-14.848 14.805-38.827 0-53.632zM682.667 810.667c-35.285 0-64-28.715-64-64s28.715-64 64-64c35.285 0 64 28.715 64 64s-28.715 64-64 64zM682.667 597.333c-82.347 0-149.333 66.987-149.333 149.333s66.987 149.333 149.333 149.333c82.347 0 149.333-66.987 149.333-149.333s-66.987-149.333-149.333-149.333zM341.333 256c35.285 0 64 28.715 64 64s-28.715 64-64 64c-35.285 0-64-28.715-64-64s28.715-64 64-64zM341.333 469.333c82.347 0 149.333-66.987 149.333-149.333s-66.987-149.333-149.333-149.333c-82.347 0-149.333 66.987-149.333 149.333s66.987 149.333 149.333 149.333z"></path>
</svg>
