<!-- Generated by IcoMoon.io -->
<svg version="1.1" xmlns="http://www.w3.org/2000/svg" width="1024" height="1024" viewBox="0 0 1024 1024">
<title></title>
<g id="icomoon-ignore">
</g>
<path fill="#000" d="M426.667 554.667c-164.651 0-298.667 133.973-298.667 298.667 0 23.552 19.072 42.667 42.667 42.667s42.667-19.115 42.667-42.667c0-117.632 95.701-213.333 213.333-213.333s213.333 95.701 213.333 213.333c0 23.552 19.072 42.667 42.667 42.667s42.667-19.115 42.667-42.667c0-164.693-134.016-298.667-298.667-298.667zM341.333 298.667c0 47.061 38.272 85.333 85.333 85.333s85.333-38.272 85.333-85.333c0-47.061-38.272-85.333-85.333-85.333s-85.333 38.272-85.333 85.333zM256 298.667c0-94.123 76.544-170.667 170.667-170.667s170.667 76.544 170.667 170.667c0 94.123-76.544 170.667-170.667 170.667s-170.667-76.544-170.667-170.667zM938.667 298.667c0 23.467-19.2 42.667-42.667 42.667h-42.667v42.667c0 23.467-19.2 42.667-42.667 42.667s-42.667-19.2-42.667-42.667v-42.667h-42.667c-23.467 0-42.667-19.2-42.667-42.667s19.2-42.667 42.667-42.667h42.667v-42.667c0-23.467 19.2-42.667 42.667-42.667s42.667 19.2 42.667 42.667v42.667h42.667c23.467 0 42.667 19.2 42.667 42.667z"></path>
</svg>
