<!-- Generated by IcoMoon.io -->
<svg version="1.1" xmlns="http://www.w3.org/2000/svg" width="1024" height="1024" viewBox="0 0 1024 1024">
<title></title>
<g id="icomoon-ignore">
</g>
<path fill="#000" d="M810.667 853.333c0 23.552-19.072 42.667-42.667 42.667s-42.667-19.115-42.667-42.667c0-117.632-95.701-213.333-213.333-213.333s-213.333 95.701-213.333 213.333c0 23.552-19.072 42.667-42.667 42.667s-42.667-19.115-42.667-42.667c0-164.693 134.016-298.667 298.667-298.667s298.667 133.973 298.667 298.667zM512 213.333c47.061 0 85.333 38.272 85.333 85.333s-38.272 85.333-85.333 85.333c-47.061 0-85.333-38.272-85.333-85.333s38.272-85.333 85.333-85.333zM512 469.333c94.123 0 170.667-76.544 170.667-170.667s-76.544-170.667-170.667-170.667c-94.123 0-170.667 76.544-170.667 170.667s76.544 170.667 170.667 170.667z"></path>
</svg>
