<!-- Generated by IcoMoon.io -->
<svg version="1.1" xmlns="http://www.w3.org/2000/svg" width="1024" height="1024" viewBox="0 0 1024 1024">
<title></title>
<g id="icomoon-ignore">
</g>
<path fill="#000" d="M426.667 554.667c164.651 0 298.667 134.016 298.667 298.667 0 23.595-19.072 42.667-42.667 42.667v0h-512c-23.595 0-42.667-19.072-42.667-42.667 0-164.651 134.016-298.667 298.667-298.667zM426.667 128c94.123 0 170.667 76.544 170.667 170.667s-76.544 170.667-170.667 170.667c-94.123 0-170.667-76.544-170.667-170.667s76.544-170.667 170.667-170.667zM716.877 226.219c17.195-17.195 45.312-17.195 62.549 0v0l31.232 31.275 31.275-31.275c17.195-17.195 45.312-17.195 62.507 0s17.195 45.312 0 62.549v0l-31.275 31.232 31.275 31.232c17.195 17.237 17.195 45.355 0 62.549s-45.312 17.195-62.507 0v0l-31.275-31.275-31.232 31.275c-17.237 17.195-45.355 17.195-62.549 0-17.152-17.195-17.152-45.312 0-62.549v0l31.275-31.232-31.275-31.232c-17.152-17.237-17.152-45.355 0-62.549z"></path>
</svg>
