<!-- Generated by IcoMoon.io -->
<svg version="1.1" xmlns="http://www.w3.org/2000/svg" width="1024" height="1024" viewBox="0 0 1024 1024">
<title></title>
<g id="icomoon-ignore">
</g>
<path fill="#000" d="M426.667 554.667c-164.651 0-298.667 133.973-298.667 298.667 0 23.552 19.072 42.667 42.667 42.667s42.667-19.115 42.667-42.667c0-117.632 95.701-213.333 213.333-213.333s213.333 95.701 213.333 213.333c0 23.552 19.072 42.667 42.667 42.667s42.667-19.115 42.667-42.667c0-164.693-134.016-298.667-298.667-298.667zM341.333 298.667c0 47.061 38.272 85.333 85.333 85.333s85.333-38.272 85.333-85.333c0-47.061-38.272-85.333-85.333-85.333s-85.333 38.272-85.333 85.333zM256 298.667c0-94.123 76.544-170.667 170.667-170.667s170.667 76.544 170.667 170.667c0 94.123-76.544 170.667-170.667 170.667s-170.667-76.544-170.667-170.667zM928.213 241.323l-111.36 128c-8.064 9.259-19.669 14.592-31.957 14.677h-0.256c-12.16 0-23.723-5.163-31.787-14.208l-59.307-66.261c-15.701-17.579-14.208-44.544 3.328-60.245 17.621-15.744 44.587-14.251 60.245 3.328l27.051 30.251 79.616-91.52c15.488-17.835 42.411-19.669 60.203-4.181 17.792 15.445 19.669 42.411 4.224 60.16z"></path>
</svg>
