<!-- Generated by IcoMoon.io -->
<svg version="1.1" xmlns="http://www.w3.org/2000/svg" width="1024" height="1024" viewBox="0 0 1024 1024">
<title></title>
<g id="icomoon-ignore">
</g>
<path fill="#000" d="M426.667 554.667c164.651 0 298.667 133.973 298.667 298.667 0 23.552-19.072 42.667-42.667 42.667v0h-512c-23.595 0-42.667-19.115-42.667-42.667 0-164.693 134.016-298.667 298.667-298.667zM426.667 128c94.123 0 170.667 76.544 170.667 170.667s-76.544 170.667-170.667 170.667c-94.123 0-170.667-76.544-170.667-170.667s76.544-170.667 170.667-170.667zM810.667 170.667c23.467 0 42.667 19.2 42.667 42.667v0 42.667h42.667c23.467 0 42.667 19.2 42.667 42.667s-19.2 42.667-42.667 42.667v0h-42.667v42.667c0 23.467-19.2 42.667-42.667 42.667s-42.667-19.2-42.667-42.667v0-42.667h-42.667c-23.467 0-42.667-19.2-42.667-42.667s19.2-42.667 42.667-42.667v0h42.667v-42.667c0-23.467 19.2-42.667 42.667-42.667z"></path>
</svg>
