<!-- Generated by IcoMoon.io -->
<svg version="1.1" xmlns="http://www.w3.org/2000/svg" width="1024" height="1024" viewBox="0 0 1024 1024">
<title></title>
<g id="icomoon-ignore">
</g>
<path fill="#000" d="M426.667 554.667c-164.651 0-298.667 134.016-298.667 298.667 0 23.595 19.072 42.667 42.667 42.667s42.667-19.072 42.667-42.667c0-117.632 95.701-213.333 213.333-213.333s213.333 95.701 213.333 213.333c0 23.595 19.072 42.667 42.667 42.667s42.667-19.072 42.667-42.667c0-164.651-134.016-298.667-298.667-298.667v0zM341.333 298.667c0 47.061 38.272 85.333 85.333 85.333s85.333-38.272 85.333-85.333c0-47.061-38.272-85.333-85.333-85.333s-85.333 38.272-85.333 85.333v0zM256 298.667c0-94.123 76.544-170.667 170.667-170.667s170.667 76.544 170.667 170.667c0 94.123-76.544 170.667-170.667 170.667s-170.667-76.544-170.667-170.667v0zM904.448 351.232c17.195 17.237 17.195 45.355 0 62.549s-45.312 17.195-62.549 0l-31.232-31.275-31.232 31.275c-17.237 17.195-45.355 17.195-62.549 0s-17.195-45.312 0-62.549l31.275-31.232-31.275-31.232c-17.195-17.237-17.195-45.355 0-62.549s45.312-17.195 62.549 0l31.232 31.275 31.232-31.275c17.237-17.195 45.355-17.195 62.549 0s17.195 45.312 0 62.549l-31.275 31.232 31.275 31.232z"></path>
</svg>
