<!-- Generated by IcoMoon.io -->
<svg version="1.1" xmlns="http://www.w3.org/2000/svg" width="1024" height="1024" viewBox="0 0 1024 1024">
<title></title>
<g id="icomoon-ignore">
</g>
<path fill="#000" d="M426.667 554.667c164.651 0 298.667 133.973 298.667 298.667 0 23.552-19.072 42.667-42.667 42.667v0h-512c-23.595 0-42.667-19.115-42.667-42.667 0-164.693 134.016-298.667 298.667-298.667zM426.667 128c94.123 0 170.667 76.544 170.667 170.667s-76.544 170.667-170.667 170.667c-94.123 0-170.667-76.544-170.667-170.667s76.544-170.667 170.667-170.667zM863.799 185.327c15.488-17.792 42.411-19.627 60.203-4.181s19.669 42.411 4.224 60.203v0l-111.403 128c-8.021 9.216-19.669 14.549-31.915 14.635v0c-12.416 0-23.979-5.163-32.085-14.208v0l-59.264-66.261c-15.744-17.536-14.208-44.544 3.328-60.245 17.621-15.744 44.587-14.251 60.245 3.328v0l27.051 30.251z"></path>
</svg>
