<!-- Generated by IcoMoon.io -->
<svg version="1.1" xmlns="http://www.w3.org/2000/svg" width="1024" height="1024" viewBox="0 0 1024 1024">
<title></title>
<g id="icomoon-ignore">
</g>
<path fill="#000" d="M281.6 85.342c11.093 0 22.059 0.939 32.683 2.773 10.368 1.664 20.821 4.309 30.933 7.808 13.909 4.821 24.32 16.469 27.605 30.805v0l58.411 254.421c3.243 14.037-0.811 28.715-10.752 39.083-5.845 6.101-5.973 6.229-58.88 33.877 42.837 92.8 117.291 166.955 208.213 208.384 27.733-52.949 27.861-53.12 33.92-58.965 10.411-9.941 25.045-13.909 39.083-10.795v0l254.464 58.453c14.336 3.285 25.984 13.696 30.763 27.563 3.499 10.027 6.187 20.48 7.893 31.147 1.792 10.624 2.731 21.461 2.731 32.512 0 108.203-88.021 196.267-196.267 196.267-362.283 0-657.067-294.741-657.067-657.109 0-108.203 88.064-196.224 196.267-196.224zM554.667 256c117.632 0 213.333 95.701 213.333 213.333 0 23.595-19.072 42.667-42.667 42.667s-42.667-19.072-42.667-42.667c0-70.571-57.429-128-128-128-23.552 0-42.667-19.072-42.667-42.667s19.115-42.667 42.667-42.667zM554.667 85.333c211.755 0 384 172.245 384 384 0 23.595-19.072 42.667-42.667 42.667s-42.667-19.072-42.667-42.667c0-164.651-134.016-298.667-298.667-298.667-23.552 0-42.667-19.072-42.667-42.667s19.115-42.667 42.667-42.667z"></path>
</svg>
