<!-- Generated by IcoMoon.io -->
<svg version="1.1" xmlns="http://www.w3.org/2000/svg" width="1024" height="1024" viewBox="0 0 1024 1024">
<title></title>
<g id="icomoon-ignore">
</g>
<path fill="#000" d="M603.755 603.55c10.368-9.984 25.045-13.909 39.083-10.795v0l254.464 58.411c14.336 3.285 25.941 13.696 30.72 27.605 3.499 10.027 6.187 20.48 7.893 31.147 1.792 10.581 2.731 21.461 2.731 32.512 0 108.203-88.021 196.224-196.224 196.224-152.192 0-292.011-52.437-403.499-139.563v0l170.624-170.667c19.072 12.971 39.168 24.491 60.245 34.091 27.733-53.035 27.861-53.12 33.963-58.965zM788.578 181.79c14.848-14.848 38.827-14.848 53.632 0 14.848 14.805 14.848 38.784 0 53.632v0l-606.805 606.805c-14.805 14.805-38.827 14.805-53.632 0-7.381-7.381-11.093-17.109-11.093-26.795 0-9.728 3.712-19.413 11.093-26.837v0zM281.574 85.321c11.136 0 22.059 0.981 32.683 2.816 10.368 1.664 20.864 4.267 30.976 7.808 13.909 4.821 24.32 16.427 27.605 30.763v0l58.411 254.464c3.2 13.995-0.853 28.715-10.795 39.083-5.845 6.059-6.016 6.187-58.88 33.92 9.685 21.077 21.205 41.131 34.091 60.16v0l-170.752 170.752c-87.125-111.488-139.563-251.349-139.563-403.499 0-108.203 88.021-196.267 196.224-196.267z"></path>
</svg>
