<!-- Generated by IcoMoon.io -->
<svg version="1.1" xmlns="http://www.w3.org/2000/svg" width="1024" height="1024" viewBox="0 0 1024 1024">
<title></title>
<g id="icomoon-ignore">
</g>
<path fill="#000" d="M853.333 742.417c0-4.736-0.299-9.429-0.896-13.995l-197.163-45.269c-3.883 7.509-8.149 15.701-12.16 23.253-19.413 37.12-33.323 64.085-69.419 49.621-141.056-49.493-256.213-164.651-306.347-307.456-15.232-33.451 13.781-48.64 50.56-67.883 7.467-3.883 15.531-8.107 22.912-11.989l-45.227-197.12c-4.736-0.64-9.344-0.896-13.995-0.896-61.141 0-110.933 49.749-110.933 110.891 0 315.264 256.469 571.776 571.733 571.776 61.184 0 110.933-49.749 110.933-110.933zM935.936 709.905c1.792 10.581 2.731 21.461 2.731 32.512 0 108.203-88.021 196.267-196.267 196.267-362.283 0-657.067-294.784-657.067-657.109 0-108.203 88.021-196.224 196.267-196.224 11.093 0 22.059 0.939 32.683 2.773 10.368 1.664 20.821 4.309 30.933 7.808 13.909 4.821 24.32 16.427 27.605 30.763l58.411 254.464c3.243 13.995-0.811 28.715-10.795 39.083-5.803 6.101-5.931 6.229-58.837 33.877 42.837 92.8 117.291 166.955 208.171 208.384 27.776-52.949 27.904-53.12 33.963-58.965 10.411-9.941 25.045-13.909 39.083-10.795l254.464 58.411c14.336 3.285 25.984 13.739 30.763 27.605 3.499 10.027 6.187 20.48 7.893 31.147zM554.667 170.684c164.651 0 298.667 133.973 298.667 298.667 0 23.552 19.072 42.667 42.667 42.667s42.667-19.115 42.667-42.667c0-211.755-172.245-384-384-384-23.552 0-42.667 19.072-42.667 42.667 0 23.552 19.115 42.667 42.667 42.667zM512 298.684c0-23.595 19.115-42.667 42.667-42.667 117.632 0 213.333 95.701 213.333 213.333 0 23.552-19.072 42.667-42.667 42.667s-42.667-19.115-42.667-42.667c0-70.613-57.429-128-128-128-23.552 0-42.667-19.115-42.667-42.667z"></path>
</svg>
