<!-- Generated by IcoMoon.io -->
<svg version="1.1" xmlns="http://www.w3.org/2000/svg" width="1024" height="1024" viewBox="0 0 1024 1024">
<title></title>
<g id="icomoon-ignore">
</g>
<path fill="#000" d="M603.755 603.55c10.368-9.984 25.045-13.909 39.083-10.795v0l254.464 58.411c14.336 3.285 25.941 13.696 30.72 27.605 3.499 10.027 6.187 20.48 7.893 31.147 1.792 10.581 2.731 21.461 2.731 32.512 0 108.203-88.021 196.224-196.224 196.224-152.192 0-292.011-52.437-403.499-139.563v0l60.885-60.885c95.616 71.936 214.016 115.115 342.613 115.115 61.141 0 110.891-49.749 110.891-110.891 0-4.779-0.256-9.429-0.896-13.995v0l-197.12-45.269c-3.925 7.509-8.192 15.659-12.16 23.253-19.413 37.12-33.365 64.085-69.419 49.621-44.928-15.744-86.741-38.784-125.184-66.603v0l61.013-61.013c19.072 12.971 39.168 24.491 60.245 34.091 27.733-53.035 27.861-53.12 33.963-58.965zM788.578 181.79c14.848-14.848 38.827-14.848 53.632 0 14.848 14.805 14.848 38.784 0 53.632v0l-606.805 606.805c-14.805 14.805-38.827 14.805-53.632 0-7.381-7.381-11.093-17.109-11.093-26.795 0-9.728 3.712-19.413 11.093-26.837v0zM281.566 85.329c11.136 0 22.059 0.981 32.683 2.816 10.368 1.664 20.864 4.267 31.019 7.808 13.867 4.779 24.277 16.427 27.563 30.763v0l58.411 254.464c3.2 13.995-0.811 28.715-10.795 39.083-5.803 6.059-5.973 6.187-58.88 33.92 9.685 21.077 21.205 41.131 34.091 60.16v0l-60.971 60.971c-28.075-38.741-51.328-81.067-67.371-126.72-13.739-34.261 13.099-48.299 50.261-67.712 7.595-4.011 15.744-8.235 23.253-12.16v0l-45.269-197.12c-4.693-0.64-9.301-0.939-13.995-0.939-61.141 0-110.891 49.749-110.891 110.933 0 128.555 43.179 246.997 115.115 342.613v0l-60.885 60.885c-87.125-111.531-139.563-251.349-139.563-403.499 0-108.203 88.021-196.267 196.224-196.267z"></path>
</svg>
