<!-- Generated by IcoMoon.io -->
<svg version="1.1" xmlns="http://www.w3.org/2000/svg" width="1024" height="1024" viewBox="0 0 1024 1024">
<title></title>
<g id="icomoon-ignore">
</g>
<path fill="#000" d="M742.396 938.667c-362.325 0-657.067-294.741-657.067-657.067 0-108.245 88.064-196.267 196.267-196.267 11.093 0 22.059 0.939 32.683 2.773 10.368 1.664 20.821 4.309 30.933 7.808 13.909 4.821 24.32 16.469 27.605 30.805l58.453 254.464c3.2 13.995-0.853 28.672-10.795 39.083-5.845 6.059-5.973 6.187-58.88 33.877 42.837 92.757 117.291 166.955 208.213 208.341 27.691-52.949 27.861-53.12 33.92-58.923 10.453-9.984 25.173-13.867 39.125-10.795l254.464 58.411c14.293 3.285 25.941 13.696 30.763 27.563 3.499 10.069 6.101 20.48 7.851 31.189 1.792 10.539 2.731 21.461 2.731 32.469 0 108.245-88.021 196.267-196.267 196.267z"></path>
</svg>
