<!-- Generated by IcoMoon.io -->
<svg version="1.1" xmlns="http://www.w3.org/2000/svg" width="1024" height="1024" viewBox="0 0 1024 1024">
<title></title>
<g id="icomoon-ignore">
</g>
<path fill="#000" d="M674.21 308.582l31.275-31.232-31.275-31.275c-17.152-17.195-17.152-45.312 0-62.549 17.195-17.152 45.312-17.152 62.549 0l31.232 31.317 31.275-31.317c17.195-17.152 45.312-17.152 62.507 0 17.195 17.237 17.195 45.355 0 62.549l-31.275 31.275 31.275 31.232c17.195 17.195 17.195 45.312 0 62.549-17.195 17.152-45.312 17.152-62.507 0l-31.275-31.317-31.232 31.317c-17.237 17.152-45.355 17.152-62.549 0-17.152-17.237-17.152-45.355 0-62.549zM742.434 853.35c-315.264 0-571.776-256.512-571.776-571.776 0-61.141 49.749-110.891 110.933-110.891 4.651 0 9.301 0.256 13.995 0.896l45.269 197.12c-7.509 3.925-15.701 8.192-23.253 12.16-37.163 19.413-64 33.493-50.261 67.712 50.133 142.805 165.291 257.963 306.389 307.456 36.139 14.464 49.963-12.501 69.376-49.621 4.011-7.595 8.277-15.744 12.203-23.253l197.12 45.269c0.597 4.565 0.896 9.259 0.896 13.995 0 61.184-49.749 110.933-110.891 110.933zM935.927 709.905c-1.707-10.667-4.395-21.12-7.893-31.147-4.779-13.867-16.427-24.32-30.72-27.605l-254.464-58.411c-14.037-3.115-28.715 0.853-39.083 10.795-6.101 5.845-6.229 5.973-33.963 58.965-91.307-41.6-165.931-116.096-208.213-208.341 52.864-27.691 53.035-27.819 58.88-33.92 9.941-10.368 13.995-25.088 10.795-39.083l-58.411-254.464c-3.328-14.336-13.739-25.941-27.605-30.72-10.112-3.541-20.608-6.187-31.019-7.851-10.624-1.835-21.504-2.773-32.64-2.773-108.203 0-196.267 88.021-196.267 196.224 0 362.325 294.741 657.109 657.109 657.109 108.203 0 196.224-88.064 196.224-196.267 0-11.051-0.939-21.931-2.731-32.512z"></path>
</svg>
