<!-- Generated by IcoMoon.io -->
<svg version="1.1" xmlns="http://www.w3.org/2000/svg" width="1024" height="1024" viewBox="0 0 1024 1024">
<title></title>
<g id="icomoon-ignore">
</g>
<path fill="#000" d="M281.579 85.321c11.136 0 22.059 0.981 32.683 2.816 10.368 1.664 20.864 4.267 30.976 7.808 13.867 4.821 24.32 16.427 27.605 30.763v0l58.411 254.464c3.2 13.995-0.853 28.715-10.795 39.083-5.845 6.101-6.016 6.187-58.88 33.92 42.283 92.245 116.907 166.741 208.213 208.341 27.733-53.035 27.861-53.12 33.963-58.965 10.368-9.984 25.045-13.909 39.083-10.795v0l254.464 58.411c14.336 3.285 25.941 13.696 30.72 27.605 3.499 10.027 6.187 20.48 7.893 31.147 1.792 10.581 2.731 21.461 2.731 32.512 0 108.203-88.021 196.224-196.224 196.224-362.325 0-657.109-294.741-657.109-657.067 0-108.203 88.064-196.267 196.267-196.267zM674.21 183.561c17.195-17.195 45.312-17.195 62.549 0v0l31.232 31.275 31.275-31.275c17.195-17.195 45.312-17.195 62.507 0s17.195 45.312 0 62.507v0l-31.275 31.275 31.275 31.232c17.195 17.237 17.195 45.355 0 62.549-17.195 17.152-45.312 17.152-62.507 0v0l-31.275-31.275-31.232 31.275c-17.237 17.152-45.355 17.152-62.549 0-17.152-17.195-17.152-45.312 0-62.549v0l31.275-31.232-31.275-31.275c-17.152-17.195-17.152-45.312 0-62.507z"></path>
</svg>
