<!-- Generated by IcoMoon.io -->
<svg version="1.1" xmlns="http://www.w3.org/2000/svg" width="1024" height="1024" viewBox="0 0 1024 1024">
<title></title>
<g id="icomoon-ignore">
</g>
<path fill="#000" d="M281.604 170.667c-61.184 0-110.933 49.749-110.933 110.933 0 315.221 256.469 571.733 571.733 571.733 61.141 0 110.933-49.749 110.933-110.933 0-4.736-0.299-9.387-0.896-13.995l-197.12-45.227c-3.925 7.509-8.235 15.659-12.16 23.253-19.456 37.12-33.536 64.085-69.461 49.621-141.056-49.493-256.213-164.693-306.347-307.456-15.232-33.493 13.781-48.683 50.56-67.883 7.467-3.925 15.531-8.149 22.912-11.989l-45.227-197.163c-4.736-0.597-9.344-0.896-13.995-0.896zM742.404 938.667c-362.325 0-657.067-294.741-657.067-657.067 0-108.245 88.021-196.267 196.267-196.267 11.093 0 22.059 0.939 32.683 2.773 10.368 1.664 20.779 4.309 30.933 7.808 13.867 4.821 24.32 16.469 27.605 30.805l58.411 254.464c3.243 13.995-0.811 28.672-10.795 39.083-5.803 6.059-5.931 6.187-58.837 33.877 42.837 92.757 117.291 166.955 208.171 208.341 27.733-52.949 27.904-53.12 33.963-58.923 10.411-9.984 25.173-13.867 39.083-10.795l254.507 58.411c14.293 3.285 25.941 13.696 30.72 27.563 3.499 10.069 6.144 20.48 7.893 31.189 1.792 10.539 2.731 21.461 2.731 32.469 0 108.245-88.064 196.267-196.267 196.267z"></path>
</svg>
