<!-- Generated by IcoMoon.io -->
<svg version="1.1" xmlns="http://www.w3.org/2000/svg" width="1024" height="1024" viewBox="0 0 1024 1024">
<title></title>
<g id="icomoon-ignore">
</g>
<path fill="#000" d="M469.824 85.53c23.040-2.304 43.136 15.744 43.136 38.869v0 347.776c0 21.461 17.408 38.869 38.912 38.869v0h347.691c23.125 0 41.216 20.139 38.912 43.136-23.211 231.509-231.083 408.661-474.197 381.781-195.627-21.589-354.645-180.608-376.277-376.235-26.795-243.115 150.272-451.029 381.824-474.197zM618.667 85.338c176.427 0 320 143.531 320 320 0 19.669-15.915 35.541-35.541 35.541v0h-284.459c-19.627 0-35.541-15.872-35.541-35.541v0-284.459c0-19.627 15.915-35.541 35.541-35.541z"></path>
</svg>
