<svg xmlns="http://www.w3.org/2000/svg" width="24" height="24" viewBox="0 0 24 24">
    <path fill="#667181" d="M24 13.031l-.075.567C23.156 19.524 18.033 24 12.015 24c-3.76 0-7.234-1.716-9.53-4.706l-.352-.45 6.122-3.535.276.268c.943.914 2.18 1.42 3.483 1.42 2.269 0 4.205-1.449 4.814-3.6l.103-.366H24zM10.969 0v7.064l-.366.099c-2.156.609-3.6 2.545-3.6 4.818 0 .394.056.807.16 1.219l.089.366-6.122 3.543-.216-.525C.304 15.122 0 13.575 0 11.986 0 5.967 4.476.844 10.406.071L10.97 0zm2.001 0l.558.07c5.414.708 9.689 4.983 10.397 10.406l.075.558h-7.064l-.103-.36c-.469-1.66-1.847-3.043-3.502-3.511l-.36-.099V0z"/>
</svg>
