<!-- Generated by IcoMoon.io -->
<svg version="1.1" xmlns="http://www.w3.org/2000/svg" width="1024" height="1024" viewBox="0 0 1024 1024">
<title></title>
<g id="icomoon-ignore">
</g>
<path fill="#000" d="M888.375 599.791c-22.315-7.936-46.635 3.712-54.443 25.984-48.128 136.107-177.536 227.541-321.92 227.541-188.203 0-341.333-153.088-341.333-341.333 0-144.384 91.435-273.792 227.541-321.92 22.229-7.808 33.877-32.171 26.027-54.4-7.851-22.187-32.213-33.877-54.443-25.984-170.155 60.117-284.459 221.781-284.459 402.304 0 235.264 191.403 426.667 426.667 426.667 180.523 0 342.187-114.261 402.347-284.459 7.851-22.187-3.755-46.549-25.984-54.4zM597.333 426.667v-252.971c130.603 18.773 234.197 122.325 252.971 252.971h-252.971zM554.667 85.333c-23.552 0-42.667 19.072-42.667 42.667v341.333c0 23.595 19.115 42.667 42.667 42.667h341.333c23.552 0 42.667-19.072 42.667-42.667 0-211.755-172.288-384-384-384v0z"></path>
</svg>
