<!-- Generated by IcoMoon.io -->
<svg version="1.1" xmlns="http://www.w3.org/2000/svg" width="1024" height="1024" viewBox="0 0 1024 1024">
<title></title>
<g id="icomoon-ignore">
</g>
<path fill="#000" d="M512 341.333c-35.285 0-64 28.715-64 64s28.715 64 64 64c35.285 0 64-28.715 64-64s-28.715-64-64-64zM512 554.667c-82.347 0-149.333-66.987-149.333-149.333s66.987-149.333 149.333-149.333c82.347 0 149.333 66.987 149.333 149.333s-66.987 149.333-149.333 149.333zM512 85.333c-188.203 0-341.333 151.637-341.333 338.048 0 233.557 300.757 494.037 313.557 505.003 8.021 6.869 17.877 10.283 27.776 10.283s19.755-3.413 27.776-10.283c12.8-10.965 313.557-271.445 313.557-505.003 0-186.411-153.131-338.048-341.333-338.048z"></path>
</svg>
