<!-- Generated by IcoMoon.io -->
<svg version="1.1" xmlns="http://www.w3.org/2000/svg" width="1024" height="1024" viewBox="0 0 1024 1024">
<title></title>
<g id="icomoon-ignore">
</g>
<path fill="#000" d="M512 469.312c-35.285 0-64-28.715-64-64s28.715-64 64-64c35.285 0 64 28.715 64 64s-28.715 64-64 64zM512 255.979c-82.347 0-149.333 66.987-149.333 149.333s66.987 149.333 149.333 149.333c82.347 0 149.333-66.987 149.333-149.333s-66.987-149.333-149.333-149.333zM512 838.229c-71.467-67.584-256-257.323-256-414.891 0-139.307 114.816-252.672 256-252.672s256 113.365 256 252.672c0 157.568-184.533 347.307-256 414.891zM512 85.333c-188.203 0-341.333 151.595-341.333 338.005 0 233.6 300.757 494.037 313.557 505.003 8.021 6.869 17.877 10.325 27.776 10.325s19.755-3.456 27.776-10.325c12.8-10.965 313.557-271.403 313.557-505.003 0-186.411-153.131-338.005-341.333-338.005z"></path>
</svg>
