<!-- Generated by IcoMoon.io -->
<svg version="1.1" xmlns="http://www.w3.org/2000/svg" width="1024" height="1024" viewBox="0 0 1024 1024">
<title></title>
<g id="icomoon-ignore">
</g>
<path fill="#000" d="M490.667 622.916v-221.824l119.851 110.891-119.851 110.933zM526.464 317.978c-21.248-19.712-52.267-24.832-78.976-13.099-26.027 11.349-42.155 35.627-42.155 63.317v287.616c0 27.691 16.128 51.968 42.155 63.317 9.515 4.181 19.627 6.187 29.568 6.187 18.048 0 35.755-6.613 49.365-19.243l155.392-143.787c14.123-13.056 22.187-31.36 22.187-50.304 0-18.901-8.064-37.248-22.187-50.261l-155.349-143.744zM512 853.333c-188.203 0-341.333-153.131-341.333-341.333s153.131-341.333 341.333-341.333c188.203 0 341.333 153.131 341.333 341.333s-153.131 341.333-341.333 341.333zM512 85.333c-235.264 0-426.667 191.403-426.667 426.667s191.403 426.667 426.667 426.667c235.264 0 426.667-191.403 426.667-426.667s-191.403-426.667-426.667-426.667z"></path>
</svg>
