<!-- Generated by IcoMoon.io -->
<svg version="1.1" xmlns="http://www.w3.org/2000/svg" width="1024" height="1024" viewBox="0 0 1024 1024">
<title></title>
<g id="icomoon-ignore">
</g>
<path fill="#000" d="M490.667 622.916l119.851-110.933-119.851-110.891v221.824zM681.813 562.291l-155.392 143.787c-13.611 12.629-31.317 19.243-49.365 19.243-9.941 0-20.053-2.048-29.568-6.187-26.027-11.349-42.155-35.627-42.155-63.36v-287.573c0-27.691 16.128-52.011 42.155-63.317 26.709-11.733 57.728-6.613 78.976 13.056l155.349 143.787c14.123 13.013 22.187 31.36 22.187 50.261 0 18.944-8.064 37.248-22.187 50.304zM512 85.321c-235.264 0-426.667 191.445-426.667 426.667 0 235.264 191.403 426.667 426.667 426.667s426.667-191.403 426.667-426.667c0-235.221-191.403-426.667-426.667-426.667z"></path>
</svg>
