<!-- Generated by IcoMoon.io -->
<svg version="1.1" xmlns="http://www.w3.org/2000/svg" width="1024" height="1024" viewBox="0 0 1024 1024">
<title></title>
<g id="icomoon-ignore">
</g>
<path fill="#000" d="M316.369 132.749c20.864-10.795 46.635-2.645 57.472 18.347 10.837 20.907 2.603 46.635-18.304 57.472-114.048 58.923-184.875 175.189-184.875 303.445 0 188.203 153.131 341.333 341.333 341.333s341.333-153.131 341.333-341.333c0-128.256-70.827-244.523-184.832-303.445-20.949-10.837-29.141-36.565-18.304-57.472 10.795-20.949 36.565-29.099 57.472-18.347 142.464 73.685 230.997 218.965 230.997 379.264 0 235.221-191.403 426.667-426.667 426.667s-426.667-191.445-426.667-426.667c0-160.299 88.533-305.579 231.040-379.264zM512 42.667c23.552 0 42.667 19.072 42.667 42.667v0 426.667c0 23.595-19.115 42.667-42.667 42.667s-42.667-19.072-42.667-42.667v0-426.667c0-23.595 19.115-42.667 42.667-42.667z"></path>
</svg>
