<!-- Generated by IcoMoon.io -->
<svg version="1.1" xmlns="http://www.w3.org/2000/svg" width="1024" height="1024" viewBox="0 0 1024 1024">
<title></title>
<g id="icomoon-ignore">
</g>
<path fill="#000" d="M450.581 360.085c25.003 24.96 25.003 65.536 0 90.496-25.003 25.003-65.493 25.003-90.496 0-25.003-24.96-25.003-65.536 0-90.496 25.003-25.003 65.493-25.003 90.496 0zM248.917 550.042l257.365 257.408 301.141-301.141-257.365-257.408-332.16-30.976 31.019 332.117zM506.283 895.94c-19.84 0-39.637-7.552-54.784-22.613l-273.792-273.835c-7.040-6.997-11.392-16.299-12.331-26.197l-37.205-398.677c-1.152-12.629 3.328-25.131 12.331-34.133s21.461-13.568 34.133-12.288l398.677 37.205c9.899 0.896 19.157 5.248 26.197 12.288l273.792 273.792c14.635 14.635 22.699 34.091 22.699 54.827s-8.064 40.192-22.699 54.827l-312.192 312.149c-15.104 15.104-34.944 22.656-54.827 22.656v0z"></path>
</svg>
