<!-- Generated by IcoMoon.io -->
<svg version="1.1" xmlns="http://www.w3.org/2000/svg" width="1024" height="1024" viewBox="0 0 1024 1024">
<title></title>
<g id="icomoon-ignore">
</g>
<path fill="#000" d="M493.248 493.248c-25.003 25.003-65.493 25.003-90.496 0s-25.003-65.536 0-90.496c25.003-25.003 65.493-25.003 90.496 0 25.003 24.96 25.003 65.493 0 90.496zM915.947 494.144l-273.792-273.792c-7.040-7.040-16.299-11.392-26.197-12.288l-398.677-37.205c-12.672-1.28-25.131 3.285-34.133 12.288s-13.483 21.504-12.331 34.133l37.205 398.677c0.981 9.899 5.291 19.2 12.331 26.197l273.792 273.835c15.147 15.061 34.987 22.613 54.827 22.613s39.68-7.552 54.827-22.656l312.149-312.149c14.635-14.592 22.699-34.091 22.699-54.827s-8.064-40.192-22.699-54.827z"></path>
</svg>
