<!-- Generated by IcoMoon.io -->
<svg version="1.1" xmlns="http://www.w3.org/2000/svg" width="1024" height="1024" viewBox="0 0 1024 1024">
<title></title>
<g id="icomoon-ignore">
</g>
<path fill="#000" d="M853.333 696.875c0 15.701-12.16 28.459-27.179 28.459h-36.821v-85.333c0-47.061-38.272-85.333-85.333-85.333h-384c-47.061 0-85.333 38.272-85.333 85.333v85.333h-36.821c-15.019 0-27.179-12.757-27.179-28.459v-284.416c0-15.701 12.16-28.459 27.179-28.459h628.309c15.019 0 27.179 12.757 27.179 28.459v284.416zM320 810.667v-170.667h384l0.085 170.667h-384.085zM341.931 213.333h340.736v85.333h-341.035l0.299-85.333zM826.155 298.667h-58.155v-85.333c0-47.061-35.072-85.333-78.208-85.333h-355.584c-43.136 0-78.208 38.272-78.208 85.333v85.333h-58.155c-62.037 0-112.512 51.029-112.512 113.792v284.416c0 62.763 50.475 113.792 112.512 113.792h36.821c0 47.061 38.272 85.333 85.333 85.333h384c47.061 0 85.333-38.272 85.333-85.333h36.821c62.037 0 112.512-51.029 112.512-113.792v-284.416c0-62.763-50.475-113.792-112.512-113.792v0z"></path>
</svg>
