<svg xmlns="http://www.w3.org/2000/svg" width="24" height="24" viewBox="0 0 24 24">
    <path fill="#667181" d="M11.294 14.118h1.059v1.724c-.158.112-.329.253-.5.424-.563.563-.911 1.261-.911 2.086 0 .826.348 1.525.912 2.088.17.17.341.312.499.424V24h-6c-1.558 0-2.823-1.264-2.823-2.821v-6.355c0-.39.316-.706.706-.706h2.823c.268 0 .511-.151.631-.39.01-.02.04-.071.089-.146.086-.128.189-.257.309-.377.319-.32.679-.5 1.088-.5.41 0 .771.18 1.09.5.119.12.223.249.308.377.05.075.079.126.09.146.118.239.363.39.63.39zM13.764 24h7.413C22.738 24 24 22.737 24 21.177v-7.06h-3.136c-.112.158-.253.329-.424.5-.563.563-1.261.913-2.087.913-.825 0-1.524-.35-2.087-.913-.17-.171-.311-.342-.424-.5h-2.077v2.119c0 .267-.151.511-.39.63-.02.01-.072.04-.145.089-.13.086-.258.189-.378.309-.318.319-.5.679-.5 1.088 0 .411.182.771.5 1.09.12.119.249.223.378.31.073.048.126.078.145.087.239.12.39.364.39.631V24zM24 12.706V6.352c0-1.56-1.262-2.822-2.821-2.822H14.47c-.39 0-.706.315-.706.705v2.823c0 .268.151.512.391.632.019.01.071.04.145.088.128.087.258.19.377.31.32.318.5.678.5 1.088 0 .41-.18.77-.5 1.09-.119.119-.249.223-.377.308-.074.05-.126.079-.145.089-.24.12-.39.364-.39.631v1.412h2.47c.268 0 .512.15.631.39.01.02.04.071.089.145.086.129.189.258.309.377.319.32.679.5 1.088.5.411 0 .771-.18 1.09-.5.119-.119.223-.248.31-.377.048-.074.078-.125.087-.145.12-.24.364-.39.631-.39H24zM10.942 3.53V.706c0-.39-.317-.706-.706-.706H2.82C1.264 0 0 1.264 0 2.82v7.416c0 .389.316.706.706.706H3.53c.267 0 .512-.152.63-.391.01-.019.04-.072.089-.145.086-.128.19-.258.31-.377.318-.32.678-.5 1.089-.5.41 0 .77.18 1.088.5.12.119.223.249.31.377.048.073.078.126.087.145.12.239.364.39.631.39h2.472c.389 0 .706-.316.706-.705V7.764c0-.267.15-.511.39-.63.018-.01.07-.04.144-.089.13-.086.259-.189.378-.309.318-.319.498-.679.498-1.088 0-.411-.18-.771-.498-1.09-.12-.119-.249-.223-.378-.31-.073-.048-.126-.078-.144-.087-.24-.12-.39-.364-.39-.631z"/>
</svg>
