<!-- Generated by IcoMoon.io -->
<svg version="1.1" xmlns="http://www.w3.org/2000/svg" width="1024" height="1024" viewBox="0 0 1024 1024">
<title></title>
<g id="icomoon-ignore">
</g>
<path fill="#000" d="M554.667 547.708v49.621c0 23.595-19.072 42.667-42.667 42.667s-42.667-19.072-42.667-42.667v-85.333c0-23.595 19.072-42.667 42.667-42.667 35.285 0 64-28.715 64-64s-28.715-64-64-64c-35.285 0-64 28.715-64 64 0 23.595-19.072 42.667-42.667 42.667s-42.667-19.072-42.667-42.667c0-82.347 66.987-149.333 149.333-149.333s149.333 66.987 149.333 149.333c0 67.413-45.227 123.861-106.667 142.379zM512 767.996c-23.595 0-42.667-19.072-42.667-42.667s19.072-42.667 42.667-42.667c23.595 0 42.667 19.072 42.667 42.667s-19.072 42.667-42.667 42.667zM512 85.329c-235.264 0-426.667 191.403-426.667 426.667s191.403 426.667 426.667 426.667c235.264 0 426.667-191.403 426.667-426.667s-191.403-426.667-426.667-426.667z"></path>
</svg>
