<!-- Generated by IcoMoon.io -->
<svg version="1.1" xmlns="http://www.w3.org/2000/svg" width="1024" height="1024" viewBox="0 0 1024 1024">
<title></title>
<g id="icomoon-ignore">
</g>
<path fill="#000" d="M512 768c23.595 0 42.667 19.072 42.667 42.667s-19.072 42.667-42.667 42.667c-23.595 0-42.667-19.072-42.667-42.667s19.072-42.667 42.667-42.667zM512 170.667c117.632 0 213.333 95.701 213.333 213.333 0 102.997-73.429 189.227-170.667 208.981v0 47.019c0 23.595-19.072 42.667-42.667 42.667s-42.667-19.072-42.667-42.667v0-85.333c0-23.595 19.072-42.667 42.667-42.667 70.571 0 128-57.429 128-128s-57.429-128-128-128c-70.571 0-128 57.429-128 128 0 23.595-19.072 42.667-42.667 42.667s-42.667-19.072-42.667-42.667c0-117.632 95.701-213.333 213.333-213.333z"></path>
</svg>
