<!-- Generated by IcoMoon.io -->
<svg version="1.1" xmlns="http://www.w3.org/2000/svg" width="1024" height="1024" viewBox="0 0 1024 1024">
<title></title>
<g id="icomoon-ignore">
</g>
<path fill="#000" d="M795.477 180.659c92.331 77.739 143.189 180.267 143.189 288.683s-50.859 210.944-143.189 288.683c-8.021 6.699-17.749 9.984-27.435 9.984-12.16 0-24.235-5.163-32.725-15.189-15.147-18.005-12.8-44.928 5.205-60.16 72.789-61.184 112.811-140.501 112.811-223.317s-40.021-162.133-112.811-223.317c-18.005-15.232-20.352-42.155-5.205-60.16 15.232-17.963 42.069-20.309 60.16-5.205zM288.683 185.865c15.147 18.005 12.8 44.928-5.205 60.16-72.789 61.184-112.811 140.501-112.811 223.317s40.021 162.133 112.811 223.317c18.005 15.232 20.352 42.155 5.205 60.16-8.491 10.027-20.565 15.189-32.725 15.189-9.685 0-19.413-3.285-27.435-9.984-92.331-77.739-143.189-180.267-143.189-288.683s50.859-210.944 143.189-288.683c18.048-15.147 44.928-12.8 60.16 5.205zM395.307 271.198c15.189 18.005 12.843 44.928-5.163 60.117-45.227 38.059-70.144 87.125-70.144 138.027s24.917 99.968 70.144 138.027c18.005 15.189 20.352 42.112 5.163 60.117-8.448 10.027-20.523 15.189-32.683 15.189-9.685 0-19.413-3.285-27.435-10.027-64.811-54.571-100.523-126.763-100.523-203.307s35.712-148.736 100.523-203.307c18.091-15.275 44.971-12.843 60.117 5.163zM688.811 266.035c64.811 54.571 100.523 126.763 100.523 203.307s-35.712 148.736-100.523 203.307c-8.021 6.741-17.749 10.027-27.435 10.027-12.16 0-24.235-5.163-32.683-15.189-15.189-18.005-12.843-44.928 5.163-60.117 45.227-38.059 70.144-87.125 70.144-138.027s-24.917-99.968-70.144-138.027c-18.005-15.189-20.352-42.112-5.163-60.117 15.147-17.963 42.069-20.395 60.117-5.163zM512 341.333c70.571 0 128 57.429 128 128 0 56.064-36.48 103.339-86.827 120.576 0.469 2.517 1.493 4.779 1.493 7.424v0 256c0 23.595-19.072 42.667-42.667 42.667s-42.667-19.072-42.667-42.667v0-256c0-2.645 1.024-4.907 1.493-7.424-50.347-17.237-86.827-64.512-86.827-120.576 0-70.571 57.429-128 128-128z"></path>
</svg>
