<!-- Generated by IcoMoon.io -->
<svg version="1.1" xmlns="http://www.w3.org/2000/svg" width="1024" height="1024" viewBox="0 0 1024 1024">
<title></title>
<g id="icomoon-ignore">
</g>
<path fill="#000" d="M866.27 572.834c-22.443-7.125-46.421 5.291-53.589 27.733-39.979 125.696-157.653 210.091-292.821 210.091-169.045 0-306.517-133.973-306.517-298.667 0-164.651 137.472-298.667 306.517-298.667 73.728 0 143.275 25.685 198.187 71.253l-92.416-15.232c-23.467-4.267-45.227 11.904-49.067 35.115-3.84 23.253 11.904 45.227 35.157 49.024l181.163 29.952c2.347 0.384 4.736 0.555 6.997 0.555 5.077 0 10.027-0.896 14.635-2.603 1.579-0.597 2.859-1.707 4.395-2.517 2.816-1.451 5.76-2.731 8.192-4.779 1.536-1.237 2.517-3.029 3.84-4.48 2.005-2.091 4.139-4.096 5.632-6.656 1.067-1.835 1.493-4.011 2.304-6.059 1.024-2.517 2.389-4.864 2.901-7.637l32.171-170.667c4.352-23.168-10.88-45.525-34.048-49.835-23.083-4.181-45.483 10.88-49.835 34.005l-11.605 61.483c-70.997-61.483-162.005-96.256-258.603-96.256-216.064 0-391.851 172.245-391.851 384s175.787 384 391.851 384c172.459 0 322.816-108.331 374.144-269.568 7.125-22.443-5.291-46.421-27.733-53.589z"></path>
</svg>
