<!-- Generated by IcoMoon.io -->
<svg version="1.1" xmlns="http://www.w3.org/2000/svg" width="1024" height="1024" viewBox="0 0 1024 1024">
<title></title>
<g id="icomoon-ignore">
</g>
<path fill="#000" d="M149.333 512c23.552 0 42.667 19.072 42.667 42.667v0 105.429c0 35.968 30.421 65.237 67.84 65.237v0h511.829l-55.168-55.168c-16.683-16.683-16.683-43.648 0-60.331s43.648-16.683 60.331 0v0l128 128c16.683 16.683 16.683 43.648 0 60.331v0l-128 128c-8.32 8.32-19.243 12.501-30.165 12.501s-21.845-4.181-30.165-12.501c-16.683-16.683-16.683-43.648 0-60.331v0l55.168-55.168h-511.829c-84.48 0-153.173-67.541-153.173-150.571v0-105.429c0-23.595 19.115-42.667 42.667-42.667zM247.177 97.835c16.64-16.683 43.648-16.683 60.331 0 16.64 16.683 16.64 43.648 0 60.331v0l-55.168 55.168h511.829c84.437 0 153.173 67.541 153.173 150.571v0 105.429c0 23.595-19.072 42.667-42.667 42.667s-42.667-19.072-42.667-42.667v0-105.429c0-35.925-30.421-65.237-67.84-65.237v0h-511.829l55.168 55.168c16.64 16.683 16.64 43.648 0 60.331-8.32 8.32-19.243 12.501-30.165 12.501s-21.845-4.181-30.165-12.501v0l-128-128c-16.683-16.683-16.683-43.648 0-60.331v0z"></path>
</svg>
