<!-- Generated by IcoMoon.io -->
<svg version="1.1" xmlns="http://www.w3.org/2000/svg" width="1024" height="1024" viewBox="0 0 1024 1024">
<title></title>
<g id="icomoon-ignore">
</g>
<path fill="#000" d="M889.958 455.415l-217.557-179.797c-25.984-21.419-63.019-25.728-94.293-11.051-27.605 13.056-44.757 38.955-44.757 67.669v110.549l-202.283-167.168c-25.984-21.419-63.061-25.728-94.293-11.051-27.605 13.056-44.757 38.955-44.757 67.669v359.509c0 28.715 17.152 54.613 44.757 67.669 12.331 5.803 25.6 8.619 38.656 8.619 20.096 0 39.893-6.699 55.637-19.712l202.283-167.083v110.507c0 28.715 17.152 54.613 44.757 67.669 12.331 5.803 25.6 8.619 38.656 8.619 20.096 0 39.893-6.699 55.637-19.712l217.557-179.755c17.408-14.336 27.392-34.987 27.392-56.576s-9.984-42.24-27.392-56.576z"></path>
</svg>
