<!-- Generated by IcoMoon.io -->
<svg version="1.1" xmlns="http://www.w3.org/2000/svg" width="1024" height="1024" viewBox="0 0 1024 1024">
<title></title>
<g id="icomoon-ignore">
</g>
<path fill="#000" d="M746.667 682.044l-205.739-169.941 205.739-166.869v336.811zM405.333 682.044l-205.739-169.941 205.739-166.869v336.811zM787.2 264.593c-31.317-14.72-68.309-10.368-94.251 11.093l-202.283 167.083v-110.507c0-28.715-17.152-54.656-44.8-67.669-31.317-14.72-68.309-10.368-94.251 11.093l-217.6 179.712c-17.365 14.336-27.349 35.029-27.349 56.619s9.984 42.24 27.392 56.576l217.557 179.797c15.701 12.928 35.499 19.669 55.595 19.669 13.099 0 26.325-2.859 38.656-8.661 27.648-13.013 44.8-38.955 44.8-67.627v-110.549l202.283 167.168c15.701 12.928 35.499 19.669 55.595 19.669 13.099 0 26.325-2.859 38.656-8.661 27.648-13.013 44.8-38.955 44.8-67.627v-359.509c0-28.715-17.152-54.656-44.8-67.669v0z"></path>
</svg>
