<svg xmlns="http://www.w3.org/2000/svg" width="24" height="16" viewBox="0 0 24 16">
    <path fill="#667181" d="M4.596.001c.277 0 .53.13.682.363L9.043 5.79c.177.286.203.623.05.91-.151.285-.454.467-.757.467H6.238l-.455 7.687c-.025.675-.606 1.194-1.263 1.142-.606-.025-1.085-.519-1.111-1.142l-.454-7.66H.858c-.329 0-.606-.181-.758-.467-.152-.312-.127-.65.05-.91L3.914.365c.151-.233.404-.363.682-.363zm18.772 12.516c.354 0 .632.286.632.649v2.181c0 .363-.278.65-.632.65H12c-.353 0-.632-.287-.632-.65v-2.181c0-.363.279-.65.632-.65zm0-6.258c.354 0 .632.285.632.65v2.18c0 .363-.278.65-.632.65H12c-.353 0-.632-.287-.632-.65V6.91c0-.364.279-.65.632-.65zm0-6.259c.354 0 .632.286.632.65v2.18c0 .363-.278.65-.632.65H12c-.353 0-.632-.287-.632-.65V.65c0-.364.279-.65.632-.65z"/>
</svg>
