<!-- Generated by IcoMoon.io -->
<svg version="1.1" xmlns="http://www.w3.org/2000/svg" width="1024" height="1024" viewBox="0 0 1024 1024">
<title></title>
<g id="icomoon-ignore">
</g>
<path fill="#000" d="M597.333 725.333l0.043 170.667h-170.709v-170.667h170.667zM341.338 128v298.667c0 23.552 19.072 42.667 42.667 42.667v0h256c23.595 0 42.667-19.115 42.667-42.667s-19.072-42.667-42.667-42.667v0h-213.333v-256h135.339c33.92 0 66.475 13.483 90.453 37.461v0l206.037 206.037c23.979 23.979 37.504 56.576 37.504 90.539v0 305.963c0 70.699-57.301 128-128 128v0h-85.333v-170.667c0-47.061-38.315-85.333-85.333-85.333v0h-170.667c-47.061 0-85.333 38.272-85.333 85.333v0 170.667h-85.333c-70.699 0-128-57.301-128-128v0-512c0-70.699 57.301-128 128-128v0h85.333z"></path>
</svg>
