<!-- Generated by IcoMoon.io -->
<svg version="1.1" xmlns="http://www.w3.org/2000/svg" width="1024" height="1024" viewBox="0 0 1024 1024">
<title></title>
<g id="icomoon-ignore">
</g>
<path fill="#000" d="M341.333 213.333v213.333c0 23.552 19.072 42.667 42.667 42.667h170.667c23.595 0 42.667-19.115 42.667-42.667s-19.072-42.667-42.667-42.667h-128v-170.667h135.339c11.221 0 22.187 4.565 30.165 12.501l205.995 205.995c8.064 8.064 12.501 18.816 12.501 30.208v305.963c0 23.509-19.115 42.667-42.667 42.667h-85.333v-128c0-23.552-19.072-42.667-42.667-42.667h-256c-23.595 0-42.667 19.115-42.667 42.667v128h-85.333c-23.552 0-42.667-19.157-42.667-42.667v-512c0-23.509 19.115-42.667 42.667-42.667h85.333zM597.333 725.333v85.333h-170.667v-85.333h170.667zM858.496 371.499l-205.995-205.995c-24.149-24.192-56.32-37.504-90.496-37.504h-306.005c-70.571 0-128 57.429-128 128v512c0 70.571 57.429 128 128 128h512c70.571 0 128-57.429 128-128v-305.963c0-34.219-13.355-66.389-37.504-90.539v0z"></path>
</svg>
