<!-- Generated by IcoMoon.io -->
<svg version="1.1" xmlns="http://www.w3.org/2000/svg" width="1024" height="1024" viewBox="0 0 1024 1024">
<title></title>
<g id="icomoon-ignore">
</g>
<path fill="#000" d="M883.499 780.501c16.683 16.683 16.683 43.648 0 60.331-8.32 8.32-19.243 12.501-30.165 12.501s-21.845-4.181-30.165-12.501l-213.333-213.333c-16.683-16.683-16.683-43.648 0-60.331s43.648-16.683 60.331 0l213.333 213.333zM298.667 810.667c-23.552 0-42.667-19.157-42.667-42.667s19.115-42.667 42.667-42.667c23.552 0 42.667 19.157 42.667 42.667s-19.115 42.667-42.667 42.667v0zM298.667 298.667c-23.552 0-42.667-19.157-42.667-42.667s19.115-42.667 42.667-42.667c23.552 0 42.667 19.157 42.667 42.667s-19.115 42.667-42.667 42.667v0zM883.541 243.456c16.683-16.725 16.597-43.691-0.085-60.331-16.725-16.64-43.691-16.555-60.331 0.085l-267.947 268.928-141.013-140.971c-0.128-0.085-0.256-0.128-0.384-0.256 8.021-16.683 12.885-35.2 12.885-54.912 0-70.571-57.429-128-128-128s-128 57.429-128 128c0 70.571 57.429 128 128 128 19.755 0 38.187-4.864 54.912-12.885 0.128 0.128 0.128 0.299 0.256 0.384l141.099 141.099-140.331 140.8c-16.981-8.277-35.755-13.397-55.936-13.397-70.571 0-128 57.429-128 128s57.429 128 128 128c70.571 0 128-57.429 128-128 0-19.243-4.565-37.333-12.203-53.76l469.077-470.784z"></path>
</svg>
