<!-- Generated by IcoMoon.io -->
<svg version="1.1" xmlns="http://www.w3.org/2000/svg" width="1024" height="1024" viewBox="0 0 1024 1024">
<title></title>
<g id="icomoon-ignore">
</g>
<path fill="#000" d="M213.333 469.333c0-141.184 114.816-256 256-256s256 114.816 256 256c0 141.184-114.816 256-256 256s-256-114.816-256-256zM883.499 823.168l-144.853-144.896c44.928-57.771 72.021-130.176 72.021-208.939 0-188.203-153.131-341.333-341.333-341.333s-341.333 153.131-341.333 341.333c0 188.203 153.131 341.333 341.333 341.333 78.763 0 151.168-27.093 208.939-72.021l144.896 144.853c8.32 8.32 19.243 12.501 30.165 12.501s21.845-4.181 30.165-12.501c16.683-16.683 16.683-43.648 0-60.331z"></path>
</svg>
