<svg xmlns="http://www.w3.org/2000/svg" width="24" height="24" viewBox="0 0 24 24">
    <path fill="#7F7F7F" d="M.766 0c-.199 0-.39.08-.53.222C.096.363.018.554.019.753v8.2c0 .415.335.751.749.751s.75-.336.75-.75V1.5h7.441c.202.005.396-.072.54-.214.145-.141.225-.334.225-.536 0-.201-.08-.395-.224-.536C9.355.072 9.16-.004 8.96 0H.765zm14.28 0c-.202-.004-.397.072-.54.214-.145.14-.226.335-.226.536 0 .202.081.395.225.537.144.141.34.218.54.213h7.442v4.451c0 .416.335.751.75.751.414 0 .749-.335.749-.75V.752c0-.2-.078-.392-.22-.533-.14-.142-.332-.22-.532-.22h-8.189zM.765 11.25c-.201-.005-.396.072-.54.214C.08 11.604 0 11.798 0 12c0 .201.081.395.226.536.144.142.339.219.54.214h22.468c.201.005.396-.072.54-.214.145-.141.226-.335.226-.536 0-.202-.081-.396-.226-.536-.144-.142-.339-.219-.54-.214H.766zM.76 14.285c-.026 0-.052.002-.078.004-.383.044-.67.373-.663.76v8.205-.001c0 .412.335.746.747.747h8.193c.202.004.396-.072.54-.214.145-.14.225-.335.225-.536 0-.202-.08-.395-.224-.536-.145-.142-.34-.219-.54-.214H1.517v-7.451c.003-.204-.075-.399-.218-.543-.143-.143-.338-.223-.54-.221zm22.469 0c-.027 0-.053.002-.078.004-.384.044-.671.373-.664.76v7.45h-7.442c-.2-.004-.396.073-.54.214-.144.142-.225.335-.225.537 0 .201.081.395.225.536.144.142.34.218.54.214h8.19c.413.002.749-.333.75-.747v-8.205c.005-.203-.074-.398-.216-.542-.144-.144-.338-.223-.54-.221z"/>
</svg>
