<!-- Generated by IcoMoon.io -->
<svg version="1.1" xmlns="http://www.w3.org/2000/svg" width="1024" height="1024" viewBox="0 0 1024 1024">
<title></title>
<g id="icomoon-ignore">
</g>
<path fill="#000" d="M485.312 853.333h53.376v-32.725c0-39.893 24.533-75.733 62.464-91.392 39.253-16.341 82.133-8.32 110.379 20.096l22.997 23.083 37.888-37.888-23.253-23.211c-28.288-28.245-36.267-71.083-20.352-109.099 0 0 0.043-0.043 0.043-0.085l0.469-1.195c15.531-37.675 51.413-62.251 91.307-62.251h32.683v-53.333h-32.683c-39.893 0-75.776-24.533-91.392-62.464-16.427-39.253-8.363-82.133 20.053-110.421l23.083-22.997-37.845-37.845-23.253 23.253c-28.245 28.245-71.040 36.224-109.056 20.352-38.955-16.085-63.531-51.925-63.531-91.819v-32.725h-53.376v32.725c0 39.893-24.533 75.733-62.464 91.392-39.211 16.427-82.091 8.363-110.379-20.096l-22.997-23.083-37.888 37.888 23.253 23.211c28.245 28.245 36.267 71.083 20.352 109.099-16.043 38.955-51.925 63.531-91.819 63.531h-32.725v53.333h32.725c39.893 0 75.776 24.533 91.392 62.464 16.427 39.253 8.363 82.133-20.053 110.421l-23.083 22.997 37.845 37.845 23.253-23.253c28.245-28.245 71.040-36.224 109.056-20.352 38.955 16.085 63.531 51.925 63.531 91.819v32.725zM552.213 938.667h-80.725c-39.424 0-71.509-32.085-71.509-71.509v-46.549c0-6.272-4.992-10.581-9.685-12.501-6.144-2.517-12.715-3.029-17.237 1.365l-32.853 32.896c-27.989 27.904-73.472 27.989-101.419 0l-57.173-57.173c-13.568-13.568-20.992-31.573-20.992-50.773 0.043-19.157 7.509-37.163 21.12-50.731l32.768-32.64c4.48-4.48 4.011-11.051 2.005-15.787-2.56-6.272-6.827-11.264-13.141-11.264h-46.251c-39.595 0-71.808-32.171-71.808-71.765v-80.725c0-39.467 32.085-71.509 71.552-71.509h46.507c6.272 0 10.581-5.035 12.501-9.728 2.56-6.144 3.072-12.757-1.365-17.195l-32.896-32.853c-27.904-28.032-27.904-73.515 0-101.419l57.173-57.173c13.568-13.568 31.531-20.992 50.688-20.992h0.085c19.157 0 37.205 7.467 50.731 21.077l32.64 32.811c4.48 4.523 11.093 4.011 15.829 2.005 6.229-2.603 11.221-6.869 11.221-13.141v-46.251c0-39.595 32.213-71.808 71.808-71.808h80.725c39.424 0 71.509 32.085 71.509 71.509v46.549c0 6.272 4.992 10.581 9.685 12.501 6.187 2.56 12.757 3.115 17.237-1.365l32.853-32.896c27.989-27.904 73.472-27.989 101.419 0l57.216 57.216c13.568 13.525 20.992 31.531 20.949 50.731 0 19.115-7.467 37.163-21.077 50.688l-32.811 32.683c-4.48 4.48-4.011 11.051-2.005 15.787 2.56 6.272 6.827 11.264 13.141 11.264h46.251c39.595 0 71.765 32.171 71.765 71.765v80.725c0 39.467-32.043 71.509-71.509 71.509h-46.507c-6.272 0-10.581 5.035-12.501 9.728-0.043 0.043-0.555 1.323-0.597 1.408-1.963 4.736-2.475 11.349 1.963 15.787l32.896 32.853c27.904 28.032 27.904 73.515 0 101.419l-57.173 57.173c-13.568 13.568-31.531 20.992-50.688 20.992h-0.085c-19.157 0-37.205-7.467-50.731-21.077l-32.64-32.811c-4.48-4.48-11.136-3.968-15.829-2.005-6.229 2.603-11.221 6.869-11.221 13.141v46.251c0 39.595-32.213 71.808-71.808 71.808v0zM512 448c-35.285 0-64 28.715-64 64s28.715 64 64 64c35.285 0 64-28.715 64-64s-28.715-64-64-64zM512 661.333c-82.347 0-149.333-66.987-149.333-149.333s66.987-149.333 149.333-149.333c82.347 0 149.333 66.987 149.333 149.333s-66.987 149.333-149.333 149.333z"></path>
</svg>
