<!-- Generated by IcoMoon.io -->
<svg version="1.1" xmlns="http://www.w3.org/2000/svg" width="1024" height="1024" viewBox="0 0 1024 1024">
<title></title>
<g id="icomoon-ignore">
</g>
<path fill="#000" d="M512 448c-35.285 0-64 28.715-64 64s28.715 64 64 64c35.285 0 64-28.715 64-64s-28.715-64-64-64zM512 661.333c-82.347 0-149.333-66.987-149.333-149.333s66.987-149.333 149.333-149.333c82.347 0 149.333 66.987 149.333 149.333s-66.987 149.333-149.333 149.333zM934.059 440.277l-33.579-107.563c-8.021-25.813-25.515-46.677-49.195-58.795-23.083-11.819-49.323-13.824-73.899-5.632l-14.507 4.821c-22.869 7.723-48.384 3.456-67.968-11.264l-4.565-3.456c-18.645-13.995-29.696-36.821-29.611-60.971l0.085-11.904c0.085-27.093-10.24-52.48-29.141-71.467-18.304-18.389-42.496-28.544-68.181-28.587l-108.843-0.128c-53.504 0-97.195 44.459-97.408 99.243l-0.043 10.283c-0.085 25.515-11.819 49.579-31.275 64.427l-5.504 4.181c-21.888 16.64-50.261 21.376-75.819 12.672-23.808-8.149-49.28-6.4-71.808 4.949-23.040 11.648-40.064 31.872-47.957 56.917l-34.816 110.72c-16.512 52.565 11.221 107.691 63.147 125.483l6.997 2.389c22.101 7.552 39.893 26.837 47.744 51.669l2.347 7.168c9.344 27.563 6.101 56.619-9.856 79.232-30.72 43.648-21.376 105.216 20.864 137.216l88.405 67.157c16.981 12.885 37.077 19.627 57.856 19.627 4.907 0 9.856-0.341 14.805-1.109 26.112-4.096 49.024-18.389 64.469-40.277l9.856-13.995c14.165-20.139 35.797-32.043 60.928-32.725 25.045-1.408 48.939 11.648 63.872 33.152l5.035 7.339c15.317 22.101 38.187 36.608 64.384 40.832 25.984 4.139 51.883-2.304 73.003-18.261l87.936-66.389c42.411-31.957 52.139-93.739 21.675-137.771l-11.136-16c-13.995-20.224-18.091-46.549-11.008-70.485 7.723-26.112 27.008-46.592 51.627-54.869l8.576-2.859c50.645-16.939 78.677-73.003 62.507-124.971z"></path>
</svg>
