<!-- Generated by IcoMoon.io -->
<svg version="1.1" xmlns="http://www.w3.org/2000/svg" width="1024" height="1024" viewBox="0 0 1024 1024">
<title></title>
<g id="icomoon-ignore">
</g>
<path fill="#000" d="M512 448c-35.285 0-64 28.715-64 64s28.715 64 64 64c35.285 0 64-28.715 64-64s-28.715-64-64-64zM512 661.333c-82.347 0-149.333-66.987-149.333-149.333s66.987-149.333 149.333-149.333c82.347 0 149.333 66.987 149.333 149.333s-66.987 149.333-149.333 149.333zM866.859 400h-46.251c-6.272 0-10.539-4.992-13.141-11.264-1.963-4.736-2.475-11.307 2.005-15.787l32.853-32.683c13.568-13.525 21.077-31.573 21.077-50.688 0-19.2-7.424-37.205-20.992-50.731l-57.216-57.216c-27.904-27.989-73.429-27.904-101.419 0l-32.853 32.896c-4.437 4.48-11.008 3.925-17.195 1.365-4.693-1.92-9.728-6.229-9.728-12.501v-46.549c0-39.424-32.043-71.509-71.509-71.509h-80.725c-39.595 0-71.765 32.213-71.765 71.808v46.251c0 6.272-4.992 10.539-11.264 13.141-4.736 2.005-11.349 2.517-15.787-2.005l-32.64-32.811c-13.568-13.611-31.573-21.077-50.731-21.077h-0.085c-19.157 0-37.163 7.424-50.688 20.992l-57.173 57.173c-27.947 27.904-27.947 73.387 0 101.419l32.896 32.853c4.437 4.437 3.925 11.051 1.365 17.195-1.92 4.693-6.229 9.728-12.501 9.728h-46.549c-39.424 0-71.509 32.043-71.509 71.509v80.725c0 39.595 32.213 71.765 71.808 71.765h46.251c6.272 0 10.539 4.992 13.141 11.264 1.963 4.736 2.475 11.307-2.005 15.787l-32.811 32.64c-13.611 13.568-21.077 31.573-21.077 50.731-0.043 19.2 7.424 37.205 20.992 50.773l57.173 57.173c27.904 27.989 73.429 27.904 101.419 0l32.853-32.896c4.48-4.395 11.051-3.883 17.195-1.365 4.693 1.92 9.728 6.229 9.728 12.501v46.549c0 39.424 32.043 71.509 71.509 71.509h80.725c39.595 0 71.765-32.213 71.765-71.808v-46.251c0-6.272 4.992-10.539 11.264-13.141 4.693-1.963 11.307-2.475 15.787 2.005l32.64 32.811c13.568 13.611 31.573 21.077 50.731 21.077h0.085c19.157 0 37.163-7.424 50.688-20.992l57.173-57.173c27.947-27.904 27.947-73.387 0-101.419l-32.896-32.853c-4.437-4.437-3.925-11.051-1.92-15.787 0-0.085 0.555-1.365 0.555-1.408 1.92-4.693 6.229-9.728 12.501-9.728h46.549c39.424 0 71.509-32.043 71.509-71.509v-80.725c0-39.595-32.213-71.765-71.808-71.765z"></path>
</svg>
