<!-- Generated by IcoMoon.io -->
<svg version="1.1" xmlns="http://www.w3.org/2000/svg" width="1024" height="1024" viewBox="0 0 1024 1024">
<title></title>
<g id="icomoon-ignore">
</g>
<path fill="#000" d="M187.853 495.876c47.616 16.341 85.547 56.192 101.419 106.709l1.707 5.12c18.176 53.589 10.795 111.275-19.669 154.539-5.547 7.851-4.309 17.237 1.536 21.675l88.405 67.157c3.115 2.347 6.144 2.347 8.021 2.133 2.133-0.341 5.248-1.493 7.765-5.077l9.856-13.995c29.397-41.685 76.757-67.413 126.763-68.864 56.149-1.152 106.581 24.576 137.984 69.931l5.035 7.296c2.517 3.584 5.589 4.779 7.765 5.12 1.877 0.384 4.949 0.256 8.021-2.133l87.936-66.347c6.144-4.608 7.509-14.464 2.944-21.077l-11.093-16c-28.587-41.301-37.077-94.891-22.699-143.317 15.616-52.736 55.339-94.464 106.325-111.531l8.576-2.901c6.869-2.261 10.581-10.795 8.149-18.645l-33.579-107.563c-1.579-5.035-4.821-7.296-6.613-8.235-2.56-1.323-5.333-1.536-7.979-0.64l-14.507 4.821c-49.621 16.512-104.363 7.552-146.389-24.064l-4.608-3.456c-39.936-30.037-63.701-78.464-63.531-129.493l0.085-11.947c0-5.675-2.688-9.216-4.309-10.837-1.536-1.579-4.139-3.456-7.808-3.456l-108.672-0.128c-6.656 0-12.075 6.357-12.117 14.208l-0.043 10.325c-0.213 51.84-24.491 101.163-64.939 132.011l-5.504 4.181c-44.501 33.835-102.528 43.392-155.093 25.472-2.005-0.683-3.883-0.555-5.675 0.384-1.365 0.683-3.84 2.432-5.035 6.315l-34.859 110.763c-2.517 8.064 1.621 16.469 9.429 19.157l6.997 2.389zM367.522 938.671c-20.736 0-40.875-6.741-57.856-19.669l-88.405-67.115c-42.24-32-51.584-93.568-20.864-137.216 15.957-22.613 19.243-51.669 9.856-79.232l-2.347-7.168c-7.808-24.832-25.643-44.117-47.701-51.669h-0.043l-6.955-2.432c-51.968-17.792-79.701-72.875-63.189-125.44l34.816-110.72c7.893-25.045 24.917-45.269 47.957-56.917 22.528-11.349 48-13.099 71.808-4.949 25.557 8.704 53.931 3.968 75.819-12.672l5.504-4.181c19.456-14.848 31.189-38.955 31.275-64.427l0.043-10.283c0.213-54.784 43.947-99.243 97.408-99.243h0.171l108.672 0.128c25.685 0.043 49.92 10.197 68.181 28.587 18.901 18.987 29.227 44.373 29.141 71.467l-0.085 11.904c-0.085 24.149 10.965 46.976 29.611 60.971l4.565 3.456c19.584 14.72 45.099 18.944 68.011 11.264l14.464-4.821c24.619-8.192 50.816-6.187 73.899 5.632 23.68 12.117 41.173 32.981 49.195 58.795l33.579 107.563c16.213 51.968-11.861 108.032-62.507 124.971l-8.576 2.859c-24.576 8.277-43.904 28.757-51.627 54.869-7.083 23.936-2.987 50.261 11.051 70.485l11.093 16c30.464 44.032 20.736 105.813-21.675 137.771l-87.936 66.389c-21.12 15.957-47.019 22.4-73.003 18.261-26.197-4.224-49.067-18.731-64.384-40.832l-5.035-7.339c-14.933-21.504-38.827-34.56-63.872-33.152-25.088 0.683-46.763 12.587-60.928 32.725l-9.856 13.995c-15.445 21.888-38.357 36.181-64.427 40.277-4.992 0.768-9.941 1.109-14.848 1.109v0zM512 448c-35.285 0-64 28.715-64 64s28.715 64 64 64c35.285 0 64-28.715 64-64s-28.715-64-64-64zM512 661.333c-82.347 0-149.333-66.987-149.333-149.333s66.987-149.333 149.333-149.333c82.347 0 149.333 66.987 149.333 149.333s-66.987 149.333-149.333 149.333z"></path>
</svg>
