<!-- Generated by IcoMoon.io -->
<svg version="1.1" xmlns="http://www.w3.org/2000/svg" width="1024" height="1024" viewBox="0 0 1024 1024">
<title></title>
<g id="icomoon-ignore">
</g>
<path fill="#000" d="M554.667 633.95v219.392c0 23.595-19.115 42.667-42.667 42.667s-42.667-19.072-42.667-42.667v0-219.392c13.696 3.541 27.861 6.059 42.667 6.059s28.971-2.517 42.667-6.059v0zM267.328 185.865c15.147 18.005 12.843 44.928-5.163 60.117-72.789 61.227-112.853 140.587-112.853 223.36s40.064 162.133 112.853 223.36c18.005 15.189 20.309 42.112 5.163 60.117-8.448 10.027-20.523 15.189-32.683 15.189-9.728 0-19.456-3.285-27.477-10.027-92.331-77.739-143.189-180.224-143.189-288.64s50.859-210.901 143.189-288.64c18.005-15.232 44.928-12.885 60.16 5.163zM816.832 180.702c92.331 77.739 143.189 180.224 143.189 288.64s-50.859 210.901-143.189 288.64c-8.021 6.741-17.749 10.027-27.477 10.027-12.16 0-24.235-5.163-32.683-15.189-15.147-18.005-12.843-44.928 5.163-60.117 72.789-61.227 112.853-140.587 112.853-223.36s-40.064-162.133-112.853-223.36c-18.005-15.189-20.309-42.112-5.163-60.117 15.189-18.048 42.112-20.352 60.16-5.163zM710.165 266.035c64.811 54.613 100.523 126.805 100.523 203.307s-35.712 148.693-100.523 203.307c-8.021 6.741-17.749 10.027-27.477 10.027-12.16 0-24.192-5.163-32.683-15.147-15.147-18.048-12.843-44.971 5.163-60.16 45.269-38.059 70.187-87.125 70.187-138.027s-24.917-99.968-70.187-138.027c-18.005-15.189-20.309-42.112-5.163-60.16 15.189-17.963 42.155-20.309 60.16-5.12zM373.995 271.155c15.147 18.048 12.843 44.971-5.163 60.16-45.269 38.059-70.187 87.125-70.187 138.027s24.917 99.968 70.187 138.027c18.005 15.189 20.309 42.112 5.163 60.16-8.448 9.984-20.523 15.147-32.683 15.147-9.728 0-19.456-3.285-27.477-10.027-64.811-54.613-100.523-126.805-100.523-203.307s35.712-148.693 100.523-203.307c18.005-15.189 44.928-12.885 60.16 5.12zM512 426.675c23.509 0 42.667 19.115 42.667 42.667s-19.157 42.667-42.667 42.667c-23.509 0-42.667-19.115-42.667-42.667s19.157-42.667 42.667-42.667zM512 85.342c23.552 0 42.667 19.072 42.667 42.667v0 176.725c-13.696-3.541-27.861-6.059-42.667-6.059s-28.971 2.517-42.667 6.059v0-176.725c0-23.595 19.115-42.667 42.667-42.667z"></path>
</svg>
