<!-- Generated by IcoMoon.io -->
<svg version="1.1" xmlns="http://www.w3.org/2000/svg" width="1024" height="1024" viewBox="0 0 1024 1024">
<title></title>
<g id="icomoon-ignore">
</g>
<path fill="#000" d="M768 640.021c-34.859 0-66.432 14.080-89.557 36.736l-338.56-150.443c0.555-4.736 1.451-9.429 1.451-14.293s-0.896-9.557-1.451-14.293l338.56-150.443c23.125 22.656 54.699 36.736 89.557 36.736 70.571 0 128-57.429 128-128s-57.429-128-128-128c-70.571 0-128 57.429-128 128 0 4.864 0.896 9.557 1.451 14.293l-338.56 150.443c-23.125-22.656-54.699-36.736-89.557-36.736-70.571 0-128 57.429-128 128s57.429 128 128 128c34.859 0 66.432-14.080 89.557-36.736l338.56 150.443c-0.555 4.736-1.451 9.429-1.451 14.293 0 70.571 57.429 128 128 128s128-57.429 128-128c0-70.571-57.429-128-128-128z"></path>
</svg>
