<!-- Generated by IcoMoon.io -->
<svg version="1.1" xmlns="http://www.w3.org/2000/svg" width="1024" height="1024" viewBox="0 0 1024 1024">
<title></title>
<g id="icomoon-ignore">
</g>
<path fill="#000" d="M512 176.917l-298.667 168.021v6.187c0 202.24 109.483 389.504 285.781 488.704l12.885 7.253 12.885-7.253c176.299-99.2 285.781-286.464 285.781-488.704v-6.187l-298.667-168.021zM512 932.288c-14.464 0-28.928-3.584-41.771-10.837l-12.928-7.296c-203.136-114.219-329.301-329.984-329.301-563.029v-6.187c0-30.677 16.64-59.179 43.435-74.325l298.752-168.021c25.813-14.507 57.856-14.549 83.584-0.043l298.709 168.021c26.88 15.189 43.52 43.691 43.52 74.368v6.187c0 233.045-126.165 448.811-329.301 563.029l-12.885 7.253c-12.885 7.253-27.349 10.88-41.813 10.88v0z"></path>
</svg>
