<!-- Generated by IcoMoon.io -->
<svg version="1.1" xmlns="http://www.w3.org/2000/svg" width="1024" height="1024" viewBox="0 0 1024 1024">
<title></title>
<g id="icomoon-ignore">
</g>
<path fill="#000" d="M159.223 279.876l61.099 61.141-6.997 3.925v6.187c0 202.24 109.525 389.504 285.781 488.704v0l12.885 7.253 12.885-7.253c41.003-23.083 78.251-51.072 111.488-82.773v0l60.331 60.331c-38.699 37.12-82.091 69.845-130.005 96.768v0l-12.843 7.253c-12.928 7.253-27.392 10.88-41.856 10.88s-28.885-3.584-41.771-10.837v0l-12.928-7.296c-203.136-114.261-329.301-329.984-329.301-563.029v0-6.187c0-25.515 11.989-49.024 31.232-65.067v0zM140.501 140.501c16.683-16.683 43.648-16.683 60.331 0v0l682.667 682.667c16.683 16.683 16.683 43.648 0 60.331-8.32 8.32-19.243 12.501-30.165 12.501s-21.845-4.181-30.165-12.501v0l-682.667-682.667c-16.683-16.683-16.683-43.648 0-60.331zM470.165 102.562c25.856-14.464 57.899-14.507 83.627 0v0l298.709 168.021c26.88 15.147 43.52 43.648 43.52 74.368v0 6.187c0 118.912-33.067 233.216-92.245 331.989v0l-62.507-62.592c44.587-81.28 69.419-173.611 69.419-269.397v0-6.187l-298.667-168.021-137.216 77.184-62.677-62.635z"></path>
</svg>
