<!-- Generated by IcoMoon.io -->
<svg version="1.1" xmlns="http://www.w3.org/2000/svg" width="1024" height="1024" viewBox="0 0 1024 1024">
<title></title>
<g id="icomoon-ignore">
</g>
<path fill="#000" d="M159.206 279.893l537.515 537.515c-38.741 37.12-82.133 69.845-130.005 96.768v0l-12.885 7.253c-12.928 7.253-27.392 10.88-41.813 10.88-14.464 0-28.928-3.584-41.813-10.837v0l-12.928-7.296c-203.093-114.261-329.259-329.984-329.259-563.029v0-6.187c0-25.515 11.947-49.024 31.189-65.067v0zM140.501 140.518c16.683-16.683 43.648-16.683 60.331 0v0l682.667 682.667c16.683 16.683 16.683 43.648 0 60.331-8.32 8.32-19.243 12.501-30.165 12.501s-21.845-4.181-30.165-12.501v0l-682.667-682.667c-16.683-16.683-16.683-43.648 0-60.331zM470.182 102.622c25.813-14.507 57.856-14.549 83.627-0.043v0l298.709 168.021c26.837 15.189 43.477 43.648 43.477 74.368v0 6.187c0 118.912-33.024 233.259-92.203 331.989v0l-491.648-491.648z"></path>
</svg>
