<!-- Generated by IcoMoon.io -->
<svg version="1.1" xmlns="http://www.w3.org/2000/svg" width="1024" height="1024" viewBox="0 0 1024 1024">
<title></title>
<g id="icomoon-ignore">
</g>
<path fill="#000" d="M273.668 298.667l72.832-72.832c7.979-7.936 18.944-12.501 30.165-12.501h270.677c11.221 0 22.187 4.565 30.165 12.501l72.832 72.832h-476.672zM512.004 682.667c-94.123 0-170.667-76.544-170.667-170.667 0-23.552 19.072-42.667 42.667-42.667s42.667 19.115 42.667 42.667c0 47.061 38.272 85.333 85.333 85.333 47.019 0 85.333-38.272 85.333-85.333 0-23.552 19.072-42.667 42.667-42.667s42.667 19.115 42.667 42.667c0 94.123-76.544 170.667-170.667 170.667v0zM858.5 286.165l-120.661-120.661c-24.149-24.192-56.32-37.504-90.496-37.504h-270.677c-34.176 0-66.347 13.312-90.496 37.504l-120.661 120.661c-24.192 24.149-37.504 56.32-37.504 90.539v391.296c0 70.571 57.429 128 128 128h512c70.571 0 128-57.429 128-128v-391.296c0-34.219-13.355-66.389-37.504-90.539v0z"></path>
</svg>
