<!-- Generated by IcoMoon.io -->
<svg version="1.1" xmlns="http://www.w3.org/2000/svg" width="1024" height="1024" viewBox="0 0 1024 1024">
<title></title>
<g id="icomoon-ignore">
</g>
<path fill="#000" d="M320 768c35.328 0 64 28.629 64 64s-28.672 64-64 64c-35.328 0-64-28.629-64-64s28.672-64 64-64zM746.667 768c35.328 0 64 28.629 64 64s-28.672 64-64 64c-35.328 0-64-28.629-64-64s28.672-64 64-64zM213.333 128.009c19.243 0 36.096 12.885 41.173 31.445v0l26.325 96.555h546.133c29.781 0 56.917 15.104 72.576 40.448s17.067 56.363 3.755 83.029v0l-139.776 279.595c-7.253 14.464-22.016 23.595-38.187 23.595v0h-384c-19.243 0-36.096-12.885-41.173-31.445v0l-119.424-437.888h-52.736c-23.595 0-42.667-19.115-42.667-42.667s19.072-42.667 42.667-42.667v0z"></path>
</svg>
