<!-- Generated by IcoMoon.io -->
<svg version="1.1" xmlns="http://www.w3.org/2000/svg" width="1024" height="1024" viewBox="0 0 1024 1024">
<title></title>
<g id="icomoon-ignore">
</g>
<path fill="#000" d="M810.667 832c0 35.371-28.672 64-64 64s-64-28.629-64-64c0-35.371 28.672-64 64-64s64 28.629 64 64v0zM384 832c0 35.371-28.672 64-64 64s-64-28.629-64-64c0-35.371 28.672-64 64-64s64 28.629 64 64v0zM698.965 597.333h-325.035l-69.845-256h522.88l-128 256zM899.541 296.448c-15.659-25.344-42.795-40.448-72.576-40.448h-546.133l-26.325-96.555c-5.077-18.56-21.931-31.445-41.173-31.445h-85.333c-23.595 0-42.667 19.115-42.667 42.667s19.072 42.667 42.667 42.667h52.736l119.424 437.888c5.077 18.56 21.931 31.445 41.173 31.445h384c16.171 0 30.933-9.131 38.187-23.595l139.776-279.595c13.312-26.667 11.904-57.685-3.755-83.029v0z"></path>
</svg>
