<!-- Generated by IcoMoon.io -->
<svg version="1.1" xmlns="http://www.w3.org/2000/svg" width="1024" height="1024" viewBox="0 0 1024 1024">
<title></title>
<g id="icomoon-ignore">
</g>
<path fill="#000" d="M627.072 170.671l183.68 0.896c23.467 0.128 42.453 19.2 42.453 42.667v0l0.128 182.869c0 23.552-19.072 42.667-42.624 42.709v0c-23.595 0-42.709-19.115-42.709-42.667v0l-0.043-80.768-524.459 524.459c-8.32 8.32-19.243 12.501-30.165 12.501s-21.845-4.181-30.165-12.501c-16.683-16.683-16.683-43.691 0-60.331v0l268.245-268.245-248.832-248.789c-16.683-16.683-16.683-43.691 0-60.331 16.683-16.683 43.648-16.683 60.331 0v0l248.832 248.789 195.499-195.541-80.597-0.384c-23.552-0.128-42.581-19.328-42.453-42.88s20.352-42.027 42.88-42.453v0zM588.497 588.51c16.683-16.683 43.691-16.683 60.331 0v0l118.741 118.741 0.427-81.152c0.128-23.509 19.2-42.453 42.667-42.453v0c23.808 0.128 42.795 19.328 42.667 42.88v0l-0.897 179.541c1.365 12.416-2.048 25.259-11.605 34.773-8.32 8.32-19.243 12.501-30.165 12.501-1.152 0-2.261-0.555-3.413-0.683v0l-180.352 0.128-4.974-0.287c-21.212-2.466-37.693-20.51-37.693-42.379 0-23.552 19.072-42.667 42.624-42.667v0l80.171-0.043-118.528-118.571c-16.683-16.683-16.683-43.691 0-60.331z"></path>
</svg>
