<!-- Generated by IcoMoon.io -->
<svg version="1.1" xmlns="http://www.w3.org/2000/svg" width="1024" height="1024" viewBox="0 0 1024 1024">
<title></title>
<g id="icomoon-ignore">
</g>
<path fill="#000" d="M798.251 609.894c-16.64-16.725-43.691-16.811-60.331-0.128-16.725 16.64-16.811 43.648-0.171 60.331l12.501 12.587h-67.584c-94.123 0-170.667-76.587-170.667-170.667 0-94.123 76.544-170.667 170.667-170.667h67.755l-12.501 12.416c-16.725 16.64-16.811 43.648-0.171 60.331 8.32 8.363 19.285 12.587 30.251 12.587 10.88 0 21.803-4.181 30.080-12.459l85.333-84.949c8.064-7.979 12.544-18.816 12.587-30.123 0.043-11.349-4.437-22.187-12.416-30.208l-85.333-85.717c-16.64-16.725-43.691-16.811-60.331-0.128-16.725 16.64-16.811 43.648-0.171 60.331l12.501 12.587h-67.584c-89.003 0-167.467 45.653-213.333 114.773-45.867-69.12-124.331-114.773-213.333-114.773h-85.333c-23.595 0-42.667 19.072-42.667 42.667 0 23.552 19.072 42.667 42.667 42.667h85.333c94.123 0 170.667 76.544 170.667 170.667 0 94.080-76.544 170.667-170.667 170.667h-85.333c-23.595 0-42.667 19.072-42.667 42.667 0 23.552 19.072 42.667 42.667 42.667h85.333c89.003 0 167.467-45.696 213.333-114.816 45.867 69.12 124.331 114.816 213.333 114.816h67.755l-12.501 12.416c-16.725 16.64-16.811 43.648-0.171 60.331 8.32 8.363 19.285 12.587 30.251 12.587 10.88 0 21.803-4.181 30.080-12.459l85.333-84.949c8.064-7.979 12.544-18.816 12.587-30.123 0.043-11.349-4.437-22.187-12.416-30.208l-85.333-85.717z"></path>
</svg>
