<!-- Generated by IcoMoon.io -->
<svg version="1.1" xmlns="http://www.w3.org/2000/svg" width="1024" height="1024" viewBox="0 0 1024 1024">
<title></title>
<g id="icomoon-ignore">
</g>
<path fill="#000" d="M701.875 264.585c-31.317-14.72-68.352-10.368-94.251 11.093l-217.6 179.755c-2.261 1.877-4.011 4.053-6.016 6.144v-162.901c0-23.595-19.115-42.667-42.667-42.667s-42.667 19.072-42.667 42.667v426.667c0 23.595 19.115 42.667 42.667 42.667s42.667-19.072 42.667-42.667v-162.944c2.005 2.091 3.755 4.309 6.016 6.187l217.6 179.797c15.701 12.971 35.499 19.669 55.595 19.669 13.099 0 26.325-2.859 38.656-8.619 27.605-13.056 44.8-38.955 44.8-67.669v-359.509c0-28.715-17.195-54.613-44.8-67.669z"></path>
</svg>
