<!-- Generated by IcoMoon.io -->
<svg version="1.1" xmlns="http://www.w3.org/2000/svg" width="1024" height="1024" viewBox="0 0 1024 1024">
<title></title>
<g id="icomoon-ignore">
</g>
<path fill="#000" d="M362.667 678.75v-336.811l205.739 169.984-205.739 166.827zM682.667 256.009c-23.552 0-42.667 19.072-42.667 42.667v162.901c-2.005-2.091-3.755-4.267-6.059-6.144l-217.557-179.797c-25.984-21.419-63.019-25.771-94.251-11.051-27.648 13.056-44.8 38.955-44.8 67.669v359.509c0 28.715 17.152 54.613 44.8 67.669 12.331 5.76 25.557 8.619 38.656 8.619 20.096 0 39.893-6.699 55.595-19.712l217.6-179.755c2.261-1.877 4.011-4.096 6.016-6.187v162.944c0 23.595 19.115 42.667 42.667 42.667s42.667-19.072 42.667-42.667v-426.667c0-23.595-19.115-42.667-42.667-42.667v0z"></path>
</svg>
