<!-- Generated by IcoMoon.io -->
<svg version="1.1" xmlns="http://www.w3.org/2000/svg" width="1024" height="1024" viewBox="0 0 1024 1024">
<title></title>
<g id="icomoon-ignore">
</g>
<path fill="#000" d="M170.667 512c0-78.763 27.093-151.125 72.021-208.939l478.251 478.251c-57.813 44.971-130.176 72.021-208.939 72.021-188.203 0-341.333-153.131-341.333-341.333zM853.333 512c0 78.763-27.093 151.125-72.021 208.939l-478.251-478.251c57.813-44.971 130.176-72.021 208.939-72.021 188.203 0 341.333 153.131 341.333 341.333zM512 85.333c-235.264 0-426.667 191.403-426.667 426.667s191.403 426.667 426.667 426.667c235.264 0 426.667-191.403 426.667-426.667s-191.403-426.667-426.667-426.667z"></path>
</svg>
