<!-- Generated by IcoMoon.io -->
<svg version="1.1" xmlns="http://www.w3.org/2000/svg" width="1024" height="1024" viewBox="0 0 1024 1024">
<title></title>
<g id="icomoon-ignore">
</g>
<path fill="#000" d="M512 640c35.328 0 64 28.672 64 64s-28.672 64-64 64c-35.328 0-64-28.672-64-64s28.672-64 64-64zM618.667 256c23.595 0 42.667 19.072 42.667 42.667s-19.072 42.667-42.667 42.667v0h-213.333c-23.595 0-42.667-19.072-42.667-42.667s19.072-42.667 42.667-42.667v0zM768 810.667c0 23.552-19.115 42.667-42.667 42.667h-426.667c-23.552 0-42.667-19.115-42.667-42.667v-597.333c0-23.552 19.115-42.667 42.667-42.667h426.667c23.552 0 42.667 19.115 42.667 42.667v597.333zM725.333 85.333h-426.667c-70.571 0-128 57.429-128 128v597.333c0 70.571 57.429 128 128 128h426.667c70.571 0 128-57.429 128-128v-597.333c0-70.571-57.429-128-128-128v0z"></path>
</svg>
