<!-- Generated by IcoMoon.io -->
<svg version="1.1" xmlns="http://www.w3.org/2000/svg" width="1024" height="1024" viewBox="0 0 1024 1024">
<title></title>
<g id="icomoon-ignore">
</g>
<path fill="#000" d="M618.667 341.363h-213.333c-23.595 0-42.667-19.072-42.667-42.667s19.072-42.667 42.667-42.667h213.333c23.595 0 42.667 19.072 42.667 42.667s-19.072 42.667-42.667 42.667zM512 768.030c-35.328 0-64-28.672-64-64s28.672-64 64-64c35.328 0 64 28.672 64 64s-28.672 64-64 64zM725.333 85.363h-426.667c-70.571 0-128 57.429-128 128v597.333c0 70.571 57.429 128 128 128h426.667c70.571 0 128-57.429 128-128v-597.333c0-70.571-57.429-128-128-128z"></path>
</svg>
