<!-- Generated by IcoMoon.io -->
<svg version="1.1" xmlns="http://www.w3.org/2000/svg" width="1024" height="1024" viewBox="0 0 1024 1024">
<title></title>
<g id="icomoon-ignore">
</g>
<path fill="#000" d="M768 810.667c0 23.552-19.115 42.667-42.667 42.667h-426.667c-23.552 0-42.667-19.115-42.667-42.667v-597.333c0-23.552 19.115-42.667 42.667-42.667h426.667c23.552 0 42.667 19.115 42.667 42.667v597.333zM725.333 85.333h-426.667c-70.571 0-128 57.429-128 128v597.333c0 70.571 57.429 128 128 128h426.667c70.571 0 128-57.429 128-128v-597.333c0-70.571-57.429-128-128-128v0zM512 725.333c-35.285 0-64-28.715-64-64s28.715-64 64-64c35.285 0 64 28.715 64 64s-28.715 64-64 64zM512 512c-82.347 0-149.333 66.987-149.333 149.333s66.987 149.333 149.333 149.333c82.347 0 149.333-66.987 149.333-149.333s-66.987-149.333-149.333-149.333zM512 298.667c23.552 0 42.667 19.115 42.667 42.667s-19.115 42.667-42.667 42.667c-23.552 0-42.667-19.115-42.667-42.667s19.115-42.667 42.667-42.667zM512 469.333c70.571 0 128-57.429 128-128s-57.429-128-128-128c-70.571 0-128 57.429-128 128s57.429 128 128 128z"></path>
</svg>
