<!-- Generated by IcoMoon.io -->
<svg version="1.1" xmlns="http://www.w3.org/2000/svg" width="1024" height="1024" viewBox="0 0 1024 1024">
<title></title>
<g id="icomoon-ignore">
</g>
<path fill="#000" d="M511.981 684.8c6.784 0 13.568 1.621 19.755 4.821l160.811 84.053-30.592-177.365c-2.432-13.909 2.219-28.075 12.373-37.931l129.536-125.269-179.328-26.112c-13.867-2.005-25.856-10.667-32.085-23.211l-80.469-161.877-80.469 161.877c-6.229 12.544-18.219 21.205-32.085 23.211l-179.328 26.112 129.536 125.269c10.155 9.856 14.805 24.021 12.373 37.931l-30.592 177.365 160.811-84.053c6.187-3.2 12.971-4.821 19.755-4.821zM749.293 894.080c-6.784 0-13.568-1.579-19.755-4.821l-217.557-113.664-217.557 113.664c-14.421 7.509-31.829 6.187-44.843-3.371-13.141-9.557-19.669-25.728-16.939-41.728l41.472-240.128-175.787-170.027c-11.733-11.307-15.915-28.288-10.923-43.776 4.949-15.488 18.347-26.752 34.432-29.099l243.243-35.328 108.672-218.709c14.421-29.013 62.037-29.013 76.459 0l108.672 218.709 243.243 35.328c16.085 2.347 29.483 13.611 34.432 29.099 4.992 15.488 0.811 32.469-10.923 43.776l-175.787 170.027 41.472 240.128c2.731 16-3.797 32.171-16.939 41.728-7.381 5.461-16.213 8.192-25.088 8.192z"></path>
</svg>
