<!-- Generated by IcoMoon.io -->
<svg version="1.1" xmlns="http://www.w3.org/2000/svg" width="1024" height="1024" viewBox="0 0 1024 1024">
<title></title>
<g id="icomoon-ignore">
</g>
<path fill="#000" d="M749.295 896.030c-6.741 0-13.525-1.579-19.755-4.821l-217.557-113.664-217.515 113.664c-14.421 7.467-31.829 6.187-44.885-3.371-13.141-9.557-19.669-25.728-16.896-41.728l41.429-240.128-175.787-170.027c-11.691-11.307-15.915-28.288-10.923-43.819 4.992-15.445 18.347-26.752 34.475-29.056l243.2-35.328 108.715-218.709c14.421-29.013 61.995-29.013 76.416 0l108.715 218.709 243.2 35.328c16.128 2.304 29.483 13.611 34.475 29.056 4.992 15.531 0.768 32.512-10.923 43.819l-175.787 170.027 41.429 240.128c2.773 16-3.797 32.171-16.896 41.728-7.424 5.461-16.256 8.192-25.131 8.192z"></path>
</svg>
