<!-- Generated by IcoMoon.io -->
<svg version="1.1" xmlns="http://www.w3.org/2000/svg" width="1024" height="1024" viewBox="0 0 1024 1024">
<title></title>
<g id="icomoon-ignore">
</g>
<path fill="#000" d="M629.333 341.333c29.397 0 53.333 23.936 53.333 53.333v0 234.667c0 29.397-23.936 53.333-53.333 53.333v0h-234.667c-29.397 0-53.333-23.936-53.333-53.333v0-234.667c0-29.397 23.936-53.333 53.333-53.333v0zM597.333 426.667h-170.667v170.667h170.667v-170.667zM512 853.333c-188.203 0-341.333-153.131-341.333-341.333s153.131-341.333 341.333-341.333c188.203 0 341.333 153.131 341.333 341.333s-153.131 341.333-341.333 341.333v0zM512 85.333c-235.264 0-426.667 191.403-426.667 426.667s191.403 426.667 426.667 426.667c235.264 0 426.667-191.403 426.667-426.667s-191.403-426.667-426.667-426.667v0z"></path>
</svg>
