<svg xmlns="http://www.w3.org/2000/svg" width="22" height="24" viewBox="0 0 22 24">
    <path fill="#667181" d="M14.457 0c.576 0 1.077.455 1.078 1.062 0 .607-.476 1.086-1.077 1.086h-1.404v1.617c1.603.176 3.082.733 4.385 1.592l.777-.784c.35-.329.901-.329 1.227 0l1.729 1.743c.326.353.326.909 0 1.237l-.777.784c1.028 1.592 1.629 3.486 1.604 5.532C22 19.453 17.49 24 11.951 24c-5.462 0-9.897-4.395-10.048-9.853H.726c-.576 0-.927-.657-.601-1.136L2.38 9.626c.276-.43.902-.43 1.203 0l2.255 3.385c.326.48-.025 1.136-.601 1.136H4.084c.15 4.244 3.633 7.68 7.893 7.68 4.359 0 7.892-3.587 7.892-7.983 0-4.395-3.533-7.958-7.892-7.958-1.83 0-3.534.606-4.962 1.769-.451.379-1.127.303-1.503-.152-.376-.455-.3-1.137.15-1.516C7.167 4.75 8.995 3.992 10.9 3.79V2.173H9.495c-.602 0-1.077-.48-1.077-1.086C8.418.48 8.894 0 9.495 0zm-2.48 7.706c3.357 0 6.113 2.78 6.113 6.164 0 3.385-2.73 6.164-6.113 6.164-1.804 0-3.484-.783-4.66-2.146-.1-.1-.15-.227-.125-.354.024-.126.075-.252.175-.328l4.109-3.537V8.212c0-.279.225-.506.5-.506z"/>
</svg>
