<!-- Generated by IcoMoon.io -->
<svg version="1.1" xmlns="http://www.w3.org/2000/svg" width="1024" height="1024" viewBox="0 0 1024 1024">
<title></title>
<g id="icomoon-ignore">
</g>
<path fill="#000" d="M426.667 597.333h170.667v-170.667h-170.667v170.667zM682.667 629.333c0 29.397-23.936 53.333-53.333 53.333h-234.667c-29.397 0-53.333-23.936-53.333-53.333v-234.667c0-29.397 23.936-53.333 53.333-53.333h234.667c29.397 0 53.333 23.936 53.333 53.333v234.667zM512 85.333c-235.264 0-426.667 191.403-426.667 426.667s191.403 426.667 426.667 426.667c235.264 0 426.667-191.403 426.667-426.667s-191.403-426.667-426.667-426.667v0z"></path>
</svg>
