<!-- Generated by IcoMoon.io -->
<svg version="1.1" xmlns="http://www.w3.org/2000/svg" width="1024" height="1024" viewBox="0 0 1024 1024">
<title></title>
<g id="icomoon-ignore">
</g>
<path fill="#000" d="M597.333 512c0-47.061-38.272-85.333-85.333-85.333s-85.333 38.272-85.333 85.333c0 47.061 38.272 85.333 85.333 85.333s85.333-38.272 85.333-85.333v0zM682.667 512c0 94.123-76.544 170.667-170.667 170.667s-170.667-76.544-170.667-170.667c0-94.123 76.544-170.667 170.667-170.667s170.667 76.544 170.667 170.667v0zM267.52 688.768l-61.397 59.264c-16.939 16.384-17.408 43.435-1.024 60.331 8.363 8.661 19.499 13.056 30.677 13.056 10.667 0 21.333-3.968 29.653-11.947l61.397-59.307c16.939-16.384 17.408-43.435 1.024-60.331-16.341-16.939-43.349-17.408-60.331-1.067v0zM756.48 688.768c-16.939-16.341-43.947-15.872-60.331 1.067-16.384 16.896-15.915 43.947 1.024 60.331l61.397 59.307c8.32 7.979 18.987 11.947 29.653 11.947 11.179 0 22.315-4.395 30.677-13.056 16.384-16.896 15.915-43.947-1.024-60.331l-61.397-59.264zM512 768c-23.552 0-42.667 19.072-42.667 42.667v85.333c0 23.595 19.115 42.667 42.667 42.667s42.667-19.072 42.667-42.667v-85.333c0-23.595-19.115-42.667-42.667-42.667v0zM726.827 347.221c10.667 0 21.376-3.968 29.653-11.989l61.397-59.264c16.939-16.384 17.408-43.435 1.024-60.331-16.341-16.939-43.307-17.408-60.331-1.109l-61.397 59.307c-16.939 16.384-17.408 43.435-1.024 60.331 8.363 8.661 19.499 13.056 30.677 13.056v0zM265.429 214.528c-16.939-16.299-43.947-15.829-60.331 1.109-16.384 16.896-15.915 43.947 1.024 60.331l61.397 59.264c8.277 8.021 18.987 11.989 29.653 11.989 11.179 0 22.315-4.395 30.677-13.056 16.384-16.896 15.915-43.947-1.024-60.331l-61.397-59.307zM256 512c0-23.595-19.115-42.667-42.667-42.667h-85.333c-23.552 0-42.667 19.072-42.667 42.667s19.115 42.667 42.667 42.667h85.333c23.552 0 42.667-19.072 42.667-42.667v0zM896 469.333h-85.333c-23.552 0-42.667 19.072-42.667 42.667s19.115 42.667 42.667 42.667h85.333c23.552 0 42.667-19.072 42.667-42.667s-19.115-42.667-42.667-42.667v0zM469.333 213.333v-85.333c0-23.595 19.115-42.667 42.667-42.667s42.667 19.072 42.667 42.667v85.333c0 23.595-19.115 42.667-42.667 42.667s-42.667-19.072-42.667-42.667v0z"></path>
</svg>
