<!-- Generated by IcoMoon.io -->
<svg version="1.1" xmlns="http://www.w3.org/2000/svg" width="1024" height="1024" viewBox="0 0 1024 1024">
<title></title>
<g id="icomoon-ignore">
</g>
<path fill="#000" d="M315.734 520.55c18.901-14.123 45.611-10.325 59.733 8.533s10.325 45.611-8.533 59.733v0l-68.267 51.2h554.667c23.552 0 42.667 19.072 42.667 42.667s-19.115 42.667-42.667 42.667v0h-558.165l66.475 51.627c18.603 14.464 21.973 41.301 7.509 59.861-8.405 10.837-20.992 16.512-33.707 16.512-9.173 0-18.389-2.901-26.155-8.96v0l-164.779-128c-10.539-8.149-16.597-20.736-16.513-34.091 0.086-13.269 6.401-25.771 17.068-33.749v0zM654.849 144.528c14.464-18.645 41.301-22.016 59.861-7.552v0l164.779 128c10.539 8.149 16.597 20.736 16.513 34.091-0.086 13.269-6.401 25.771-17.068 33.749v0l-170.667 128c-7.68 5.76-16.683 8.533-25.557 8.533-12.971 0-25.813-5.888-34.176-17.067-14.123-18.859-10.325-45.611 8.533-59.733v0l68.267-51.2h-554.667c-23.552 0-42.667-19.072-42.667-42.667s19.115-42.667 42.667-42.667v0h558.165l-66.475-51.627c-18.603-14.464-21.973-41.301-7.509-59.861z"></path>
</svg>
