<!-- Generated by IcoMoon.io -->
<svg version="1.1" xmlns="http://www.w3.org/2000/svg" width="1024" height="1024" viewBox="0 0 1024 1024">
<title></title>
<g id="icomoon-ignore">
</g>
<path fill="#000" d="M140.728 554.779l4.915 0.45 181.333 30.123c23.253 3.797 38.955 25.813 35.115 49.067-3.456 20.864-21.547 35.669-42.069 35.669-2.304 0-4.651-0.171-6.997-0.597v0l-70.144-11.605c53.12 93.269 154.539 152.789 266.155 152.789 126.251 0 237.483-73.301 283.435-186.667 8.832-21.888 33.749-32.384 55.552-23.552 21.845 8.832 32.384 33.707 23.509 55.552-59.051 145.792-201.344 240-362.496 240-145.579 0-277.888-79.787-344.661-204.288v0l-15.787 84.139c-3.797 20.523-21.717 34.816-41.899 34.816-2.603 0-5.248-0.256-7.893-0.768-23.168-4.309-38.4-26.624-34.048-49.792v0l31.957-170.667c0.512-2.645 2.005-4.821 2.944-7.296 1.067-2.688 1.707-5.675 3.285-8.064 1.024-1.579 2.56-2.645 3.797-4.053 2.432-2.816 4.693-5.76 7.723-7.808 0.469-0.341 1.109-0.427 1.579-0.725 4.139-2.688 8.576-4.779 13.483-5.845 0.555-0.128 1.152 0.043 1.707-0.043 4.693-0.768 9.429-1.237 14.421-0.384zM514.97 128c145.579 0 277.888 79.787 344.661 204.288v0l15.744-84.181c4.352-23.125 26.709-38.443 49.792-34.005 23.168 4.309 38.443 26.624 34.091 49.792v0l-31.957 170.667c-0.555 2.944-1.963 5.419-3.072 8.064-0.768 1.877-1.109 3.968-2.133 5.675-1.621 2.688-3.883 4.821-5.973 7.125-1.237 1.28-2.133 2.859-3.499 4.011-2.56 2.091-5.547 3.499-8.491 4.949-1.408 0.683-2.645 1.792-4.139 2.304-4.608 1.707-9.515 2.645-14.592 2.645-2.304 0-4.693-0.171-7.040-0.597v0l-181.333-30.080c-23.253-3.84-38.955-25.813-35.115-49.067 3.84-23.211 25.771-39.125 49.067-35.072v0l70.144 11.605c-53.12-93.269-154.539-152.789-266.155-152.789-126.251 0-237.483 73.301-283.435 186.667-6.699 16.64-22.699 26.667-39.552 26.667-5.333 0-10.752-0.981-16-3.115-21.845-8.832-32.384-33.707-23.509-55.552 59.051-145.792 201.344-240 362.496-240z"></path>
</svg>
