<!-- Generated by IcoMoon.io -->
<svg version="1.1" xmlns="http://www.w3.org/2000/svg" width="1024" height="1024" viewBox="0 0 1024 1024">
<title></title>
<g id="icomoon-ignore">
</g>
<path fill="#000" d="M853.333 170.667h-682.667c-23.595 0-42.667 19.072-42.667 42.667v128c0 23.595 19.072 42.667 42.667 42.667s42.667-19.072 42.667-42.667v-85.333h256v554.667h-85.333c-23.595 0-42.667 19.072-42.667 42.667s19.072 42.667 42.667 42.667h256c23.595 0 42.667-19.072 42.667-42.667s-19.072-42.667-42.667-42.667h-85.333v-554.667h256v85.333c0 23.595 19.072 42.667 42.667 42.667s42.667-19.072 42.667-42.667v-128c0-23.595-19.072-42.667-42.667-42.667z"></path>
</svg>
