<!-- Generated by IcoMoon.io -->
<svg version="1.1" xmlns="http://www.w3.org/2000/svg" width="1024" height="1024" viewBox="0 0 1024 1024">
<title></title>
<g id="icomoon-ignore">
</g>
<path fill="#000" d="M554.667 407.040v-193.707c0-11.392-4.395-21.888-12.245-29.611-8.491-8.704-19.029-13.056-30.421-13.056-23.552 0-42.667 19.157-42.667 42.667v193.707h85.333zM512 938.667c-117.632 0-213.333-95.701-213.333-213.333 0-67.413 32.171-130.688 85.333-170.539v-341.461c0-70.571 57.429-128 128-128 34.645 0 66.816 13.525 90.752 38.059 23.765 23.125 37.248 55.339 37.248 89.941v341.461c53.163 39.851 85.333 103.125 85.333 170.539 0 117.632-95.701 213.333-213.333 213.333v0z"></path>
</svg>
