<!-- Generated by IcoMoon.io -->
<svg version="1.1" xmlns="http://www.w3.org/2000/svg" width="1024" height="1024" viewBox="0 0 1024 1024">
<title></title>
<g id="icomoon-ignore">
</g>
<path fill="#000" d="M640 597.333h-128c-23.552 0-42.667-19.072-42.667-42.667v-128c0-23.595 19.115-42.667 42.667-42.667s42.667 19.072 42.667 42.667v85.333h85.333c23.552 0 42.667 19.072 42.667 42.667s-19.115 42.667-42.667 42.667zM554.155 173.141c0.085-0.896 0.512-1.579 0.512-2.475v-42.667h42.667c23.552 0 42.667-19.072 42.667-42.667s-19.115-42.667-42.667-42.667h-170.667c-23.552 0-42.667 19.072-42.667 42.667s19.115 42.667 42.667 42.667h42.667v42.667c0 0.896 0.427 1.579 0.512 2.475-191.957 21.077-341.845 184.064-341.845 381.525 0 211.755 172.288 384 384 384s384-172.245 384-384c0-197.461-149.888-360.448-341.845-381.525z"></path>
</svg>
