<!-- Generated by IcoMoon.io -->
<svg version="1.1" xmlns="http://www.w3.org/2000/svg" width="1024" height="1024" viewBox="0 0 1024 1024">
<title></title>
<g id="icomoon-ignore">
</g>
<path fill="#000" d="M384 554.667c-23.552 0-42.667-19.115-42.667-42.667s19.115-42.667 42.667-42.667c23.552 0 42.667 19.115 42.667 42.667s-19.115 42.667-42.667 42.667zM384 384c-70.571 0-128 57.429-128 128s57.429 128 128 128c70.571 0 128-57.429 128-128s-57.429-128-128-128zM640 725.333h-256c-117.632 0-213.333-95.701-213.333-213.333s95.701-213.333 213.333-213.333h256c117.632 0 213.333 95.701 213.333 213.333s-95.701 213.333-213.333 213.333zM640 213.333h-256c-164.651 0-298.667 134.016-298.667 298.667s134.016 298.667 298.667 298.667h256c164.651 0 298.667-134.016 298.667-298.667s-134.016-298.667-298.667-298.667z"></path>
</svg>
