<!-- Generated by IcoMoon.io -->
<svg version="1.1" xmlns="http://www.w3.org/2000/svg" width="1024" height="1024" viewBox="0 0 1024 1024">
<title></title>
<g id="icomoon-ignore">
</g>
<path fill="#000" d="M384.124 469.585c-23.552 0-42.581 19.115-42.539 42.667 0 23.509 19.115 42.581 42.667 42.539 23.509-0.043 42.581-19.157 42.539-42.667-0.043-23.552-19.157-42.581-42.667-42.539zM384.333 640c-70.485 0.085-127.915-57.173-128-127.659-0.085-70.528 57.173-127.915 127.659-128 70.528-0.085 127.915 57.173 128 127.659s-57.173 127.915-127.659 128zM639.437 213.589l-255.701 0.342c-164.395 0.213-298.069 134.187-297.814 298.667 0.214 164.395 134.187 298.069 298.667 297.814l255.659-0.342c164.437-0.213 298.069-134.187 297.856-298.667-0.214-164.395-134.23-298.069-298.667-297.814z"></path>
</svg>
