<!-- Generated by IcoMoon.io -->
<svg version="1.1" xmlns="http://www.w3.org/2000/svg" width="1024" height="1024" viewBox="0 0 1024 1024">
<title></title>
<g id="icomoon-ignore">
</g>
<path fill="#000" d="M426.667 184.644c0-6.613 9.131-13.995 21.333-13.995h128c12.203 0 21.333 7.381 21.333 13.995v71.339h-170.667v-71.339zM896 255.983h-213.333v-71.339c0-54.784-47.829-99.328-106.667-99.328h-128c-58.837 0-106.667 44.544-106.667 99.328v71.339h-213.333c-23.467 0-42.667 19.243-42.667 42.667 0 23.467 19.2 42.667 42.667 42.667h42.667v469.333c0 70.613 57.429 128 128 128h426.667c70.571 0 128-57.387 128-128v-469.333h42.667c23.467 0 42.667-19.2 42.667-42.667 0-23.424-19.2-42.667-42.667-42.667v0z"></path>
</svg>
