<!-- Generated by IcoMoon.io -->
<svg version="1.1" xmlns="http://www.w3.org/2000/svg" width="1024" height="1024" viewBox="0 0 1024 1024">
<title></title>
<g id="icomoon-ignore">
</g>
<path fill="#000" d="M768 810.667c0 23.509-19.115 42.667-42.667 42.667h-426.667c-23.552 0-42.667-19.157-42.667-42.667v-469.333h512v469.333zM426.667 184.661c0-6.613 9.131-13.995 21.333-13.995h128c12.203 0 21.333 7.381 21.333 13.995v71.339h-170.667v-71.339zM896 256h-213.333v-71.339c0-54.784-47.829-99.328-106.667-99.328h-128c-58.837 0-106.667 44.544-106.667 99.328v71.339h-213.333c-23.467 0-42.667 19.2-42.667 42.667s19.2 42.667 42.667 42.667h42.667v469.333c0 70.571 57.429 128 128 128h426.667c70.571 0 128-57.429 128-128v-469.333h42.667c23.467 0 42.667-19.2 42.667-42.667s-19.2-42.667-42.667-42.667v0z"></path>
</svg>
