<!-- Generated by IcoMoon.io -->
<svg version="1.1" xmlns="http://www.w3.org/2000/svg" width="1024" height="1024" viewBox="0 0 1024 1024">
<title></title>
<g id="icomoon-ignore">
</g>
<path fill="#000" d="M895.667 297.084c-0.085-3.072-0.981-5.973-1.792-8.917-0.64-2.475-0.939-4.992-2.005-7.253-0.981-2.219-2.645-4.011-4.096-6.059-1.792-2.603-3.413-5.205-5.717-7.339-0.384-0.384-0.555-0.896-0.981-1.237-1.536-1.323-3.413-1.792-5.077-2.859-2.56-1.664-5.077-3.371-7.979-4.48-2.859-1.024-5.675-1.28-8.619-1.707-2.048-0.299-3.883-1.237-6.059-1.237h-213.333c-23.595 0-42.667 19.115-42.667 42.667s19.072 42.667 42.667 42.667h120.576l-172.203 200.875-182.443-109.44c-18.048-10.923-41.259-6.912-54.741 9.259l-213.333 256c-15.061 18.091-12.629 45.013 5.461 60.075 8.021 6.656 17.664 9.899 27.307 9.899 12.245 0 24.363-5.205 32.811-15.36l189.952-227.925 181.973 109.227c17.877 10.709 40.832 6.955 54.357-8.832l180.949-211.115v98.005c0 23.552 19.072 42.667 42.667 42.667s42.667-19.115 42.667-42.667v-213.333c0-0.555-0.299-1.024-0.341-1.579z"></path>
</svg>
