<!-- Generated by IcoMoon.io -->
<svg version="1.1" xmlns="http://www.w3.org/2000/svg" width="1024" height="1024" viewBox="0 0 1024 1024">
<title></title>
<g id="icomoon-ignore">
</g>
<path fill="#000" d="M896 512c0-23.552-19.072-42.667-42.667-42.667s-42.667 19.115-42.667 42.667v98.005l-180.949-211.115c-13.483-15.787-36.437-19.541-54.357-8.789l-181.973 109.184-189.909-227.925c-15.104-18.048-41.941-20.608-60.16-5.461-18.048 15.061-20.523 41.984-5.461 60.075l213.333 256c13.525 16.171 36.779 20.139 54.784 9.259l182.4-109.44 172.203 200.875h-120.576c-23.595 0-42.667 19.115-42.667 42.667s19.072 42.667 42.667 42.667h213.333c5.291 0 10.539-1.152 15.531-3.157 2.091-0.811 3.712-2.176 5.632-3.243 2.219-1.323 4.608-2.133 6.571-3.883 0.427-0.341 0.597-0.853 0.981-1.237 2.347-2.133 3.968-4.736 5.76-7.339 1.408-2.048 3.072-3.84 4.053-6.059 1.067-2.261 1.408-4.779 2.005-7.211 0.811-2.987 1.707-5.888 1.792-8.96 0.043-0.555 0.341-1.024 0.341-1.579v-213.333z"></path>
</svg>
