<!-- Generated by IcoMoon.io -->
<svg version="1.1" xmlns="http://www.w3.org/2000/svg" width="1024" height="1024" viewBox="0 0 1024 1024">
<title></title>
<g id="icomoon-ignore">
</g>
<path fill="#000" d="M810.667 810.662c0 23.595-19.072 42.667-42.667 42.667h-512c-23.595 0-42.667-19.072-42.667-42.667v-298.667c0-23.595 19.072-42.667 42.667-42.667h512c23.595 0 42.667 19.072 42.667 42.667v298.667zM768 255.996h-153.003l97.835-97.835c16.683-16.683 16.683-43.648 0-60.331s-43.648-16.683-60.331 0l-140.501 140.501-140.501-140.501c-16.683-16.683-43.648-16.683-60.331 0s-16.683 43.648 0 60.331l97.835 97.835h-153.003c-70.571 0-128 57.429-128 128v426.667c0 70.571 57.429 128 128 128h512c70.571 0 128-57.429 128-128v-426.667c0-70.571-57.429-128-128-128v0z"></path>
</svg>
