<!-- Generated by IcoMoon.io -->
<svg version="1.1" xmlns="http://www.w3.org/2000/svg" width="1024" height="1024" viewBox="0 0 1024 1024">
<title></title>
<g id="icomoon-ignore">
</g>
<path fill="#000" d="M811.332 283.917v0zM363.204 767.885c1.024 0 2.133 0.043 3.157 0.128 242.987-1.579 388.011-187.221 388.011-366.677 0-16.299 8.363-26.837 15.787-36.181 6.741-8.533 17.195-21.675 26.496-40.619-33.835-0.341-64.043-15.36-81.621-35.925-18.389-19.669-44.8-31.701-73.301-32.555-27.477-1.109-55.509 9.472-76.331 29.227-27.733 26.325-39.595 66.048-30.976 103.595l11.136 48.597-49.749 3.499c-128.683 9.643-217.856-45.44-279.083-102.443 0.256 86.187 28.885 201.173 159.019 275.328l40.875 23.296-27.179 38.443c-28.288 40.064-70.869 65.621-114.219 81.963 28.629 6.827 58.069 10.325 87.424 10.325h0.555zM363.204 853.346c-1.109 0-2.304-0.043-3.413-0.128-68.395-0.469-137.003-16.384-198.613-46.208-23.168-11.264-36.267-35.925-32.555-61.525 3.755-25.899 23.637-46.208 49.408-50.389 44.587-7.339 81.579-20.395 108.373-37.845-165.419-123.691-161.067-308.864-150.357-387.285 3.157-22.955 19.499-42.112 41.6-48.811 22.443-6.827 45.696 0 61.056 17.451 65.536 74.283 131.029 111.616 207.829 117.291 2.219-49.707 23.381-97.621 60.117-132.523 37.419-35.541 86.357-54.144 137.728-52.608 51.413 1.579 99.115 23.253 134.272 61.013 3.584 4.096 16.981 11.52 33.152 4.267 21.205-9.515 45.312-6.357 62.891 8.32 17.536 14.549 25.003 37.461 19.541 59.776-13.781 56.789-41.003 93.397-54.741 110.933-7.168 217.813-184.149 438.272-476.288 438.272v0z"></path>
</svg>
