<!-- Generated by IcoMoon.io -->
<svg version="1.1" xmlns="http://www.w3.org/2000/svg" width="1024" height="1024" viewBox="0 0 1024 1024">
<title></title>
<g id="icomoon-ignore">
</g>
<path fill="#000" d="M344.616 853.345c309.163 0 488.021-240.043 488.021-467.84 0-6.272 43.947-43.989 62.763-122.624 3.84-15.957-11.691-28.544-26.325-21.845-37.547 17.237-75.648 3.584-92.203-16.043-63.659-69.419-170.112-72.747-237.824-7.467-43.648 42.112-62.165 104.832-48.64 164.693-142.976 10.197-241.152-57.557-321.877-150.443-10.411-12.075-29.739-5.717-31.915 10.24-11.947 88.832-15.701 304.811 198.315 428.843-37.163 53.419-109.909 84.949-190.891 98.475-17.92 3.029-22.187 27.861-5.803 35.883 64.171 31.573 134.699 48.085 206.379 48z"></path>
</svg>
