<!-- Generated by IcoMoon.io -->
<svg version="1.1" xmlns="http://www.w3.org/2000/svg" width="1024" height="1024" viewBox="0 0 1024 1024">
<title></title>
<g id="icomoon-ignore">
</g>
<path fill="#000" d="M512 85.333c-235.264 0-426.667 191.403-426.667 426.667 0 23.595 19.072 42.667 42.667 42.667h341.333v256c0 70.571 57.429 128 128 128s128-57.429 128-128c0-23.595-19.072-42.667-42.667-42.667s-42.667 19.072-42.667 42.667c0 23.552-19.115 42.667-42.667 42.667s-42.667-19.115-42.667-42.667v-256h341.333c23.595 0 42.667-19.072 42.667-42.667 0-235.264-191.403-426.667-426.667-426.667z"></path>
</svg>
