<!-- Generated by IcoMoon.io -->
<svg version="1.1" xmlns="http://www.w3.org/2000/svg" width="1024" height="1024" viewBox="0 0 1024 1024">
<title></title>
<g id="icomoon-ignore">
</g>
<path fill="#000" d="M173.333 469.333c21.035-168.107 164.907-298.667 338.645-298.667 173.781 0 317.653 130.56 338.688 298.667h-677.333zM511.979 85.333c-235.221 0-426.667 191.403-426.667 426.667 0 23.595 19.115 42.667 42.709 42.667h341.291v256c0 70.571 57.429 128 128.043 128 70.571 0 128-57.429 128-128 0-23.595-19.115-42.667-42.667-42.667-23.595 0-42.667 19.072-42.667 42.667 0 23.552-19.157 42.667-42.667 42.667-23.552 0-42.667-19.115-42.667-42.667v-256h341.291c23.595 0 42.667-19.072 42.667-42.667 0-235.264-191.403-426.667-426.667-426.667v0z"></path>
</svg>
