<!-- Generated by IcoMoon.io -->
<svg version="1.1" xmlns="http://www.w3.org/2000/svg" width="1024" height="1024" viewBox="0 0 1024 1024">
<title></title>
<g id="icomoon-ignore">
</g>
<path fill="#000" d="M862.75 896c-19.669 0-36.779-13.44-41.472-32.555-37.931-155.691-171.52-268.16-332.587-285.184v47.829c0 30.123-17.877 56.96-46.592 69.973-31.232 14.208-67.584 9.088-92.885-12.971l-216.192-188.757c-16.725-14.677-26.368-35.456-26.368-57.003s9.643-42.325 26.368-57.003l216.192-188.757c25.301-22.059 61.653-27.179 92.885-12.971 28.715 13.013 46.592 39.851 46.592 69.973v51.968c239.957 21.035 428.629 217.856 428.629 456.789 0 34.56-4.395 70.229-13.099 106.069-4.651 19.157-21.76 32.597-41.472 32.597z"></path>
</svg>
