<!-- Generated by IcoMoon.io -->
<svg version="1.1" xmlns="http://www.w3.org/2000/svg" width="1024" height="1024" viewBox="0 0 1024 1024">
<title></title>
<g id="icomoon-ignore">
</g>
<path fill="#000" d="M446.042 490.667c152.021 0 289.152 69.717 375.893 181.717-39.893-165.077-193.28-288.384-375.893-288.384-23.595 0-42.667-19.072-42.667-42.667v-82.048l-205.824 178.091 205.824 179.712v-83.755c0-23.595 19.072-42.667 42.667-42.667zM862.767 896c-19.669 0-36.821-13.44-41.472-32.555-37.973-155.691-171.563-268.16-332.587-285.184v47.829c0 30.123-17.877 56.96-46.635 69.973-31.189 14.208-67.584 9.088-92.885-12.971l-216.149-188.757c-16.768-14.677-26.368-35.456-26.368-57.003s9.6-42.325 26.368-57.003l216.149-188.757c25.301-22.059 61.696-27.179 92.885-12.971 28.757 13.013 46.635 39.851 46.635 69.973v51.968c239.957 21.035 428.629 217.856 428.629 456.789 0 34.56-4.437 70.229-13.141 106.069-4.608 19.157-21.717 32.597-41.429 32.597z"></path>
</svg>
