<!-- Generated by IcoMoon.io -->
<svg version="1.1" xmlns="http://www.w3.org/2000/svg" width="1024" height="1024" viewBox="0 0 1024 1024">
<title></title>
<g id="icomoon-ignore">
</g>
<path fill="#000" d="M512 597.333c-23.552 0-42.667 19.115-42.667 42.667s19.115 42.667 42.667 42.667c23.552 0 42.667-19.115 42.667-42.667s-19.115-42.667-42.667-42.667zM512 768c-70.571 0-128-57.429-128-128s57.429-128 128-128c70.571 0 128 57.429 128 128s-57.429 128-128 128zM725.333 341.333h-298.667v-85.333c0-47.061 38.272-85.333 85.333-85.333s85.333 38.272 85.333 85.333c0 23.595 19.072 42.667 42.667 42.667s42.667-19.072 42.667-42.667c0-94.123-76.544-170.667-170.667-170.667s-170.667 76.544-170.667 170.667v85.333h-42.667c-70.571 0-128 57.429-128 128v341.333c0 70.571 57.429 128 128 128h426.667c70.571 0 128-57.429 128-128v-341.333c0-70.571-57.429-128-128-128z"></path>
</svg>
