<!-- Generated by IcoMoon.io -->
<svg version="1.1" xmlns="http://www.w3.org/2000/svg" width="1024" height="1024" viewBox="0 0 1024 1024">
<title></title>
<g id="icomoon-ignore">
</g>
<path fill="#000" d="M469.333 511.957l-102.4 76.843c-7.68 5.76-16.64 8.534-25.557 8.534-13.013 0-25.771-5.888-34.176-17.067-14.165-18.859-10.325-45.611 8.533-59.733l170.667-128c14.763-11.093 35.072-11.392 50.133-0.768l170.667 120.064c19.285 13.568 23.936 40.192 10.368 59.435s-40.149 23.936-59.435 10.368l-103.592-72.922c0.083 1.086 0.125 2.183 0.125 3.29v341.333c0 23.552-19.072 42.667-42.667 42.667s-42.667-19.115-42.667-42.667v-341.376zM810.667 170.667c23.467 0 42.667 19.2 42.667 42.667v85.333c0 23.467-19.2 42.667-42.667 42.667s-42.667-19.2-42.667-42.667v-42.667h-512v42.667c0 23.467-19.2 42.667-42.667 42.667s-42.667-19.2-42.667-42.667v-85.333c0-23.467 19.2-42.667 42.667-42.667h597.333z"></path>
</svg>
