<!-- Generated by IcoMoon.io -->
<svg version="1.1" xmlns="http://www.w3.org/2000/svg" width="1024" height="1024" viewBox="0 0 1024 1024">
<title></title>
<g id="icomoon-ignore">
</g>
<path fill="#000" d="M140.501 140.497c16.683-16.683 43.648-16.683 60.331 0v0l682.667 682.667c16.683 16.683 16.683 43.648 0 60.331-8.32 8.32-19.243 12.501-30.165 12.501s-21.845-4.181-30.165-12.501v0l-682.667-682.667c-16.683-16.683-16.683-43.648 0-60.331zM126.874 247.539l541.483 541.483c-20.309 13.653-44.715 21.632-71.040 21.632v0h-384c-70.571 0-128-57.387-128-128v0-341.333c0-37.163 16.171-70.357 41.557-93.781v0zM597.321 213.308c70.613 0 128 57.429 128 128v0 61.952l92.203-85.333c21.291-19.627 52.267-24.661 78.976-13.056 25.984 11.349 42.155 35.627 42.155 63.317v0 287.616c0 27.691-16.171 51.968-42.155 63.317-9.557 4.181-19.584 6.187-29.525 6.187-8.789 0-17.493-1.621-25.685-4.693v0l-507.307-507.307z"></path>
</svg>
