<!-- Generated by IcoMoon.io -->
<svg version="1.1" xmlns="http://www.w3.org/2000/svg" width="1024" height="1024" viewBox="0 0 1024 1024">
<title></title>
<g id="icomoon-ignore">
</g>
<path fill="#000" d="M896.499 304.87c-26.709-11.605-57.685-6.571-78.976 13.056l-92.203 85.333v-61.952c0-70.571-57.387-128-128-128h-384c-70.571 0-128 57.429-128 128v341.333c0 70.613 57.429 128 128 128h384c70.613 0 128-57.387 128-128v-61.909l92.203 85.291c13.696 12.672 31.403 19.285 49.451 19.285 9.941 0 19.968-2.005 29.525-6.187 25.984-11.349 42.155-35.627 42.155-63.317v-287.616c0-27.691-16.171-51.968-42.155-63.317z"></path>
</svg>
