<!-- Generated by IcoMoon.io -->
<svg version="1.1" xmlns="http://www.w3.org/2000/svg" width="1024" height="1024" viewBox="0 0 1024 1024">
<title></title>
<g id="icomoon-ignore">
</g>
<path fill="#000" d="M853.333 401.084l-119.851 110.933 119.851 110.891v-221.824zM938.667 368.188v287.616c0 27.691-16.171 51.968-42.155 63.317-9.557 4.181-19.584 6.229-29.568 6.229-8.789 0-17.451-1.621-25.643-4.736l-201.301-201.301v-177.963c0-23.552-19.115-42.667-42.667-42.667h-178.005l-85.333-85.333h263.339c70.571 0 128 57.387 128 128v61.909l92.203-85.333c21.291-19.627 52.267-24.661 78.976-13.056 25.984 11.349 42.155 35.627 42.155 63.317v0zM597.333 725.35h-384c-23.552 0-42.667-19.157-42.667-42.667v-341.333c0-13.696 6.869-25.301 16.896-33.152l-60.672-60.672c-25.387 23.424-41.557 56.661-41.557 93.824v341.333c0 70.571 57.429 128 128 128h384c26.283 0 50.688-8.021 71.040-21.632l-64.939-64.981c-2.091 0.341-3.925 1.28-6.101 1.28v0zM883.499 823.185c16.683 16.64 16.683 43.648 0 60.331-8.32 8.32-19.243 12.501-30.165 12.501s-21.845-4.181-30.165-12.501l-682.667-682.667c-16.683-16.683-16.683-43.691 0-60.331 16.683-16.683 43.648-16.683 60.331 0l682.667 682.667z"></path>
</svg>
