<!-- Generated by IcoMoon.io -->
<svg version="1.1" xmlns="http://www.w3.org/2000/svg" width="1024" height="1024" viewBox="0 0 1024 1024">
<title></title>
<g id="icomoon-ignore">
</g>
<path fill="#000" d="M202.372 323.046l437.632 437.632v92.672c0 15.829-8.789 30.379-22.784 37.717-6.229 3.328-13.056 4.949-19.883 4.949-8.448 0-16.896-2.517-24.149-7.467v0l-273.536-187.605h-214.315c-23.552 0-42.667-19.072-42.667-42.667v0-292.565c0-23.595 19.115-42.667 42.667-42.667v0h117.035zM140.501 140.501c16.683-16.683 43.648-16.683 60.331 0v0l682.667 682.667c16.683 16.683 16.683 43.648 0 60.331-8.32 8.32-19.243 12.501-30.165 12.501s-21.845-4.181-30.165-12.501v0l-682.667-682.667c-16.683-16.683-16.683-43.648 0-60.331zM777.813 228.783c15.019-18.133 41.899-20.651 60.075-5.675 92.501 76.629 143.445 179.285 143.445 288.896 0 91.179-35.712 177.28-100.821 247.851v0l-60.373-60.373c48.981-54.315 75.861-119.253 75.861-187.477 0-83.797-39.979-162.987-112.555-223.104-18.133-15.061-20.693-41.984-5.632-60.117zM719.898 350.767c18.389-14.72 45.227-11.861 60.032 6.485 68.651 85.376 69.419 218.027 2.944 304.981v0l-61.355-61.397c35.328-55.637 32.981-139.051-8.107-190.080-14.763-18.389-11.861-45.227 6.485-59.989zM573.227 135.462c13.013-8.96 29.952-9.941 43.989-2.56 13.995 7.381 22.784 21.931 22.784 37.76v0 348.672l-254.891-254.891z"></path>
</svg>
