<!-- Generated by IcoMoon.io -->
<svg version="1.1" xmlns="http://www.w3.org/2000/svg" width="1024" height="1024" viewBox="0 0 1024 1024">
<title></title>
<g id="icomoon-ignore">
</g>
<path fill="#000" d="M554.667 251.691l-217.643 149.248c-7.125 4.821-15.531 7.467-24.149 7.467h-184.875v207.232h184.875c8.619 0 17.024 2.645 24.149 7.467l217.643 149.248v-520.661zM640 170.709v682.667c0 15.829-8.789 30.336-22.784 37.717-6.229 3.285-13.056 4.949-19.883 4.949-8.448 0-16.896-2.517-24.107-7.467l-273.579-187.605h-214.315c-23.552 0-42.667-19.072-42.667-42.667v-292.565c0-23.595 19.115-42.667 42.667-42.667h214.315l273.579-187.605c13.013-8.96 29.952-9.941 43.989-2.517 13.995 7.381 22.784 21.888 22.784 37.76v0zM816.555 223.147c-18.176-15.019-45.056-12.501-60.075 5.675-15.061 18.133-12.501 45.056 5.632 60.075 72.576 60.117 112.555 139.349 112.555 223.147 0 83.755-39.979 162.987-112.555 223.104-18.133 15.061-20.693 41.941-5.632 60.075 8.448 10.24 20.608 15.488 32.853 15.488 9.6 0 19.243-3.243 27.221-9.813 92.501-76.629 143.445-179.243 143.445-288.853 0-109.653-50.944-212.267-143.445-288.896v0zM758.571 666.795c-8.405 10.453-20.779 15.915-33.237 15.915-9.429 0-18.859-3.115-26.752-9.429-18.347-14.805-21.248-41.643-6.485-59.989 44.16-54.912 44.16-147.627 0-202.496-14.763-18.389-11.861-45.227 6.485-60.032 18.347-14.677 45.227-11.819 59.989 6.528 69.845 86.784 69.845 222.677 0 309.504v0z"></path>
</svg>
