<!-- Generated by IcoMoon.io -->
<svg version="1.1" xmlns="http://www.w3.org/2000/svg" width="1024" height="1024" viewBox="0 0 1024 1024">
<title></title>
<g id="icomoon-ignore">
</g>
<path fill="#000" d="M256 615.625h184.875c8.619 0 17.024 2.645 24.149 7.467l217.643 149.248v-520.661l-217.643 149.248c-7.125 4.821-15.531 7.467-24.149 7.467h-184.875v207.232zM725.333 895.987c-8.448 0-16.896-2.475-24.107-7.467l-273.579-187.563h-214.315c-23.552 0-42.667-19.072-42.667-42.667v-292.565c0-23.595 19.115-42.667 42.667-42.667h214.315l273.579-187.605c13.013-8.96 29.952-9.941 43.989-2.517 13.995 7.339 22.784 21.888 22.784 37.717v682.667c0 15.829-8.789 30.379-22.784 37.76-6.229 3.285-13.056 4.907-19.883 4.907v0z"></path>
</svg>
