<!-- Generated by IcoMoon.io -->
<svg version="1.1" xmlns="http://www.w3.org/2000/svg" width="1024" height="1024" viewBox="0 0 1024 1024">
<title></title>
<g id="icomoon-ignore">
</g>
<path fill="#000" d="M573.197 135.475c13.056-8.96 29.995-9.984 44.032-2.56 13.995 7.381 22.784 21.931 22.784 37.76v0 682.667c0 15.829-8.789 30.379-22.784 37.76-6.229 3.285-13.099 4.907-19.883 4.907-8.491 0-16.896-2.517-24.149-7.467v0l-273.536-187.605h-214.315c-23.595 0-42.667-19.072-42.667-42.667v0-292.565c0-23.595 19.072-42.667 42.667-42.667v0h214.315zM777.801 228.8c15.019-18.176 41.941-20.693 60.075-5.675 92.501 76.629 143.445 179.243 143.445 288.896 0 109.611-50.944 212.224-143.445 288.853-7.979 6.571-17.621 9.813-27.179 9.813-12.288 0-24.448-5.291-32.896-15.488-15.019-18.133-12.501-45.013 5.675-60.075 72.533-60.117 112.512-139.349 112.512-223.104 0-83.797-39.979-163.029-112.512-223.147-18.176-15.061-20.693-41.941-5.675-60.075zM719.927 350.763c18.347-14.72 45.184-11.861 59.989 6.485 69.803 86.784 69.803 222.72 0 309.504-8.448 10.453-20.821 15.915-33.28 15.915-9.387 0-18.816-3.072-26.709-9.429-18.347-14.763-21.291-41.6-6.528-59.989 44.203-54.869 44.203-147.627 0-202.496-14.763-18.389-11.819-45.227 6.528-59.989z"></path>
</svg>
