<!-- Generated by IcoMoon.io -->
<svg version="1.1" xmlns="http://www.w3.org/2000/svg" width="1024" height="1024" viewBox="0 0 1024 1024">
<title></title>
<g id="icomoon-ignore">
</g>
<path fill="#000" d="M469.333 178.001v77.995c0 23.595 19.115 42.667 42.667 42.667s42.667-19.072 42.667-42.667v-77.995c39.381 13.909 70.443 46.72 81.365 89.557 2.688 9.429 3.968 19.669 3.968 31.104 0 70.571-57.429 128-128 128s-128-57.429-128-128c0-11.179 1.323-21.12 3.883-30.379 0.128-0.512 0.171-0.981 0.299-1.493l0.171-0.64c10.752-41.899 41.728-74.325 80.981-88.149zM768 213.329h-60.672c-33.237-76.757-109.269-128-195.328-128-86.315 0-162.517 51.584-195.413 128h-60.587c-70.571 0-128 57.429-128 128v469.333c0 70.571 57.429 128 128 128h512c70.571 0 128-57.429 128-128v-469.333c0-70.571-57.429-128-128-128z"></path>
</svg>
