<!-- Generated by IcoMoon.io -->
<svg version="1.1" xmlns="http://www.w3.org/2000/svg" width="1024" height="1024" viewBox="0 0 1024 1024">
<title></title>
<g id="icomoon-ignore">
</g>
<path fill="#000" d="M512 768c23.595 0 42.667 19.115 42.667 42.667s-19.072 42.667-42.667 42.667c-23.595 0-42.667-19.115-42.667-42.667s19.072-42.667 42.667-42.667zM512 597.333c55.595 0 108.203 21.291 148.181 59.861 16.939 16.384 17.408 43.392 1.067 60.331-8.363 8.704-19.541 13.056-30.72 13.056-10.667 0-21.376-4.011-29.611-11.989-48-46.336-129.835-46.336-177.835 0-16.853 16.384-43.904 15.915-60.331-1.067-16.341-16.939-15.872-43.947 1.067-60.331 39.979-38.571 92.587-59.861 148.181-59.861zM512 384c103.595 0 204.288 42.709 276.267 117.248 16.299 16.981 15.872 43.989-1.109 60.331-8.235 8.021-18.944 11.99-29.611 11.99-11.179 0-22.357-4.353-30.72-13.014-55.936-57.984-134.229-91.221-214.827-91.221s-158.891 33.237-214.827 91.221c-16.341 16.939-43.435 17.408-60.331 1.024-16.981-16.341-17.408-43.349-1.109-60.331 71.979-74.539 172.672-117.248 276.267-117.248zM511.983 170.675c155.648 0 302.976 59.52 414.933 167.637 16.939 16.341 17.408 43.392 1.067 60.331-8.363 8.661-19.541 13.013-30.677 13.013-10.667 0-21.376-3.968-29.653-11.989-96-92.629-222.293-143.659-355.669-143.659s-259.669 51.029-355.669 143.659c-16.853 16.427-43.904 15.957-60.331-1.024-16.299-16.939-15.872-43.989 1.109-60.331 111.957-108.117 259.285-167.637 414.891-167.637z"></path>
</svg>
