<!-- Generated by IcoMoon.io -->
<svg version="1.1" xmlns="http://www.w3.org/2000/svg" width="1024" height="1024" viewBox="0 0 1024 1024">
<title></title>
<g id="icomoon-ignore">
</g>
<path fill="#000" d="M140.48 140.523c16.683-16.683 43.691-16.683 60.373 0v0l682.667 682.667c16.64 16.64 16.64 43.648 0 60.331-8.363 8.32-19.285 12.501-30.208 12.501-10.88 0-21.803-4.181-30.165-12.501v0l-682.667-682.667c-16.64-16.683-16.64-43.691 0-60.331zM512 768c23.595 0 42.667 19.115 42.667 42.667s-19.072 42.667-42.667 42.667c-23.595 0-42.667-19.115-42.667-42.667s19.072-42.667 42.667-42.667zM479.757 600.418l107.392 107.435c-48.725-34.773-120.32-31.488-164.053 10.709-16.896 16.427-43.947 15.957-60.331-1.024-16.341-16.939-15.872-43.947 1.067-60.331 32.085-31.019 72.491-50.176 115.925-56.789v0zM512.009 383.987c103.595 0 204.288 42.752 276.224 117.248 16.341 16.981 15.915 43.989-1.067 60.331-8.235 8.021-18.944 11.989-29.611 11.989-11.179 0-22.357-4.352-30.72-13.013-33.792-35.029-75.819-60.843-121.557-75.904v0l-100.224-100.267c2.304-0.043 4.608-0.384 6.955-0.384zM317.082 437.773l62.891 62.891c-30.592 15.104-58.837 35.029-82.816 59.861-16.384 16.981-43.435 17.451-60.331 1.067-16.939-16.341-17.408-43.392-1.067-60.331 24.107-25.003 51.712-46.080 81.323-63.488v0zM511.983 170.675c155.648 0 302.976 59.52 414.933 167.637 16.939 16.341 17.408 43.392 1.067 60.331-8.363 8.661-19.541 13.013-30.677 13.013-10.667 0-21.376-3.968-29.653-11.989-96-92.629-222.293-143.659-355.669-143.659-41.088 0-81.408 5.419-120.491 14.805v0l-68.907-68.907c60.416-20.139 124.075-31.232 189.397-31.232zM163.166 283.853l61.099 61.056c-23.893 16.299-46.763 34.347-67.925 54.784-16.853 16.384-43.947 15.915-60.331-1.067-16.341-16.939-15.872-43.947 1.067-60.331 20.779-20.011 43.093-37.803 66.091-54.443v0z"></path>
</svg>
