<?xml version="1.0" encoding="utf-8"?>
<!-- Generator: Adobe Illustrator 23.0.2, SVG Export Plug-In . SVG Version: 6.00 Build 0)  -->
<svg version="1.1" id="Layer_1" xmlns="http://www.w3.org/2000/svg" xmlns:xlink="http://www.w3.org/1999/xlink" x="0px" y="0px"
	 viewBox="0 0 400 400" style="enable-background:new 0 0 400 400;" xml:space="preserve">
<style type="text/css">
	.st0{fill:#BE202E;}
	.st1{fill:#565759;}
</style>
<g>
	<path class="st0" d="M396,291.51c-7,6.94-13.37,13.26-19.69,19.53c-4.66-4.59-9.62-9.24-14.27-14.17
		c-2.14-2.27-3.65-2.54-6.51-0.93c-28.59,16.05-75.39,12.45-98.23-23.05c-7.39-11.49-10.01-24.47-10.33-37.76
		c-0.48-20.41-0.53-40.85-0.03-61.26c0.99-40.34,27.23-62.3,57.09-68.21c31.46-6.23,63.87,7.91,78.39,34.51
		c5.13,9.39,7.67,19.63,8.04,30.15c0.69,20,1.09,40.04,0.73,60.04c-0.27,14.89-2.5,29.6-10.7,42.7c-0.53,0.84,0.1,3.1,0.94,3.98
		C386.11,281.94,391.03,286.62,396,291.51z M335.77,229.74c4.88,5.31,9.34,10.16,14.38,15.64c0.84-3.66,1.97-6.49,2.08-9.37
		c0.62-16.03,1.3-32.06,1.33-48.1c0.01-7.84-0.79-15.79-2.18-23.51c-2.96-16.42-16.46-26.82-33.34-26.39
		c-17.03,0.43-29.84,11.31-31.98,27.94c-1.16,9.01-1.78,18.17-1.7,27.25c0.16,16.71,0.22,33.5,1.8,50.11
		c1.72,18.1,17.74,29.92,35.86,27.79c3.35-0.39,6.58-1.92,10.11-3.01c-6.17-6.17-11.7-11.71-16.93-16.93
		C321.99,244.08,328.28,237.53,335.77,229.74z"/>
	<g>
		<path class="st1" d="M111.44,104.5c-22.36,46.37-45.78,91.3-67.84,138.1c2.86,0,4.32,0,5.78,0c10.77,0,21.53-0.16,32.29,0.09
			c3.84,0.09,5.2-0.85,5.09-4.93c-0.29-10.73-0.1-21.47-0.1-32.51c11.44,0,22.51,0,34.01,0c0,10.56-0.03,20.88,0.01,31.2
			c0.03,6.56-0.96,6.12,6.11,6.15c3.79,0.02,7.57,0,11.63,0c0,11.24,0,22.05,0,33.28c-5.76,0-11.43,0-17.75,0
			c0,6.05,0.07,11.71-0.03,17.37c-0.06,3.62,0.9,8.37-0.99,10.51c-1.61,1.82-6.62,0.73-10.13,0.77c-6.54,0.07-13.08-0.07-19.62,0.06
			c-2.52,0.05-3.32-0.85-3.28-3.32c0.12-6.81,0.04-13.63,0.04-20.44c0-1.46,0-2.92,0-4.82c-27.39,0-54.3,0-81.64,0
			c0-11.44-0.08-22.44,0.1-33.43c0.02-1.44,1.41-2.84,2.13-4.28c19.53-39.33,39.06-78.66,58.57-118c2.17-4.37,4.05-8.9,6.36-13.19
			c0.63-1.17,2.3-2.48,3.52-2.5C87.26,104.42,98.84,104.5,111.44,104.5z"/>
		<path class="st1" d="M267.11,304.37c-40.35,0-79.96,0-119.97,0c0-10.26-0.56-20.35,0.31-30.32c0.29-3.32,4.06-6.47,6.57-9.42
			c11.5-13.53,23.1-26.98,34.7-40.43c10.9-12.63,21.82-25.24,32.79-37.8c8.18-9.35,12.91-19.66,9.89-32.44
			c-2.12-8.97-7.07-15.34-16.38-17.11c-9.49-1.81-18.73-1.51-26.1,6.19c-3.96,4.13-5.85,9.17-5.99,14.73
			c-0.08,3.19-1.25,3.83-4.14,3.78c-8.58-0.16-17.17-0.06-25.75-0.06c-5.6,0-5.52,0-5.21-5.48c0.62-10.88,4.35-20.65,10.81-29.31
			c8.97-12.03,21.43-18.63,35.9-21.2c13.58-2.41,27.08-1.53,39.95,3.97c8.49,3.63,15.73,9,21.43,16.38
			c1.46,1.89,1.35,3.28-0.04,4.98c-9.16,11.21-12.55,24.53-13.29,38.55c-0.7,13.17-0.59,26.38-1.01,39.56
			c-0.05,1.71-0.73,3.75-1.82,5.04c-13.54,15.9-27.23,31.67-40.83,47.51c-2.85,3.32-5.51,6.79-8.99,11.11
			c2.82,0.15,4.37,0.3,5.92,0.3c17.3,0.02,34.61,0.07,51.91-0.04c3.11-0.02,5,0.62,6.82,3.63c2.32,3.85,5.76,7.08,9.03,10.27
			c2.26,2.2,3.89,4.28,3.55,7.69C266.86,297.65,267.11,300.91,267.11,304.37z"/>
	</g>
</g>
</svg>
