<svg xmlns="http://www.w3.org/2000/svg" width="537" height="433" viewBox="0 0 537 433">
    <g fill="none" fill-rule="evenodd" opacity=".6">
        <ellipse cx="276.5" cy="216.5" fill="#21262E" fill-rule="nonzero" opacity=".1" rx="242.5" ry="216.5"/>
        <ellipse cx="89.5" cy="327" fill="#21262E" fill-rule="nonzero" opacity=".1" rx="89.5" ry="14"/>
        <ellipse cx="132" cy="400" fill="#21262E" fill-rule="nonzero" opacity=".1" rx="35" ry="7"/>
        <ellipse cx="370" cy="372" fill="#21262E" fill-rule="nonzero" opacity=".1" rx="35" ry="7"/>
        <ellipse cx="265" cy="348.5" fill="#21262E" fill-rule="nonzero" opacity=".1" rx="118" ry="16.5"/>
        <ellipse cx="419" cy="316.5" fill="#21262E" fill-rule="nonzero" opacity=".1" rx="118" ry="18.5"/>
        <path fill="#A8A8A8" fill-rule="nonzero" d="M24.665 284.008a32.678 32.678 0 0 0 1.727 33.018c1.05 1.562 2.015 2.687 2.786 2.984 3.7 1.443 11.11 4.99 11.11 4.99l17.842-6.959s2.896-15.209 5.636-28.267c1.868-8.907 3.673-16.808 4.413-18.194 1.847-3.411 0-40.554 0-40.554S50.337 229.84 45.43 243.49l-2.146 4.167-18.619 36.351z"/>
        <path fill="#FFF" fill-rule="nonzero" d="M48.17 288.053c10.938 12.328 15.552 1.666 15.552 1.666 1.884-8.899 3.704-16.793 4.45-18.177 1.863-3.408 0-40.516 0-40.516s-17.991-1.186-22.94 12.452l-2.163 4.163c-1.387 10.913-2.757 31.54 5.1 40.412z" opacity=".1"/>
        <path fill="#A8A8A8" fill-rule="nonzero" d="M50 322l62.796-7.186L124 241.775l-8.472-18.97a76.813 76.813 0 0 0-14.653-21.9c-4.265-4.453-9.42-8.735-14.84-10.887a22.415 22.415 0 0 0-2.266-.767 5.91 5.91 0 0 0-5.233.918c-7.745 5.438-10.514 28.561-11.408 39.692a123.133 123.133 0 0 1-1.869 13.63L50 322z"/>
        <path fill="#FFF" fill-rule="nonzero" d="M92.134 241.069L79.217 273c6.769-4.974 16.798-32.061 16.798-32.061L105 271.82l-7.161-32.549a102.292 102.292 0 0 0 .909-21.36c-.568-8.173-8.2-21.288-12.344-27.892a21.918 21.918 0 0 0-2.237-.769 5.77 5.77 0 0 0-5.167.92c3.255 6.567 11.393 22.99 13.873 27.87 3.147 6.148-.739 23.028-.739 23.028z" opacity=".1"/>
        <path fill="#A8A8A8" fill-rule="nonzero" d="M102 325h33.757c2.807 0 5.49-1.16 7.424-3.21a10.37 10.37 0 0 0 2.806-7.635c-.747-14.591-2.64-40.608-7.14-57.123-2.431-8.911-5.257-13.589-7.85-15.893a7.632 7.632 0 0 0-4.463-2.117 5.822 5.822 0 0 0-3.63.888c-6.268 6.058-13.588 37.933-13.588 37.933L102 325z"/>
        <path fill="#FFF" fill-rule="nonzero" d="M133.732 296.381c1.402 3.918 1.957 8.436 0 12.839l-7.594 3.78s-20.41-8.715-17.929-26.578c0 0 .67-3.691 7.698-3.406 8.085.393 15.13 5.676 17.825 13.365zM125.282 250.186c-.227-6.221 3.028-8.379 5.718-9.065a7.344 7.344 0 0 0-4.346-2.121 12.04 12.04 0 0 0-3.79 6.284L116 280s9.665-19.387 9.282-29.814z" opacity=".1"/>
        <path fill="#A8A8A8" fill-rule="nonzero" d="M93.396 278l16.707 22.947 2.897 18.94-10.737 5.323-15.48 3.435c-1.49.332-3.023.432-4.544.296L40 325.211l5.747-13.379 19.847-27.978L93.396 278z"/>
        <path fill="#FFF" fill-rule="nonzero" d="M86.965 270.01s11.335.79 7.08 20.596C89.787 310.412 46 312 46 312s9.305-16.767 23.618-28.782a66.284 66.284 0 0 0 4.637-4.249c3.292-3.348 9.588-9.232 12.71-8.96z" opacity=".1"/>
        <path fill="#000" fill-rule="nonzero" d="M97 285s15.35 14.18 13.904 36M123 240s-16.184 21.665-18 55M67.482 231S75.154 266.923 56 294" opacity=".1"/>
        <path fill="#464353" fill-rule="nonzero" d="M139.55 332h259.964a14.56 14.56 0 0 0 12.444-7.14 14.615 14.615 0 0 0 .304-14.364L282.344 68.67A14.545 14.545 0 0 0 269.532 61a14.545 14.545 0 0 0-12.812 7.67L126.738 310.495a14.615 14.615 0 0 0 .32 14.391A14.56 14.56 0 0 0 139.55 332zM286 288h-33v-33h33v33zm0-56h-33v-66h33v66z"/>
        <path fill="#FBBEBE" fill-rule="nonzero" d="M129 134c-.667-.33-1.333-.68-2-1l1.387.16c.23.233.438.516.613.84z"/>
        <path fill="#000" fill-rule="nonzero" d="M146.488 153.434c.47 0 .3 0 .07.08-.23.08-.61.08-.07-.08zM150 126.998c.001 6.881-5.36 12.571-12.23 12.979-6.868.408-12.865-4.608-13.678-11.44-.813-6.833 3.84-13.116 10.613-14.33 6.773-1.216 13.32 3.057 14.933 9.746.24.997.362 2.02.362 3.045z" opacity=".1"/>
        <path fill="#444176" fill-rule="nonzero" d="M361.741 266.09s-12.015 15.738-21.984 15.867c-9.97.129-15.822 6.629-11.089 10.69 4.734 4.062 56.316-2.32 56.316-2.32s.487-19.34-3.982-22.164c-4.47-2.825-19.26-2.072-19.26-2.072zM491.188 284.808s1.883 12.476-3.935 20.984c-5.818 8.509 10.511 11.79 10.511 11.79s11.864 3.215 12.728-8.188c.865-11.403.584-20.123-.53-21.052-1.114-.929-2.042-7.342-2.042-7.342l-16.732 3.808z"/>
        <path fill="#A8A8A8" fill-rule="nonzero" d="M309 308.092s-.42-40.668 39.759-57.198l9.33-17.778 4.475-10.92a26.541 26.541 0 0 1 18.737-15.838l7.237-1.627 2.238-9.443c2.437-10.316 10.765-18.193 21.188-20.04A74.085 74.085 0 0 1 425.307 174c4.028.06 7.73 2.231 9.755 5.72 0 0 38.066-.421 39.754 20.336 0 0 3.81 19.057 9.308 22.447 0 0 9.304-2.116 18.608 11.44l10.15 34.734s26.644 24.99 18.607 47.838c0 0-10.996 15.672-66.823 5.08 0 0-59.633 18.2-91.376-6.76-.005.032-52.868 10.198-64.29-6.743z"/>
        <path stroke="#000" d="M335 302s8.437-11.752 8.012-20.15C342.588 273.454 345 253 345 253M366 270s8.363-15.654 7.526-24.114c0 0 8.784-16.1 15.474-14.813M413 226s23.704-8.334 25-15M421 245.788s24.71-10.86 24.71-13.788h12.347s17.896 22.976 15.767 33M450 262.188s-23.69-1.69-32.154 5.072c-8.465 6.763-23.69 10.14-23.69 10.14s-8.885 19.012-12.271 22.389C378.499 303.165 373 315 373 315M450 285s2.467 8.827 5.764 13.875C459.06 303.923 464 322 464 322M490 311s5.322 14.855 10 15" opacity=".1"/>
        <path stroke="#000" d="M455 247s13.812 3.73 19.587 12.768C480.362 268.805 498 277 498 277M461 201s0 19.844 5.436 19.844C471.87 220.844 484 223 484 223M434 178s-1.473 33.362-9 42" opacity=".1"/>
        <g fill="#000" fill-rule="nonzero" opacity=".05">
            <path d="M511.515 268.796l-10.162-34.637c-9.314-13.518-18.629-11.408-18.629-11.408-5.505-3.38-9.315-22.39-9.315-22.39-1.694-20.699-39.805-20.274-39.805-20.274a11.503 11.503 0 0 0-9.788-5.703c-1.798 0-3.638.057-5.478.207 1.04.104 2.036.25 2.989.44l2.962 5.072s38.106-.425 39.8 20.274c0 0 3.816 19.009 9.32 22.39 0 0 9.315-2.116 18.63 11.407l10.162 34.637s26.675 24.92 18.629 47.704c0 0-5.432 7.71-28.027 8.644 30.465 1.114 37.341-8.644 37.341-8.644 8.047-22.8-18.629-47.72-18.629-47.72zM362.466 314.835a198.183 198.183 0 0 1-27.128 2.96c10.609.405 21.644-.74 28.755-1.716-.551-.42-1.092-.824-1.627-1.244zM453.928 321.596a174.298 174.298 0 0 1-39.982 6.305c19.518.706 38.007-3.354 45.627-5.304-1.84-.306-3.706-.653-5.645-1z"/>
        </g>
        <path fill="#A8A8A8" fill-rule="nonzero" d="M116 387.293s11.558-.359 15.04-2.858c3.481-2.5 17.773-5.483 18.64-1.476.866 4.006 17.366 19.928 4.317 20.037-13.05.11-30.312-2.047-33.788-4.183-3.477-2.136-4.209-11.52-4.209-11.52z"/>
        <path fill="#000" fill-rule="nonzero" d="M154.236 401.567c-13.05.111-30.318-2.085-33.795-4.234-2.646-1.657-3.703-7.596-4.054-10.333H116s.732 9.565 4.209 11.735c3.476 2.17 20.745 4.367 33.79 4.261 3.77-.031 5.07-1.408 4.998-3.446-.52 1.228-1.96 1.996-4.76 2.017z" opacity=".2"/>
        <path fill="#A8A8A8" fill-rule="nonzero" d="M400 358.359s-13.757-2.721-17.421-6.35c-3.665-3.628-20.174-9.967-22.009-5.437-1.835 4.53-24.755 19.945-9.17 22.677 15.587 2.731 36.678 3.607 41.266 1.814 4.587-1.794 7.334-12.704 7.334-12.704z"/>
        <path fill="#000" fill-rule="nonzero" d="M351.398 367.475c15.592 2.77 36.68 3.678 41.267 1.844 3.488-1.408 5.917-8.171 6.876-11.319l.459.1s-2.753 11.088-7.335 12.938c-4.582 1.85-25.675.925-41.267-1.85-4.5-.799-5.787-2.68-5.302-5.055.386 1.566 1.955 2.758 5.302 3.342z" opacity=".2"/>
        <path fill="#21262E" fill-rule="nonzero" d="M268.584 59.668h-3.292c1.274 0 2.306-1.045 2.306-2.334 0-1.289-1.032-2.334-2.306-2.334h-26.67c-1.274 0-2.306 1.045-2.306 2.334 0 1.29 1.032 2.334 2.306 2.334h3.292c-1.23.06-2.197 1.086-2.197 2.332 0 1.246.967 2.272 2.197 2.332h-4.608c-1.273 0-2.306 1.045-2.306 2.334 0 1.289 1.033 2.334 2.306 2.334h26.67c1.274 0 2.307-1.045 2.307-2.334 0-1.29-1.033-2.334-2.307-2.334h4.608a2.3 2.3 0 0 0 2.088-1.133 2.358 2.358 0 0 0 0-2.398 2.3 2.3 0 0 0-2.088-1.133zM371.585 139.667h-3.289c1.229-.06 2.195-1.086 2.195-2.332 0-1.246-.966-2.273-2.195-2.332H341.62a2.297 2.297 0 0 0-2.087 1.132 2.36 2.36 0 0 0 0 2.399 2.297 2.297 0 0 0 2.087 1.133h3.29c-1.229.06-2.195 1.086-2.195 2.332 0 1.246.966 2.272 2.195 2.332h-4.604c-1.273 0-2.305 1.045-2.305 2.334 0 1.29 1.032 2.335 2.305 2.335h26.645c1.273 0 2.305-1.045 2.305-2.335s-1.032-2.334-2.305-2.334h4.635a2.297 2.297 0 0 0 2.088-1.133 2.36 2.36 0 0 0 0-2.399 2.297 2.297 0 0 0-2.088-1.132zM219.594 125.667h-3.292a2.3 2.3 0 0 0 2.09-1.133 2.36 2.36 0 0 0 0-2.399 2.3 2.3 0 0 0-2.09-1.132h-26.675a2.3 2.3 0 0 0-2.088 1.132 2.36 2.36 0 0 0 0 2.399 2.3 2.3 0 0 0 2.088 1.133h3.292a2.3 2.3 0 0 0-2.089 1.132 2.36 2.36 0 0 0 0 2.399 2.3 2.3 0 0 0 2.09 1.133h-4.614c-1.273 0-2.306 1.045-2.306 2.334 0 1.29 1.033 2.335 2.306 2.335h26.67c1.274 0 2.307-1.045 2.307-2.335s-1.033-2.334-2.307-2.334h4.608a2.3 2.3 0 0 0 2.088-1.133 2.36 2.36 0 0 0 0-2.399 2.3 2.3 0 0 0-2.088-1.132h.01z" opacity=".1"/>
    </g>
</svg>
