<svg xmlns="http://www.w3.org/2000/svg" width="233" height="221" viewBox="0 0 233 221">
    <defs>
        <linearGradient id="a" x1="49.999%" x2="49.999%" y1="100%" y2="0%">
            <stop offset="0%" stop-color="gray" stop-opacity=".25"/>
            <stop offset="54%" stop-color="gray" stop-opacity=".12"/>
            <stop offset="100%" stop-color="gray" stop-opacity=".1"/>
        </linearGradient>
        <linearGradient id="b" x1="50%" x2="50%" y1="100%" y2="0%">
            <stop offset="0%" stop-color="gray" stop-opacity=".25"/>
            <stop offset="54%" stop-color="gray" stop-opacity=".12"/>
            <stop offset="100%" stop-color="gray" stop-opacity=".1"/>
        </linearGradient>
        <linearGradient id="c" x1="59.532%" x2="40.521%" y1="98.88%" y2="1.029%">
            <stop offset="0%" stop-color="gray" stop-opacity=".25"/>
            <stop offset="54%" stop-color="gray" stop-opacity=".12"/>
            <stop offset="100%" stop-color="gray" stop-opacity=".1"/>
        </linearGradient>
        <linearGradient id="d" x1="49.999%" x2="49.999%" y1="100%" y2="0%">
            <stop offset="0%" stop-color="gray" stop-opacity=".25"/>
            <stop offset="54%" stop-color="gray" stop-opacity=".12"/>
            <stop offset="100%" stop-color="gray" stop-opacity=".1"/>
        </linearGradient>
        <linearGradient id="e" x1="50%" x2="50%" y1="100%" y2="0%">
            <stop offset="0%" stop-color="gray" stop-opacity=".25"/>
            <stop offset="54%" stop-color="gray" stop-opacity=".12"/>
            <stop offset="100%" stop-color="gray" stop-opacity=".1"/>
        </linearGradient>
        <linearGradient id="f" x1="50%" x2="50%" y1="99.914%" y2="-.086%">
            <stop offset="0%" stop-color="gray" stop-opacity=".25"/>
            <stop offset="54%" stop-color="gray" stop-opacity=".12"/>
            <stop offset="100%" stop-color="gray" stop-opacity=".1"/>
        </linearGradient>
    </defs>
    <g fill="none" fill-rule="nonzero" opacity=".589">
        <path fill="#E0E0E0" d="M19.616 38.34l121.267-25.944 35.95 167.061-121.266 25.944z"/>
        <path fill="url(#a)" d="M16.089 11.449l119.716.122.169 164.658-119.716-.122z" opacity=".5" transform="rotate(-12.11 157.736 -2.361)"/>
        <path fill="#FAFAFA" d="M24.02 41.595l114.185-24.429 33.968 157.848-114.185 24.429z"/>
        <path fill="url(#b)" d="M52.294 22.332l57.928.034.008 13.995-57.927-.035z" transform="rotate(-12.11 81.262 29.346)"/>
        <path fill="url(#c)" d="M77.287 8.183c-4.317.963-7.048 5.468-6.098 10.06.95 4.591 5.216 7.538 9.524 6.574 4.309-.963 7.049-5.468 6.099-10.06-.95-4.591-5.208-7.538-9.525-6.574zm2.71 13.132c-1.867.462-3.817-.295-4.935-1.915a5.07 5.07 0 0 1-.161-5.472c1.02-1.688 2.922-2.568 4.811-2.225 1.89.343 3.393 1.84 3.803 3.788a5.013 5.013 0 0 1-.595 3.672 4.676 4.676 0 0 1-2.924 2.152z"/>
        <path fill="#222B45" d="M51.937 27.85l55.453-11.863 2.814 13.079-55.452 11.863z"/>
        <path fill="#222B45" d="M77.322 8.178A8 8 0 1 0 80.68 23.82a8 8 0 0 0-3.358-15.642zm2.646 12.344a4.616 4.616 0 1 1-1.937-9.027 4.616 4.616 0 0 1 1.937 9.027z"/>
        <path fill="#E0E0E0" d="M73 33h124v171H73z"/>
        <path fill="url(#d)" d="M.079.034h119.787v164.833H.079z" opacity=".5" transform="translate(75 36)"/>
        <path fill="#FFF" d="M77 38h117v161H77z"/>
        <path fill="url(#e)" d="M107 30h58v14h-58z"/>
        <path fill="url(#f)" d="M136 16c-4.418 0-8 3.805-8 8.5s3.582 8.5 8 8.5 8-3.805 8-8.5-3.582-8.5-8-8.5zm0 13.405c-1.921.047-3.678-1.118-4.445-2.946-.767-1.829-.391-3.957.951-5.384 1.343-1.427 3.384-1.868 5.164-1.116 1.78.752 2.943 2.547 2.944 4.541.019 2.668-2.044 4.85-4.614 4.881v.024z"/>
        <path fill="#222B45" d="M107 30h57v13h-57z"/>
        <path fill="#222B45" d="M136 16a8 8 0 1 0 0 16 8 8 0 0 0 0-16zm0 12.617a4.617 4.617 0 1 1 4.623-4.629A4.617 4.617 0 0 1 136 28.603v.014z"/>
        <g fill="#47E6B1" opacity=".5">
            <path d="M4.528 209.014h1.025v5.817H4.528z"/>
            <path d="M7.95 211.41v1.026H2.135v-1.025z"/>
        </g>
        <g fill="#47E6B1" opacity=".5">
            <path d="M127.476 0h1v5.817h-1z"/>
            <path d="M130.75 2.395V3.42h-5.565V2.395z"/>
        </g>
        <path fill="#4D8AF0" d="M218.592 218.542a1.374 1.374 0 0 1-.766-1.66c.016-.05.026-.1.03-.152a.688.688 0 0 0-1.237-.456.662.662 0 0 0-.077.134c-.279.64-.993.97-1.66.766a.662.662 0 0 0-.152-.03.688.688 0 0 0-.456 1.237.662.662 0 0 0 .134.077c.64.279.97.993.766 1.66a.662.662 0 0 0-.03.152.688.688 0 0 0 1.237.456.662.662 0 0 0 .077-.134c.279-.64.993-.97 1.66-.766.05.016.1.026.152.03a.688.688 0 0 0 .456-1.237.662.662 0 0 0-.134-.077z" opacity=".5"/>
        <path fill="#FDD835" d="M38.592 160.542a1.374 1.374 0 0 1-.766-1.66c.016-.05.026-.1.03-.152a.688.688 0 0 0-1.237-.456.662.662 0 0 0-.077.134c-.279.64-.993.97-1.66.766a.662.662 0 0 0-.152-.03.688.688 0 0 0-.456 1.237.662.662 0 0 0 .134.077c.64.279.97.993.766 1.66a.662.662 0 0 0-.03.152.688.688 0 0 0 1.237.456.662.662 0 0 0 .077-.134c.279-.64.993-.97 1.66-.766.05.016.1.026.152.03a.688.688 0 0 0 .456-1.237.662.662 0 0 0-.134-.077zM188.592 19.542a1.374 1.374 0 0 1-.766-1.66c.016-.05.026-.1.03-.152a.688.688 0 0 0-1.237-.456.662.662 0 0 0-.077.134c-.279.64-.993.97-1.66.766a.662.662 0 0 0-.152-.03.688.688 0 0 0-.456 1.237.662.662 0 0 0 .134.077c.64.279.97.993.766 1.66a.662.662 0 0 0-.03.152.688.688 0 0 0 1.237.456.662.662 0 0 0 .077-.134c.279-.64.993-.97 1.66-.766.05.016.1.026.152.03a.688.688 0 0 0 .456-1.237.662.662 0 0 0-.134-.077z" opacity=".5"/>
        <circle cx="230.5" cy="89.5" r="2.5" fill="#F55F44" opacity=".5"/>
        <circle cx="65.5" cy="211.5" r="2.5" fill="#F55F44" opacity=".5"/>
        <circle cx="208.5" cy="135.5" r="2.5" fill="#F55F44" opacity=".5"/>
        <circle cx="24.5" cy="27.5" r="2.5" fill="#4D8AF0" opacity=".5"/>
        <circle cx="2.5" cy="85.5" r="2.5" fill="#47E6B1" opacity=".5"/>
    </g>
</svg>
