<svg xmlns="http://www.w3.org/2000/svg" width="289" height="167" viewBox="0 0 289 167">
    <defs>
        <linearGradient id="a" x1="0%" y1="50.001%" y2="50.001%">
            <stop offset="0%" stop-color="gray" stop-opacity=".25"/>
            <stop offset="54%" stop-color="gray" stop-opacity=".12"/>
            <stop offset="100%" stop-color="gray" stop-opacity=".1"/>
        </linearGradient>
        <linearGradient id="b" x1="0%" y1="50%" y2="50%">
            <stop offset="0%" stop-color="gray" stop-opacity=".25"/>
            <stop offset="54%" stop-color="gray" stop-opacity=".12"/>
            <stop offset="100%" stop-color="gray" stop-opacity=".1"/>
        </linearGradient>
        <linearGradient id="c" x1="0%" y1="50%" y2="50%">
            <stop offset="0%" stop-color="gray" stop-opacity=".25"/>
            <stop offset="54%" stop-color="gray" stop-opacity=".12"/>
            <stop offset="100%" stop-color="gray" stop-opacity=".1"/>
        </linearGradient>
        <linearGradient id="d" x1="50.002%" x2="50.002%" y1="100%" y2="0%">
            <stop offset="0%" stop-color="gray" stop-opacity=".25"/>
            <stop offset="54%" stop-color="gray" stop-opacity=".12"/>
            <stop offset="100%" stop-color="gray" stop-opacity=".1"/>
        </linearGradient>
        <linearGradient id="e" x1="50%" x2="50%" y1="100%" y2="0%">
            <stop offset="0%" stop-color="gray" stop-opacity=".25"/>
            <stop offset="54%" stop-color="gray" stop-opacity=".12"/>
            <stop offset="100%" stop-color="gray" stop-opacity=".1"/>
        </linearGradient>
        <linearGradient id="f" x1="50%" x2="50%" y1="100.042%" y2=".042%">
            <stop offset="0%" stop-color="gray" stop-opacity=".25"/>
            <stop offset="54%" stop-color="gray" stop-opacity=".12"/>
            <stop offset="100%" stop-color="gray" stop-opacity=".1"/>
        </linearGradient>
        <linearGradient id="g" x1="50%" x2="50%" y1="100%" y2="0%">
            <stop offset="0%" stop-color="gray" stop-opacity=".25"/>
            <stop offset="54%" stop-color="gray" stop-opacity=".12"/>
            <stop offset="100%" stop-color="gray" stop-opacity=".1"/>
        </linearGradient>
        <linearGradient id="h" x1="50%" x2="50%" y1="100%" y2="0%">
            <stop offset="0%" stop-color="gray" stop-opacity=".25"/>
            <stop offset="54%" stop-color="gray" stop-opacity=".12"/>
            <stop offset="100%" stop-color="gray" stop-opacity=".1"/>
        </linearGradient>
        <linearGradient id="i" x1="50%" x2="50%" y1="100%" y2="0%">
            <stop offset="0%" stop-color="gray" stop-opacity=".25"/>
            <stop offset="54%" stop-color="gray" stop-opacity=".12"/>
            <stop offset="100%" stop-color="gray" stop-opacity=".1"/>
        </linearGradient>
        <linearGradient id="j" x1="50%" x2="50%" y1="100%" y2="0%">
            <stop offset="0%" stop-color="gray" stop-opacity=".25"/>
            <stop offset="54%" stop-color="gray" stop-opacity=".12"/>
            <stop offset="100%" stop-color="gray" stop-opacity=".1"/>
        </linearGradient>
        <linearGradient id="k" x1="49.996%" x2="49.996%" y1="100%" y2=".81%">
            <stop offset="0%" stop-color="gray" stop-opacity=".25"/>
            <stop offset="54%" stop-color="gray" stop-opacity=".12"/>
            <stop offset="100%" stop-color="gray" stop-opacity=".1"/>
        </linearGradient>
        <linearGradient id="l" x1="49.961%" x2="49.961%" y1="100%" y2=".105%">
            <stop offset="0%" stop-color="gray" stop-opacity=".25"/>
            <stop offset="54%" stop-color="gray" stop-opacity=".12"/>
            <stop offset="100%" stop-color="gray" stop-opacity=".1"/>
        </linearGradient>
    </defs>
    <g fill="none" fill-rule="nonzero" opacity=".6">
        <path fill="#F5F5F5" d="M134.34 22.315l.963-6.324 149.839 22.738-.962 6.325z"/>
        <path fill="url(#a)" d="M141.195 6.109l120.99.023.03 157.96-120.99-.024z" transform="rotate(-81.36 201.705 85.1)"/>
        <path fill="#F5F5F5" d="M117.741 131.388l16.596-109.074 149.839 22.738-16.595 109.075z"/>
        <ellipse cx="138.48" cy="19.707" fill="#FF5252" rx="1.564" ry="1.566" transform="rotate(-81.36 138.48 19.707)"/>
        <ellipse cx="142.737" cy="20.352" fill="#FF0" rx="1.564" ry="1.566" transform="rotate(-81.36 142.737 20.352)"/>
        <ellipse cx="146.993" cy="20.999" fill="#69F0AE" rx="1.564" ry="1.566" transform="rotate(-81.36 146.993 20.999)"/>
        <path fill="url(#b)" d="M183.45-5.051l39.976.007.025 136.081-39.975-.008z" transform="rotate(-81.36 203.451 62.993)"/>
        <path fill="#21262E" d="M140.538 34.845l131.638 19.977-5.571 36.622-131.639-19.977z"/>
        <path fill="url(#c)" d="M153.84 91.269l7.729.001.001 9.073-7.729-.002z" transform="rotate(-81.36 157.705 95.806)"/>
        <path fill="#21262E" d="M154.126 91.893l8.441 1.28-.962 6.325-8.441-1.281z"/>
        <path fill="#FF5252" d="M152.478 102.695l8.441 1.28-.962 6.325-8.441-1.28z"/>
        <path fill="#FF9800" d="M150.836 113.498l8.441 1.28-.962 6.325-8.44-1.281z"/>
        <path fill="#21262E" d="M176.347 96.612l68.06 10.329-.561 3.687-68.06-10.329zM174.702 107.415l68.06 10.329-.561 3.687-68.06-10.329zM173.06 118.218l68.06 10.329-.56 3.687-68.06-10.329z" opacity=".4"/>
        <path fill="#F5F5F5" d="M3.83 38.327L161.307 3.172l1.374 6.142L5.204 44.47z"/>
        <path fill="url(#d)" d="M11.287 17.18l168.17.046.032 119.063-168.17-.046z" transform="rotate(-12.6 95.388 76.735)"/>
        <path fill="#F5F5F5" d="M5.203 44.473L162.68 9.318l23.714 105.951-157.477 35.156z"/>
        <ellipse cx="8.361" cy="40.54" fill="#FF5252" rx="1.666" ry="1.538" transform="rotate(-12.6 8.361 40.54)"/>
        <ellipse cx="12.836" cy="39.544" fill="#FF0" rx="1.666" ry="1.538" transform="rotate(-12.6 12.836 39.544)"/>
        <ellipse cx="17.308" cy="38.545" fill="#69F0AE" rx="1.666" ry="1.538" transform="rotate(-12.6 17.308 38.545)"/>
        <path fill="url(#e)" d="M16.527 36.179l144.877.04.011 39.339-144.878-.04z" transform="rotate(-12.6 88.97 55.868)"/>
        <path fill="#21262E" d="M15.984 53.62l138.348-30.886 7.961 35.573L23.946 89.192z"/>
        <path fill="url(#f)" d="M50.728 99.156l9.658.003.002 7.604-9.658-.003z" transform="rotate(-12.6 55.558 102.96)"/>
        <path fill="#21262E" d="M51.248 101.19l8.91-1.997 1.387 6.168-8.91 1.997z"/>
        <path fill="#FF5252" d="M52.893 111.213l8.873-1.98 1.375 6.142-8.873 1.98z"/>
        <path fill="#FF9800" d="M56.006 122.253l8.91-1.998 1.387 6.168-8.91 1.998z"/>
        <path fill="#21262E" d="M74.395 96.738l71.529-15.968.802 3.583-71.529 15.968zM76.743 107.232l71.53-15.968.801 3.583-71.529 15.968zM79.091 117.723l71.53-15.968.801 3.583-71.529 15.968z" opacity=".4"/>
        <path fill="#F5F5F5" d="M55 6h183v8H55z"/>
        <path fill="url(#g)" d="M51 4h191v146H51z"/>
        <path fill="#FFF" d="M55 14h183v133H55z"/>
        <circle cx="59" cy="10" r="2" fill="#FF5252"/>
        <circle cx="65" cy="10" r="2" fill="#FF0"/>
        <circle cx="70" cy="10" r="2" fill="#69F0AE"/>
        <path fill="url(#h)" d="M63 26h165v48H63z"/>
        <path fill="#21262E" d="M64 28h161v44H64z"/>
        <path fill="url(#i)" d="M91 93h11v10H91z"/>
        <path fill="#21262E" d="M91 94h10v8H91z"/>
        <path fill="#FF5252" d="M91 107h10v8H91z"/>
        <path fill="#FF9800" d="M91 119h10v8H91z"/>
        <path fill="#21262E" d="M119 95h83v5h-83zM119 108h83v5h-83zM119 121h83v5h-83z" opacity=".4"/>
        <path fill="url(#j)" d="M118 118h60v49h-60z"/>
        <path fill="url(#k)" d="M131.703 109.42c0-9.13 7.52-16.531 16.797-16.531 9.276 0 16.797 7.401 16.797 16.532V120h4.701v-10.58c.095-7.62-3.981-14.704-10.672-18.542a21.797 21.797 0 0 0-21.652 0c-6.69 3.838-10.767 10.921-10.672 18.543V120h4.701v-10.58z"/>
        <path fill="#FFF" d="M132.484 109.667c0-8.917 7.17-16.146 16.016-16.146 8.845 0 16.016 7.229 16.016 16.146V120H169v-10.333C169 98.253 159.822 89 148.5 89S128 98.253 128 109.667V120h4.484v-10.333z"/>
        <path fill="#21262E" d="M120 119h56v46h-56z"/>
        <path fill="#FFF" d="M120 119h56v46h-56z"/>
        <path fill="#21262E" d="M120 128h56v27h-56z"/>
        <path fill="url(#l)" d="M153 137.196c.008-1.88-1.187-3.534-2.921-4.04-1.734-.508-3.579.257-4.507 1.868-.928 1.61-.71 3.67.531 5.032v8.907c0 1.677 1.303 3.037 2.91 3.037 1.606 0 2.909-1.36 2.909-3.037v-8.907a4.258 4.258 0 0 0 1.078-2.86z"/>
        <path fill="#000" d="M152 137.525a3.516 3.516 0 0 0-2.557-3.395 3.492 3.492 0 0 0-3.939 1.57 3.533 3.533 0 0 0 .45 4.234v7.507A2.552 2.552 0 0 0 148.5 150a2.552 2.552 0 0 0 2.545-2.559v-7.507a3.529 3.529 0 0 0 .955-2.409z" opacity=".2"/>
    </g>
</svg>
