<?xml version="1.0" standalone="no"?>
<!DOCTYPE svg PUBLIC "-//W3C//DTD SVG 20010904//EN"
 "http://www.w3.org/TR/2001/REC-SVG-20010904/DTD/svg10.dtd">
<svg version="1.0" xmlns="http://www.w3.org/2000/svg"
 width="700.000000pt" height="700.000000pt" viewBox="0 0 700.000000 700.000000"
 preserveAspectRatio="xMidYMid meet">
<metadata>
Created by potrace 1.11, written by Peter Selinger 2001-2013
</metadata>
<g transform="translate(0.000000,700.000000) scale(0.100000,-0.100000)"
fill="#000000" stroke="none">
<path d="M3510 5168 c-274 -32 -472 -118 -637 -276 -114 -109 -236 -319 -254
-437 -1 -5 -5 -21 -10 -34 -18 -46 -29 -224 -15 -238 4 -5 135 -8 292 -9 324
-1 309 -5 318 86 14 149 89 256 226 323 63 31 69 32 190 32 104 -1 137 -5 195
-25 177 -60 275 -267 242 -508 -7 -45 -50 -160 -76 -202 -18 -29 -96 -133
-114 -152 -6 -7 -68 -78 -137 -158 -68 -80 -127 -147 -130 -150 -3 -3 -32 -36
-65 -75 -92 -107 -109 -127 -120 -139 -6 -6 -80 -92 -165 -191 -85 -99 -167
-193 -181 -210 -197 -224 -473 -553 -481 -574 -7 -16 -12 -126 -13 -291 l-2
-266 1044 1 c777 0 1046 3 1051 12 4 6 7 55 6 110 -1 118 -9 135 -94 218 -34
33 -82 88 -107 123 -25 34 -55 68 -67 74 -15 9 -164 12 -543 13 -287 0 -524 3
-528 6 -6 7 204 269 255 319 3 3 43 50 90 105 47 55 97 114 111 130 15 17 62
71 104 120 42 50 88 103 101 118 14 15 61 71 106 125 45 53 85 99 90 102 22
16 36 84 38 185 1 61 4 182 5 270 4 197 14 436 19 444 2 3 7 29 10 56 8 55 31
153 48 200 32 89 90 208 118 240 44 50 67 96 62 122 -12 62 -231 251 -348 299
-21 9 -52 22 -69 29 -144 63 -387 95 -565 73z"/>
<path d="M5498 5175 c-2 -2 -34 -5 -73 -9 -279 -26 -580 -168 -775 -366 -161
-164 -273 -399 -314 -660 -26 -162 -26 -1251 -1 -1435 39 -277 145 -495 331
-680 90 -90 176 -152 299 -216 189 -97 364 -140 590 -144 230 -3 400 32 606
126 58 27 113 49 121 49 8 0 79 -63 157 -140 118 -116 146 -139 158 -129 8 7
86 83 173 169 l160 157 -130 129 c-153 152 -160 166 -117 239 39 65 90 194
111 276 44 175 49 256 50 714 0 411 -8 807 -19 865 -2 14 -9 54 -14 90 -21
134 -104 331 -192 455 -58 82 -211 228 -303 290 -138 91 -344 175 -493 200
-18 3 -48 8 -65 11 -32 5 -255 13 -260 9z m192 -599 c140 -26 265 -98 347
-201 35 -44 89 -148 97 -186 44 -218 51 -292 50 -559 0 -189 -9 -515 -19 -724
-2 -37 -11 -97 -21 -133 l-18 -65 -40 43 c-23 24 -79 86 -126 137 l-84 94 -64
-69 c-35 -37 -110 -115 -166 -173 -56 -58 -107 -112 -114 -121 -11 -15 7 -36
134 -164 80 -80 144 -148 142 -150 -2 -3 -13 -6 -24 -8 -10 -2 -26 -7 -34 -10
-62 -25 -126 -35 -206 -32 -152 5 -280 58 -379 159 -100 100 -147 207 -160
366 -3 47 -8 107 -11 134 -14 177 -22 854 -10 961 3 33 8 89 12 124 16 196 65
318 167 421 127 127 338 190 527 156z"/>
<path d="M1291 5154 c-14 -10 -65 -102 -131 -238 -103 -213 -616 -1248 -910
-1836 -78 -157 -146 -290 -151 -296 -7 -8 -13 -374 -10 -576 l1 -38 713 0 714
0 -1 -232 c-1 -193 2 -235 14 -250 14 -16 39 -18 279 -19 252 -1 264 0 284 19
19 20 20 31 18 251 l-2 231 28 1 c15 0 85 1 156 1 l127 1 1 36 c1 45 1 522 0
536 -1 6 -53 10 -136 10 -75 0 -144 3 -155 7 -19 7 -20 18 -20 328 l0 320
-294 0 c-226 0 -295 -3 -298 -12 -2 -7 -3 -134 -2 -283 3 -316 1 -341 -29
-352 -28 -9 -717 -11 -717 -2 0 18 172 371 583 1199 187 377 396 800 464 940
69 140 127 258 130 263 2 4 -139 7 -314 7 -279 0 -321 -2 -342 -16z"/>
</g>
</svg>
